G04 #@! TF.GenerationSoftware,KiCad,Pcbnew,(5.0.0)*
G04 #@! TF.CreationDate,2018-09-08T04:15:37+09:00*
G04 #@! TF.ProjectId,macro4x4,6D6163726F3478342E6B696361645F70,rev?*
G04 #@! TF.SameCoordinates,Original*
G04 #@! TF.FileFunction,Soldermask,Top*
G04 #@! TF.FilePolarity,Negative*
%FSLAX46Y46*%
G04 Gerber Fmt 4.6, Leading zero omitted, Abs format (unit mm)*
G04 Created by KiCad (PCBNEW (5.0.0)) date 09/08/18 04:15:37*
%MOMM*%
%LPD*%
G01*
G04 APERTURE LIST*
%ADD10C,6.800000*%
%ADD11R,2.000000X2.000000*%
%ADD12O,2.000000X2.000000*%
%ADD13C,2.600000*%
%ADD14C,4.400000*%
%ADD15C,2.100000*%
%ADD16C,2.000000*%
%ADD17C,2.400000*%
G04 APERTURE END LIST*
D10*
G04 #@! TO.C,m4*
X135000000Y-145000000D03*
G04 #@! TD*
G04 #@! TO.C,m3*
X135000000Y-55000000D03*
G04 #@! TD*
G04 #@! TO.C,m2*
X45000000Y-145000000D03*
G04 #@! TD*
D11*
G04 #@! TO.C,D1*
X66950000Y-81915000D03*
D12*
X74570000Y-81915000D03*
G04 #@! TD*
G04 #@! TO.C,D2*
X93620000Y-81915000D03*
D11*
X86000000Y-81915000D03*
G04 #@! TD*
G04 #@! TO.C,D3*
X105050000Y-81915000D03*
D12*
X112670000Y-81915000D03*
G04 #@! TD*
D11*
G04 #@! TO.C,D4*
X124100000Y-81915000D03*
D12*
X131720000Y-81915000D03*
G04 #@! TD*
D11*
G04 #@! TO.C,D5*
X66950000Y-100965000D03*
D12*
X74570000Y-100965000D03*
G04 #@! TD*
D11*
G04 #@! TO.C,D6*
X86000000Y-100965000D03*
D12*
X93620000Y-100965000D03*
G04 #@! TD*
G04 #@! TO.C,D7*
X112670000Y-100965000D03*
D11*
X105050000Y-100965000D03*
G04 #@! TD*
D12*
G04 #@! TO.C,D8*
X131720000Y-100965000D03*
D11*
X124100000Y-100965000D03*
G04 #@! TD*
D12*
G04 #@! TO.C,D9*
X74570000Y-120015000D03*
D11*
X66950000Y-120015000D03*
G04 #@! TD*
D12*
G04 #@! TO.C,D10*
X93620000Y-120015000D03*
D11*
X86000000Y-120015000D03*
G04 #@! TD*
G04 #@! TO.C,D11*
X105050000Y-120015000D03*
D12*
X112670000Y-120015000D03*
G04 #@! TD*
D11*
G04 #@! TO.C,D12*
X124100000Y-120015000D03*
D12*
X131720000Y-120015000D03*
G04 #@! TD*
G04 #@! TO.C,D13*
X74570000Y-139065000D03*
D11*
X66950000Y-139065000D03*
G04 #@! TD*
G04 #@! TO.C,D14*
X86000000Y-139065000D03*
D12*
X93620000Y-139065000D03*
G04 #@! TD*
G04 #@! TO.C,D15*
X112670000Y-139065000D03*
D11*
X105050000Y-139065000D03*
G04 #@! TD*
D12*
G04 #@! TO.C,D16*
X131720000Y-139065000D03*
D11*
X124100000Y-139065000D03*
G04 #@! TD*
D13*
G04 #@! TO.C,SW1*
X73300000Y-67290000D03*
X66950000Y-69830000D03*
D14*
X70760000Y-72370000D03*
D15*
X65680000Y-72370000D03*
X75840000Y-72370000D03*
G04 #@! TD*
G04 #@! TO.C,SW2*
X94890000Y-72370000D03*
X84730000Y-72370000D03*
D14*
X89810000Y-72370000D03*
D13*
X86000000Y-69830000D03*
X92350000Y-67290000D03*
G04 #@! TD*
G04 #@! TO.C,SW3*
X111400000Y-67290000D03*
X105050000Y-69830000D03*
D14*
X108860000Y-72370000D03*
D15*
X103780000Y-72370000D03*
X113940000Y-72370000D03*
G04 #@! TD*
D13*
G04 #@! TO.C,SW4*
X130450000Y-67290000D03*
X124100000Y-69830000D03*
D14*
X127910000Y-72370000D03*
D15*
X122830000Y-72370000D03*
X132990000Y-72370000D03*
G04 #@! TD*
D13*
G04 #@! TO.C,SW5*
X73300000Y-86340000D03*
X66950000Y-88880000D03*
D14*
X70760000Y-91420000D03*
D15*
X65680000Y-91420000D03*
X75840000Y-91420000D03*
G04 #@! TD*
G04 #@! TO.C,SW6*
X94890000Y-91420000D03*
X84730000Y-91420000D03*
D14*
X89810000Y-91420000D03*
D13*
X86000000Y-88880000D03*
X92350000Y-86340000D03*
G04 #@! TD*
D15*
G04 #@! TO.C,SW7*
X113940000Y-91420000D03*
X103780000Y-91420000D03*
D14*
X108860000Y-91420000D03*
D13*
X105050000Y-88880000D03*
X111400000Y-86340000D03*
G04 #@! TD*
D15*
G04 #@! TO.C,SW8*
X132990000Y-91420000D03*
X122830000Y-91420000D03*
D14*
X127910000Y-91420000D03*
D13*
X124100000Y-88880000D03*
X130450000Y-86340000D03*
G04 #@! TD*
D15*
G04 #@! TO.C,SW9*
X75840000Y-110470000D03*
X65680000Y-110470000D03*
D14*
X70760000Y-110470000D03*
D13*
X66950000Y-107930000D03*
X73300000Y-105390000D03*
G04 #@! TD*
D15*
G04 #@! TO.C,SW10*
X94890000Y-110470000D03*
X84730000Y-110470000D03*
D14*
X89810000Y-110470000D03*
D13*
X86000000Y-107930000D03*
X92350000Y-105390000D03*
G04 #@! TD*
D15*
G04 #@! TO.C,SW11*
X113940000Y-110470000D03*
X103780000Y-110470000D03*
D14*
X108860000Y-110470000D03*
D13*
X105050000Y-107930000D03*
X111400000Y-105390000D03*
G04 #@! TD*
D15*
G04 #@! TO.C,SW12*
X132990000Y-110470000D03*
X122830000Y-110470000D03*
D14*
X127910000Y-110470000D03*
D13*
X124100000Y-107930000D03*
X130450000Y-105390000D03*
G04 #@! TD*
G04 #@! TO.C,SW13*
X73300000Y-124440000D03*
X66950000Y-126980000D03*
D14*
X70760000Y-129520000D03*
D15*
X65680000Y-129520000D03*
X75840000Y-129520000D03*
G04 #@! TD*
D13*
G04 #@! TO.C,SW14*
X92350000Y-124440000D03*
X86000000Y-126980000D03*
D14*
X89810000Y-129520000D03*
D15*
X84730000Y-129520000D03*
X94890000Y-129520000D03*
G04 #@! TD*
D13*
G04 #@! TO.C,SW15*
X111400000Y-124440000D03*
X105050000Y-126980000D03*
D14*
X108860000Y-129520000D03*
D15*
X103780000Y-129520000D03*
X113940000Y-129520000D03*
G04 #@! TD*
D13*
G04 #@! TO.C,SW16*
X130450000Y-124440000D03*
X124100000Y-126980000D03*
D14*
X127910000Y-129520000D03*
D15*
X122830000Y-129520000D03*
X132990000Y-129520000D03*
G04 #@! TD*
D11*
G04 #@! TO.C,U1*
X42380000Y-55030000D03*
D16*
X42380000Y-57570000D03*
X42380000Y-60110000D03*
X42380000Y-62650000D03*
X42380000Y-65190000D03*
X42380000Y-67730000D03*
X42380000Y-70270000D03*
X42380000Y-72810000D03*
X42380000Y-75350000D03*
X42380000Y-77890000D03*
X42380000Y-80430000D03*
X42380000Y-82970000D03*
X57620000Y-82970000D03*
X57620000Y-80430000D03*
X57620000Y-77890000D03*
X57620000Y-75350000D03*
X57620000Y-72810000D03*
X57620000Y-70270000D03*
X57620000Y-67730000D03*
X57620000Y-65190000D03*
X57620000Y-62650000D03*
X57620000Y-60110000D03*
X57620000Y-57570000D03*
X57620000Y-55030000D03*
G04 #@! TD*
D10*
G04 #@! TO.C,m1*
X65000000Y-55000000D03*
G04 #@! TD*
D17*
G04 #@! TO.C,RST_SW1*
X46000000Y-100500000D03*
X46000000Y-96000000D03*
X52500000Y-100500000D03*
X52500000Y-96000000D03*
G04 #@! TD*
M02*
