G04 #@! TF.GenerationSoftware,KiCad,Pcbnew,(5.0.0-3-g5ebb6b6)*
G04 #@! TF.CreationDate,2018-09-07T14:59:23+09:00*
G04 #@! TF.ProjectId,macro4x4,6D6163726F3478342E6B696361645F70,rev?*
G04 #@! TF.SameCoordinates,Original*
G04 #@! TF.FileFunction,Legend,Bot*
G04 #@! TF.FilePolarity,Positive*
%FSLAX46Y46*%
G04 Gerber Fmt 4.6, Leading zero omitted, Abs format (unit mm)*
G04 Created by KiCad (PCBNEW (5.0.0-3-g5ebb6b6)) date *
%MOMM*%
%LPD*%
G01*
G04 APERTURE LIST*
%ADD10C,0.300000*%
%ADD11C,0.150000*%
%ADD12C,6.800000*%
%ADD13R,2.000000X2.000000*%
%ADD14O,2.000000X2.000000*%
%ADD15C,2.600000*%
%ADD16C,4.400000*%
%ADD17C,2.100000*%
%ADD18C,2.000000*%
%ADD19C,2.400000*%
G04 APERTURE END LIST*
D10*
X106071428Y-55892857D02*
X106571428Y-55892857D01*
X106571428Y-56678571D02*
X106571428Y-55178571D01*
X105857142Y-55178571D01*
X104642857Y-55678571D02*
X104642857Y-56678571D01*
X105285714Y-55678571D02*
X105285714Y-56464285D01*
X105214285Y-56607142D01*
X105071428Y-56678571D01*
X104857142Y-56678571D01*
X104714285Y-56607142D01*
X104642857Y-56535714D01*
X103928571Y-56678571D02*
X103928571Y-55678571D01*
X103928571Y-55964285D02*
X103857142Y-55821428D01*
X103785714Y-55750000D01*
X103642857Y-55678571D01*
X103500000Y-55678571D01*
X102357142Y-55678571D02*
X102357142Y-56678571D01*
X103000000Y-55678571D02*
X103000000Y-56464285D01*
X102928571Y-56607142D01*
X102785714Y-56678571D01*
X102571428Y-56678571D01*
X102428571Y-56607142D01*
X102357142Y-56535714D01*
X101857142Y-55678571D02*
X101285714Y-55678571D01*
X101642857Y-56678571D02*
X101642857Y-55392857D01*
X101571428Y-55250000D01*
X101428571Y-55178571D01*
X101285714Y-55178571D01*
X100142857Y-55678571D02*
X100142857Y-56678571D01*
X100785714Y-55678571D02*
X100785714Y-56464285D01*
X100714285Y-56607142D01*
X100571428Y-56678571D01*
X100357142Y-56678571D01*
X100214285Y-56607142D01*
X100142857Y-56535714D01*
X99428571Y-56678571D02*
X99428571Y-55678571D01*
X99428571Y-55964285D02*
X99357142Y-55821428D01*
X99285714Y-55750000D01*
X99142857Y-55678571D01*
X98999999Y-55678571D01*
X97857142Y-55678571D02*
X97857142Y-56678571D01*
X98499999Y-55678571D02*
X98499999Y-56464285D01*
X98428571Y-56607142D01*
X98285714Y-56678571D01*
X98071428Y-56678571D01*
X97928571Y-56607142D01*
X97857142Y-56535714D01*
X95357142Y-55678571D02*
X95357142Y-56678571D01*
X95714285Y-55107142D02*
X96071428Y-56178571D01*
X95142857Y-56178571D01*
X94714285Y-56678571D02*
X93928571Y-55678571D01*
X94714285Y-55678571D02*
X93928571Y-56678571D01*
X92714285Y-55678571D02*
X92714285Y-56678571D01*
X93071428Y-55107142D02*
X93428571Y-56178571D01*
X92500000Y-56178571D01*
X90785714Y-56678571D02*
X90785714Y-55178571D01*
X90285714Y-56250000D01*
X89785714Y-55178571D01*
X89785714Y-56678571D01*
X88428571Y-56678571D02*
X88428571Y-55892857D01*
X88499999Y-55750000D01*
X88642857Y-55678571D01*
X88928571Y-55678571D01*
X89071428Y-55750000D01*
X88428571Y-56607142D02*
X88571428Y-56678571D01*
X88928571Y-56678571D01*
X89071428Y-56607142D01*
X89142857Y-56464285D01*
X89142857Y-56321428D01*
X89071428Y-56178571D01*
X88928571Y-56107142D01*
X88571428Y-56107142D01*
X88428571Y-56035714D01*
X87071428Y-56607142D02*
X87214285Y-56678571D01*
X87500000Y-56678571D01*
X87642857Y-56607142D01*
X87714285Y-56535714D01*
X87785714Y-56392857D01*
X87785714Y-55964285D01*
X87714285Y-55821428D01*
X87642857Y-55750000D01*
X87500000Y-55678571D01*
X87214285Y-55678571D01*
X87071428Y-55750000D01*
X86428571Y-56678571D02*
X86428571Y-55678571D01*
X86428571Y-55964285D02*
X86357142Y-55821428D01*
X86285714Y-55750000D01*
X86142857Y-55678571D01*
X86000000Y-55678571D01*
X85285714Y-56678571D02*
X85428571Y-56607142D01*
X85500000Y-56535714D01*
X85571428Y-56392857D01*
X85571428Y-55964285D01*
X85500000Y-55821428D01*
X85428571Y-55750000D01*
X85285714Y-55678571D01*
X85071428Y-55678571D01*
X84928571Y-55750000D01*
X84857142Y-55821428D01*
X84785714Y-55964285D01*
X84785714Y-56392857D01*
X84857142Y-56535714D01*
X84928571Y-56607142D01*
X85071428Y-56678571D01*
X85285714Y-56678571D01*
X83000000Y-56678571D02*
X83000000Y-55178571D01*
X82142857Y-56678571D02*
X82785714Y-55821428D01*
X82142857Y-55178571D02*
X83000000Y-56035714D01*
X80928571Y-56607142D02*
X81071428Y-56678571D01*
X81357142Y-56678571D01*
X81500000Y-56607142D01*
X81571428Y-56464285D01*
X81571428Y-55892857D01*
X81500000Y-55750000D01*
X81357142Y-55678571D01*
X81071428Y-55678571D01*
X80928571Y-55750000D01*
X80857142Y-55892857D01*
X80857142Y-56035714D01*
X81571428Y-56178571D01*
X80357142Y-55678571D02*
X80000000Y-56678571D01*
X79642857Y-55678571D02*
X80000000Y-56678571D01*
X80142857Y-57035714D01*
X80214285Y-57107142D01*
X80357142Y-57178571D01*
X79071428Y-56678571D02*
X79071428Y-55178571D01*
X79071428Y-55750000D02*
X78928571Y-55678571D01*
X78642857Y-55678571D01*
X78500000Y-55750000D01*
X78428571Y-55821428D01*
X78357142Y-55964285D01*
X78357142Y-56392857D01*
X78428571Y-56535714D01*
X78500000Y-56607142D01*
X78642857Y-56678571D01*
X78928571Y-56678571D01*
X79071428Y-56607142D01*
X77500000Y-56678571D02*
X77642857Y-56607142D01*
X77714285Y-56535714D01*
X77785714Y-56392857D01*
X77785714Y-55964285D01*
X77714285Y-55821428D01*
X77642857Y-55750000D01*
X77500000Y-55678571D01*
X77285714Y-55678571D01*
X77142857Y-55750000D01*
X77071428Y-55821428D01*
X77000000Y-55964285D01*
X77000000Y-56392857D01*
X77071428Y-56535714D01*
X77142857Y-56607142D01*
X77285714Y-56678571D01*
X77500000Y-56678571D01*
X75714285Y-56678571D02*
X75714285Y-55892857D01*
X75785714Y-55750000D01*
X75928571Y-55678571D01*
X76214285Y-55678571D01*
X76357142Y-55750000D01*
X75714285Y-56607142D02*
X75857142Y-56678571D01*
X76214285Y-56678571D01*
X76357142Y-56607142D01*
X76428571Y-56464285D01*
X76428571Y-56321428D01*
X76357142Y-56178571D01*
X76214285Y-56107142D01*
X75857142Y-56107142D01*
X75714285Y-56035714D01*
X75000000Y-56678571D02*
X75000000Y-55678571D01*
X75000000Y-55964285D02*
X74928571Y-55821428D01*
X74857142Y-55750000D01*
X74714285Y-55678571D01*
X74571428Y-55678571D01*
X73428571Y-56678571D02*
X73428571Y-55178571D01*
X73428571Y-56607142D02*
X73571428Y-56678571D01*
X73857142Y-56678571D01*
X74000000Y-56607142D01*
X74071428Y-56535714D01*
X74142857Y-56392857D01*
X74142857Y-55964285D01*
X74071428Y-55821428D01*
X74000000Y-55750000D01*
X73857142Y-55678571D01*
X73571428Y-55678571D01*
X73428571Y-55750000D01*
D11*
G04 #@! TO.C,U1*
X58890000Y-84240000D02*
X41110000Y-84240000D01*
X41110000Y-84240000D02*
X41110000Y-53760000D01*
X41110000Y-53760000D02*
X46190000Y-53760000D01*
X46190000Y-53760000D02*
X46190000Y-51220000D01*
X46190000Y-51220000D02*
X53810000Y-51220000D01*
X53810000Y-51220000D02*
X53810000Y-53760000D01*
X53810000Y-53760000D02*
X58890000Y-53760000D01*
X58890000Y-53760000D02*
X58890000Y-84240000D01*
G04 #@! TD*
%LPC*%
D12*
G04 #@! TO.C,m4*
X135000000Y-145000000D03*
G04 #@! TD*
G04 #@! TO.C,m3*
X135000000Y-55000000D03*
G04 #@! TD*
G04 #@! TO.C,m2*
X45000000Y-145000000D03*
G04 #@! TD*
D13*
G04 #@! TO.C,D1*
X66950000Y-81915000D03*
D14*
X74570000Y-81915000D03*
G04 #@! TD*
G04 #@! TO.C,D2*
X93620000Y-81915000D03*
D13*
X86000000Y-81915000D03*
G04 #@! TD*
G04 #@! TO.C,D3*
X105050000Y-81915000D03*
D14*
X112670000Y-81915000D03*
G04 #@! TD*
D13*
G04 #@! TO.C,D4*
X124100000Y-81915000D03*
D14*
X131720000Y-81915000D03*
G04 #@! TD*
D13*
G04 #@! TO.C,D5*
X66950000Y-100965000D03*
D14*
X74570000Y-100965000D03*
G04 #@! TD*
D13*
G04 #@! TO.C,D6*
X86000000Y-100965000D03*
D14*
X93620000Y-100965000D03*
G04 #@! TD*
G04 #@! TO.C,D7*
X112670000Y-100965000D03*
D13*
X105050000Y-100965000D03*
G04 #@! TD*
D14*
G04 #@! TO.C,D8*
X131720000Y-100965000D03*
D13*
X124100000Y-100965000D03*
G04 #@! TD*
D14*
G04 #@! TO.C,D9*
X74570000Y-120015000D03*
D13*
X66950000Y-120015000D03*
G04 #@! TD*
D14*
G04 #@! TO.C,D10*
X93620000Y-120015000D03*
D13*
X86000000Y-120015000D03*
G04 #@! TD*
G04 #@! TO.C,D11*
X105050000Y-120015000D03*
D14*
X112670000Y-120015000D03*
G04 #@! TD*
D13*
G04 #@! TO.C,D12*
X124100000Y-120015000D03*
D14*
X131720000Y-120015000D03*
G04 #@! TD*
G04 #@! TO.C,D13*
X74570000Y-139065000D03*
D13*
X66950000Y-139065000D03*
G04 #@! TD*
G04 #@! TO.C,D14*
X86000000Y-139065000D03*
D14*
X93620000Y-139065000D03*
G04 #@! TD*
G04 #@! TO.C,D15*
X112670000Y-139065000D03*
D13*
X105050000Y-139065000D03*
G04 #@! TD*
D14*
G04 #@! TO.C,D16*
X131720000Y-139065000D03*
D13*
X124100000Y-139065000D03*
G04 #@! TD*
D15*
G04 #@! TO.C,SW1*
X73300000Y-67290000D03*
X66950000Y-69830000D03*
D16*
X70760000Y-72370000D03*
D17*
X65680000Y-72370000D03*
X75840000Y-72370000D03*
G04 #@! TD*
G04 #@! TO.C,SW2*
X94890000Y-72370000D03*
X84730000Y-72370000D03*
D16*
X89810000Y-72370000D03*
D15*
X86000000Y-69830000D03*
X92350000Y-67290000D03*
G04 #@! TD*
G04 #@! TO.C,SW3*
X111400000Y-67290000D03*
X105050000Y-69830000D03*
D16*
X108860000Y-72370000D03*
D17*
X103780000Y-72370000D03*
X113940000Y-72370000D03*
G04 #@! TD*
D15*
G04 #@! TO.C,SW4*
X130450000Y-67290000D03*
X124100000Y-69830000D03*
D16*
X127910000Y-72370000D03*
D17*
X122830000Y-72370000D03*
X132990000Y-72370000D03*
G04 #@! TD*
D15*
G04 #@! TO.C,SW5*
X73300000Y-86340000D03*
X66950000Y-88880000D03*
D16*
X70760000Y-91420000D03*
D17*
X65680000Y-91420000D03*
X75840000Y-91420000D03*
G04 #@! TD*
G04 #@! TO.C,SW6*
X94890000Y-91420000D03*
X84730000Y-91420000D03*
D16*
X89810000Y-91420000D03*
D15*
X86000000Y-88880000D03*
X92350000Y-86340000D03*
G04 #@! TD*
D17*
G04 #@! TO.C,SW7*
X113940000Y-91420000D03*
X103780000Y-91420000D03*
D16*
X108860000Y-91420000D03*
D15*
X105050000Y-88880000D03*
X111400000Y-86340000D03*
G04 #@! TD*
D17*
G04 #@! TO.C,SW8*
X132990000Y-91420000D03*
X122830000Y-91420000D03*
D16*
X127910000Y-91420000D03*
D15*
X124100000Y-88880000D03*
X130450000Y-86340000D03*
G04 #@! TD*
D17*
G04 #@! TO.C,SW9*
X75840000Y-110470000D03*
X65680000Y-110470000D03*
D16*
X70760000Y-110470000D03*
D15*
X66950000Y-107930000D03*
X73300000Y-105390000D03*
G04 #@! TD*
D17*
G04 #@! TO.C,SW10*
X94890000Y-110470000D03*
X84730000Y-110470000D03*
D16*
X89810000Y-110470000D03*
D15*
X86000000Y-107930000D03*
X92350000Y-105390000D03*
G04 #@! TD*
D17*
G04 #@! TO.C,SW11*
X113940000Y-110470000D03*
X103780000Y-110470000D03*
D16*
X108860000Y-110470000D03*
D15*
X105050000Y-107930000D03*
X111400000Y-105390000D03*
G04 #@! TD*
D17*
G04 #@! TO.C,SW12*
X132990000Y-110470000D03*
X122830000Y-110470000D03*
D16*
X127910000Y-110470000D03*
D15*
X124100000Y-107930000D03*
X130450000Y-105390000D03*
G04 #@! TD*
G04 #@! TO.C,SW13*
X73300000Y-124440000D03*
X66950000Y-126980000D03*
D16*
X70760000Y-129520000D03*
D17*
X65680000Y-129520000D03*
X75840000Y-129520000D03*
G04 #@! TD*
D15*
G04 #@! TO.C,SW14*
X92350000Y-124440000D03*
X86000000Y-126980000D03*
D16*
X89810000Y-129520000D03*
D17*
X84730000Y-129520000D03*
X94890000Y-129520000D03*
G04 #@! TD*
D15*
G04 #@! TO.C,SW15*
X111400000Y-124440000D03*
X105050000Y-126980000D03*
D16*
X108860000Y-129520000D03*
D17*
X103780000Y-129520000D03*
X113940000Y-129520000D03*
G04 #@! TD*
D15*
G04 #@! TO.C,SW16*
X130450000Y-124440000D03*
X124100000Y-126980000D03*
D16*
X127910000Y-129520000D03*
D17*
X122830000Y-129520000D03*
X132990000Y-129520000D03*
G04 #@! TD*
D13*
G04 #@! TO.C,U1*
X42380000Y-55030000D03*
D18*
X42380000Y-57570000D03*
X42380000Y-60110000D03*
X42380000Y-62650000D03*
X42380000Y-65190000D03*
X42380000Y-67730000D03*
X42380000Y-70270000D03*
X42380000Y-72810000D03*
X42380000Y-75350000D03*
X42380000Y-77890000D03*
X42380000Y-80430000D03*
X42380000Y-82970000D03*
X57620000Y-82970000D03*
X57620000Y-80430000D03*
X57620000Y-77890000D03*
X57620000Y-75350000D03*
X57620000Y-72810000D03*
X57620000Y-70270000D03*
X57620000Y-67730000D03*
X57620000Y-65190000D03*
X57620000Y-62650000D03*
X57620000Y-60110000D03*
X57620000Y-57570000D03*
X57620000Y-55030000D03*
G04 #@! TD*
D12*
G04 #@! TO.C,m1*
X65000000Y-55000000D03*
G04 #@! TD*
D19*
G04 #@! TO.C,RST_SW1*
X46000000Y-100500000D03*
X46000000Y-96000000D03*
X52500000Y-100500000D03*
X52500000Y-96000000D03*
G04 #@! TD*
M02*
