G04 #@! TF.GenerationSoftware,KiCad,Pcbnew,(5.0.0)*
G04 #@! TF.CreationDate,2018-09-08T04:15:37+09:00*
G04 #@! TF.ProjectId,macro4x4,6D6163726F3478342E6B696361645F70,rev?*
G04 #@! TF.SameCoordinates,Original*
G04 #@! TF.FileFunction,Copper,L1,Top,Signal*
G04 #@! TF.FilePolarity,Positive*
%FSLAX46Y46*%
G04 Gerber Fmt 4.6, Leading zero omitted, Abs format (unit mm)*
G04 Created by KiCad (PCBNEW (5.0.0)) date 09/08/18 04:15:37*
%MOMM*%
%LPD*%
G01*
G04 APERTURE LIST*
G04 #@! TA.AperFunction,ComponentPad*
%ADD10C,6.400000*%
G04 #@! TD*
G04 #@! TA.AperFunction,ComponentPad*
%ADD11R,1.600000X1.600000*%
G04 #@! TD*
G04 #@! TA.AperFunction,ComponentPad*
%ADD12O,1.600000X1.600000*%
G04 #@! TD*
G04 #@! TA.AperFunction,ComponentPad*
%ADD13C,2.200000*%
G04 #@! TD*
G04 #@! TA.AperFunction,ComponentPad*
%ADD14C,1.600000*%
G04 #@! TD*
G04 #@! TA.AperFunction,ComponentPad*
%ADD15C,2.000000*%
G04 #@! TD*
G04 #@! TA.AperFunction,Conductor*
%ADD16C,0.800000*%
G04 #@! TD*
G04 #@! TA.AperFunction,Conductor*
%ADD17C,0.254000*%
G04 #@! TD*
G04 APERTURE END LIST*
D10*
G04 #@! TO.P,m4,1*
G04 #@! TO.N,N/C*
X135000000Y-145000000D03*
G04 #@! TD*
G04 #@! TO.P,m3,1*
G04 #@! TO.N,N/C*
X135000000Y-55000000D03*
G04 #@! TD*
G04 #@! TO.P,m2,1*
G04 #@! TO.N,N/C*
X45000000Y-145000000D03*
G04 #@! TD*
D11*
G04 #@! TO.P,D1,1*
G04 #@! TO.N,Net-(D1-Pad1)*
X66950000Y-81915000D03*
D12*
G04 #@! TO.P,D1,2*
G04 #@! TO.N,COL0*
X74570000Y-81915000D03*
G04 #@! TD*
G04 #@! TO.P,D2,2*
G04 #@! TO.N,COL1*
X93620000Y-81915000D03*
D11*
G04 #@! TO.P,D2,1*
G04 #@! TO.N,Net-(D2-Pad1)*
X86000000Y-81915000D03*
G04 #@! TD*
G04 #@! TO.P,D3,1*
G04 #@! TO.N,Net-(D3-Pad1)*
X105050000Y-81915000D03*
D12*
G04 #@! TO.P,D3,2*
G04 #@! TO.N,COL2*
X112670000Y-81915000D03*
G04 #@! TD*
D11*
G04 #@! TO.P,D4,1*
G04 #@! TO.N,Net-(D4-Pad1)*
X124100000Y-81915000D03*
D12*
G04 #@! TO.P,D4,2*
G04 #@! TO.N,COL3*
X131720000Y-81915000D03*
G04 #@! TD*
D11*
G04 #@! TO.P,D5,1*
G04 #@! TO.N,Net-(D5-Pad1)*
X66950000Y-100965000D03*
D12*
G04 #@! TO.P,D5,2*
G04 #@! TO.N,COL0*
X74570000Y-100965000D03*
G04 #@! TD*
D11*
G04 #@! TO.P,D6,1*
G04 #@! TO.N,Net-(D6-Pad1)*
X86000000Y-100965000D03*
D12*
G04 #@! TO.P,D6,2*
G04 #@! TO.N,COL1*
X93620000Y-100965000D03*
G04 #@! TD*
G04 #@! TO.P,D7,2*
G04 #@! TO.N,COL2*
X112670000Y-100965000D03*
D11*
G04 #@! TO.P,D7,1*
G04 #@! TO.N,Net-(D7-Pad1)*
X105050000Y-100965000D03*
G04 #@! TD*
D12*
G04 #@! TO.P,D8,2*
G04 #@! TO.N,COL3*
X131720000Y-100965000D03*
D11*
G04 #@! TO.P,D8,1*
G04 #@! TO.N,Net-(D8-Pad1)*
X124100000Y-100965000D03*
G04 #@! TD*
D12*
G04 #@! TO.P,D9,2*
G04 #@! TO.N,COL0*
X74570000Y-120015000D03*
D11*
G04 #@! TO.P,D9,1*
G04 #@! TO.N,Net-(D9-Pad1)*
X66950000Y-120015000D03*
G04 #@! TD*
D12*
G04 #@! TO.P,D10,2*
G04 #@! TO.N,COL1*
X93620000Y-120015000D03*
D11*
G04 #@! TO.P,D10,1*
G04 #@! TO.N,Net-(D10-Pad1)*
X86000000Y-120015000D03*
G04 #@! TD*
G04 #@! TO.P,D11,1*
G04 #@! TO.N,Net-(D11-Pad1)*
X105050000Y-120015000D03*
D12*
G04 #@! TO.P,D11,2*
G04 #@! TO.N,COL2*
X112670000Y-120015000D03*
G04 #@! TD*
D11*
G04 #@! TO.P,D12,1*
G04 #@! TO.N,Net-(D12-Pad1)*
X124100000Y-120015000D03*
D12*
G04 #@! TO.P,D12,2*
G04 #@! TO.N,COL3*
X131720000Y-120015000D03*
G04 #@! TD*
G04 #@! TO.P,D13,2*
G04 #@! TO.N,COL0*
X74570000Y-139065000D03*
D11*
G04 #@! TO.P,D13,1*
G04 #@! TO.N,Net-(D13-Pad1)*
X66950000Y-139065000D03*
G04 #@! TD*
G04 #@! TO.P,D14,1*
G04 #@! TO.N,Net-(D14-Pad1)*
X86000000Y-139065000D03*
D12*
G04 #@! TO.P,D14,2*
G04 #@! TO.N,COL1*
X93620000Y-139065000D03*
G04 #@! TD*
G04 #@! TO.P,D15,2*
G04 #@! TO.N,COL2*
X112670000Y-139065000D03*
D11*
G04 #@! TO.P,D15,1*
G04 #@! TO.N,Net-(D15-Pad1)*
X105050000Y-139065000D03*
G04 #@! TD*
D12*
G04 #@! TO.P,D16,2*
G04 #@! TO.N,COL3*
X131720000Y-139065000D03*
D11*
G04 #@! TO.P,D16,1*
G04 #@! TO.N,Net-(D16-Pad1)*
X124100000Y-139065000D03*
G04 #@! TD*
D13*
G04 #@! TO.P,SW1,1*
G04 #@! TO.N,ROW0*
X73300000Y-67290000D03*
G04 #@! TO.P,SW1,2*
G04 #@! TO.N,Net-(D1-Pad1)*
X66950000Y-69830000D03*
G04 #@! TD*
G04 #@! TO.P,SW2,2*
G04 #@! TO.N,Net-(D2-Pad1)*
X86000000Y-69830000D03*
G04 #@! TO.P,SW2,1*
G04 #@! TO.N,ROW0*
X92350000Y-67290000D03*
G04 #@! TD*
G04 #@! TO.P,SW3,1*
G04 #@! TO.N,ROW0*
X111400000Y-67290000D03*
G04 #@! TO.P,SW3,2*
G04 #@! TO.N,Net-(D3-Pad1)*
X105050000Y-69830000D03*
G04 #@! TD*
G04 #@! TO.P,SW4,1*
G04 #@! TO.N,ROW0*
X130450000Y-67290000D03*
G04 #@! TO.P,SW4,2*
G04 #@! TO.N,Net-(D4-Pad1)*
X124100000Y-69830000D03*
G04 #@! TD*
G04 #@! TO.P,SW5,1*
G04 #@! TO.N,ROW1*
X73300000Y-86340000D03*
G04 #@! TO.P,SW5,2*
G04 #@! TO.N,Net-(D5-Pad1)*
X66950000Y-88880000D03*
G04 #@! TD*
G04 #@! TO.P,SW6,2*
G04 #@! TO.N,Net-(D6-Pad1)*
X86000000Y-88880000D03*
G04 #@! TO.P,SW6,1*
G04 #@! TO.N,ROW1*
X92350000Y-86340000D03*
G04 #@! TD*
G04 #@! TO.P,SW7,2*
G04 #@! TO.N,Net-(D7-Pad1)*
X105050000Y-88880000D03*
G04 #@! TO.P,SW7,1*
G04 #@! TO.N,ROW1*
X111400000Y-86340000D03*
G04 #@! TD*
G04 #@! TO.P,SW8,2*
G04 #@! TO.N,Net-(D8-Pad1)*
X124100000Y-88880000D03*
G04 #@! TO.P,SW8,1*
G04 #@! TO.N,ROW1*
X130450000Y-86340000D03*
G04 #@! TD*
G04 #@! TO.P,SW9,2*
G04 #@! TO.N,Net-(D9-Pad1)*
X66950000Y-107930000D03*
G04 #@! TO.P,SW9,1*
G04 #@! TO.N,ROW2*
X73300000Y-105390000D03*
G04 #@! TD*
G04 #@! TO.P,SW10,2*
G04 #@! TO.N,Net-(D10-Pad1)*
X86000000Y-107930000D03*
G04 #@! TO.P,SW10,1*
G04 #@! TO.N,ROW2*
X92350000Y-105390000D03*
G04 #@! TD*
G04 #@! TO.P,SW11,2*
G04 #@! TO.N,Net-(D11-Pad1)*
X105050000Y-107930000D03*
G04 #@! TO.P,SW11,1*
G04 #@! TO.N,ROW2*
X111400000Y-105390000D03*
G04 #@! TD*
G04 #@! TO.P,SW12,2*
G04 #@! TO.N,Net-(D12-Pad1)*
X124100000Y-107930000D03*
G04 #@! TO.P,SW12,1*
G04 #@! TO.N,ROW2*
X130450000Y-105390000D03*
G04 #@! TD*
G04 #@! TO.P,SW13,1*
G04 #@! TO.N,ROW3*
X73300000Y-124440000D03*
G04 #@! TO.P,SW13,2*
G04 #@! TO.N,Net-(D13-Pad1)*
X66950000Y-126980000D03*
G04 #@! TD*
G04 #@! TO.P,SW14,1*
G04 #@! TO.N,ROW3*
X92350000Y-124440000D03*
G04 #@! TO.P,SW14,2*
G04 #@! TO.N,Net-(D14-Pad1)*
X86000000Y-126980000D03*
G04 #@! TD*
G04 #@! TO.P,SW15,1*
G04 #@! TO.N,ROW3*
X111400000Y-124440000D03*
G04 #@! TO.P,SW15,2*
G04 #@! TO.N,Net-(D15-Pad1)*
X105050000Y-126980000D03*
G04 #@! TD*
G04 #@! TO.P,SW16,1*
G04 #@! TO.N,ROW3*
X130450000Y-124440000D03*
G04 #@! TO.P,SW16,2*
G04 #@! TO.N,Net-(D16-Pad1)*
X124100000Y-126980000D03*
G04 #@! TD*
D11*
G04 #@! TO.P,U1,1*
G04 #@! TO.N,Net-(U1-Pad1)*
X42380000Y-55030000D03*
D14*
G04 #@! TO.P,U1,2*
G04 #@! TO.N,Net-(U1-Pad2)*
X42380000Y-57570000D03*
G04 #@! TO.P,U1,3*
G04 #@! TO.N,GND*
X42380000Y-60110000D03*
G04 #@! TO.P,U1,4*
X42380000Y-62650000D03*
G04 #@! TO.P,U1,5*
G04 #@! TO.N,Net-(U1-Pad5)*
X42380000Y-65190000D03*
G04 #@! TO.P,U1,6*
G04 #@! TO.N,Net-(U1-Pad6)*
X42380000Y-67730000D03*
G04 #@! TO.P,U1,7*
G04 #@! TO.N,Net-(U1-Pad7)*
X42380000Y-70270000D03*
G04 #@! TO.P,U1,8*
G04 #@! TO.N,Net-(U1-Pad8)*
X42380000Y-72810000D03*
G04 #@! TO.P,U1,9*
G04 #@! TO.N,Net-(U1-Pad9)*
X42380000Y-75350000D03*
G04 #@! TO.P,U1,10*
G04 #@! TO.N,Net-(U1-Pad10)*
X42380000Y-77890000D03*
G04 #@! TO.P,U1,11*
G04 #@! TO.N,Net-(U1-Pad11)*
X42380000Y-80430000D03*
G04 #@! TO.P,U1,12*
G04 #@! TO.N,Net-(U1-Pad12)*
X42380000Y-82970000D03*
G04 #@! TO.P,U1,13*
G04 #@! TO.N,COL3*
X57620000Y-82970000D03*
G04 #@! TO.P,U1,14*
G04 #@! TO.N,COL2*
X57620000Y-80430000D03*
G04 #@! TO.P,U1,15*
G04 #@! TO.N,COL1*
X57620000Y-77890000D03*
G04 #@! TO.P,U1,16*
G04 #@! TO.N,COL0*
X57620000Y-75350000D03*
G04 #@! TO.P,U1,17*
G04 #@! TO.N,ROW3*
X57620000Y-72810000D03*
G04 #@! TO.P,U1,18*
G04 #@! TO.N,ROW2*
X57620000Y-70270000D03*
G04 #@! TO.P,U1,19*
G04 #@! TO.N,ROW1*
X57620000Y-67730000D03*
G04 #@! TO.P,U1,20*
G04 #@! TO.N,ROW0*
X57620000Y-65190000D03*
G04 #@! TO.P,U1,21*
G04 #@! TO.N,Net-(U1-Pad21)*
X57620000Y-62650000D03*
G04 #@! TO.P,U1,22*
G04 #@! TO.N,Net-(RST_SW1-Pad1)*
X57620000Y-60110000D03*
G04 #@! TO.P,U1,23*
G04 #@! TO.N,GND*
X57620000Y-57570000D03*
G04 #@! TO.P,U1,24*
G04 #@! TO.N,Net-(U1-Pad24)*
X57620000Y-55030000D03*
G04 #@! TD*
D10*
G04 #@! TO.P,m1,1*
G04 #@! TO.N,N/C*
X65000000Y-55000000D03*
G04 #@! TD*
D15*
G04 #@! TO.P,RST_SW1,2*
G04 #@! TO.N,GND*
X46000000Y-100500000D03*
G04 #@! TO.P,RST_SW1,1*
G04 #@! TO.N,Net-(RST_SW1-Pad1)*
X46000000Y-96000000D03*
G04 #@! TO.P,RST_SW1,2*
G04 #@! TO.N,GND*
X52500000Y-100500000D03*
G04 #@! TO.P,RST_SW1,1*
G04 #@! TO.N,Net-(RST_SW1-Pad1)*
X52500000Y-96000000D03*
G04 #@! TD*
D16*
G04 #@! TO.N,COL0*
X74570000Y-81915000D02*
X72969700Y-81915000D01*
X57620000Y-75350000D02*
X66404700Y-75350000D01*
X66404700Y-75350000D02*
X72969700Y-81915000D01*
G04 #@! TO.N,COL1*
X93620000Y-81915000D02*
X92019700Y-81915000D01*
X57620000Y-77890000D02*
X63245400Y-83515400D01*
X63245400Y-83515400D02*
X90419300Y-83515400D01*
X90419300Y-83515400D02*
X92019700Y-81915000D01*
G04 #@! TO.N,Net-(D9-Pad1)*
X66950000Y-120015000D02*
X66950000Y-118414700D01*
X66950000Y-107930000D02*
X67384400Y-108364400D01*
X67384400Y-108364400D02*
X67384400Y-117980300D01*
X67384400Y-117980300D02*
X66950000Y-118414700D01*
G04 #@! TO.N,COL2*
X112670000Y-100965000D02*
X111069700Y-100965000D01*
X57620000Y-80430000D02*
X63075400Y-85885400D01*
X63075400Y-85885400D02*
X69185900Y-85885400D01*
X69185900Y-85885400D02*
X71936000Y-88635500D01*
X71936000Y-88635500D02*
X77371300Y-88635500D01*
X77371300Y-88635500D02*
X87251400Y-98515600D01*
X87251400Y-98515600D02*
X108620300Y-98515600D01*
X108620300Y-98515600D02*
X111069700Y-100965000D01*
G04 #@! TO.N,COL3*
X130119700Y-100965000D02*
X128519300Y-102565400D01*
X128519300Y-102565400D02*
X79992100Y-102565400D01*
X79992100Y-102565400D02*
X75798300Y-98371600D01*
X75798300Y-98371600D02*
X70289500Y-98371600D01*
X70289500Y-98371600D02*
X57620000Y-85702100D01*
X57620000Y-85702100D02*
X57620000Y-82970000D01*
X131720000Y-100965000D02*
X130119700Y-100965000D01*
G04 #@! TO.N,ROW0*
X73300000Y-67290000D02*
X92350000Y-67290000D01*
X57620000Y-65190000D02*
X71200000Y-65190000D01*
X71200000Y-65190000D02*
X73300000Y-67290000D01*
X111400000Y-67290000D02*
X92350000Y-67290000D01*
X130450000Y-67290000D02*
X111400000Y-67290000D01*
G04 #@! TO.N,ROW1*
X92350000Y-86340000D02*
X73300000Y-86340000D01*
X111400000Y-86340000D02*
X92350000Y-86340000D01*
X130450000Y-86340000D02*
X111400000Y-86340000D01*
G04 #@! TO.N,ROW2*
X57620000Y-70270000D02*
X56018500Y-71871500D01*
X56018500Y-71871500D02*
X56018500Y-86719200D01*
X56018500Y-86719200D02*
X73300000Y-104000700D01*
X73300000Y-104000700D02*
X73300000Y-105390000D01*
X92350000Y-105390000D02*
X73300000Y-105390000D01*
X111400000Y-105390000D02*
X92350000Y-105390000D01*
X130450000Y-105390000D02*
X111400000Y-105390000D01*
G04 #@! TO.N,ROW3*
X92350000Y-124440000D02*
X73300000Y-124440000D01*
X111400000Y-124440000D02*
X92350000Y-124440000D01*
X130450000Y-124440000D02*
X111400000Y-124440000D01*
G04 #@! TO.N,Net-(RST_SW1-Pad1)*
X52500000Y-96000000D02*
X52500000Y-65230000D01*
X52500000Y-65230000D02*
X57620000Y-60110000D01*
X52500000Y-96000000D02*
X46000000Y-96000000D01*
G04 #@! TD*
D17*
G04 #@! TO.N,GND*
G36*
X139290001Y-149290000D02*
X40710000Y-149290000D01*
X40710000Y-144237171D01*
X41165000Y-144237171D01*
X41165000Y-145762829D01*
X41748844Y-147172353D01*
X42827647Y-148251156D01*
X44237171Y-148835000D01*
X45762829Y-148835000D01*
X47172353Y-148251156D01*
X48251156Y-147172353D01*
X48835000Y-145762829D01*
X48835000Y-144237171D01*
X131165000Y-144237171D01*
X131165000Y-145762829D01*
X131748844Y-147172353D01*
X132827647Y-148251156D01*
X134237171Y-148835000D01*
X135762829Y-148835000D01*
X137172353Y-148251156D01*
X138251156Y-147172353D01*
X138835000Y-145762829D01*
X138835000Y-144237171D01*
X138251156Y-142827647D01*
X137172353Y-141748844D01*
X135762829Y-141165000D01*
X134237171Y-141165000D01*
X132827647Y-141748844D01*
X131748844Y-142827647D01*
X131165000Y-144237171D01*
X48835000Y-144237171D01*
X48251156Y-142827647D01*
X47172353Y-141748844D01*
X45762829Y-141165000D01*
X44237171Y-141165000D01*
X42827647Y-141748844D01*
X41748844Y-142827647D01*
X41165000Y-144237171D01*
X40710000Y-144237171D01*
X40710000Y-138265000D01*
X65502560Y-138265000D01*
X65502560Y-139865000D01*
X65551843Y-140112765D01*
X65692191Y-140322809D01*
X65902235Y-140463157D01*
X66150000Y-140512440D01*
X67750000Y-140512440D01*
X67997765Y-140463157D01*
X68207809Y-140322809D01*
X68348157Y-140112765D01*
X68397440Y-139865000D01*
X68397440Y-139065000D01*
X73106887Y-139065000D01*
X73218260Y-139624909D01*
X73535423Y-140099577D01*
X74010091Y-140416740D01*
X74428667Y-140500000D01*
X74711333Y-140500000D01*
X75129909Y-140416740D01*
X75604577Y-140099577D01*
X75921740Y-139624909D01*
X76033113Y-139065000D01*
X75921740Y-138505091D01*
X75761317Y-138265000D01*
X84552560Y-138265000D01*
X84552560Y-139865000D01*
X84601843Y-140112765D01*
X84742191Y-140322809D01*
X84952235Y-140463157D01*
X85200000Y-140512440D01*
X86800000Y-140512440D01*
X87047765Y-140463157D01*
X87257809Y-140322809D01*
X87398157Y-140112765D01*
X87447440Y-139865000D01*
X87447440Y-139065000D01*
X92156887Y-139065000D01*
X92268260Y-139624909D01*
X92585423Y-140099577D01*
X93060091Y-140416740D01*
X93478667Y-140500000D01*
X93761333Y-140500000D01*
X94179909Y-140416740D01*
X94654577Y-140099577D01*
X94971740Y-139624909D01*
X95083113Y-139065000D01*
X94971740Y-138505091D01*
X94811317Y-138265000D01*
X103602560Y-138265000D01*
X103602560Y-139865000D01*
X103651843Y-140112765D01*
X103792191Y-140322809D01*
X104002235Y-140463157D01*
X104250000Y-140512440D01*
X105850000Y-140512440D01*
X106097765Y-140463157D01*
X106307809Y-140322809D01*
X106448157Y-140112765D01*
X106497440Y-139865000D01*
X106497440Y-139065000D01*
X111206887Y-139065000D01*
X111318260Y-139624909D01*
X111635423Y-140099577D01*
X112110091Y-140416740D01*
X112528667Y-140500000D01*
X112811333Y-140500000D01*
X113229909Y-140416740D01*
X113704577Y-140099577D01*
X114021740Y-139624909D01*
X114133113Y-139065000D01*
X114021740Y-138505091D01*
X113861317Y-138265000D01*
X122652560Y-138265000D01*
X122652560Y-139865000D01*
X122701843Y-140112765D01*
X122842191Y-140322809D01*
X123052235Y-140463157D01*
X123300000Y-140512440D01*
X124900000Y-140512440D01*
X125147765Y-140463157D01*
X125357809Y-140322809D01*
X125498157Y-140112765D01*
X125547440Y-139865000D01*
X125547440Y-139065000D01*
X130256887Y-139065000D01*
X130368260Y-139624909D01*
X130685423Y-140099577D01*
X131160091Y-140416740D01*
X131578667Y-140500000D01*
X131861333Y-140500000D01*
X132279909Y-140416740D01*
X132754577Y-140099577D01*
X133071740Y-139624909D01*
X133183113Y-139065000D01*
X133071740Y-138505091D01*
X132754577Y-138030423D01*
X132279909Y-137713260D01*
X131861333Y-137630000D01*
X131578667Y-137630000D01*
X131160091Y-137713260D01*
X130685423Y-138030423D01*
X130368260Y-138505091D01*
X130256887Y-139065000D01*
X125547440Y-139065000D01*
X125547440Y-138265000D01*
X125498157Y-138017235D01*
X125357809Y-137807191D01*
X125147765Y-137666843D01*
X124900000Y-137617560D01*
X123300000Y-137617560D01*
X123052235Y-137666843D01*
X122842191Y-137807191D01*
X122701843Y-138017235D01*
X122652560Y-138265000D01*
X113861317Y-138265000D01*
X113704577Y-138030423D01*
X113229909Y-137713260D01*
X112811333Y-137630000D01*
X112528667Y-137630000D01*
X112110091Y-137713260D01*
X111635423Y-138030423D01*
X111318260Y-138505091D01*
X111206887Y-139065000D01*
X106497440Y-139065000D01*
X106497440Y-138265000D01*
X106448157Y-138017235D01*
X106307809Y-137807191D01*
X106097765Y-137666843D01*
X105850000Y-137617560D01*
X104250000Y-137617560D01*
X104002235Y-137666843D01*
X103792191Y-137807191D01*
X103651843Y-138017235D01*
X103602560Y-138265000D01*
X94811317Y-138265000D01*
X94654577Y-138030423D01*
X94179909Y-137713260D01*
X93761333Y-137630000D01*
X93478667Y-137630000D01*
X93060091Y-137713260D01*
X92585423Y-138030423D01*
X92268260Y-138505091D01*
X92156887Y-139065000D01*
X87447440Y-139065000D01*
X87447440Y-138265000D01*
X87398157Y-138017235D01*
X87257809Y-137807191D01*
X87047765Y-137666843D01*
X86800000Y-137617560D01*
X85200000Y-137617560D01*
X84952235Y-137666843D01*
X84742191Y-137807191D01*
X84601843Y-138017235D01*
X84552560Y-138265000D01*
X75761317Y-138265000D01*
X75604577Y-138030423D01*
X75129909Y-137713260D01*
X74711333Y-137630000D01*
X74428667Y-137630000D01*
X74010091Y-137713260D01*
X73535423Y-138030423D01*
X73218260Y-138505091D01*
X73106887Y-139065000D01*
X68397440Y-139065000D01*
X68397440Y-138265000D01*
X68348157Y-138017235D01*
X68207809Y-137807191D01*
X67997765Y-137666843D01*
X67750000Y-137617560D01*
X66150000Y-137617560D01*
X65902235Y-137666843D01*
X65692191Y-137807191D01*
X65551843Y-138017235D01*
X65502560Y-138265000D01*
X40710000Y-138265000D01*
X40710000Y-129224615D01*
X64195000Y-129224615D01*
X64195000Y-129815385D01*
X64421078Y-130361185D01*
X64838815Y-130778922D01*
X65384615Y-131005000D01*
X65975385Y-131005000D01*
X66521185Y-130778922D01*
X66938922Y-130361185D01*
X67165000Y-129815385D01*
X67165000Y-129224615D01*
X67070249Y-128995866D01*
X68125000Y-128995866D01*
X68125000Y-130044134D01*
X68526155Y-131012608D01*
X69267392Y-131753845D01*
X70235866Y-132155000D01*
X71284134Y-132155000D01*
X72252608Y-131753845D01*
X72993845Y-131012608D01*
X73395000Y-130044134D01*
X73395000Y-129224615D01*
X74355000Y-129224615D01*
X74355000Y-129815385D01*
X74581078Y-130361185D01*
X74998815Y-130778922D01*
X75544615Y-131005000D01*
X76135385Y-131005000D01*
X76681185Y-130778922D01*
X77098922Y-130361185D01*
X77325000Y-129815385D01*
X77325000Y-129224615D01*
X77098922Y-128678815D01*
X76681185Y-128261078D01*
X76135385Y-128035000D01*
X75544615Y-128035000D01*
X74998815Y-128261078D01*
X74581078Y-128678815D01*
X74355000Y-129224615D01*
X73395000Y-129224615D01*
X73395000Y-128995866D01*
X72993845Y-128027392D01*
X72252608Y-127286155D01*
X71284134Y-126885000D01*
X70235866Y-126885000D01*
X69267392Y-127286155D01*
X68526155Y-128027392D01*
X68125000Y-128995866D01*
X67070249Y-128995866D01*
X66953910Y-128715000D01*
X67295113Y-128715000D01*
X67932799Y-128450862D01*
X68420862Y-127962799D01*
X68685000Y-127325113D01*
X68685000Y-126634887D01*
X68420862Y-125997201D01*
X67932799Y-125509138D01*
X67295113Y-125245000D01*
X66604887Y-125245000D01*
X65967201Y-125509138D01*
X65479138Y-125997201D01*
X65215000Y-126634887D01*
X65215000Y-127325113D01*
X65479138Y-127962799D01*
X65551339Y-128035000D01*
X65384615Y-128035000D01*
X64838815Y-128261078D01*
X64421078Y-128678815D01*
X64195000Y-129224615D01*
X40710000Y-129224615D01*
X40710000Y-124094887D01*
X71565000Y-124094887D01*
X71565000Y-124785113D01*
X71829138Y-125422799D01*
X72317201Y-125910862D01*
X72954887Y-126175000D01*
X73645113Y-126175000D01*
X74282799Y-125910862D01*
X74718661Y-125475000D01*
X85099617Y-125475000D01*
X85017201Y-125509138D01*
X84529138Y-125997201D01*
X84265000Y-126634887D01*
X84265000Y-127325113D01*
X84529138Y-127962799D01*
X84601339Y-128035000D01*
X84434615Y-128035000D01*
X83888815Y-128261078D01*
X83471078Y-128678815D01*
X83245000Y-129224615D01*
X83245000Y-129815385D01*
X83471078Y-130361185D01*
X83888815Y-130778922D01*
X84434615Y-131005000D01*
X85025385Y-131005000D01*
X85571185Y-130778922D01*
X85988922Y-130361185D01*
X86215000Y-129815385D01*
X86215000Y-129224615D01*
X86120249Y-128995866D01*
X87175000Y-128995866D01*
X87175000Y-130044134D01*
X87576155Y-131012608D01*
X88317392Y-131753845D01*
X89285866Y-132155000D01*
X90334134Y-132155000D01*
X91302608Y-131753845D01*
X92043845Y-131012608D01*
X92445000Y-130044134D01*
X92445000Y-129224615D01*
X93405000Y-129224615D01*
X93405000Y-129815385D01*
X93631078Y-130361185D01*
X94048815Y-130778922D01*
X94594615Y-131005000D01*
X95185385Y-131005000D01*
X95731185Y-130778922D01*
X96148922Y-130361185D01*
X96375000Y-129815385D01*
X96375000Y-129224615D01*
X96148922Y-128678815D01*
X95731185Y-128261078D01*
X95185385Y-128035000D01*
X94594615Y-128035000D01*
X94048815Y-128261078D01*
X93631078Y-128678815D01*
X93405000Y-129224615D01*
X92445000Y-129224615D01*
X92445000Y-128995866D01*
X92043845Y-128027392D01*
X91302608Y-127286155D01*
X90334134Y-126885000D01*
X89285866Y-126885000D01*
X88317392Y-127286155D01*
X87576155Y-128027392D01*
X87175000Y-128995866D01*
X86120249Y-128995866D01*
X86003910Y-128715000D01*
X86345113Y-128715000D01*
X86982799Y-128450862D01*
X87470862Y-127962799D01*
X87735000Y-127325113D01*
X87735000Y-126634887D01*
X87470862Y-125997201D01*
X86982799Y-125509138D01*
X86900383Y-125475000D01*
X90931339Y-125475000D01*
X91367201Y-125910862D01*
X92004887Y-126175000D01*
X92695113Y-126175000D01*
X93332799Y-125910862D01*
X93768661Y-125475000D01*
X104149617Y-125475000D01*
X104067201Y-125509138D01*
X103579138Y-125997201D01*
X103315000Y-126634887D01*
X103315000Y-127325113D01*
X103579138Y-127962799D01*
X103651339Y-128035000D01*
X103484615Y-128035000D01*
X102938815Y-128261078D01*
X102521078Y-128678815D01*
X102295000Y-129224615D01*
X102295000Y-129815385D01*
X102521078Y-130361185D01*
X102938815Y-130778922D01*
X103484615Y-131005000D01*
X104075385Y-131005000D01*
X104621185Y-130778922D01*
X105038922Y-130361185D01*
X105265000Y-129815385D01*
X105265000Y-129224615D01*
X105170249Y-128995866D01*
X106225000Y-128995866D01*
X106225000Y-130044134D01*
X106626155Y-131012608D01*
X107367392Y-131753845D01*
X108335866Y-132155000D01*
X109384134Y-132155000D01*
X110352608Y-131753845D01*
X111093845Y-131012608D01*
X111495000Y-130044134D01*
X111495000Y-129224615D01*
X112455000Y-129224615D01*
X112455000Y-129815385D01*
X112681078Y-130361185D01*
X113098815Y-130778922D01*
X113644615Y-131005000D01*
X114235385Y-131005000D01*
X114781185Y-130778922D01*
X115198922Y-130361185D01*
X115425000Y-129815385D01*
X115425000Y-129224615D01*
X115198922Y-128678815D01*
X114781185Y-128261078D01*
X114235385Y-128035000D01*
X113644615Y-128035000D01*
X113098815Y-128261078D01*
X112681078Y-128678815D01*
X112455000Y-129224615D01*
X111495000Y-129224615D01*
X111495000Y-128995866D01*
X111093845Y-128027392D01*
X110352608Y-127286155D01*
X109384134Y-126885000D01*
X108335866Y-126885000D01*
X107367392Y-127286155D01*
X106626155Y-128027392D01*
X106225000Y-128995866D01*
X105170249Y-128995866D01*
X105053910Y-128715000D01*
X105395113Y-128715000D01*
X106032799Y-128450862D01*
X106520862Y-127962799D01*
X106785000Y-127325113D01*
X106785000Y-126634887D01*
X106520862Y-125997201D01*
X106032799Y-125509138D01*
X105950383Y-125475000D01*
X109981339Y-125475000D01*
X110417201Y-125910862D01*
X111054887Y-126175000D01*
X111745113Y-126175000D01*
X112382799Y-125910862D01*
X112818661Y-125475000D01*
X123199617Y-125475000D01*
X123117201Y-125509138D01*
X122629138Y-125997201D01*
X122365000Y-126634887D01*
X122365000Y-127325113D01*
X122629138Y-127962799D01*
X122701339Y-128035000D01*
X122534615Y-128035000D01*
X121988815Y-128261078D01*
X121571078Y-128678815D01*
X121345000Y-129224615D01*
X121345000Y-129815385D01*
X121571078Y-130361185D01*
X121988815Y-130778922D01*
X122534615Y-131005000D01*
X123125385Y-131005000D01*
X123671185Y-130778922D01*
X124088922Y-130361185D01*
X124315000Y-129815385D01*
X124315000Y-129224615D01*
X124220249Y-128995866D01*
X125275000Y-128995866D01*
X125275000Y-130044134D01*
X125676155Y-131012608D01*
X126417392Y-131753845D01*
X127385866Y-132155000D01*
X128434134Y-132155000D01*
X129402608Y-131753845D01*
X130143845Y-131012608D01*
X130545000Y-130044134D01*
X130545000Y-129224615D01*
X131505000Y-129224615D01*
X131505000Y-129815385D01*
X131731078Y-130361185D01*
X132148815Y-130778922D01*
X132694615Y-131005000D01*
X133285385Y-131005000D01*
X133831185Y-130778922D01*
X134248922Y-130361185D01*
X134475000Y-129815385D01*
X134475000Y-129224615D01*
X134248922Y-128678815D01*
X133831185Y-128261078D01*
X133285385Y-128035000D01*
X132694615Y-128035000D01*
X132148815Y-128261078D01*
X131731078Y-128678815D01*
X131505000Y-129224615D01*
X130545000Y-129224615D01*
X130545000Y-128995866D01*
X130143845Y-128027392D01*
X129402608Y-127286155D01*
X128434134Y-126885000D01*
X127385866Y-126885000D01*
X126417392Y-127286155D01*
X125676155Y-128027392D01*
X125275000Y-128995866D01*
X124220249Y-128995866D01*
X124103910Y-128715000D01*
X124445113Y-128715000D01*
X125082799Y-128450862D01*
X125570862Y-127962799D01*
X125835000Y-127325113D01*
X125835000Y-126634887D01*
X125570862Y-125997201D01*
X125082799Y-125509138D01*
X125000383Y-125475000D01*
X129031339Y-125475000D01*
X129467201Y-125910862D01*
X130104887Y-126175000D01*
X130795113Y-126175000D01*
X131432799Y-125910862D01*
X131920862Y-125422799D01*
X132185000Y-124785113D01*
X132185000Y-124094887D01*
X131920862Y-123457201D01*
X131432799Y-122969138D01*
X130795113Y-122705000D01*
X130104887Y-122705000D01*
X129467201Y-122969138D01*
X129031339Y-123405000D01*
X112818661Y-123405000D01*
X112382799Y-122969138D01*
X111745113Y-122705000D01*
X111054887Y-122705000D01*
X110417201Y-122969138D01*
X109981339Y-123405000D01*
X93768661Y-123405000D01*
X93332799Y-122969138D01*
X92695113Y-122705000D01*
X92004887Y-122705000D01*
X91367201Y-122969138D01*
X90931339Y-123405000D01*
X74718661Y-123405000D01*
X74282799Y-122969138D01*
X73645113Y-122705000D01*
X72954887Y-122705000D01*
X72317201Y-122969138D01*
X71829138Y-123457201D01*
X71565000Y-124094887D01*
X40710000Y-124094887D01*
X40710000Y-110174615D01*
X64195000Y-110174615D01*
X64195000Y-110765385D01*
X64421078Y-111311185D01*
X64838815Y-111728922D01*
X65384615Y-111955000D01*
X65975385Y-111955000D01*
X66349400Y-111800078D01*
X66349401Y-117551589D01*
X66290225Y-117610765D01*
X66203808Y-117668507D01*
X66146066Y-117754924D01*
X65975052Y-118010864D01*
X65894724Y-118414700D01*
X65915001Y-118516639D01*
X65915001Y-118614304D01*
X65902235Y-118616843D01*
X65692191Y-118757191D01*
X65551843Y-118967235D01*
X65502560Y-119215000D01*
X65502560Y-120815000D01*
X65551843Y-121062765D01*
X65692191Y-121272809D01*
X65902235Y-121413157D01*
X66150000Y-121462440D01*
X67750000Y-121462440D01*
X67997765Y-121413157D01*
X68207809Y-121272809D01*
X68348157Y-121062765D01*
X68397440Y-120815000D01*
X68397440Y-120015000D01*
X73106887Y-120015000D01*
X73218260Y-120574909D01*
X73535423Y-121049577D01*
X74010091Y-121366740D01*
X74428667Y-121450000D01*
X74711333Y-121450000D01*
X75129909Y-121366740D01*
X75604577Y-121049577D01*
X75921740Y-120574909D01*
X76033113Y-120015000D01*
X75921740Y-119455091D01*
X75761317Y-119215000D01*
X84552560Y-119215000D01*
X84552560Y-120815000D01*
X84601843Y-121062765D01*
X84742191Y-121272809D01*
X84952235Y-121413157D01*
X85200000Y-121462440D01*
X86800000Y-121462440D01*
X87047765Y-121413157D01*
X87257809Y-121272809D01*
X87398157Y-121062765D01*
X87447440Y-120815000D01*
X87447440Y-120015000D01*
X92156887Y-120015000D01*
X92268260Y-120574909D01*
X92585423Y-121049577D01*
X93060091Y-121366740D01*
X93478667Y-121450000D01*
X93761333Y-121450000D01*
X94179909Y-121366740D01*
X94654577Y-121049577D01*
X94971740Y-120574909D01*
X95083113Y-120015000D01*
X94971740Y-119455091D01*
X94811317Y-119215000D01*
X103602560Y-119215000D01*
X103602560Y-120815000D01*
X103651843Y-121062765D01*
X103792191Y-121272809D01*
X104002235Y-121413157D01*
X104250000Y-121462440D01*
X105850000Y-121462440D01*
X106097765Y-121413157D01*
X106307809Y-121272809D01*
X106448157Y-121062765D01*
X106497440Y-120815000D01*
X106497440Y-120015000D01*
X111206887Y-120015000D01*
X111318260Y-120574909D01*
X111635423Y-121049577D01*
X112110091Y-121366740D01*
X112528667Y-121450000D01*
X112811333Y-121450000D01*
X113229909Y-121366740D01*
X113704577Y-121049577D01*
X114021740Y-120574909D01*
X114133113Y-120015000D01*
X114021740Y-119455091D01*
X113861317Y-119215000D01*
X122652560Y-119215000D01*
X122652560Y-120815000D01*
X122701843Y-121062765D01*
X122842191Y-121272809D01*
X123052235Y-121413157D01*
X123300000Y-121462440D01*
X124900000Y-121462440D01*
X125147765Y-121413157D01*
X125357809Y-121272809D01*
X125498157Y-121062765D01*
X125547440Y-120815000D01*
X125547440Y-120015000D01*
X130256887Y-120015000D01*
X130368260Y-120574909D01*
X130685423Y-121049577D01*
X131160091Y-121366740D01*
X131578667Y-121450000D01*
X131861333Y-121450000D01*
X132279909Y-121366740D01*
X132754577Y-121049577D01*
X133071740Y-120574909D01*
X133183113Y-120015000D01*
X133071740Y-119455091D01*
X132754577Y-118980423D01*
X132279909Y-118663260D01*
X131861333Y-118580000D01*
X131578667Y-118580000D01*
X131160091Y-118663260D01*
X130685423Y-118980423D01*
X130368260Y-119455091D01*
X130256887Y-120015000D01*
X125547440Y-120015000D01*
X125547440Y-119215000D01*
X125498157Y-118967235D01*
X125357809Y-118757191D01*
X125147765Y-118616843D01*
X124900000Y-118567560D01*
X123300000Y-118567560D01*
X123052235Y-118616843D01*
X122842191Y-118757191D01*
X122701843Y-118967235D01*
X122652560Y-119215000D01*
X113861317Y-119215000D01*
X113704577Y-118980423D01*
X113229909Y-118663260D01*
X112811333Y-118580000D01*
X112528667Y-118580000D01*
X112110091Y-118663260D01*
X111635423Y-118980423D01*
X111318260Y-119455091D01*
X111206887Y-120015000D01*
X106497440Y-120015000D01*
X106497440Y-119215000D01*
X106448157Y-118967235D01*
X106307809Y-118757191D01*
X106097765Y-118616843D01*
X105850000Y-118567560D01*
X104250000Y-118567560D01*
X104002235Y-118616843D01*
X103792191Y-118757191D01*
X103651843Y-118967235D01*
X103602560Y-119215000D01*
X94811317Y-119215000D01*
X94654577Y-118980423D01*
X94179909Y-118663260D01*
X93761333Y-118580000D01*
X93478667Y-118580000D01*
X93060091Y-118663260D01*
X92585423Y-118980423D01*
X92268260Y-119455091D01*
X92156887Y-120015000D01*
X87447440Y-120015000D01*
X87447440Y-119215000D01*
X87398157Y-118967235D01*
X87257809Y-118757191D01*
X87047765Y-118616843D01*
X86800000Y-118567560D01*
X85200000Y-118567560D01*
X84952235Y-118616843D01*
X84742191Y-118757191D01*
X84601843Y-118967235D01*
X84552560Y-119215000D01*
X75761317Y-119215000D01*
X75604577Y-118980423D01*
X75129909Y-118663260D01*
X74711333Y-118580000D01*
X74428667Y-118580000D01*
X74010091Y-118663260D01*
X73535423Y-118980423D01*
X73218260Y-119455091D01*
X73106887Y-120015000D01*
X68397440Y-120015000D01*
X68397440Y-119215000D01*
X68348157Y-118967235D01*
X68207809Y-118757191D01*
X68140246Y-118712046D01*
X68359348Y-118384137D01*
X68419400Y-118082235D01*
X68419400Y-118082230D01*
X68439675Y-117980301D01*
X68419400Y-117878371D01*
X68419400Y-111704879D01*
X68526155Y-111962608D01*
X69267392Y-112703845D01*
X70235866Y-113105000D01*
X71284134Y-113105000D01*
X72252608Y-112703845D01*
X72993845Y-111962608D01*
X73395000Y-110994134D01*
X73395000Y-110174615D01*
X74355000Y-110174615D01*
X74355000Y-110765385D01*
X74581078Y-111311185D01*
X74998815Y-111728922D01*
X75544615Y-111955000D01*
X76135385Y-111955000D01*
X76681185Y-111728922D01*
X77098922Y-111311185D01*
X77325000Y-110765385D01*
X77325000Y-110174615D01*
X77098922Y-109628815D01*
X76681185Y-109211078D01*
X76135385Y-108985000D01*
X75544615Y-108985000D01*
X74998815Y-109211078D01*
X74581078Y-109628815D01*
X74355000Y-110174615D01*
X73395000Y-110174615D01*
X73395000Y-109945866D01*
X72993845Y-108977392D01*
X72252608Y-108236155D01*
X71284134Y-107835000D01*
X70235866Y-107835000D01*
X69267392Y-108236155D01*
X68526155Y-108977392D01*
X68419400Y-109235121D01*
X68419400Y-108914261D01*
X68420862Y-108912799D01*
X68685000Y-108275113D01*
X68685000Y-107584887D01*
X68420862Y-106947201D01*
X67932799Y-106459138D01*
X67295113Y-106195000D01*
X66604887Y-106195000D01*
X65967201Y-106459138D01*
X65479138Y-106947201D01*
X65215000Y-107584887D01*
X65215000Y-108275113D01*
X65479138Y-108912799D01*
X65551339Y-108985000D01*
X65384615Y-108985000D01*
X64838815Y-109211078D01*
X64421078Y-109628815D01*
X64195000Y-110174615D01*
X40710000Y-110174615D01*
X40710000Y-101652532D01*
X45027073Y-101652532D01*
X45125736Y-101919387D01*
X45735461Y-102145908D01*
X46385460Y-102121856D01*
X46874264Y-101919387D01*
X46972927Y-101652532D01*
X51527073Y-101652532D01*
X51625736Y-101919387D01*
X52235461Y-102145908D01*
X52885460Y-102121856D01*
X53374264Y-101919387D01*
X53472927Y-101652532D01*
X52500000Y-100679605D01*
X51527073Y-101652532D01*
X46972927Y-101652532D01*
X46000000Y-100679605D01*
X45027073Y-101652532D01*
X40710000Y-101652532D01*
X40710000Y-100235461D01*
X44354092Y-100235461D01*
X44378144Y-100885460D01*
X44580613Y-101374264D01*
X44847468Y-101472927D01*
X45820395Y-100500000D01*
X46179605Y-100500000D01*
X47152532Y-101472927D01*
X47419387Y-101374264D01*
X47645908Y-100764539D01*
X47626331Y-100235461D01*
X50854092Y-100235461D01*
X50878144Y-100885460D01*
X51080613Y-101374264D01*
X51347468Y-101472927D01*
X52320395Y-100500000D01*
X52679605Y-100500000D01*
X53652532Y-101472927D01*
X53919387Y-101374264D01*
X54145908Y-100764539D01*
X54121856Y-100114540D01*
X53919387Y-99625736D01*
X53652532Y-99527073D01*
X52679605Y-100500000D01*
X52320395Y-100500000D01*
X51347468Y-99527073D01*
X51080613Y-99625736D01*
X50854092Y-100235461D01*
X47626331Y-100235461D01*
X47621856Y-100114540D01*
X47419387Y-99625736D01*
X47152532Y-99527073D01*
X46179605Y-100500000D01*
X45820395Y-100500000D01*
X44847468Y-99527073D01*
X44580613Y-99625736D01*
X44354092Y-100235461D01*
X40710000Y-100235461D01*
X40710000Y-99347468D01*
X45027073Y-99347468D01*
X46000000Y-100320395D01*
X46972927Y-99347468D01*
X51527073Y-99347468D01*
X52500000Y-100320395D01*
X53472927Y-99347468D01*
X53374264Y-99080613D01*
X52764539Y-98854092D01*
X52114540Y-98878144D01*
X51625736Y-99080613D01*
X51527073Y-99347468D01*
X46972927Y-99347468D01*
X46874264Y-99080613D01*
X46264539Y-98854092D01*
X45614540Y-98878144D01*
X45125736Y-99080613D01*
X45027073Y-99347468D01*
X40710000Y-99347468D01*
X40710000Y-95674778D01*
X44365000Y-95674778D01*
X44365000Y-96325222D01*
X44613914Y-96926153D01*
X45073847Y-97386086D01*
X45674778Y-97635000D01*
X46325222Y-97635000D01*
X46926153Y-97386086D01*
X47277239Y-97035000D01*
X51222761Y-97035000D01*
X51573847Y-97386086D01*
X52174778Y-97635000D01*
X52825222Y-97635000D01*
X53426153Y-97386086D01*
X53886086Y-96926153D01*
X54135000Y-96325222D01*
X54135000Y-95674778D01*
X53886086Y-95073847D01*
X53535000Y-94722761D01*
X53535000Y-65658710D01*
X56206461Y-62987250D01*
X56403466Y-63462862D01*
X56807138Y-63866534D01*
X56936216Y-63920000D01*
X56807138Y-63973466D01*
X56403466Y-64377138D01*
X56185000Y-64904561D01*
X56185000Y-65475439D01*
X56403466Y-66002862D01*
X56807138Y-66406534D01*
X56936216Y-66460000D01*
X56807138Y-66513466D01*
X56403466Y-66917138D01*
X56185000Y-67444561D01*
X56185000Y-68015439D01*
X56403466Y-68542862D01*
X56807138Y-68946534D01*
X56936216Y-69000000D01*
X56807138Y-69053466D01*
X56403466Y-69457138D01*
X56185000Y-69984561D01*
X56185000Y-70241289D01*
X55358727Y-71067563D01*
X55272307Y-71125307D01*
X55105468Y-71375000D01*
X55043552Y-71467664D01*
X54963224Y-71871500D01*
X54983500Y-71973434D01*
X54983501Y-86617261D01*
X54963224Y-86719200D01*
X55043552Y-87123036D01*
X55043553Y-87123037D01*
X55272308Y-87465393D01*
X55358725Y-87523135D01*
X67353149Y-99517560D01*
X66150000Y-99517560D01*
X65902235Y-99566843D01*
X65692191Y-99707191D01*
X65551843Y-99917235D01*
X65502560Y-100165000D01*
X65502560Y-101765000D01*
X65551843Y-102012765D01*
X65692191Y-102222809D01*
X65902235Y-102363157D01*
X66150000Y-102412440D01*
X67750000Y-102412440D01*
X67997765Y-102363157D01*
X68207809Y-102222809D01*
X68348157Y-102012765D01*
X68397440Y-101765000D01*
X68397440Y-100561851D01*
X72035964Y-104200375D01*
X71829138Y-104407201D01*
X71565000Y-105044887D01*
X71565000Y-105735113D01*
X71829138Y-106372799D01*
X72317201Y-106860862D01*
X72954887Y-107125000D01*
X73645113Y-107125000D01*
X74282799Y-106860862D01*
X74718661Y-106425000D01*
X85099617Y-106425000D01*
X85017201Y-106459138D01*
X84529138Y-106947201D01*
X84265000Y-107584887D01*
X84265000Y-108275113D01*
X84529138Y-108912799D01*
X84601339Y-108985000D01*
X84434615Y-108985000D01*
X83888815Y-109211078D01*
X83471078Y-109628815D01*
X83245000Y-110174615D01*
X83245000Y-110765385D01*
X83471078Y-111311185D01*
X83888815Y-111728922D01*
X84434615Y-111955000D01*
X85025385Y-111955000D01*
X85571185Y-111728922D01*
X85988922Y-111311185D01*
X86215000Y-110765385D01*
X86215000Y-110174615D01*
X86120249Y-109945866D01*
X87175000Y-109945866D01*
X87175000Y-110994134D01*
X87576155Y-111962608D01*
X88317392Y-112703845D01*
X89285866Y-113105000D01*
X90334134Y-113105000D01*
X91302608Y-112703845D01*
X92043845Y-111962608D01*
X92445000Y-110994134D01*
X92445000Y-110174615D01*
X93405000Y-110174615D01*
X93405000Y-110765385D01*
X93631078Y-111311185D01*
X94048815Y-111728922D01*
X94594615Y-111955000D01*
X95185385Y-111955000D01*
X95731185Y-111728922D01*
X96148922Y-111311185D01*
X96375000Y-110765385D01*
X96375000Y-110174615D01*
X96148922Y-109628815D01*
X95731185Y-109211078D01*
X95185385Y-108985000D01*
X94594615Y-108985000D01*
X94048815Y-109211078D01*
X93631078Y-109628815D01*
X93405000Y-110174615D01*
X92445000Y-110174615D01*
X92445000Y-109945866D01*
X92043845Y-108977392D01*
X91302608Y-108236155D01*
X90334134Y-107835000D01*
X89285866Y-107835000D01*
X88317392Y-108236155D01*
X87576155Y-108977392D01*
X87175000Y-109945866D01*
X86120249Y-109945866D01*
X86003910Y-109665000D01*
X86345113Y-109665000D01*
X86982799Y-109400862D01*
X87470862Y-108912799D01*
X87735000Y-108275113D01*
X87735000Y-107584887D01*
X87470862Y-106947201D01*
X86982799Y-106459138D01*
X86900383Y-106425000D01*
X90931339Y-106425000D01*
X91367201Y-106860862D01*
X92004887Y-107125000D01*
X92695113Y-107125000D01*
X93332799Y-106860862D01*
X93768661Y-106425000D01*
X104149617Y-106425000D01*
X104067201Y-106459138D01*
X103579138Y-106947201D01*
X103315000Y-107584887D01*
X103315000Y-108275113D01*
X103579138Y-108912799D01*
X103651339Y-108985000D01*
X103484615Y-108985000D01*
X102938815Y-109211078D01*
X102521078Y-109628815D01*
X102295000Y-110174615D01*
X102295000Y-110765385D01*
X102521078Y-111311185D01*
X102938815Y-111728922D01*
X103484615Y-111955000D01*
X104075385Y-111955000D01*
X104621185Y-111728922D01*
X105038922Y-111311185D01*
X105265000Y-110765385D01*
X105265000Y-110174615D01*
X105170249Y-109945866D01*
X106225000Y-109945866D01*
X106225000Y-110994134D01*
X106626155Y-111962608D01*
X107367392Y-112703845D01*
X108335866Y-113105000D01*
X109384134Y-113105000D01*
X110352608Y-112703845D01*
X111093845Y-111962608D01*
X111495000Y-110994134D01*
X111495000Y-110174615D01*
X112455000Y-110174615D01*
X112455000Y-110765385D01*
X112681078Y-111311185D01*
X113098815Y-111728922D01*
X113644615Y-111955000D01*
X114235385Y-111955000D01*
X114781185Y-111728922D01*
X115198922Y-111311185D01*
X115425000Y-110765385D01*
X115425000Y-110174615D01*
X115198922Y-109628815D01*
X114781185Y-109211078D01*
X114235385Y-108985000D01*
X113644615Y-108985000D01*
X113098815Y-109211078D01*
X112681078Y-109628815D01*
X112455000Y-110174615D01*
X111495000Y-110174615D01*
X111495000Y-109945866D01*
X111093845Y-108977392D01*
X110352608Y-108236155D01*
X109384134Y-107835000D01*
X108335866Y-107835000D01*
X107367392Y-108236155D01*
X106626155Y-108977392D01*
X106225000Y-109945866D01*
X105170249Y-109945866D01*
X105053910Y-109665000D01*
X105395113Y-109665000D01*
X106032799Y-109400862D01*
X106520862Y-108912799D01*
X106785000Y-108275113D01*
X106785000Y-107584887D01*
X106520862Y-106947201D01*
X106032799Y-106459138D01*
X105950383Y-106425000D01*
X109981339Y-106425000D01*
X110417201Y-106860862D01*
X111054887Y-107125000D01*
X111745113Y-107125000D01*
X112382799Y-106860862D01*
X112818661Y-106425000D01*
X123199617Y-106425000D01*
X123117201Y-106459138D01*
X122629138Y-106947201D01*
X122365000Y-107584887D01*
X122365000Y-108275113D01*
X122629138Y-108912799D01*
X122701339Y-108985000D01*
X122534615Y-108985000D01*
X121988815Y-109211078D01*
X121571078Y-109628815D01*
X121345000Y-110174615D01*
X121345000Y-110765385D01*
X121571078Y-111311185D01*
X121988815Y-111728922D01*
X122534615Y-111955000D01*
X123125385Y-111955000D01*
X123671185Y-111728922D01*
X124088922Y-111311185D01*
X124315000Y-110765385D01*
X124315000Y-110174615D01*
X124220249Y-109945866D01*
X125275000Y-109945866D01*
X125275000Y-110994134D01*
X125676155Y-111962608D01*
X126417392Y-112703845D01*
X127385866Y-113105000D01*
X128434134Y-113105000D01*
X129402608Y-112703845D01*
X130143845Y-111962608D01*
X130545000Y-110994134D01*
X130545000Y-110174615D01*
X131505000Y-110174615D01*
X131505000Y-110765385D01*
X131731078Y-111311185D01*
X132148815Y-111728922D01*
X132694615Y-111955000D01*
X133285385Y-111955000D01*
X133831185Y-111728922D01*
X134248922Y-111311185D01*
X134475000Y-110765385D01*
X134475000Y-110174615D01*
X134248922Y-109628815D01*
X133831185Y-109211078D01*
X133285385Y-108985000D01*
X132694615Y-108985000D01*
X132148815Y-109211078D01*
X131731078Y-109628815D01*
X131505000Y-110174615D01*
X130545000Y-110174615D01*
X130545000Y-109945866D01*
X130143845Y-108977392D01*
X129402608Y-108236155D01*
X128434134Y-107835000D01*
X127385866Y-107835000D01*
X126417392Y-108236155D01*
X125676155Y-108977392D01*
X125275000Y-109945866D01*
X124220249Y-109945866D01*
X124103910Y-109665000D01*
X124445113Y-109665000D01*
X125082799Y-109400862D01*
X125570862Y-108912799D01*
X125835000Y-108275113D01*
X125835000Y-107584887D01*
X125570862Y-106947201D01*
X125082799Y-106459138D01*
X125000383Y-106425000D01*
X129031339Y-106425000D01*
X129467201Y-106860862D01*
X130104887Y-107125000D01*
X130795113Y-107125000D01*
X131432799Y-106860862D01*
X131920862Y-106372799D01*
X132185000Y-105735113D01*
X132185000Y-105044887D01*
X131920862Y-104407201D01*
X131432799Y-103919138D01*
X130795113Y-103655000D01*
X130104887Y-103655000D01*
X129467201Y-103919138D01*
X129031339Y-104355000D01*
X112818661Y-104355000D01*
X112382799Y-103919138D01*
X111745113Y-103655000D01*
X111054887Y-103655000D01*
X110417201Y-103919138D01*
X109981339Y-104355000D01*
X93768661Y-104355000D01*
X93332799Y-103919138D01*
X92695113Y-103655000D01*
X92004887Y-103655000D01*
X91367201Y-103919138D01*
X90931339Y-104355000D01*
X74718661Y-104355000D01*
X74353020Y-103989359D01*
X74274948Y-103596863D01*
X74103934Y-103340923D01*
X74046193Y-103254507D01*
X73959776Y-103196765D01*
X71728011Y-100965000D01*
X73106887Y-100965000D01*
X73218260Y-101524909D01*
X73535423Y-101999577D01*
X74010091Y-102316740D01*
X74428667Y-102400000D01*
X74711333Y-102400000D01*
X75129909Y-102316740D01*
X75604577Y-101999577D01*
X75921740Y-101524909D01*
X76033113Y-100965000D01*
X75921740Y-100405091D01*
X75604577Y-99930423D01*
X75129909Y-99613260D01*
X74711333Y-99530000D01*
X74428667Y-99530000D01*
X74010091Y-99613260D01*
X73535423Y-99930423D01*
X73218260Y-100405091D01*
X73106887Y-100965000D01*
X71728011Y-100965000D01*
X70165153Y-99402142D01*
X70289500Y-99426876D01*
X70391434Y-99406600D01*
X75369590Y-99406600D01*
X79188165Y-103225176D01*
X79245907Y-103311593D01*
X79588263Y-103540348D01*
X79872389Y-103596864D01*
X79992100Y-103620676D01*
X80094034Y-103600400D01*
X128417366Y-103600400D01*
X128519300Y-103620676D01*
X128621234Y-103600400D01*
X128621235Y-103600400D01*
X128923137Y-103540348D01*
X129265493Y-103311593D01*
X129323237Y-103225173D01*
X130548411Y-102000000D01*
X130686056Y-102000000D01*
X131160091Y-102316740D01*
X131578667Y-102400000D01*
X131861333Y-102400000D01*
X132279909Y-102316740D01*
X132754577Y-101999577D01*
X133071740Y-101524909D01*
X133183113Y-100965000D01*
X133071740Y-100405091D01*
X132754577Y-99930423D01*
X132279909Y-99613260D01*
X131861333Y-99530000D01*
X131578667Y-99530000D01*
X131160091Y-99613260D01*
X130686056Y-99930000D01*
X130221629Y-99930000D01*
X130119699Y-99909725D01*
X130017770Y-99930000D01*
X130017765Y-99930000D01*
X129715863Y-99990052D01*
X129373507Y-100218807D01*
X129315766Y-100305223D01*
X128090590Y-101530400D01*
X125547440Y-101530400D01*
X125547440Y-100165000D01*
X125498157Y-99917235D01*
X125357809Y-99707191D01*
X125147765Y-99566843D01*
X124900000Y-99517560D01*
X123300000Y-99517560D01*
X123052235Y-99566843D01*
X122842191Y-99707191D01*
X122701843Y-99917235D01*
X122652560Y-100165000D01*
X122652560Y-101530400D01*
X114018071Y-101530400D01*
X114021740Y-101524909D01*
X114133113Y-100965000D01*
X114021740Y-100405091D01*
X113704577Y-99930423D01*
X113229909Y-99613260D01*
X112811333Y-99530000D01*
X112528667Y-99530000D01*
X112110091Y-99613260D01*
X111636056Y-99930000D01*
X111498411Y-99930000D01*
X109424237Y-97855827D01*
X109366493Y-97769407D01*
X109024137Y-97540652D01*
X108722235Y-97480600D01*
X108722234Y-97480600D01*
X108620300Y-97460324D01*
X108518366Y-97480600D01*
X87680111Y-97480600D01*
X78175237Y-87975727D01*
X78117493Y-87889307D01*
X77775137Y-87660552D01*
X77473235Y-87600500D01*
X77473234Y-87600500D01*
X77371300Y-87580224D01*
X77269366Y-87600500D01*
X74493161Y-87600500D01*
X74718661Y-87375000D01*
X85099617Y-87375000D01*
X85017201Y-87409138D01*
X84529138Y-87897201D01*
X84265000Y-88534887D01*
X84265000Y-89225113D01*
X84529138Y-89862799D01*
X84601339Y-89935000D01*
X84434615Y-89935000D01*
X83888815Y-90161078D01*
X83471078Y-90578815D01*
X83245000Y-91124615D01*
X83245000Y-91715385D01*
X83471078Y-92261185D01*
X83888815Y-92678922D01*
X84434615Y-92905000D01*
X85025385Y-92905000D01*
X85571185Y-92678922D01*
X85988922Y-92261185D01*
X86215000Y-91715385D01*
X86215000Y-91124615D01*
X86120249Y-90895866D01*
X87175000Y-90895866D01*
X87175000Y-91944134D01*
X87576155Y-92912608D01*
X88317392Y-93653845D01*
X89285866Y-94055000D01*
X90334134Y-94055000D01*
X91302608Y-93653845D01*
X92043845Y-92912608D01*
X92445000Y-91944134D01*
X92445000Y-91124615D01*
X93405000Y-91124615D01*
X93405000Y-91715385D01*
X93631078Y-92261185D01*
X94048815Y-92678922D01*
X94594615Y-92905000D01*
X95185385Y-92905000D01*
X95731185Y-92678922D01*
X96148922Y-92261185D01*
X96375000Y-91715385D01*
X96375000Y-91124615D01*
X96148922Y-90578815D01*
X95731185Y-90161078D01*
X95185385Y-89935000D01*
X94594615Y-89935000D01*
X94048815Y-90161078D01*
X93631078Y-90578815D01*
X93405000Y-91124615D01*
X92445000Y-91124615D01*
X92445000Y-90895866D01*
X92043845Y-89927392D01*
X91302608Y-89186155D01*
X90334134Y-88785000D01*
X89285866Y-88785000D01*
X88317392Y-89186155D01*
X87576155Y-89927392D01*
X87175000Y-90895866D01*
X86120249Y-90895866D01*
X86003910Y-90615000D01*
X86345113Y-90615000D01*
X86982799Y-90350862D01*
X87470862Y-89862799D01*
X87735000Y-89225113D01*
X87735000Y-88534887D01*
X87470862Y-87897201D01*
X86982799Y-87409138D01*
X86900383Y-87375000D01*
X90931339Y-87375000D01*
X91367201Y-87810862D01*
X92004887Y-88075000D01*
X92695113Y-88075000D01*
X93332799Y-87810862D01*
X93768661Y-87375000D01*
X104149617Y-87375000D01*
X104067201Y-87409138D01*
X103579138Y-87897201D01*
X103315000Y-88534887D01*
X103315000Y-89225113D01*
X103579138Y-89862799D01*
X103651339Y-89935000D01*
X103484615Y-89935000D01*
X102938815Y-90161078D01*
X102521078Y-90578815D01*
X102295000Y-91124615D01*
X102295000Y-91715385D01*
X102521078Y-92261185D01*
X102938815Y-92678922D01*
X103484615Y-92905000D01*
X104075385Y-92905000D01*
X104621185Y-92678922D01*
X105038922Y-92261185D01*
X105265000Y-91715385D01*
X105265000Y-91124615D01*
X105170249Y-90895866D01*
X106225000Y-90895866D01*
X106225000Y-91944134D01*
X106626155Y-92912608D01*
X107367392Y-93653845D01*
X108335866Y-94055000D01*
X109384134Y-94055000D01*
X110352608Y-93653845D01*
X111093845Y-92912608D01*
X111495000Y-91944134D01*
X111495000Y-91124615D01*
X112455000Y-91124615D01*
X112455000Y-91715385D01*
X112681078Y-92261185D01*
X113098815Y-92678922D01*
X113644615Y-92905000D01*
X114235385Y-92905000D01*
X114781185Y-92678922D01*
X115198922Y-92261185D01*
X115425000Y-91715385D01*
X115425000Y-91124615D01*
X115198922Y-90578815D01*
X114781185Y-90161078D01*
X114235385Y-89935000D01*
X113644615Y-89935000D01*
X113098815Y-90161078D01*
X112681078Y-90578815D01*
X112455000Y-91124615D01*
X111495000Y-91124615D01*
X111495000Y-90895866D01*
X111093845Y-89927392D01*
X110352608Y-89186155D01*
X109384134Y-88785000D01*
X108335866Y-88785000D01*
X107367392Y-89186155D01*
X106626155Y-89927392D01*
X106225000Y-90895866D01*
X105170249Y-90895866D01*
X105053910Y-90615000D01*
X105395113Y-90615000D01*
X106032799Y-90350862D01*
X106520862Y-89862799D01*
X106785000Y-89225113D01*
X106785000Y-88534887D01*
X106520862Y-87897201D01*
X106032799Y-87409138D01*
X105950383Y-87375000D01*
X109981339Y-87375000D01*
X110417201Y-87810862D01*
X111054887Y-88075000D01*
X111745113Y-88075000D01*
X112382799Y-87810862D01*
X112818661Y-87375000D01*
X123199617Y-87375000D01*
X123117201Y-87409138D01*
X122629138Y-87897201D01*
X122365000Y-88534887D01*
X122365000Y-89225113D01*
X122629138Y-89862799D01*
X122701339Y-89935000D01*
X122534615Y-89935000D01*
X121988815Y-90161078D01*
X121571078Y-90578815D01*
X121345000Y-91124615D01*
X121345000Y-91715385D01*
X121571078Y-92261185D01*
X121988815Y-92678922D01*
X122534615Y-92905000D01*
X123125385Y-92905000D01*
X123671185Y-92678922D01*
X124088922Y-92261185D01*
X124315000Y-91715385D01*
X124315000Y-91124615D01*
X124220249Y-90895866D01*
X125275000Y-90895866D01*
X125275000Y-91944134D01*
X125676155Y-92912608D01*
X126417392Y-93653845D01*
X127385866Y-94055000D01*
X128434134Y-94055000D01*
X129402608Y-93653845D01*
X130143845Y-92912608D01*
X130545000Y-91944134D01*
X130545000Y-91124615D01*
X131505000Y-91124615D01*
X131505000Y-91715385D01*
X131731078Y-92261185D01*
X132148815Y-92678922D01*
X132694615Y-92905000D01*
X133285385Y-92905000D01*
X133831185Y-92678922D01*
X134248922Y-92261185D01*
X134475000Y-91715385D01*
X134475000Y-91124615D01*
X134248922Y-90578815D01*
X133831185Y-90161078D01*
X133285385Y-89935000D01*
X132694615Y-89935000D01*
X132148815Y-90161078D01*
X131731078Y-90578815D01*
X131505000Y-91124615D01*
X130545000Y-91124615D01*
X130545000Y-90895866D01*
X130143845Y-89927392D01*
X129402608Y-89186155D01*
X128434134Y-88785000D01*
X127385866Y-88785000D01*
X126417392Y-89186155D01*
X125676155Y-89927392D01*
X125275000Y-90895866D01*
X124220249Y-90895866D01*
X124103910Y-90615000D01*
X124445113Y-90615000D01*
X125082799Y-90350862D01*
X125570862Y-89862799D01*
X125835000Y-89225113D01*
X125835000Y-88534887D01*
X125570862Y-87897201D01*
X125082799Y-87409138D01*
X125000383Y-87375000D01*
X129031339Y-87375000D01*
X129467201Y-87810862D01*
X130104887Y-88075000D01*
X130795113Y-88075000D01*
X131432799Y-87810862D01*
X131920862Y-87322799D01*
X132185000Y-86685113D01*
X132185000Y-85994887D01*
X131920862Y-85357201D01*
X131432799Y-84869138D01*
X130795113Y-84605000D01*
X130104887Y-84605000D01*
X129467201Y-84869138D01*
X129031339Y-85305000D01*
X112818661Y-85305000D01*
X112382799Y-84869138D01*
X111745113Y-84605000D01*
X111054887Y-84605000D01*
X110417201Y-84869138D01*
X109981339Y-85305000D01*
X93768661Y-85305000D01*
X93332799Y-84869138D01*
X92695113Y-84605000D01*
X92004887Y-84605000D01*
X91367201Y-84869138D01*
X90931339Y-85305000D01*
X74718661Y-85305000D01*
X74282799Y-84869138D01*
X73645113Y-84605000D01*
X72954887Y-84605000D01*
X72317201Y-84869138D01*
X71829138Y-85357201D01*
X71565000Y-85994887D01*
X71565000Y-86685113D01*
X71646795Y-86882585D01*
X69989837Y-85225627D01*
X69932093Y-85139207D01*
X69589737Y-84910452D01*
X69287835Y-84850400D01*
X69287834Y-84850400D01*
X69185900Y-84830124D01*
X69083966Y-84850400D01*
X63504111Y-84850400D01*
X63219169Y-84565458D01*
X63245400Y-84570676D01*
X63347334Y-84550400D01*
X90317366Y-84550400D01*
X90419300Y-84570676D01*
X90521234Y-84550400D01*
X90521235Y-84550400D01*
X90823137Y-84490348D01*
X91165493Y-84261593D01*
X91223237Y-84175173D01*
X92448411Y-82950000D01*
X92586056Y-82950000D01*
X93060091Y-83266740D01*
X93478667Y-83350000D01*
X93761333Y-83350000D01*
X94179909Y-83266740D01*
X94654577Y-82949577D01*
X94971740Y-82474909D01*
X95083113Y-81915000D01*
X94971740Y-81355091D01*
X94811317Y-81115000D01*
X103602560Y-81115000D01*
X103602560Y-82715000D01*
X103651843Y-82962765D01*
X103792191Y-83172809D01*
X104002235Y-83313157D01*
X104250000Y-83362440D01*
X105850000Y-83362440D01*
X106097765Y-83313157D01*
X106307809Y-83172809D01*
X106448157Y-82962765D01*
X106497440Y-82715000D01*
X106497440Y-81915000D01*
X111206887Y-81915000D01*
X111318260Y-82474909D01*
X111635423Y-82949577D01*
X112110091Y-83266740D01*
X112528667Y-83350000D01*
X112811333Y-83350000D01*
X113229909Y-83266740D01*
X113704577Y-82949577D01*
X114021740Y-82474909D01*
X114133113Y-81915000D01*
X114021740Y-81355091D01*
X113861317Y-81115000D01*
X122652560Y-81115000D01*
X122652560Y-82715000D01*
X122701843Y-82962765D01*
X122842191Y-83172809D01*
X123052235Y-83313157D01*
X123300000Y-83362440D01*
X124900000Y-83362440D01*
X125147765Y-83313157D01*
X125357809Y-83172809D01*
X125498157Y-82962765D01*
X125547440Y-82715000D01*
X125547440Y-81915000D01*
X130256887Y-81915000D01*
X130368260Y-82474909D01*
X130685423Y-82949577D01*
X131160091Y-83266740D01*
X131578667Y-83350000D01*
X131861333Y-83350000D01*
X132279909Y-83266740D01*
X132754577Y-82949577D01*
X133071740Y-82474909D01*
X133183113Y-81915000D01*
X133071740Y-81355091D01*
X132754577Y-80880423D01*
X132279909Y-80563260D01*
X131861333Y-80480000D01*
X131578667Y-80480000D01*
X131160091Y-80563260D01*
X130685423Y-80880423D01*
X130368260Y-81355091D01*
X130256887Y-81915000D01*
X125547440Y-81915000D01*
X125547440Y-81115000D01*
X125498157Y-80867235D01*
X125357809Y-80657191D01*
X125147765Y-80516843D01*
X124900000Y-80467560D01*
X123300000Y-80467560D01*
X123052235Y-80516843D01*
X122842191Y-80657191D01*
X122701843Y-80867235D01*
X122652560Y-81115000D01*
X113861317Y-81115000D01*
X113704577Y-80880423D01*
X113229909Y-80563260D01*
X112811333Y-80480000D01*
X112528667Y-80480000D01*
X112110091Y-80563260D01*
X111635423Y-80880423D01*
X111318260Y-81355091D01*
X111206887Y-81915000D01*
X106497440Y-81915000D01*
X106497440Y-81115000D01*
X106448157Y-80867235D01*
X106307809Y-80657191D01*
X106097765Y-80516843D01*
X105850000Y-80467560D01*
X104250000Y-80467560D01*
X104002235Y-80516843D01*
X103792191Y-80657191D01*
X103651843Y-80867235D01*
X103602560Y-81115000D01*
X94811317Y-81115000D01*
X94654577Y-80880423D01*
X94179909Y-80563260D01*
X93761333Y-80480000D01*
X93478667Y-80480000D01*
X93060091Y-80563260D01*
X92586056Y-80880000D01*
X92121629Y-80880000D01*
X92019699Y-80859725D01*
X91917770Y-80880000D01*
X91917765Y-80880000D01*
X91615863Y-80940052D01*
X91273507Y-81168807D01*
X91215766Y-81255223D01*
X89990590Y-82480400D01*
X87447440Y-82480400D01*
X87447440Y-81115000D01*
X87398157Y-80867235D01*
X87257809Y-80657191D01*
X87047765Y-80516843D01*
X86800000Y-80467560D01*
X85200000Y-80467560D01*
X84952235Y-80516843D01*
X84742191Y-80657191D01*
X84601843Y-80867235D01*
X84552560Y-81115000D01*
X84552560Y-82480400D01*
X75918071Y-82480400D01*
X75921740Y-82474909D01*
X76033113Y-81915000D01*
X75921740Y-81355091D01*
X75604577Y-80880423D01*
X75129909Y-80563260D01*
X74711333Y-80480000D01*
X74428667Y-80480000D01*
X74010091Y-80563260D01*
X73536056Y-80880000D01*
X73398411Y-80880000D01*
X67208637Y-74690227D01*
X67150893Y-74603807D01*
X66808537Y-74375052D01*
X66506635Y-74315000D01*
X66506634Y-74315000D01*
X66404700Y-74294724D01*
X66302766Y-74315000D01*
X58614396Y-74315000D01*
X58432862Y-74133466D01*
X58303784Y-74080000D01*
X58432862Y-74026534D01*
X58836534Y-73622862D01*
X59055000Y-73095439D01*
X59055000Y-72524561D01*
X58868627Y-72074615D01*
X64195000Y-72074615D01*
X64195000Y-72665385D01*
X64421078Y-73211185D01*
X64838815Y-73628922D01*
X65384615Y-73855000D01*
X65975385Y-73855000D01*
X66521185Y-73628922D01*
X66938922Y-73211185D01*
X67165000Y-72665385D01*
X67165000Y-72074615D01*
X67070249Y-71845866D01*
X68125000Y-71845866D01*
X68125000Y-72894134D01*
X68526155Y-73862608D01*
X69267392Y-74603845D01*
X70235866Y-75005000D01*
X71284134Y-75005000D01*
X72252608Y-74603845D01*
X72993845Y-73862608D01*
X73395000Y-72894134D01*
X73395000Y-72074615D01*
X74355000Y-72074615D01*
X74355000Y-72665385D01*
X74581078Y-73211185D01*
X74998815Y-73628922D01*
X75544615Y-73855000D01*
X76135385Y-73855000D01*
X76681185Y-73628922D01*
X77098922Y-73211185D01*
X77325000Y-72665385D01*
X77325000Y-72074615D01*
X77098922Y-71528815D01*
X76681185Y-71111078D01*
X76135385Y-70885000D01*
X75544615Y-70885000D01*
X74998815Y-71111078D01*
X74581078Y-71528815D01*
X74355000Y-72074615D01*
X73395000Y-72074615D01*
X73395000Y-71845866D01*
X72993845Y-70877392D01*
X72252608Y-70136155D01*
X71284134Y-69735000D01*
X70235866Y-69735000D01*
X69267392Y-70136155D01*
X68526155Y-70877392D01*
X68125000Y-71845866D01*
X67070249Y-71845866D01*
X66953910Y-71565000D01*
X67295113Y-71565000D01*
X67932799Y-71300862D01*
X68420862Y-70812799D01*
X68685000Y-70175113D01*
X68685000Y-69484887D01*
X68420862Y-68847201D01*
X67932799Y-68359138D01*
X67295113Y-68095000D01*
X66604887Y-68095000D01*
X65967201Y-68359138D01*
X65479138Y-68847201D01*
X65215000Y-69484887D01*
X65215000Y-70175113D01*
X65479138Y-70812799D01*
X65551339Y-70885000D01*
X65384615Y-70885000D01*
X64838815Y-71111078D01*
X64421078Y-71528815D01*
X64195000Y-72074615D01*
X58868627Y-72074615D01*
X58836534Y-71997138D01*
X58432862Y-71593466D01*
X58303784Y-71540000D01*
X58432862Y-71486534D01*
X58836534Y-71082862D01*
X59055000Y-70555439D01*
X59055000Y-69984561D01*
X58836534Y-69457138D01*
X58432862Y-69053466D01*
X58303784Y-69000000D01*
X58432862Y-68946534D01*
X58836534Y-68542862D01*
X59055000Y-68015439D01*
X59055000Y-67444561D01*
X58836534Y-66917138D01*
X58432862Y-66513466D01*
X58303784Y-66460000D01*
X58432862Y-66406534D01*
X58614396Y-66225000D01*
X70771290Y-66225000D01*
X71565000Y-67018711D01*
X71565000Y-67635113D01*
X71829138Y-68272799D01*
X72317201Y-68760862D01*
X72954887Y-69025000D01*
X73645113Y-69025000D01*
X74282799Y-68760862D01*
X74718661Y-68325000D01*
X85099617Y-68325000D01*
X85017201Y-68359138D01*
X84529138Y-68847201D01*
X84265000Y-69484887D01*
X84265000Y-70175113D01*
X84529138Y-70812799D01*
X84601339Y-70885000D01*
X84434615Y-70885000D01*
X83888815Y-71111078D01*
X83471078Y-71528815D01*
X83245000Y-72074615D01*
X83245000Y-72665385D01*
X83471078Y-73211185D01*
X83888815Y-73628922D01*
X84434615Y-73855000D01*
X85025385Y-73855000D01*
X85571185Y-73628922D01*
X85988922Y-73211185D01*
X86215000Y-72665385D01*
X86215000Y-72074615D01*
X86120249Y-71845866D01*
X87175000Y-71845866D01*
X87175000Y-72894134D01*
X87576155Y-73862608D01*
X88317392Y-74603845D01*
X89285866Y-75005000D01*
X90334134Y-75005000D01*
X91302608Y-74603845D01*
X92043845Y-73862608D01*
X92445000Y-72894134D01*
X92445000Y-72074615D01*
X93405000Y-72074615D01*
X93405000Y-72665385D01*
X93631078Y-73211185D01*
X94048815Y-73628922D01*
X94594615Y-73855000D01*
X95185385Y-73855000D01*
X95731185Y-73628922D01*
X96148922Y-73211185D01*
X96375000Y-72665385D01*
X96375000Y-72074615D01*
X96148922Y-71528815D01*
X95731185Y-71111078D01*
X95185385Y-70885000D01*
X94594615Y-70885000D01*
X94048815Y-71111078D01*
X93631078Y-71528815D01*
X93405000Y-72074615D01*
X92445000Y-72074615D01*
X92445000Y-71845866D01*
X92043845Y-70877392D01*
X91302608Y-70136155D01*
X90334134Y-69735000D01*
X89285866Y-69735000D01*
X88317392Y-70136155D01*
X87576155Y-70877392D01*
X87175000Y-71845866D01*
X86120249Y-71845866D01*
X86003910Y-71565000D01*
X86345113Y-71565000D01*
X86982799Y-71300862D01*
X87470862Y-70812799D01*
X87735000Y-70175113D01*
X87735000Y-69484887D01*
X87470862Y-68847201D01*
X86982799Y-68359138D01*
X86900383Y-68325000D01*
X90931339Y-68325000D01*
X91367201Y-68760862D01*
X92004887Y-69025000D01*
X92695113Y-69025000D01*
X93332799Y-68760862D01*
X93768661Y-68325000D01*
X104149617Y-68325000D01*
X104067201Y-68359138D01*
X103579138Y-68847201D01*
X103315000Y-69484887D01*
X103315000Y-70175113D01*
X103579138Y-70812799D01*
X103651339Y-70885000D01*
X103484615Y-70885000D01*
X102938815Y-71111078D01*
X102521078Y-71528815D01*
X102295000Y-72074615D01*
X102295000Y-72665385D01*
X102521078Y-73211185D01*
X102938815Y-73628922D01*
X103484615Y-73855000D01*
X104075385Y-73855000D01*
X104621185Y-73628922D01*
X105038922Y-73211185D01*
X105265000Y-72665385D01*
X105265000Y-72074615D01*
X105170249Y-71845866D01*
X106225000Y-71845866D01*
X106225000Y-72894134D01*
X106626155Y-73862608D01*
X107367392Y-74603845D01*
X108335866Y-75005000D01*
X109384134Y-75005000D01*
X110352608Y-74603845D01*
X111093845Y-73862608D01*
X111495000Y-72894134D01*
X111495000Y-72074615D01*
X112455000Y-72074615D01*
X112455000Y-72665385D01*
X112681078Y-73211185D01*
X113098815Y-73628922D01*
X113644615Y-73855000D01*
X114235385Y-73855000D01*
X114781185Y-73628922D01*
X115198922Y-73211185D01*
X115425000Y-72665385D01*
X115425000Y-72074615D01*
X115198922Y-71528815D01*
X114781185Y-71111078D01*
X114235385Y-70885000D01*
X113644615Y-70885000D01*
X113098815Y-71111078D01*
X112681078Y-71528815D01*
X112455000Y-72074615D01*
X111495000Y-72074615D01*
X111495000Y-71845866D01*
X111093845Y-70877392D01*
X110352608Y-70136155D01*
X109384134Y-69735000D01*
X108335866Y-69735000D01*
X107367392Y-70136155D01*
X106626155Y-70877392D01*
X106225000Y-71845866D01*
X105170249Y-71845866D01*
X105053910Y-71565000D01*
X105395113Y-71565000D01*
X106032799Y-71300862D01*
X106520862Y-70812799D01*
X106785000Y-70175113D01*
X106785000Y-69484887D01*
X106520862Y-68847201D01*
X106032799Y-68359138D01*
X105950383Y-68325000D01*
X109981339Y-68325000D01*
X110417201Y-68760862D01*
X111054887Y-69025000D01*
X111745113Y-69025000D01*
X112382799Y-68760862D01*
X112818661Y-68325000D01*
X123199617Y-68325000D01*
X123117201Y-68359138D01*
X122629138Y-68847201D01*
X122365000Y-69484887D01*
X122365000Y-70175113D01*
X122629138Y-70812799D01*
X122701339Y-70885000D01*
X122534615Y-70885000D01*
X121988815Y-71111078D01*
X121571078Y-71528815D01*
X121345000Y-72074615D01*
X121345000Y-72665385D01*
X121571078Y-73211185D01*
X121988815Y-73628922D01*
X122534615Y-73855000D01*
X123125385Y-73855000D01*
X123671185Y-73628922D01*
X124088922Y-73211185D01*
X124315000Y-72665385D01*
X124315000Y-72074615D01*
X124220249Y-71845866D01*
X125275000Y-71845866D01*
X125275000Y-72894134D01*
X125676155Y-73862608D01*
X126417392Y-74603845D01*
X127385866Y-75005000D01*
X128434134Y-75005000D01*
X129402608Y-74603845D01*
X130143845Y-73862608D01*
X130545000Y-72894134D01*
X130545000Y-72074615D01*
X131505000Y-72074615D01*
X131505000Y-72665385D01*
X131731078Y-73211185D01*
X132148815Y-73628922D01*
X132694615Y-73855000D01*
X133285385Y-73855000D01*
X133831185Y-73628922D01*
X134248922Y-73211185D01*
X134475000Y-72665385D01*
X134475000Y-72074615D01*
X134248922Y-71528815D01*
X133831185Y-71111078D01*
X133285385Y-70885000D01*
X132694615Y-70885000D01*
X132148815Y-71111078D01*
X131731078Y-71528815D01*
X131505000Y-72074615D01*
X130545000Y-72074615D01*
X130545000Y-71845866D01*
X130143845Y-70877392D01*
X129402608Y-70136155D01*
X128434134Y-69735000D01*
X127385866Y-69735000D01*
X126417392Y-70136155D01*
X125676155Y-70877392D01*
X125275000Y-71845866D01*
X124220249Y-71845866D01*
X124103910Y-71565000D01*
X124445113Y-71565000D01*
X125082799Y-71300862D01*
X125570862Y-70812799D01*
X125835000Y-70175113D01*
X125835000Y-69484887D01*
X125570862Y-68847201D01*
X125082799Y-68359138D01*
X125000383Y-68325000D01*
X129031339Y-68325000D01*
X129467201Y-68760862D01*
X130104887Y-69025000D01*
X130795113Y-69025000D01*
X131432799Y-68760862D01*
X131920862Y-68272799D01*
X132185000Y-67635113D01*
X132185000Y-66944887D01*
X131920862Y-66307201D01*
X131432799Y-65819138D01*
X130795113Y-65555000D01*
X130104887Y-65555000D01*
X129467201Y-65819138D01*
X129031339Y-66255000D01*
X112818661Y-66255000D01*
X112382799Y-65819138D01*
X111745113Y-65555000D01*
X111054887Y-65555000D01*
X110417201Y-65819138D01*
X109981339Y-66255000D01*
X93768661Y-66255000D01*
X93332799Y-65819138D01*
X92695113Y-65555000D01*
X92004887Y-65555000D01*
X91367201Y-65819138D01*
X90931339Y-66255000D01*
X74718661Y-66255000D01*
X74282799Y-65819138D01*
X73645113Y-65555000D01*
X73028711Y-65555000D01*
X72003937Y-64530227D01*
X71946193Y-64443807D01*
X71603837Y-64215052D01*
X71301935Y-64155000D01*
X71301934Y-64155000D01*
X71200000Y-64134724D01*
X71098066Y-64155000D01*
X58614396Y-64155000D01*
X58432862Y-63973466D01*
X58303784Y-63920000D01*
X58432862Y-63866534D01*
X58836534Y-63462862D01*
X59055000Y-62935439D01*
X59055000Y-62364561D01*
X58836534Y-61837138D01*
X58432862Y-61433466D01*
X58303784Y-61380000D01*
X58432862Y-61326534D01*
X58836534Y-60922862D01*
X59055000Y-60395439D01*
X59055000Y-59824561D01*
X58836534Y-59297138D01*
X58432862Y-58893466D01*
X58319417Y-58846475D01*
X58374005Y-58823864D01*
X58448139Y-58577745D01*
X57620000Y-57749605D01*
X56791861Y-58577745D01*
X56865995Y-58823864D01*
X56924448Y-58844874D01*
X56807138Y-58893466D01*
X56403466Y-59297138D01*
X56185000Y-59824561D01*
X56185000Y-60081289D01*
X51840225Y-64426065D01*
X51753808Y-64483807D01*
X51696066Y-64570224D01*
X51525052Y-64826164D01*
X51444724Y-65230000D01*
X51465001Y-65331939D01*
X51465000Y-94722761D01*
X51222761Y-94965000D01*
X47277239Y-94965000D01*
X46926153Y-94613914D01*
X46325222Y-94365000D01*
X45674778Y-94365000D01*
X45073847Y-94613914D01*
X44613914Y-95073847D01*
X44365000Y-95674778D01*
X40710000Y-95674778D01*
X40710000Y-64904561D01*
X40945000Y-64904561D01*
X40945000Y-65475439D01*
X41163466Y-66002862D01*
X41567138Y-66406534D01*
X41696216Y-66460000D01*
X41567138Y-66513466D01*
X41163466Y-66917138D01*
X40945000Y-67444561D01*
X40945000Y-68015439D01*
X41163466Y-68542862D01*
X41567138Y-68946534D01*
X41696216Y-69000000D01*
X41567138Y-69053466D01*
X41163466Y-69457138D01*
X40945000Y-69984561D01*
X40945000Y-70555439D01*
X41163466Y-71082862D01*
X41567138Y-71486534D01*
X41696216Y-71540000D01*
X41567138Y-71593466D01*
X41163466Y-71997138D01*
X40945000Y-72524561D01*
X40945000Y-73095439D01*
X41163466Y-73622862D01*
X41567138Y-74026534D01*
X41696216Y-74080000D01*
X41567138Y-74133466D01*
X41163466Y-74537138D01*
X40945000Y-75064561D01*
X40945000Y-75635439D01*
X41163466Y-76162862D01*
X41567138Y-76566534D01*
X41696216Y-76620000D01*
X41567138Y-76673466D01*
X41163466Y-77077138D01*
X40945000Y-77604561D01*
X40945000Y-78175439D01*
X41163466Y-78702862D01*
X41567138Y-79106534D01*
X41696216Y-79160000D01*
X41567138Y-79213466D01*
X41163466Y-79617138D01*
X40945000Y-80144561D01*
X40945000Y-80715439D01*
X41163466Y-81242862D01*
X41567138Y-81646534D01*
X41696216Y-81700000D01*
X41567138Y-81753466D01*
X41163466Y-82157138D01*
X40945000Y-82684561D01*
X40945000Y-83255439D01*
X41163466Y-83782862D01*
X41567138Y-84186534D01*
X42094561Y-84405000D01*
X42665439Y-84405000D01*
X43192862Y-84186534D01*
X43596534Y-83782862D01*
X43815000Y-83255439D01*
X43815000Y-82684561D01*
X43596534Y-82157138D01*
X43192862Y-81753466D01*
X43063784Y-81700000D01*
X43192862Y-81646534D01*
X43596534Y-81242862D01*
X43815000Y-80715439D01*
X43815000Y-80144561D01*
X43596534Y-79617138D01*
X43192862Y-79213466D01*
X43063784Y-79160000D01*
X43192862Y-79106534D01*
X43596534Y-78702862D01*
X43815000Y-78175439D01*
X43815000Y-77604561D01*
X43596534Y-77077138D01*
X43192862Y-76673466D01*
X43063784Y-76620000D01*
X43192862Y-76566534D01*
X43596534Y-76162862D01*
X43815000Y-75635439D01*
X43815000Y-75064561D01*
X43596534Y-74537138D01*
X43192862Y-74133466D01*
X43063784Y-74080000D01*
X43192862Y-74026534D01*
X43596534Y-73622862D01*
X43815000Y-73095439D01*
X43815000Y-72524561D01*
X43596534Y-71997138D01*
X43192862Y-71593466D01*
X43063784Y-71540000D01*
X43192862Y-71486534D01*
X43596534Y-71082862D01*
X43815000Y-70555439D01*
X43815000Y-69984561D01*
X43596534Y-69457138D01*
X43192862Y-69053466D01*
X43063784Y-69000000D01*
X43192862Y-68946534D01*
X43596534Y-68542862D01*
X43815000Y-68015439D01*
X43815000Y-67444561D01*
X43596534Y-66917138D01*
X43192862Y-66513466D01*
X43063784Y-66460000D01*
X43192862Y-66406534D01*
X43596534Y-66002862D01*
X43815000Y-65475439D01*
X43815000Y-64904561D01*
X43596534Y-64377138D01*
X43192862Y-63973466D01*
X43079417Y-63926475D01*
X43134005Y-63903864D01*
X43208139Y-63657745D01*
X42380000Y-62829605D01*
X41551861Y-63657745D01*
X41625995Y-63903864D01*
X41684448Y-63924874D01*
X41567138Y-63973466D01*
X41163466Y-64377138D01*
X40945000Y-64904561D01*
X40710000Y-64904561D01*
X40710000Y-62433223D01*
X40933035Y-62433223D01*
X40960222Y-63003454D01*
X41126136Y-63404005D01*
X41372255Y-63478139D01*
X42200395Y-62650000D01*
X42559605Y-62650000D01*
X43387745Y-63478139D01*
X43633864Y-63404005D01*
X43826965Y-62866777D01*
X43799778Y-62296546D01*
X43633864Y-61895995D01*
X43387745Y-61821861D01*
X42559605Y-62650000D01*
X42200395Y-62650000D01*
X41372255Y-61821861D01*
X41126136Y-61895995D01*
X40933035Y-62433223D01*
X40710000Y-62433223D01*
X40710000Y-61117745D01*
X41551861Y-61117745D01*
X41625995Y-61363864D01*
X41667709Y-61378858D01*
X41625995Y-61396136D01*
X41551861Y-61642255D01*
X42380000Y-62470395D01*
X43208139Y-61642255D01*
X43134005Y-61396136D01*
X43092291Y-61381142D01*
X43134005Y-61363864D01*
X43208139Y-61117745D01*
X42380000Y-60289605D01*
X41551861Y-61117745D01*
X40710000Y-61117745D01*
X40710000Y-59893223D01*
X40933035Y-59893223D01*
X40960222Y-60463454D01*
X41126136Y-60864005D01*
X41372255Y-60938139D01*
X42200395Y-60110000D01*
X42559605Y-60110000D01*
X43387745Y-60938139D01*
X43633864Y-60864005D01*
X43826965Y-60326777D01*
X43799778Y-59756546D01*
X43633864Y-59355995D01*
X43387745Y-59281861D01*
X42559605Y-60110000D01*
X42200395Y-60110000D01*
X41372255Y-59281861D01*
X41126136Y-59355995D01*
X40933035Y-59893223D01*
X40710000Y-59893223D01*
X40710000Y-54230000D01*
X40932560Y-54230000D01*
X40932560Y-55830000D01*
X40981843Y-56077765D01*
X41122191Y-56287809D01*
X41332235Y-56428157D01*
X41465866Y-56454738D01*
X41163466Y-56757138D01*
X40945000Y-57284561D01*
X40945000Y-57855439D01*
X41163466Y-58382862D01*
X41567138Y-58786534D01*
X41680583Y-58833525D01*
X41625995Y-58856136D01*
X41551861Y-59102255D01*
X42380000Y-59930395D01*
X43208139Y-59102255D01*
X43134005Y-58856136D01*
X43075552Y-58835126D01*
X43192862Y-58786534D01*
X43596534Y-58382862D01*
X43815000Y-57855439D01*
X43815000Y-57353223D01*
X56173035Y-57353223D01*
X56200222Y-57923454D01*
X56366136Y-58324005D01*
X56612255Y-58398139D01*
X57440395Y-57570000D01*
X57799605Y-57570000D01*
X58627745Y-58398139D01*
X58873864Y-58324005D01*
X59066965Y-57786777D01*
X59039778Y-57216546D01*
X58873864Y-56815995D01*
X58627745Y-56741861D01*
X57799605Y-57570000D01*
X57440395Y-57570000D01*
X56612255Y-56741861D01*
X56366136Y-56815995D01*
X56173035Y-57353223D01*
X43815000Y-57353223D01*
X43815000Y-57284561D01*
X43596534Y-56757138D01*
X43294134Y-56454738D01*
X43427765Y-56428157D01*
X43637809Y-56287809D01*
X43778157Y-56077765D01*
X43827440Y-55830000D01*
X43827440Y-54744561D01*
X56185000Y-54744561D01*
X56185000Y-55315439D01*
X56403466Y-55842862D01*
X56807138Y-56246534D01*
X56920583Y-56293525D01*
X56865995Y-56316136D01*
X56791861Y-56562255D01*
X57620000Y-57390395D01*
X58448139Y-56562255D01*
X58374005Y-56316136D01*
X58315552Y-56295126D01*
X58432862Y-56246534D01*
X58836534Y-55842862D01*
X59055000Y-55315439D01*
X59055000Y-54744561D01*
X58844832Y-54237171D01*
X61165000Y-54237171D01*
X61165000Y-55762829D01*
X61748844Y-57172353D01*
X62827647Y-58251156D01*
X64237171Y-58835000D01*
X65762829Y-58835000D01*
X67172353Y-58251156D01*
X68251156Y-57172353D01*
X68835000Y-55762829D01*
X68835000Y-54237171D01*
X131165000Y-54237171D01*
X131165000Y-55762829D01*
X131748844Y-57172353D01*
X132827647Y-58251156D01*
X134237171Y-58835000D01*
X135762829Y-58835000D01*
X137172353Y-58251156D01*
X138251156Y-57172353D01*
X138835000Y-55762829D01*
X138835000Y-54237171D01*
X138251156Y-52827647D01*
X137172353Y-51748844D01*
X135762829Y-51165000D01*
X134237171Y-51165000D01*
X132827647Y-51748844D01*
X131748844Y-52827647D01*
X131165000Y-54237171D01*
X68835000Y-54237171D01*
X68251156Y-52827647D01*
X67172353Y-51748844D01*
X65762829Y-51165000D01*
X64237171Y-51165000D01*
X62827647Y-51748844D01*
X61748844Y-52827647D01*
X61165000Y-54237171D01*
X58844832Y-54237171D01*
X58836534Y-54217138D01*
X58432862Y-53813466D01*
X57905439Y-53595000D01*
X57334561Y-53595000D01*
X56807138Y-53813466D01*
X56403466Y-54217138D01*
X56185000Y-54744561D01*
X43827440Y-54744561D01*
X43827440Y-54230000D01*
X43778157Y-53982235D01*
X43637809Y-53772191D01*
X43427765Y-53631843D01*
X43180000Y-53582560D01*
X41580000Y-53582560D01*
X41332235Y-53631843D01*
X41122191Y-53772191D01*
X40981843Y-53982235D01*
X40932560Y-54230000D01*
X40710000Y-54230000D01*
X40710000Y-50710000D01*
X139290000Y-50710000D01*
X139290001Y-149290000D01*
X139290001Y-149290000D01*
G37*
X139290001Y-149290000D02*
X40710000Y-149290000D01*
X40710000Y-144237171D01*
X41165000Y-144237171D01*
X41165000Y-145762829D01*
X41748844Y-147172353D01*
X42827647Y-148251156D01*
X44237171Y-148835000D01*
X45762829Y-148835000D01*
X47172353Y-148251156D01*
X48251156Y-147172353D01*
X48835000Y-145762829D01*
X48835000Y-144237171D01*
X131165000Y-144237171D01*
X131165000Y-145762829D01*
X131748844Y-147172353D01*
X132827647Y-148251156D01*
X134237171Y-148835000D01*
X135762829Y-148835000D01*
X137172353Y-148251156D01*
X138251156Y-147172353D01*
X138835000Y-145762829D01*
X138835000Y-144237171D01*
X138251156Y-142827647D01*
X137172353Y-141748844D01*
X135762829Y-141165000D01*
X134237171Y-141165000D01*
X132827647Y-141748844D01*
X131748844Y-142827647D01*
X131165000Y-144237171D01*
X48835000Y-144237171D01*
X48251156Y-142827647D01*
X47172353Y-141748844D01*
X45762829Y-141165000D01*
X44237171Y-141165000D01*
X42827647Y-141748844D01*
X41748844Y-142827647D01*
X41165000Y-144237171D01*
X40710000Y-144237171D01*
X40710000Y-138265000D01*
X65502560Y-138265000D01*
X65502560Y-139865000D01*
X65551843Y-140112765D01*
X65692191Y-140322809D01*
X65902235Y-140463157D01*
X66150000Y-140512440D01*
X67750000Y-140512440D01*
X67997765Y-140463157D01*
X68207809Y-140322809D01*
X68348157Y-140112765D01*
X68397440Y-139865000D01*
X68397440Y-139065000D01*
X73106887Y-139065000D01*
X73218260Y-139624909D01*
X73535423Y-140099577D01*
X74010091Y-140416740D01*
X74428667Y-140500000D01*
X74711333Y-140500000D01*
X75129909Y-140416740D01*
X75604577Y-140099577D01*
X75921740Y-139624909D01*
X76033113Y-139065000D01*
X75921740Y-138505091D01*
X75761317Y-138265000D01*
X84552560Y-138265000D01*
X84552560Y-139865000D01*
X84601843Y-140112765D01*
X84742191Y-140322809D01*
X84952235Y-140463157D01*
X85200000Y-140512440D01*
X86800000Y-140512440D01*
X87047765Y-140463157D01*
X87257809Y-140322809D01*
X87398157Y-140112765D01*
X87447440Y-139865000D01*
X87447440Y-139065000D01*
X92156887Y-139065000D01*
X92268260Y-139624909D01*
X92585423Y-140099577D01*
X93060091Y-140416740D01*
X93478667Y-140500000D01*
X93761333Y-140500000D01*
X94179909Y-140416740D01*
X94654577Y-140099577D01*
X94971740Y-139624909D01*
X95083113Y-139065000D01*
X94971740Y-138505091D01*
X94811317Y-138265000D01*
X103602560Y-138265000D01*
X103602560Y-139865000D01*
X103651843Y-140112765D01*
X103792191Y-140322809D01*
X104002235Y-140463157D01*
X104250000Y-140512440D01*
X105850000Y-140512440D01*
X106097765Y-140463157D01*
X106307809Y-140322809D01*
X106448157Y-140112765D01*
X106497440Y-139865000D01*
X106497440Y-139065000D01*
X111206887Y-139065000D01*
X111318260Y-139624909D01*
X111635423Y-140099577D01*
X112110091Y-140416740D01*
X112528667Y-140500000D01*
X112811333Y-140500000D01*
X113229909Y-140416740D01*
X113704577Y-140099577D01*
X114021740Y-139624909D01*
X114133113Y-139065000D01*
X114021740Y-138505091D01*
X113861317Y-138265000D01*
X122652560Y-138265000D01*
X122652560Y-139865000D01*
X122701843Y-140112765D01*
X122842191Y-140322809D01*
X123052235Y-140463157D01*
X123300000Y-140512440D01*
X124900000Y-140512440D01*
X125147765Y-140463157D01*
X125357809Y-140322809D01*
X125498157Y-140112765D01*
X125547440Y-139865000D01*
X125547440Y-139065000D01*
X130256887Y-139065000D01*
X130368260Y-139624909D01*
X130685423Y-140099577D01*
X131160091Y-140416740D01*
X131578667Y-140500000D01*
X131861333Y-140500000D01*
X132279909Y-140416740D01*
X132754577Y-140099577D01*
X133071740Y-139624909D01*
X133183113Y-139065000D01*
X133071740Y-138505091D01*
X132754577Y-138030423D01*
X132279909Y-137713260D01*
X131861333Y-137630000D01*
X131578667Y-137630000D01*
X131160091Y-137713260D01*
X130685423Y-138030423D01*
X130368260Y-138505091D01*
X130256887Y-139065000D01*
X125547440Y-139065000D01*
X125547440Y-138265000D01*
X125498157Y-138017235D01*
X125357809Y-137807191D01*
X125147765Y-137666843D01*
X124900000Y-137617560D01*
X123300000Y-137617560D01*
X123052235Y-137666843D01*
X122842191Y-137807191D01*
X122701843Y-138017235D01*
X122652560Y-138265000D01*
X113861317Y-138265000D01*
X113704577Y-138030423D01*
X113229909Y-137713260D01*
X112811333Y-137630000D01*
X112528667Y-137630000D01*
X112110091Y-137713260D01*
X111635423Y-138030423D01*
X111318260Y-138505091D01*
X111206887Y-139065000D01*
X106497440Y-139065000D01*
X106497440Y-138265000D01*
X106448157Y-138017235D01*
X106307809Y-137807191D01*
X106097765Y-137666843D01*
X105850000Y-137617560D01*
X104250000Y-137617560D01*
X104002235Y-137666843D01*
X103792191Y-137807191D01*
X103651843Y-138017235D01*
X103602560Y-138265000D01*
X94811317Y-138265000D01*
X94654577Y-138030423D01*
X94179909Y-137713260D01*
X93761333Y-137630000D01*
X93478667Y-137630000D01*
X93060091Y-137713260D01*
X92585423Y-138030423D01*
X92268260Y-138505091D01*
X92156887Y-139065000D01*
X87447440Y-139065000D01*
X87447440Y-138265000D01*
X87398157Y-138017235D01*
X87257809Y-137807191D01*
X87047765Y-137666843D01*
X86800000Y-137617560D01*
X85200000Y-137617560D01*
X84952235Y-137666843D01*
X84742191Y-137807191D01*
X84601843Y-138017235D01*
X84552560Y-138265000D01*
X75761317Y-138265000D01*
X75604577Y-138030423D01*
X75129909Y-137713260D01*
X74711333Y-137630000D01*
X74428667Y-137630000D01*
X74010091Y-137713260D01*
X73535423Y-138030423D01*
X73218260Y-138505091D01*
X73106887Y-139065000D01*
X68397440Y-139065000D01*
X68397440Y-138265000D01*
X68348157Y-138017235D01*
X68207809Y-137807191D01*
X67997765Y-137666843D01*
X67750000Y-137617560D01*
X66150000Y-137617560D01*
X65902235Y-137666843D01*
X65692191Y-137807191D01*
X65551843Y-138017235D01*
X65502560Y-138265000D01*
X40710000Y-138265000D01*
X40710000Y-129224615D01*
X64195000Y-129224615D01*
X64195000Y-129815385D01*
X64421078Y-130361185D01*
X64838815Y-130778922D01*
X65384615Y-131005000D01*
X65975385Y-131005000D01*
X66521185Y-130778922D01*
X66938922Y-130361185D01*
X67165000Y-129815385D01*
X67165000Y-129224615D01*
X67070249Y-128995866D01*
X68125000Y-128995866D01*
X68125000Y-130044134D01*
X68526155Y-131012608D01*
X69267392Y-131753845D01*
X70235866Y-132155000D01*
X71284134Y-132155000D01*
X72252608Y-131753845D01*
X72993845Y-131012608D01*
X73395000Y-130044134D01*
X73395000Y-129224615D01*
X74355000Y-129224615D01*
X74355000Y-129815385D01*
X74581078Y-130361185D01*
X74998815Y-130778922D01*
X75544615Y-131005000D01*
X76135385Y-131005000D01*
X76681185Y-130778922D01*
X77098922Y-130361185D01*
X77325000Y-129815385D01*
X77325000Y-129224615D01*
X77098922Y-128678815D01*
X76681185Y-128261078D01*
X76135385Y-128035000D01*
X75544615Y-128035000D01*
X74998815Y-128261078D01*
X74581078Y-128678815D01*
X74355000Y-129224615D01*
X73395000Y-129224615D01*
X73395000Y-128995866D01*
X72993845Y-128027392D01*
X72252608Y-127286155D01*
X71284134Y-126885000D01*
X70235866Y-126885000D01*
X69267392Y-127286155D01*
X68526155Y-128027392D01*
X68125000Y-128995866D01*
X67070249Y-128995866D01*
X66953910Y-128715000D01*
X67295113Y-128715000D01*
X67932799Y-128450862D01*
X68420862Y-127962799D01*
X68685000Y-127325113D01*
X68685000Y-126634887D01*
X68420862Y-125997201D01*
X67932799Y-125509138D01*
X67295113Y-125245000D01*
X66604887Y-125245000D01*
X65967201Y-125509138D01*
X65479138Y-125997201D01*
X65215000Y-126634887D01*
X65215000Y-127325113D01*
X65479138Y-127962799D01*
X65551339Y-128035000D01*
X65384615Y-128035000D01*
X64838815Y-128261078D01*
X64421078Y-128678815D01*
X64195000Y-129224615D01*
X40710000Y-129224615D01*
X40710000Y-124094887D01*
X71565000Y-124094887D01*
X71565000Y-124785113D01*
X71829138Y-125422799D01*
X72317201Y-125910862D01*
X72954887Y-126175000D01*
X73645113Y-126175000D01*
X74282799Y-125910862D01*
X74718661Y-125475000D01*
X85099617Y-125475000D01*
X85017201Y-125509138D01*
X84529138Y-125997201D01*
X84265000Y-126634887D01*
X84265000Y-127325113D01*
X84529138Y-127962799D01*
X84601339Y-128035000D01*
X84434615Y-128035000D01*
X83888815Y-128261078D01*
X83471078Y-128678815D01*
X83245000Y-129224615D01*
X83245000Y-129815385D01*
X83471078Y-130361185D01*
X83888815Y-130778922D01*
X84434615Y-131005000D01*
X85025385Y-131005000D01*
X85571185Y-130778922D01*
X85988922Y-130361185D01*
X86215000Y-129815385D01*
X86215000Y-129224615D01*
X86120249Y-128995866D01*
X87175000Y-128995866D01*
X87175000Y-130044134D01*
X87576155Y-131012608D01*
X88317392Y-131753845D01*
X89285866Y-132155000D01*
X90334134Y-132155000D01*
X91302608Y-131753845D01*
X92043845Y-131012608D01*
X92445000Y-130044134D01*
X92445000Y-129224615D01*
X93405000Y-129224615D01*
X93405000Y-129815385D01*
X93631078Y-130361185D01*
X94048815Y-130778922D01*
X94594615Y-131005000D01*
X95185385Y-131005000D01*
X95731185Y-130778922D01*
X96148922Y-130361185D01*
X96375000Y-129815385D01*
X96375000Y-129224615D01*
X96148922Y-128678815D01*
X95731185Y-128261078D01*
X95185385Y-128035000D01*
X94594615Y-128035000D01*
X94048815Y-128261078D01*
X93631078Y-128678815D01*
X93405000Y-129224615D01*
X92445000Y-129224615D01*
X92445000Y-128995866D01*
X92043845Y-128027392D01*
X91302608Y-127286155D01*
X90334134Y-126885000D01*
X89285866Y-126885000D01*
X88317392Y-127286155D01*
X87576155Y-128027392D01*
X87175000Y-128995866D01*
X86120249Y-128995866D01*
X86003910Y-128715000D01*
X86345113Y-128715000D01*
X86982799Y-128450862D01*
X87470862Y-127962799D01*
X87735000Y-127325113D01*
X87735000Y-126634887D01*
X87470862Y-125997201D01*
X86982799Y-125509138D01*
X86900383Y-125475000D01*
X90931339Y-125475000D01*
X91367201Y-125910862D01*
X92004887Y-126175000D01*
X92695113Y-126175000D01*
X93332799Y-125910862D01*
X93768661Y-125475000D01*
X104149617Y-125475000D01*
X104067201Y-125509138D01*
X103579138Y-125997201D01*
X103315000Y-126634887D01*
X103315000Y-127325113D01*
X103579138Y-127962799D01*
X103651339Y-128035000D01*
X103484615Y-128035000D01*
X102938815Y-128261078D01*
X102521078Y-128678815D01*
X102295000Y-129224615D01*
X102295000Y-129815385D01*
X102521078Y-130361185D01*
X102938815Y-130778922D01*
X103484615Y-131005000D01*
X104075385Y-131005000D01*
X104621185Y-130778922D01*
X105038922Y-130361185D01*
X105265000Y-129815385D01*
X105265000Y-129224615D01*
X105170249Y-128995866D01*
X106225000Y-128995866D01*
X106225000Y-130044134D01*
X106626155Y-131012608D01*
X107367392Y-131753845D01*
X108335866Y-132155000D01*
X109384134Y-132155000D01*
X110352608Y-131753845D01*
X111093845Y-131012608D01*
X111495000Y-130044134D01*
X111495000Y-129224615D01*
X112455000Y-129224615D01*
X112455000Y-129815385D01*
X112681078Y-130361185D01*
X113098815Y-130778922D01*
X113644615Y-131005000D01*
X114235385Y-131005000D01*
X114781185Y-130778922D01*
X115198922Y-130361185D01*
X115425000Y-129815385D01*
X115425000Y-129224615D01*
X115198922Y-128678815D01*
X114781185Y-128261078D01*
X114235385Y-128035000D01*
X113644615Y-128035000D01*
X113098815Y-128261078D01*
X112681078Y-128678815D01*
X112455000Y-129224615D01*
X111495000Y-129224615D01*
X111495000Y-128995866D01*
X111093845Y-128027392D01*
X110352608Y-127286155D01*
X109384134Y-126885000D01*
X108335866Y-126885000D01*
X107367392Y-127286155D01*
X106626155Y-128027392D01*
X106225000Y-128995866D01*
X105170249Y-128995866D01*
X105053910Y-128715000D01*
X105395113Y-128715000D01*
X106032799Y-128450862D01*
X106520862Y-127962799D01*
X106785000Y-127325113D01*
X106785000Y-126634887D01*
X106520862Y-125997201D01*
X106032799Y-125509138D01*
X105950383Y-125475000D01*
X109981339Y-125475000D01*
X110417201Y-125910862D01*
X111054887Y-126175000D01*
X111745113Y-126175000D01*
X112382799Y-125910862D01*
X112818661Y-125475000D01*
X123199617Y-125475000D01*
X123117201Y-125509138D01*
X122629138Y-125997201D01*
X122365000Y-126634887D01*
X122365000Y-127325113D01*
X122629138Y-127962799D01*
X122701339Y-128035000D01*
X122534615Y-128035000D01*
X121988815Y-128261078D01*
X121571078Y-128678815D01*
X121345000Y-129224615D01*
X121345000Y-129815385D01*
X121571078Y-130361185D01*
X121988815Y-130778922D01*
X122534615Y-131005000D01*
X123125385Y-131005000D01*
X123671185Y-130778922D01*
X124088922Y-130361185D01*
X124315000Y-129815385D01*
X124315000Y-129224615D01*
X124220249Y-128995866D01*
X125275000Y-128995866D01*
X125275000Y-130044134D01*
X125676155Y-131012608D01*
X126417392Y-131753845D01*
X127385866Y-132155000D01*
X128434134Y-132155000D01*
X129402608Y-131753845D01*
X130143845Y-131012608D01*
X130545000Y-130044134D01*
X130545000Y-129224615D01*
X131505000Y-129224615D01*
X131505000Y-129815385D01*
X131731078Y-130361185D01*
X132148815Y-130778922D01*
X132694615Y-131005000D01*
X133285385Y-131005000D01*
X133831185Y-130778922D01*
X134248922Y-130361185D01*
X134475000Y-129815385D01*
X134475000Y-129224615D01*
X134248922Y-128678815D01*
X133831185Y-128261078D01*
X133285385Y-128035000D01*
X132694615Y-128035000D01*
X132148815Y-128261078D01*
X131731078Y-128678815D01*
X131505000Y-129224615D01*
X130545000Y-129224615D01*
X130545000Y-128995866D01*
X130143845Y-128027392D01*
X129402608Y-127286155D01*
X128434134Y-126885000D01*
X127385866Y-126885000D01*
X126417392Y-127286155D01*
X125676155Y-128027392D01*
X125275000Y-128995866D01*
X124220249Y-128995866D01*
X124103910Y-128715000D01*
X124445113Y-128715000D01*
X125082799Y-128450862D01*
X125570862Y-127962799D01*
X125835000Y-127325113D01*
X125835000Y-126634887D01*
X125570862Y-125997201D01*
X125082799Y-125509138D01*
X125000383Y-125475000D01*
X129031339Y-125475000D01*
X129467201Y-125910862D01*
X130104887Y-126175000D01*
X130795113Y-126175000D01*
X131432799Y-125910862D01*
X131920862Y-125422799D01*
X132185000Y-124785113D01*
X132185000Y-124094887D01*
X131920862Y-123457201D01*
X131432799Y-122969138D01*
X130795113Y-122705000D01*
X130104887Y-122705000D01*
X129467201Y-122969138D01*
X129031339Y-123405000D01*
X112818661Y-123405000D01*
X112382799Y-122969138D01*
X111745113Y-122705000D01*
X111054887Y-122705000D01*
X110417201Y-122969138D01*
X109981339Y-123405000D01*
X93768661Y-123405000D01*
X93332799Y-122969138D01*
X92695113Y-122705000D01*
X92004887Y-122705000D01*
X91367201Y-122969138D01*
X90931339Y-123405000D01*
X74718661Y-123405000D01*
X74282799Y-122969138D01*
X73645113Y-122705000D01*
X72954887Y-122705000D01*
X72317201Y-122969138D01*
X71829138Y-123457201D01*
X71565000Y-124094887D01*
X40710000Y-124094887D01*
X40710000Y-110174615D01*
X64195000Y-110174615D01*
X64195000Y-110765385D01*
X64421078Y-111311185D01*
X64838815Y-111728922D01*
X65384615Y-111955000D01*
X65975385Y-111955000D01*
X66349400Y-111800078D01*
X66349401Y-117551589D01*
X66290225Y-117610765D01*
X66203808Y-117668507D01*
X66146066Y-117754924D01*
X65975052Y-118010864D01*
X65894724Y-118414700D01*
X65915001Y-118516639D01*
X65915001Y-118614304D01*
X65902235Y-118616843D01*
X65692191Y-118757191D01*
X65551843Y-118967235D01*
X65502560Y-119215000D01*
X65502560Y-120815000D01*
X65551843Y-121062765D01*
X65692191Y-121272809D01*
X65902235Y-121413157D01*
X66150000Y-121462440D01*
X67750000Y-121462440D01*
X67997765Y-121413157D01*
X68207809Y-121272809D01*
X68348157Y-121062765D01*
X68397440Y-120815000D01*
X68397440Y-120015000D01*
X73106887Y-120015000D01*
X73218260Y-120574909D01*
X73535423Y-121049577D01*
X74010091Y-121366740D01*
X74428667Y-121450000D01*
X74711333Y-121450000D01*
X75129909Y-121366740D01*
X75604577Y-121049577D01*
X75921740Y-120574909D01*
X76033113Y-120015000D01*
X75921740Y-119455091D01*
X75761317Y-119215000D01*
X84552560Y-119215000D01*
X84552560Y-120815000D01*
X84601843Y-121062765D01*
X84742191Y-121272809D01*
X84952235Y-121413157D01*
X85200000Y-121462440D01*
X86800000Y-121462440D01*
X87047765Y-121413157D01*
X87257809Y-121272809D01*
X87398157Y-121062765D01*
X87447440Y-120815000D01*
X87447440Y-120015000D01*
X92156887Y-120015000D01*
X92268260Y-120574909D01*
X92585423Y-121049577D01*
X93060091Y-121366740D01*
X93478667Y-121450000D01*
X93761333Y-121450000D01*
X94179909Y-121366740D01*
X94654577Y-121049577D01*
X94971740Y-120574909D01*
X95083113Y-120015000D01*
X94971740Y-119455091D01*
X94811317Y-119215000D01*
X103602560Y-119215000D01*
X103602560Y-120815000D01*
X103651843Y-121062765D01*
X103792191Y-121272809D01*
X104002235Y-121413157D01*
X104250000Y-121462440D01*
X105850000Y-121462440D01*
X106097765Y-121413157D01*
X106307809Y-121272809D01*
X106448157Y-121062765D01*
X106497440Y-120815000D01*
X106497440Y-120015000D01*
X111206887Y-120015000D01*
X111318260Y-120574909D01*
X111635423Y-121049577D01*
X112110091Y-121366740D01*
X112528667Y-121450000D01*
X112811333Y-121450000D01*
X113229909Y-121366740D01*
X113704577Y-121049577D01*
X114021740Y-120574909D01*
X114133113Y-120015000D01*
X114021740Y-119455091D01*
X113861317Y-119215000D01*
X122652560Y-119215000D01*
X122652560Y-120815000D01*
X122701843Y-121062765D01*
X122842191Y-121272809D01*
X123052235Y-121413157D01*
X123300000Y-121462440D01*
X124900000Y-121462440D01*
X125147765Y-121413157D01*
X125357809Y-121272809D01*
X125498157Y-121062765D01*
X125547440Y-120815000D01*
X125547440Y-120015000D01*
X130256887Y-120015000D01*
X130368260Y-120574909D01*
X130685423Y-121049577D01*
X131160091Y-121366740D01*
X131578667Y-121450000D01*
X131861333Y-121450000D01*
X132279909Y-121366740D01*
X132754577Y-121049577D01*
X133071740Y-120574909D01*
X133183113Y-120015000D01*
X133071740Y-119455091D01*
X132754577Y-118980423D01*
X132279909Y-118663260D01*
X131861333Y-118580000D01*
X131578667Y-118580000D01*
X131160091Y-118663260D01*
X130685423Y-118980423D01*
X130368260Y-119455091D01*
X130256887Y-120015000D01*
X125547440Y-120015000D01*
X125547440Y-119215000D01*
X125498157Y-118967235D01*
X125357809Y-118757191D01*
X125147765Y-118616843D01*
X124900000Y-118567560D01*
X123300000Y-118567560D01*
X123052235Y-118616843D01*
X122842191Y-118757191D01*
X122701843Y-118967235D01*
X122652560Y-119215000D01*
X113861317Y-119215000D01*
X113704577Y-118980423D01*
X113229909Y-118663260D01*
X112811333Y-118580000D01*
X112528667Y-118580000D01*
X112110091Y-118663260D01*
X111635423Y-118980423D01*
X111318260Y-119455091D01*
X111206887Y-120015000D01*
X106497440Y-120015000D01*
X106497440Y-119215000D01*
X106448157Y-118967235D01*
X106307809Y-118757191D01*
X106097765Y-118616843D01*
X105850000Y-118567560D01*
X104250000Y-118567560D01*
X104002235Y-118616843D01*
X103792191Y-118757191D01*
X103651843Y-118967235D01*
X103602560Y-119215000D01*
X94811317Y-119215000D01*
X94654577Y-118980423D01*
X94179909Y-118663260D01*
X93761333Y-118580000D01*
X93478667Y-118580000D01*
X93060091Y-118663260D01*
X92585423Y-118980423D01*
X92268260Y-119455091D01*
X92156887Y-120015000D01*
X87447440Y-120015000D01*
X87447440Y-119215000D01*
X87398157Y-118967235D01*
X87257809Y-118757191D01*
X87047765Y-118616843D01*
X86800000Y-118567560D01*
X85200000Y-118567560D01*
X84952235Y-118616843D01*
X84742191Y-118757191D01*
X84601843Y-118967235D01*
X84552560Y-119215000D01*
X75761317Y-119215000D01*
X75604577Y-118980423D01*
X75129909Y-118663260D01*
X74711333Y-118580000D01*
X74428667Y-118580000D01*
X74010091Y-118663260D01*
X73535423Y-118980423D01*
X73218260Y-119455091D01*
X73106887Y-120015000D01*
X68397440Y-120015000D01*
X68397440Y-119215000D01*
X68348157Y-118967235D01*
X68207809Y-118757191D01*
X68140246Y-118712046D01*
X68359348Y-118384137D01*
X68419400Y-118082235D01*
X68419400Y-118082230D01*
X68439675Y-117980301D01*
X68419400Y-117878371D01*
X68419400Y-111704879D01*
X68526155Y-111962608D01*
X69267392Y-112703845D01*
X70235866Y-113105000D01*
X71284134Y-113105000D01*
X72252608Y-112703845D01*
X72993845Y-111962608D01*
X73395000Y-110994134D01*
X73395000Y-110174615D01*
X74355000Y-110174615D01*
X74355000Y-110765385D01*
X74581078Y-111311185D01*
X74998815Y-111728922D01*
X75544615Y-111955000D01*
X76135385Y-111955000D01*
X76681185Y-111728922D01*
X77098922Y-111311185D01*
X77325000Y-110765385D01*
X77325000Y-110174615D01*
X77098922Y-109628815D01*
X76681185Y-109211078D01*
X76135385Y-108985000D01*
X75544615Y-108985000D01*
X74998815Y-109211078D01*
X74581078Y-109628815D01*
X74355000Y-110174615D01*
X73395000Y-110174615D01*
X73395000Y-109945866D01*
X72993845Y-108977392D01*
X72252608Y-108236155D01*
X71284134Y-107835000D01*
X70235866Y-107835000D01*
X69267392Y-108236155D01*
X68526155Y-108977392D01*
X68419400Y-109235121D01*
X68419400Y-108914261D01*
X68420862Y-108912799D01*
X68685000Y-108275113D01*
X68685000Y-107584887D01*
X68420862Y-106947201D01*
X67932799Y-106459138D01*
X67295113Y-106195000D01*
X66604887Y-106195000D01*
X65967201Y-106459138D01*
X65479138Y-106947201D01*
X65215000Y-107584887D01*
X65215000Y-108275113D01*
X65479138Y-108912799D01*
X65551339Y-108985000D01*
X65384615Y-108985000D01*
X64838815Y-109211078D01*
X64421078Y-109628815D01*
X64195000Y-110174615D01*
X40710000Y-110174615D01*
X40710000Y-101652532D01*
X45027073Y-101652532D01*
X45125736Y-101919387D01*
X45735461Y-102145908D01*
X46385460Y-102121856D01*
X46874264Y-101919387D01*
X46972927Y-101652532D01*
X51527073Y-101652532D01*
X51625736Y-101919387D01*
X52235461Y-102145908D01*
X52885460Y-102121856D01*
X53374264Y-101919387D01*
X53472927Y-101652532D01*
X52500000Y-100679605D01*
X51527073Y-101652532D01*
X46972927Y-101652532D01*
X46000000Y-100679605D01*
X45027073Y-101652532D01*
X40710000Y-101652532D01*
X40710000Y-100235461D01*
X44354092Y-100235461D01*
X44378144Y-100885460D01*
X44580613Y-101374264D01*
X44847468Y-101472927D01*
X45820395Y-100500000D01*
X46179605Y-100500000D01*
X47152532Y-101472927D01*
X47419387Y-101374264D01*
X47645908Y-100764539D01*
X47626331Y-100235461D01*
X50854092Y-100235461D01*
X50878144Y-100885460D01*
X51080613Y-101374264D01*
X51347468Y-101472927D01*
X52320395Y-100500000D01*
X52679605Y-100500000D01*
X53652532Y-101472927D01*
X53919387Y-101374264D01*
X54145908Y-100764539D01*
X54121856Y-100114540D01*
X53919387Y-99625736D01*
X53652532Y-99527073D01*
X52679605Y-100500000D01*
X52320395Y-100500000D01*
X51347468Y-99527073D01*
X51080613Y-99625736D01*
X50854092Y-100235461D01*
X47626331Y-100235461D01*
X47621856Y-100114540D01*
X47419387Y-99625736D01*
X47152532Y-99527073D01*
X46179605Y-100500000D01*
X45820395Y-100500000D01*
X44847468Y-99527073D01*
X44580613Y-99625736D01*
X44354092Y-100235461D01*
X40710000Y-100235461D01*
X40710000Y-99347468D01*
X45027073Y-99347468D01*
X46000000Y-100320395D01*
X46972927Y-99347468D01*
X51527073Y-99347468D01*
X52500000Y-100320395D01*
X53472927Y-99347468D01*
X53374264Y-99080613D01*
X52764539Y-98854092D01*
X52114540Y-98878144D01*
X51625736Y-99080613D01*
X51527073Y-99347468D01*
X46972927Y-99347468D01*
X46874264Y-99080613D01*
X46264539Y-98854092D01*
X45614540Y-98878144D01*
X45125736Y-99080613D01*
X45027073Y-99347468D01*
X40710000Y-99347468D01*
X40710000Y-95674778D01*
X44365000Y-95674778D01*
X44365000Y-96325222D01*
X44613914Y-96926153D01*
X45073847Y-97386086D01*
X45674778Y-97635000D01*
X46325222Y-97635000D01*
X46926153Y-97386086D01*
X47277239Y-97035000D01*
X51222761Y-97035000D01*
X51573847Y-97386086D01*
X52174778Y-97635000D01*
X52825222Y-97635000D01*
X53426153Y-97386086D01*
X53886086Y-96926153D01*
X54135000Y-96325222D01*
X54135000Y-95674778D01*
X53886086Y-95073847D01*
X53535000Y-94722761D01*
X53535000Y-65658710D01*
X56206461Y-62987250D01*
X56403466Y-63462862D01*
X56807138Y-63866534D01*
X56936216Y-63920000D01*
X56807138Y-63973466D01*
X56403466Y-64377138D01*
X56185000Y-64904561D01*
X56185000Y-65475439D01*
X56403466Y-66002862D01*
X56807138Y-66406534D01*
X56936216Y-66460000D01*
X56807138Y-66513466D01*
X56403466Y-66917138D01*
X56185000Y-67444561D01*
X56185000Y-68015439D01*
X56403466Y-68542862D01*
X56807138Y-68946534D01*
X56936216Y-69000000D01*
X56807138Y-69053466D01*
X56403466Y-69457138D01*
X56185000Y-69984561D01*
X56185000Y-70241289D01*
X55358727Y-71067563D01*
X55272307Y-71125307D01*
X55105468Y-71375000D01*
X55043552Y-71467664D01*
X54963224Y-71871500D01*
X54983500Y-71973434D01*
X54983501Y-86617261D01*
X54963224Y-86719200D01*
X55043552Y-87123036D01*
X55043553Y-87123037D01*
X55272308Y-87465393D01*
X55358725Y-87523135D01*
X67353149Y-99517560D01*
X66150000Y-99517560D01*
X65902235Y-99566843D01*
X65692191Y-99707191D01*
X65551843Y-99917235D01*
X65502560Y-100165000D01*
X65502560Y-101765000D01*
X65551843Y-102012765D01*
X65692191Y-102222809D01*
X65902235Y-102363157D01*
X66150000Y-102412440D01*
X67750000Y-102412440D01*
X67997765Y-102363157D01*
X68207809Y-102222809D01*
X68348157Y-102012765D01*
X68397440Y-101765000D01*
X68397440Y-100561851D01*
X72035964Y-104200375D01*
X71829138Y-104407201D01*
X71565000Y-105044887D01*
X71565000Y-105735113D01*
X71829138Y-106372799D01*
X72317201Y-106860862D01*
X72954887Y-107125000D01*
X73645113Y-107125000D01*
X74282799Y-106860862D01*
X74718661Y-106425000D01*
X85099617Y-106425000D01*
X85017201Y-106459138D01*
X84529138Y-106947201D01*
X84265000Y-107584887D01*
X84265000Y-108275113D01*
X84529138Y-108912799D01*
X84601339Y-108985000D01*
X84434615Y-108985000D01*
X83888815Y-109211078D01*
X83471078Y-109628815D01*
X83245000Y-110174615D01*
X83245000Y-110765385D01*
X83471078Y-111311185D01*
X83888815Y-111728922D01*
X84434615Y-111955000D01*
X85025385Y-111955000D01*
X85571185Y-111728922D01*
X85988922Y-111311185D01*
X86215000Y-110765385D01*
X86215000Y-110174615D01*
X86120249Y-109945866D01*
X87175000Y-109945866D01*
X87175000Y-110994134D01*
X87576155Y-111962608D01*
X88317392Y-112703845D01*
X89285866Y-113105000D01*
X90334134Y-113105000D01*
X91302608Y-112703845D01*
X92043845Y-111962608D01*
X92445000Y-110994134D01*
X92445000Y-110174615D01*
X93405000Y-110174615D01*
X93405000Y-110765385D01*
X93631078Y-111311185D01*
X94048815Y-111728922D01*
X94594615Y-111955000D01*
X95185385Y-111955000D01*
X95731185Y-111728922D01*
X96148922Y-111311185D01*
X96375000Y-110765385D01*
X96375000Y-110174615D01*
X96148922Y-109628815D01*
X95731185Y-109211078D01*
X95185385Y-108985000D01*
X94594615Y-108985000D01*
X94048815Y-109211078D01*
X93631078Y-109628815D01*
X93405000Y-110174615D01*
X92445000Y-110174615D01*
X92445000Y-109945866D01*
X92043845Y-108977392D01*
X91302608Y-108236155D01*
X90334134Y-107835000D01*
X89285866Y-107835000D01*
X88317392Y-108236155D01*
X87576155Y-108977392D01*
X87175000Y-109945866D01*
X86120249Y-109945866D01*
X86003910Y-109665000D01*
X86345113Y-109665000D01*
X86982799Y-109400862D01*
X87470862Y-108912799D01*
X87735000Y-108275113D01*
X87735000Y-107584887D01*
X87470862Y-106947201D01*
X86982799Y-106459138D01*
X86900383Y-106425000D01*
X90931339Y-106425000D01*
X91367201Y-106860862D01*
X92004887Y-107125000D01*
X92695113Y-107125000D01*
X93332799Y-106860862D01*
X93768661Y-106425000D01*
X104149617Y-106425000D01*
X104067201Y-106459138D01*
X103579138Y-106947201D01*
X103315000Y-107584887D01*
X103315000Y-108275113D01*
X103579138Y-108912799D01*
X103651339Y-108985000D01*
X103484615Y-108985000D01*
X102938815Y-109211078D01*
X102521078Y-109628815D01*
X102295000Y-110174615D01*
X102295000Y-110765385D01*
X102521078Y-111311185D01*
X102938815Y-111728922D01*
X103484615Y-111955000D01*
X104075385Y-111955000D01*
X104621185Y-111728922D01*
X105038922Y-111311185D01*
X105265000Y-110765385D01*
X105265000Y-110174615D01*
X105170249Y-109945866D01*
X106225000Y-109945866D01*
X106225000Y-110994134D01*
X106626155Y-111962608D01*
X107367392Y-112703845D01*
X108335866Y-113105000D01*
X109384134Y-113105000D01*
X110352608Y-112703845D01*
X111093845Y-111962608D01*
X111495000Y-110994134D01*
X111495000Y-110174615D01*
X112455000Y-110174615D01*
X112455000Y-110765385D01*
X112681078Y-111311185D01*
X113098815Y-111728922D01*
X113644615Y-111955000D01*
X114235385Y-111955000D01*
X114781185Y-111728922D01*
X115198922Y-111311185D01*
X115425000Y-110765385D01*
X115425000Y-110174615D01*
X115198922Y-109628815D01*
X114781185Y-109211078D01*
X114235385Y-108985000D01*
X113644615Y-108985000D01*
X113098815Y-109211078D01*
X112681078Y-109628815D01*
X112455000Y-110174615D01*
X111495000Y-110174615D01*
X111495000Y-109945866D01*
X111093845Y-108977392D01*
X110352608Y-108236155D01*
X109384134Y-107835000D01*
X108335866Y-107835000D01*
X107367392Y-108236155D01*
X106626155Y-108977392D01*
X106225000Y-109945866D01*
X105170249Y-109945866D01*
X105053910Y-109665000D01*
X105395113Y-109665000D01*
X106032799Y-109400862D01*
X106520862Y-108912799D01*
X106785000Y-108275113D01*
X106785000Y-107584887D01*
X106520862Y-106947201D01*
X106032799Y-106459138D01*
X105950383Y-106425000D01*
X109981339Y-106425000D01*
X110417201Y-106860862D01*
X111054887Y-107125000D01*
X111745113Y-107125000D01*
X112382799Y-106860862D01*
X112818661Y-106425000D01*
X123199617Y-106425000D01*
X123117201Y-106459138D01*
X122629138Y-106947201D01*
X122365000Y-107584887D01*
X122365000Y-108275113D01*
X122629138Y-108912799D01*
X122701339Y-108985000D01*
X122534615Y-108985000D01*
X121988815Y-109211078D01*
X121571078Y-109628815D01*
X121345000Y-110174615D01*
X121345000Y-110765385D01*
X121571078Y-111311185D01*
X121988815Y-111728922D01*
X122534615Y-111955000D01*
X123125385Y-111955000D01*
X123671185Y-111728922D01*
X124088922Y-111311185D01*
X124315000Y-110765385D01*
X124315000Y-110174615D01*
X124220249Y-109945866D01*
X125275000Y-109945866D01*
X125275000Y-110994134D01*
X125676155Y-111962608D01*
X126417392Y-112703845D01*
X127385866Y-113105000D01*
X128434134Y-113105000D01*
X129402608Y-112703845D01*
X130143845Y-111962608D01*
X130545000Y-110994134D01*
X130545000Y-110174615D01*
X131505000Y-110174615D01*
X131505000Y-110765385D01*
X131731078Y-111311185D01*
X132148815Y-111728922D01*
X132694615Y-111955000D01*
X133285385Y-111955000D01*
X133831185Y-111728922D01*
X134248922Y-111311185D01*
X134475000Y-110765385D01*
X134475000Y-110174615D01*
X134248922Y-109628815D01*
X133831185Y-109211078D01*
X133285385Y-108985000D01*
X132694615Y-108985000D01*
X132148815Y-109211078D01*
X131731078Y-109628815D01*
X131505000Y-110174615D01*
X130545000Y-110174615D01*
X130545000Y-109945866D01*
X130143845Y-108977392D01*
X129402608Y-108236155D01*
X128434134Y-107835000D01*
X127385866Y-107835000D01*
X126417392Y-108236155D01*
X125676155Y-108977392D01*
X125275000Y-109945866D01*
X124220249Y-109945866D01*
X124103910Y-109665000D01*
X124445113Y-109665000D01*
X125082799Y-109400862D01*
X125570862Y-108912799D01*
X125835000Y-108275113D01*
X125835000Y-107584887D01*
X125570862Y-106947201D01*
X125082799Y-106459138D01*
X125000383Y-106425000D01*
X129031339Y-106425000D01*
X129467201Y-106860862D01*
X130104887Y-107125000D01*
X130795113Y-107125000D01*
X131432799Y-106860862D01*
X131920862Y-106372799D01*
X132185000Y-105735113D01*
X132185000Y-105044887D01*
X131920862Y-104407201D01*
X131432799Y-103919138D01*
X130795113Y-103655000D01*
X130104887Y-103655000D01*
X129467201Y-103919138D01*
X129031339Y-104355000D01*
X112818661Y-104355000D01*
X112382799Y-103919138D01*
X111745113Y-103655000D01*
X111054887Y-103655000D01*
X110417201Y-103919138D01*
X109981339Y-104355000D01*
X93768661Y-104355000D01*
X93332799Y-103919138D01*
X92695113Y-103655000D01*
X92004887Y-103655000D01*
X91367201Y-103919138D01*
X90931339Y-104355000D01*
X74718661Y-104355000D01*
X74353020Y-103989359D01*
X74274948Y-103596863D01*
X74103934Y-103340923D01*
X74046193Y-103254507D01*
X73959776Y-103196765D01*
X71728011Y-100965000D01*
X73106887Y-100965000D01*
X73218260Y-101524909D01*
X73535423Y-101999577D01*
X74010091Y-102316740D01*
X74428667Y-102400000D01*
X74711333Y-102400000D01*
X75129909Y-102316740D01*
X75604577Y-101999577D01*
X75921740Y-101524909D01*
X76033113Y-100965000D01*
X75921740Y-100405091D01*
X75604577Y-99930423D01*
X75129909Y-99613260D01*
X74711333Y-99530000D01*
X74428667Y-99530000D01*
X74010091Y-99613260D01*
X73535423Y-99930423D01*
X73218260Y-100405091D01*
X73106887Y-100965000D01*
X71728011Y-100965000D01*
X70165153Y-99402142D01*
X70289500Y-99426876D01*
X70391434Y-99406600D01*
X75369590Y-99406600D01*
X79188165Y-103225176D01*
X79245907Y-103311593D01*
X79588263Y-103540348D01*
X79872389Y-103596864D01*
X79992100Y-103620676D01*
X80094034Y-103600400D01*
X128417366Y-103600400D01*
X128519300Y-103620676D01*
X128621234Y-103600400D01*
X128621235Y-103600400D01*
X128923137Y-103540348D01*
X129265493Y-103311593D01*
X129323237Y-103225173D01*
X130548411Y-102000000D01*
X130686056Y-102000000D01*
X131160091Y-102316740D01*
X131578667Y-102400000D01*
X131861333Y-102400000D01*
X132279909Y-102316740D01*
X132754577Y-101999577D01*
X133071740Y-101524909D01*
X133183113Y-100965000D01*
X133071740Y-100405091D01*
X132754577Y-99930423D01*
X132279909Y-99613260D01*
X131861333Y-99530000D01*
X131578667Y-99530000D01*
X131160091Y-99613260D01*
X130686056Y-99930000D01*
X130221629Y-99930000D01*
X130119699Y-99909725D01*
X130017770Y-99930000D01*
X130017765Y-99930000D01*
X129715863Y-99990052D01*
X129373507Y-100218807D01*
X129315766Y-100305223D01*
X128090590Y-101530400D01*
X125547440Y-101530400D01*
X125547440Y-100165000D01*
X125498157Y-99917235D01*
X125357809Y-99707191D01*
X125147765Y-99566843D01*
X124900000Y-99517560D01*
X123300000Y-99517560D01*
X123052235Y-99566843D01*
X122842191Y-99707191D01*
X122701843Y-99917235D01*
X122652560Y-100165000D01*
X122652560Y-101530400D01*
X114018071Y-101530400D01*
X114021740Y-101524909D01*
X114133113Y-100965000D01*
X114021740Y-100405091D01*
X113704577Y-99930423D01*
X113229909Y-99613260D01*
X112811333Y-99530000D01*
X112528667Y-99530000D01*
X112110091Y-99613260D01*
X111636056Y-99930000D01*
X111498411Y-99930000D01*
X109424237Y-97855827D01*
X109366493Y-97769407D01*
X109024137Y-97540652D01*
X108722235Y-97480600D01*
X108722234Y-97480600D01*
X108620300Y-97460324D01*
X108518366Y-97480600D01*
X87680111Y-97480600D01*
X78175237Y-87975727D01*
X78117493Y-87889307D01*
X77775137Y-87660552D01*
X77473235Y-87600500D01*
X77473234Y-87600500D01*
X77371300Y-87580224D01*
X77269366Y-87600500D01*
X74493161Y-87600500D01*
X74718661Y-87375000D01*
X85099617Y-87375000D01*
X85017201Y-87409138D01*
X84529138Y-87897201D01*
X84265000Y-88534887D01*
X84265000Y-89225113D01*
X84529138Y-89862799D01*
X84601339Y-89935000D01*
X84434615Y-89935000D01*
X83888815Y-90161078D01*
X83471078Y-90578815D01*
X83245000Y-91124615D01*
X83245000Y-91715385D01*
X83471078Y-92261185D01*
X83888815Y-92678922D01*
X84434615Y-92905000D01*
X85025385Y-92905000D01*
X85571185Y-92678922D01*
X85988922Y-92261185D01*
X86215000Y-91715385D01*
X86215000Y-91124615D01*
X86120249Y-90895866D01*
X87175000Y-90895866D01*
X87175000Y-91944134D01*
X87576155Y-92912608D01*
X88317392Y-93653845D01*
X89285866Y-94055000D01*
X90334134Y-94055000D01*
X91302608Y-93653845D01*
X92043845Y-92912608D01*
X92445000Y-91944134D01*
X92445000Y-91124615D01*
X93405000Y-91124615D01*
X93405000Y-91715385D01*
X93631078Y-92261185D01*
X94048815Y-92678922D01*
X94594615Y-92905000D01*
X95185385Y-92905000D01*
X95731185Y-92678922D01*
X96148922Y-92261185D01*
X96375000Y-91715385D01*
X96375000Y-91124615D01*
X96148922Y-90578815D01*
X95731185Y-90161078D01*
X95185385Y-89935000D01*
X94594615Y-89935000D01*
X94048815Y-90161078D01*
X93631078Y-90578815D01*
X93405000Y-91124615D01*
X92445000Y-91124615D01*
X92445000Y-90895866D01*
X92043845Y-89927392D01*
X91302608Y-89186155D01*
X90334134Y-88785000D01*
X89285866Y-88785000D01*
X88317392Y-89186155D01*
X87576155Y-89927392D01*
X87175000Y-90895866D01*
X86120249Y-90895866D01*
X86003910Y-90615000D01*
X86345113Y-90615000D01*
X86982799Y-90350862D01*
X87470862Y-89862799D01*
X87735000Y-89225113D01*
X87735000Y-88534887D01*
X87470862Y-87897201D01*
X86982799Y-87409138D01*
X86900383Y-87375000D01*
X90931339Y-87375000D01*
X91367201Y-87810862D01*
X92004887Y-88075000D01*
X92695113Y-88075000D01*
X93332799Y-87810862D01*
X93768661Y-87375000D01*
X104149617Y-87375000D01*
X104067201Y-87409138D01*
X103579138Y-87897201D01*
X103315000Y-88534887D01*
X103315000Y-89225113D01*
X103579138Y-89862799D01*
X103651339Y-89935000D01*
X103484615Y-89935000D01*
X102938815Y-90161078D01*
X102521078Y-90578815D01*
X102295000Y-91124615D01*
X102295000Y-91715385D01*
X102521078Y-92261185D01*
X102938815Y-92678922D01*
X103484615Y-92905000D01*
X104075385Y-92905000D01*
X104621185Y-92678922D01*
X105038922Y-92261185D01*
X105265000Y-91715385D01*
X105265000Y-91124615D01*
X105170249Y-90895866D01*
X106225000Y-90895866D01*
X106225000Y-91944134D01*
X106626155Y-92912608D01*
X107367392Y-93653845D01*
X108335866Y-94055000D01*
X109384134Y-94055000D01*
X110352608Y-93653845D01*
X111093845Y-92912608D01*
X111495000Y-91944134D01*
X111495000Y-91124615D01*
X112455000Y-91124615D01*
X112455000Y-91715385D01*
X112681078Y-92261185D01*
X113098815Y-92678922D01*
X113644615Y-92905000D01*
X114235385Y-92905000D01*
X114781185Y-92678922D01*
X115198922Y-92261185D01*
X115425000Y-91715385D01*
X115425000Y-91124615D01*
X115198922Y-90578815D01*
X114781185Y-90161078D01*
X114235385Y-89935000D01*
X113644615Y-89935000D01*
X113098815Y-90161078D01*
X112681078Y-90578815D01*
X112455000Y-91124615D01*
X111495000Y-91124615D01*
X111495000Y-90895866D01*
X111093845Y-89927392D01*
X110352608Y-89186155D01*
X109384134Y-88785000D01*
X108335866Y-88785000D01*
X107367392Y-89186155D01*
X106626155Y-89927392D01*
X106225000Y-90895866D01*
X105170249Y-90895866D01*
X105053910Y-90615000D01*
X105395113Y-90615000D01*
X106032799Y-90350862D01*
X106520862Y-89862799D01*
X106785000Y-89225113D01*
X106785000Y-88534887D01*
X106520862Y-87897201D01*
X106032799Y-87409138D01*
X105950383Y-87375000D01*
X109981339Y-87375000D01*
X110417201Y-87810862D01*
X111054887Y-88075000D01*
X111745113Y-88075000D01*
X112382799Y-87810862D01*
X112818661Y-87375000D01*
X123199617Y-87375000D01*
X123117201Y-87409138D01*
X122629138Y-87897201D01*
X122365000Y-88534887D01*
X122365000Y-89225113D01*
X122629138Y-89862799D01*
X122701339Y-89935000D01*
X122534615Y-89935000D01*
X121988815Y-90161078D01*
X121571078Y-90578815D01*
X121345000Y-91124615D01*
X121345000Y-91715385D01*
X121571078Y-92261185D01*
X121988815Y-92678922D01*
X122534615Y-92905000D01*
X123125385Y-92905000D01*
X123671185Y-92678922D01*
X124088922Y-92261185D01*
X124315000Y-91715385D01*
X124315000Y-91124615D01*
X124220249Y-90895866D01*
X125275000Y-90895866D01*
X125275000Y-91944134D01*
X125676155Y-92912608D01*
X126417392Y-93653845D01*
X127385866Y-94055000D01*
X128434134Y-94055000D01*
X129402608Y-93653845D01*
X130143845Y-92912608D01*
X130545000Y-91944134D01*
X130545000Y-91124615D01*
X131505000Y-91124615D01*
X131505000Y-91715385D01*
X131731078Y-92261185D01*
X132148815Y-92678922D01*
X132694615Y-92905000D01*
X133285385Y-92905000D01*
X133831185Y-92678922D01*
X134248922Y-92261185D01*
X134475000Y-91715385D01*
X134475000Y-91124615D01*
X134248922Y-90578815D01*
X133831185Y-90161078D01*
X133285385Y-89935000D01*
X132694615Y-89935000D01*
X132148815Y-90161078D01*
X131731078Y-90578815D01*
X131505000Y-91124615D01*
X130545000Y-91124615D01*
X130545000Y-90895866D01*
X130143845Y-89927392D01*
X129402608Y-89186155D01*
X128434134Y-88785000D01*
X127385866Y-88785000D01*
X126417392Y-89186155D01*
X125676155Y-89927392D01*
X125275000Y-90895866D01*
X124220249Y-90895866D01*
X124103910Y-90615000D01*
X124445113Y-90615000D01*
X125082799Y-90350862D01*
X125570862Y-89862799D01*
X125835000Y-89225113D01*
X125835000Y-88534887D01*
X125570862Y-87897201D01*
X125082799Y-87409138D01*
X125000383Y-87375000D01*
X129031339Y-87375000D01*
X129467201Y-87810862D01*
X130104887Y-88075000D01*
X130795113Y-88075000D01*
X131432799Y-87810862D01*
X131920862Y-87322799D01*
X132185000Y-86685113D01*
X132185000Y-85994887D01*
X131920862Y-85357201D01*
X131432799Y-84869138D01*
X130795113Y-84605000D01*
X130104887Y-84605000D01*
X129467201Y-84869138D01*
X129031339Y-85305000D01*
X112818661Y-85305000D01*
X112382799Y-84869138D01*
X111745113Y-84605000D01*
X111054887Y-84605000D01*
X110417201Y-84869138D01*
X109981339Y-85305000D01*
X93768661Y-85305000D01*
X93332799Y-84869138D01*
X92695113Y-84605000D01*
X92004887Y-84605000D01*
X91367201Y-84869138D01*
X90931339Y-85305000D01*
X74718661Y-85305000D01*
X74282799Y-84869138D01*
X73645113Y-84605000D01*
X72954887Y-84605000D01*
X72317201Y-84869138D01*
X71829138Y-85357201D01*
X71565000Y-85994887D01*
X71565000Y-86685113D01*
X71646795Y-86882585D01*
X69989837Y-85225627D01*
X69932093Y-85139207D01*
X69589737Y-84910452D01*
X69287835Y-84850400D01*
X69287834Y-84850400D01*
X69185900Y-84830124D01*
X69083966Y-84850400D01*
X63504111Y-84850400D01*
X63219169Y-84565458D01*
X63245400Y-84570676D01*
X63347334Y-84550400D01*
X90317366Y-84550400D01*
X90419300Y-84570676D01*
X90521234Y-84550400D01*
X90521235Y-84550400D01*
X90823137Y-84490348D01*
X91165493Y-84261593D01*
X91223237Y-84175173D01*
X92448411Y-82950000D01*
X92586056Y-82950000D01*
X93060091Y-83266740D01*
X93478667Y-83350000D01*
X93761333Y-83350000D01*
X94179909Y-83266740D01*
X94654577Y-82949577D01*
X94971740Y-82474909D01*
X95083113Y-81915000D01*
X94971740Y-81355091D01*
X94811317Y-81115000D01*
X103602560Y-81115000D01*
X103602560Y-82715000D01*
X103651843Y-82962765D01*
X103792191Y-83172809D01*
X104002235Y-83313157D01*
X104250000Y-83362440D01*
X105850000Y-83362440D01*
X106097765Y-83313157D01*
X106307809Y-83172809D01*
X106448157Y-82962765D01*
X106497440Y-82715000D01*
X106497440Y-81915000D01*
X111206887Y-81915000D01*
X111318260Y-82474909D01*
X111635423Y-82949577D01*
X112110091Y-83266740D01*
X112528667Y-83350000D01*
X112811333Y-83350000D01*
X113229909Y-83266740D01*
X113704577Y-82949577D01*
X114021740Y-82474909D01*
X114133113Y-81915000D01*
X114021740Y-81355091D01*
X113861317Y-81115000D01*
X122652560Y-81115000D01*
X122652560Y-82715000D01*
X122701843Y-82962765D01*
X122842191Y-83172809D01*
X123052235Y-83313157D01*
X123300000Y-83362440D01*
X124900000Y-83362440D01*
X125147765Y-83313157D01*
X125357809Y-83172809D01*
X125498157Y-82962765D01*
X125547440Y-82715000D01*
X125547440Y-81915000D01*
X130256887Y-81915000D01*
X130368260Y-82474909D01*
X130685423Y-82949577D01*
X131160091Y-83266740D01*
X131578667Y-83350000D01*
X131861333Y-83350000D01*
X132279909Y-83266740D01*
X132754577Y-82949577D01*
X133071740Y-82474909D01*
X133183113Y-81915000D01*
X133071740Y-81355091D01*
X132754577Y-80880423D01*
X132279909Y-80563260D01*
X131861333Y-80480000D01*
X131578667Y-80480000D01*
X131160091Y-80563260D01*
X130685423Y-80880423D01*
X130368260Y-81355091D01*
X130256887Y-81915000D01*
X125547440Y-81915000D01*
X125547440Y-81115000D01*
X125498157Y-80867235D01*
X125357809Y-80657191D01*
X125147765Y-80516843D01*
X124900000Y-80467560D01*
X123300000Y-80467560D01*
X123052235Y-80516843D01*
X122842191Y-80657191D01*
X122701843Y-80867235D01*
X122652560Y-81115000D01*
X113861317Y-81115000D01*
X113704577Y-80880423D01*
X113229909Y-80563260D01*
X112811333Y-80480000D01*
X112528667Y-80480000D01*
X112110091Y-80563260D01*
X111635423Y-80880423D01*
X111318260Y-81355091D01*
X111206887Y-81915000D01*
X106497440Y-81915000D01*
X106497440Y-81115000D01*
X106448157Y-80867235D01*
X106307809Y-80657191D01*
X106097765Y-80516843D01*
X105850000Y-80467560D01*
X104250000Y-80467560D01*
X104002235Y-80516843D01*
X103792191Y-80657191D01*
X103651843Y-80867235D01*
X103602560Y-81115000D01*
X94811317Y-81115000D01*
X94654577Y-80880423D01*
X94179909Y-80563260D01*
X93761333Y-80480000D01*
X93478667Y-80480000D01*
X93060091Y-80563260D01*
X92586056Y-80880000D01*
X92121629Y-80880000D01*
X92019699Y-80859725D01*
X91917770Y-80880000D01*
X91917765Y-80880000D01*
X91615863Y-80940052D01*
X91273507Y-81168807D01*
X91215766Y-81255223D01*
X89990590Y-82480400D01*
X87447440Y-82480400D01*
X87447440Y-81115000D01*
X87398157Y-80867235D01*
X87257809Y-80657191D01*
X87047765Y-80516843D01*
X86800000Y-80467560D01*
X85200000Y-80467560D01*
X84952235Y-80516843D01*
X84742191Y-80657191D01*
X84601843Y-80867235D01*
X84552560Y-81115000D01*
X84552560Y-82480400D01*
X75918071Y-82480400D01*
X75921740Y-82474909D01*
X76033113Y-81915000D01*
X75921740Y-81355091D01*
X75604577Y-80880423D01*
X75129909Y-80563260D01*
X74711333Y-80480000D01*
X74428667Y-80480000D01*
X74010091Y-80563260D01*
X73536056Y-80880000D01*
X73398411Y-80880000D01*
X67208637Y-74690227D01*
X67150893Y-74603807D01*
X66808537Y-74375052D01*
X66506635Y-74315000D01*
X66506634Y-74315000D01*
X66404700Y-74294724D01*
X66302766Y-74315000D01*
X58614396Y-74315000D01*
X58432862Y-74133466D01*
X58303784Y-74080000D01*
X58432862Y-74026534D01*
X58836534Y-73622862D01*
X59055000Y-73095439D01*
X59055000Y-72524561D01*
X58868627Y-72074615D01*
X64195000Y-72074615D01*
X64195000Y-72665385D01*
X64421078Y-73211185D01*
X64838815Y-73628922D01*
X65384615Y-73855000D01*
X65975385Y-73855000D01*
X66521185Y-73628922D01*
X66938922Y-73211185D01*
X67165000Y-72665385D01*
X67165000Y-72074615D01*
X67070249Y-71845866D01*
X68125000Y-71845866D01*
X68125000Y-72894134D01*
X68526155Y-73862608D01*
X69267392Y-74603845D01*
X70235866Y-75005000D01*
X71284134Y-75005000D01*
X72252608Y-74603845D01*
X72993845Y-73862608D01*
X73395000Y-72894134D01*
X73395000Y-72074615D01*
X74355000Y-72074615D01*
X74355000Y-72665385D01*
X74581078Y-73211185D01*
X74998815Y-73628922D01*
X75544615Y-73855000D01*
X76135385Y-73855000D01*
X76681185Y-73628922D01*
X77098922Y-73211185D01*
X77325000Y-72665385D01*
X77325000Y-72074615D01*
X77098922Y-71528815D01*
X76681185Y-71111078D01*
X76135385Y-70885000D01*
X75544615Y-70885000D01*
X74998815Y-71111078D01*
X74581078Y-71528815D01*
X74355000Y-72074615D01*
X73395000Y-72074615D01*
X73395000Y-71845866D01*
X72993845Y-70877392D01*
X72252608Y-70136155D01*
X71284134Y-69735000D01*
X70235866Y-69735000D01*
X69267392Y-70136155D01*
X68526155Y-70877392D01*
X68125000Y-71845866D01*
X67070249Y-71845866D01*
X66953910Y-71565000D01*
X67295113Y-71565000D01*
X67932799Y-71300862D01*
X68420862Y-70812799D01*
X68685000Y-70175113D01*
X68685000Y-69484887D01*
X68420862Y-68847201D01*
X67932799Y-68359138D01*
X67295113Y-68095000D01*
X66604887Y-68095000D01*
X65967201Y-68359138D01*
X65479138Y-68847201D01*
X65215000Y-69484887D01*
X65215000Y-70175113D01*
X65479138Y-70812799D01*
X65551339Y-70885000D01*
X65384615Y-70885000D01*
X64838815Y-71111078D01*
X64421078Y-71528815D01*
X64195000Y-72074615D01*
X58868627Y-72074615D01*
X58836534Y-71997138D01*
X58432862Y-71593466D01*
X58303784Y-71540000D01*
X58432862Y-71486534D01*
X58836534Y-71082862D01*
X59055000Y-70555439D01*
X59055000Y-69984561D01*
X58836534Y-69457138D01*
X58432862Y-69053466D01*
X58303784Y-69000000D01*
X58432862Y-68946534D01*
X58836534Y-68542862D01*
X59055000Y-68015439D01*
X59055000Y-67444561D01*
X58836534Y-66917138D01*
X58432862Y-66513466D01*
X58303784Y-66460000D01*
X58432862Y-66406534D01*
X58614396Y-66225000D01*
X70771290Y-66225000D01*
X71565000Y-67018711D01*
X71565000Y-67635113D01*
X71829138Y-68272799D01*
X72317201Y-68760862D01*
X72954887Y-69025000D01*
X73645113Y-69025000D01*
X74282799Y-68760862D01*
X74718661Y-68325000D01*
X85099617Y-68325000D01*
X85017201Y-68359138D01*
X84529138Y-68847201D01*
X84265000Y-69484887D01*
X84265000Y-70175113D01*
X84529138Y-70812799D01*
X84601339Y-70885000D01*
X84434615Y-70885000D01*
X83888815Y-71111078D01*
X83471078Y-71528815D01*
X83245000Y-72074615D01*
X83245000Y-72665385D01*
X83471078Y-73211185D01*
X83888815Y-73628922D01*
X84434615Y-73855000D01*
X85025385Y-73855000D01*
X85571185Y-73628922D01*
X85988922Y-73211185D01*
X86215000Y-72665385D01*
X86215000Y-72074615D01*
X86120249Y-71845866D01*
X87175000Y-71845866D01*
X87175000Y-72894134D01*
X87576155Y-73862608D01*
X88317392Y-74603845D01*
X89285866Y-75005000D01*
X90334134Y-75005000D01*
X91302608Y-74603845D01*
X92043845Y-73862608D01*
X92445000Y-72894134D01*
X92445000Y-72074615D01*
X93405000Y-72074615D01*
X93405000Y-72665385D01*
X93631078Y-73211185D01*
X94048815Y-73628922D01*
X94594615Y-73855000D01*
X95185385Y-73855000D01*
X95731185Y-73628922D01*
X96148922Y-73211185D01*
X96375000Y-72665385D01*
X96375000Y-72074615D01*
X96148922Y-71528815D01*
X95731185Y-71111078D01*
X95185385Y-70885000D01*
X94594615Y-70885000D01*
X94048815Y-71111078D01*
X93631078Y-71528815D01*
X93405000Y-72074615D01*
X92445000Y-72074615D01*
X92445000Y-71845866D01*
X92043845Y-70877392D01*
X91302608Y-70136155D01*
X90334134Y-69735000D01*
X89285866Y-69735000D01*
X88317392Y-70136155D01*
X87576155Y-70877392D01*
X87175000Y-71845866D01*
X86120249Y-71845866D01*
X86003910Y-71565000D01*
X86345113Y-71565000D01*
X86982799Y-71300862D01*
X87470862Y-70812799D01*
X87735000Y-70175113D01*
X87735000Y-69484887D01*
X87470862Y-68847201D01*
X86982799Y-68359138D01*
X86900383Y-68325000D01*
X90931339Y-68325000D01*
X91367201Y-68760862D01*
X92004887Y-69025000D01*
X92695113Y-69025000D01*
X93332799Y-68760862D01*
X93768661Y-68325000D01*
X104149617Y-68325000D01*
X104067201Y-68359138D01*
X103579138Y-68847201D01*
X103315000Y-69484887D01*
X103315000Y-70175113D01*
X103579138Y-70812799D01*
X103651339Y-70885000D01*
X103484615Y-70885000D01*
X102938815Y-71111078D01*
X102521078Y-71528815D01*
X102295000Y-72074615D01*
X102295000Y-72665385D01*
X102521078Y-73211185D01*
X102938815Y-73628922D01*
X103484615Y-73855000D01*
X104075385Y-73855000D01*
X104621185Y-73628922D01*
X105038922Y-73211185D01*
X105265000Y-72665385D01*
X105265000Y-72074615D01*
X105170249Y-71845866D01*
X106225000Y-71845866D01*
X106225000Y-72894134D01*
X106626155Y-73862608D01*
X107367392Y-74603845D01*
X108335866Y-75005000D01*
X109384134Y-75005000D01*
X110352608Y-74603845D01*
X111093845Y-73862608D01*
X111495000Y-72894134D01*
X111495000Y-72074615D01*
X112455000Y-72074615D01*
X112455000Y-72665385D01*
X112681078Y-73211185D01*
X113098815Y-73628922D01*
X113644615Y-73855000D01*
X114235385Y-73855000D01*
X114781185Y-73628922D01*
X115198922Y-73211185D01*
X115425000Y-72665385D01*
X115425000Y-72074615D01*
X115198922Y-71528815D01*
X114781185Y-71111078D01*
X114235385Y-70885000D01*
X113644615Y-70885000D01*
X113098815Y-71111078D01*
X112681078Y-71528815D01*
X112455000Y-72074615D01*
X111495000Y-72074615D01*
X111495000Y-71845866D01*
X111093845Y-70877392D01*
X110352608Y-70136155D01*
X109384134Y-69735000D01*
X108335866Y-69735000D01*
X107367392Y-70136155D01*
X106626155Y-70877392D01*
X106225000Y-71845866D01*
X105170249Y-71845866D01*
X105053910Y-71565000D01*
X105395113Y-71565000D01*
X106032799Y-71300862D01*
X106520862Y-70812799D01*
X106785000Y-70175113D01*
X106785000Y-69484887D01*
X106520862Y-68847201D01*
X106032799Y-68359138D01*
X105950383Y-68325000D01*
X109981339Y-68325000D01*
X110417201Y-68760862D01*
X111054887Y-69025000D01*
X111745113Y-69025000D01*
X112382799Y-68760862D01*
X112818661Y-68325000D01*
X123199617Y-68325000D01*
X123117201Y-68359138D01*
X122629138Y-68847201D01*
X122365000Y-69484887D01*
X122365000Y-70175113D01*
X122629138Y-70812799D01*
X122701339Y-70885000D01*
X122534615Y-70885000D01*
X121988815Y-71111078D01*
X121571078Y-71528815D01*
X121345000Y-72074615D01*
X121345000Y-72665385D01*
X121571078Y-73211185D01*
X121988815Y-73628922D01*
X122534615Y-73855000D01*
X123125385Y-73855000D01*
X123671185Y-73628922D01*
X124088922Y-73211185D01*
X124315000Y-72665385D01*
X124315000Y-72074615D01*
X124220249Y-71845866D01*
X125275000Y-71845866D01*
X125275000Y-72894134D01*
X125676155Y-73862608D01*
X126417392Y-74603845D01*
X127385866Y-75005000D01*
X128434134Y-75005000D01*
X129402608Y-74603845D01*
X130143845Y-73862608D01*
X130545000Y-72894134D01*
X130545000Y-72074615D01*
X131505000Y-72074615D01*
X131505000Y-72665385D01*
X131731078Y-73211185D01*
X132148815Y-73628922D01*
X132694615Y-73855000D01*
X133285385Y-73855000D01*
X133831185Y-73628922D01*
X134248922Y-73211185D01*
X134475000Y-72665385D01*
X134475000Y-72074615D01*
X134248922Y-71528815D01*
X133831185Y-71111078D01*
X133285385Y-70885000D01*
X132694615Y-70885000D01*
X132148815Y-71111078D01*
X131731078Y-71528815D01*
X131505000Y-72074615D01*
X130545000Y-72074615D01*
X130545000Y-71845866D01*
X130143845Y-70877392D01*
X129402608Y-70136155D01*
X128434134Y-69735000D01*
X127385866Y-69735000D01*
X126417392Y-70136155D01*
X125676155Y-70877392D01*
X125275000Y-71845866D01*
X124220249Y-71845866D01*
X124103910Y-71565000D01*
X124445113Y-71565000D01*
X125082799Y-71300862D01*
X125570862Y-70812799D01*
X125835000Y-70175113D01*
X125835000Y-69484887D01*
X125570862Y-68847201D01*
X125082799Y-68359138D01*
X125000383Y-68325000D01*
X129031339Y-68325000D01*
X129467201Y-68760862D01*
X130104887Y-69025000D01*
X130795113Y-69025000D01*
X131432799Y-68760862D01*
X131920862Y-68272799D01*
X132185000Y-67635113D01*
X132185000Y-66944887D01*
X131920862Y-66307201D01*
X131432799Y-65819138D01*
X130795113Y-65555000D01*
X130104887Y-65555000D01*
X129467201Y-65819138D01*
X129031339Y-66255000D01*
X112818661Y-66255000D01*
X112382799Y-65819138D01*
X111745113Y-65555000D01*
X111054887Y-65555000D01*
X110417201Y-65819138D01*
X109981339Y-66255000D01*
X93768661Y-66255000D01*
X93332799Y-65819138D01*
X92695113Y-65555000D01*
X92004887Y-65555000D01*
X91367201Y-65819138D01*
X90931339Y-66255000D01*
X74718661Y-66255000D01*
X74282799Y-65819138D01*
X73645113Y-65555000D01*
X73028711Y-65555000D01*
X72003937Y-64530227D01*
X71946193Y-64443807D01*
X71603837Y-64215052D01*
X71301935Y-64155000D01*
X71301934Y-64155000D01*
X71200000Y-64134724D01*
X71098066Y-64155000D01*
X58614396Y-64155000D01*
X58432862Y-63973466D01*
X58303784Y-63920000D01*
X58432862Y-63866534D01*
X58836534Y-63462862D01*
X59055000Y-62935439D01*
X59055000Y-62364561D01*
X58836534Y-61837138D01*
X58432862Y-61433466D01*
X58303784Y-61380000D01*
X58432862Y-61326534D01*
X58836534Y-60922862D01*
X59055000Y-60395439D01*
X59055000Y-59824561D01*
X58836534Y-59297138D01*
X58432862Y-58893466D01*
X58319417Y-58846475D01*
X58374005Y-58823864D01*
X58448139Y-58577745D01*
X57620000Y-57749605D01*
X56791861Y-58577745D01*
X56865995Y-58823864D01*
X56924448Y-58844874D01*
X56807138Y-58893466D01*
X56403466Y-59297138D01*
X56185000Y-59824561D01*
X56185000Y-60081289D01*
X51840225Y-64426065D01*
X51753808Y-64483807D01*
X51696066Y-64570224D01*
X51525052Y-64826164D01*
X51444724Y-65230000D01*
X51465001Y-65331939D01*
X51465000Y-94722761D01*
X51222761Y-94965000D01*
X47277239Y-94965000D01*
X46926153Y-94613914D01*
X46325222Y-94365000D01*
X45674778Y-94365000D01*
X45073847Y-94613914D01*
X44613914Y-95073847D01*
X44365000Y-95674778D01*
X40710000Y-95674778D01*
X40710000Y-64904561D01*
X40945000Y-64904561D01*
X40945000Y-65475439D01*
X41163466Y-66002862D01*
X41567138Y-66406534D01*
X41696216Y-66460000D01*
X41567138Y-66513466D01*
X41163466Y-66917138D01*
X40945000Y-67444561D01*
X40945000Y-68015439D01*
X41163466Y-68542862D01*
X41567138Y-68946534D01*
X41696216Y-69000000D01*
X41567138Y-69053466D01*
X41163466Y-69457138D01*
X40945000Y-69984561D01*
X40945000Y-70555439D01*
X41163466Y-71082862D01*
X41567138Y-71486534D01*
X41696216Y-71540000D01*
X41567138Y-71593466D01*
X41163466Y-71997138D01*
X40945000Y-72524561D01*
X40945000Y-73095439D01*
X41163466Y-73622862D01*
X41567138Y-74026534D01*
X41696216Y-74080000D01*
X41567138Y-74133466D01*
X41163466Y-74537138D01*
X40945000Y-75064561D01*
X40945000Y-75635439D01*
X41163466Y-76162862D01*
X41567138Y-76566534D01*
X41696216Y-76620000D01*
X41567138Y-76673466D01*
X41163466Y-77077138D01*
X40945000Y-77604561D01*
X40945000Y-78175439D01*
X41163466Y-78702862D01*
X41567138Y-79106534D01*
X41696216Y-79160000D01*
X41567138Y-79213466D01*
X41163466Y-79617138D01*
X40945000Y-80144561D01*
X40945000Y-80715439D01*
X41163466Y-81242862D01*
X41567138Y-81646534D01*
X41696216Y-81700000D01*
X41567138Y-81753466D01*
X41163466Y-82157138D01*
X40945000Y-82684561D01*
X40945000Y-83255439D01*
X41163466Y-83782862D01*
X41567138Y-84186534D01*
X42094561Y-84405000D01*
X42665439Y-84405000D01*
X43192862Y-84186534D01*
X43596534Y-83782862D01*
X43815000Y-83255439D01*
X43815000Y-82684561D01*
X43596534Y-82157138D01*
X43192862Y-81753466D01*
X43063784Y-81700000D01*
X43192862Y-81646534D01*
X43596534Y-81242862D01*
X43815000Y-80715439D01*
X43815000Y-80144561D01*
X43596534Y-79617138D01*
X43192862Y-79213466D01*
X43063784Y-79160000D01*
X43192862Y-79106534D01*
X43596534Y-78702862D01*
X43815000Y-78175439D01*
X43815000Y-77604561D01*
X43596534Y-77077138D01*
X43192862Y-76673466D01*
X43063784Y-76620000D01*
X43192862Y-76566534D01*
X43596534Y-76162862D01*
X43815000Y-75635439D01*
X43815000Y-75064561D01*
X43596534Y-74537138D01*
X43192862Y-74133466D01*
X43063784Y-74080000D01*
X43192862Y-74026534D01*
X43596534Y-73622862D01*
X43815000Y-73095439D01*
X43815000Y-72524561D01*
X43596534Y-71997138D01*
X43192862Y-71593466D01*
X43063784Y-71540000D01*
X43192862Y-71486534D01*
X43596534Y-71082862D01*
X43815000Y-70555439D01*
X43815000Y-69984561D01*
X43596534Y-69457138D01*
X43192862Y-69053466D01*
X43063784Y-69000000D01*
X43192862Y-68946534D01*
X43596534Y-68542862D01*
X43815000Y-68015439D01*
X43815000Y-67444561D01*
X43596534Y-66917138D01*
X43192862Y-66513466D01*
X43063784Y-66460000D01*
X43192862Y-66406534D01*
X43596534Y-66002862D01*
X43815000Y-65475439D01*
X43815000Y-64904561D01*
X43596534Y-64377138D01*
X43192862Y-63973466D01*
X43079417Y-63926475D01*
X43134005Y-63903864D01*
X43208139Y-63657745D01*
X42380000Y-62829605D01*
X41551861Y-63657745D01*
X41625995Y-63903864D01*
X41684448Y-63924874D01*
X41567138Y-63973466D01*
X41163466Y-64377138D01*
X40945000Y-64904561D01*
X40710000Y-64904561D01*
X40710000Y-62433223D01*
X40933035Y-62433223D01*
X40960222Y-63003454D01*
X41126136Y-63404005D01*
X41372255Y-63478139D01*
X42200395Y-62650000D01*
X42559605Y-62650000D01*
X43387745Y-63478139D01*
X43633864Y-63404005D01*
X43826965Y-62866777D01*
X43799778Y-62296546D01*
X43633864Y-61895995D01*
X43387745Y-61821861D01*
X42559605Y-62650000D01*
X42200395Y-62650000D01*
X41372255Y-61821861D01*
X41126136Y-61895995D01*
X40933035Y-62433223D01*
X40710000Y-62433223D01*
X40710000Y-61117745D01*
X41551861Y-61117745D01*
X41625995Y-61363864D01*
X41667709Y-61378858D01*
X41625995Y-61396136D01*
X41551861Y-61642255D01*
X42380000Y-62470395D01*
X43208139Y-61642255D01*
X43134005Y-61396136D01*
X43092291Y-61381142D01*
X43134005Y-61363864D01*
X43208139Y-61117745D01*
X42380000Y-60289605D01*
X41551861Y-61117745D01*
X40710000Y-61117745D01*
X40710000Y-59893223D01*
X40933035Y-59893223D01*
X40960222Y-60463454D01*
X41126136Y-60864005D01*
X41372255Y-60938139D01*
X42200395Y-60110000D01*
X42559605Y-60110000D01*
X43387745Y-60938139D01*
X43633864Y-60864005D01*
X43826965Y-60326777D01*
X43799778Y-59756546D01*
X43633864Y-59355995D01*
X43387745Y-59281861D01*
X42559605Y-60110000D01*
X42200395Y-60110000D01*
X41372255Y-59281861D01*
X41126136Y-59355995D01*
X40933035Y-59893223D01*
X40710000Y-59893223D01*
X40710000Y-54230000D01*
X40932560Y-54230000D01*
X40932560Y-55830000D01*
X40981843Y-56077765D01*
X41122191Y-56287809D01*
X41332235Y-56428157D01*
X41465866Y-56454738D01*
X41163466Y-56757138D01*
X40945000Y-57284561D01*
X40945000Y-57855439D01*
X41163466Y-58382862D01*
X41567138Y-58786534D01*
X41680583Y-58833525D01*
X41625995Y-58856136D01*
X41551861Y-59102255D01*
X42380000Y-59930395D01*
X43208139Y-59102255D01*
X43134005Y-58856136D01*
X43075552Y-58835126D01*
X43192862Y-58786534D01*
X43596534Y-58382862D01*
X43815000Y-57855439D01*
X43815000Y-57353223D01*
X56173035Y-57353223D01*
X56200222Y-57923454D01*
X56366136Y-58324005D01*
X56612255Y-58398139D01*
X57440395Y-57570000D01*
X57799605Y-57570000D01*
X58627745Y-58398139D01*
X58873864Y-58324005D01*
X59066965Y-57786777D01*
X59039778Y-57216546D01*
X58873864Y-56815995D01*
X58627745Y-56741861D01*
X57799605Y-57570000D01*
X57440395Y-57570000D01*
X56612255Y-56741861D01*
X56366136Y-56815995D01*
X56173035Y-57353223D01*
X43815000Y-57353223D01*
X43815000Y-57284561D01*
X43596534Y-56757138D01*
X43294134Y-56454738D01*
X43427765Y-56428157D01*
X43637809Y-56287809D01*
X43778157Y-56077765D01*
X43827440Y-55830000D01*
X43827440Y-54744561D01*
X56185000Y-54744561D01*
X56185000Y-55315439D01*
X56403466Y-55842862D01*
X56807138Y-56246534D01*
X56920583Y-56293525D01*
X56865995Y-56316136D01*
X56791861Y-56562255D01*
X57620000Y-57390395D01*
X58448139Y-56562255D01*
X58374005Y-56316136D01*
X58315552Y-56295126D01*
X58432862Y-56246534D01*
X58836534Y-55842862D01*
X59055000Y-55315439D01*
X59055000Y-54744561D01*
X58844832Y-54237171D01*
X61165000Y-54237171D01*
X61165000Y-55762829D01*
X61748844Y-57172353D01*
X62827647Y-58251156D01*
X64237171Y-58835000D01*
X65762829Y-58835000D01*
X67172353Y-58251156D01*
X68251156Y-57172353D01*
X68835000Y-55762829D01*
X68835000Y-54237171D01*
X131165000Y-54237171D01*
X131165000Y-55762829D01*
X131748844Y-57172353D01*
X132827647Y-58251156D01*
X134237171Y-58835000D01*
X135762829Y-58835000D01*
X137172353Y-58251156D01*
X138251156Y-57172353D01*
X138835000Y-55762829D01*
X138835000Y-54237171D01*
X138251156Y-52827647D01*
X137172353Y-51748844D01*
X135762829Y-51165000D01*
X134237171Y-51165000D01*
X132827647Y-51748844D01*
X131748844Y-52827647D01*
X131165000Y-54237171D01*
X68835000Y-54237171D01*
X68251156Y-52827647D01*
X67172353Y-51748844D01*
X65762829Y-51165000D01*
X64237171Y-51165000D01*
X62827647Y-51748844D01*
X61748844Y-52827647D01*
X61165000Y-54237171D01*
X58844832Y-54237171D01*
X58836534Y-54217138D01*
X58432862Y-53813466D01*
X57905439Y-53595000D01*
X57334561Y-53595000D01*
X56807138Y-53813466D01*
X56403466Y-54217138D01*
X56185000Y-54744561D01*
X43827440Y-54744561D01*
X43827440Y-54230000D01*
X43778157Y-53982235D01*
X43637809Y-53772191D01*
X43427765Y-53631843D01*
X43180000Y-53582560D01*
X41580000Y-53582560D01*
X41332235Y-53631843D01*
X41122191Y-53772191D01*
X40981843Y-53982235D01*
X40932560Y-54230000D01*
X40710000Y-54230000D01*
X40710000Y-50710000D01*
X139290000Y-50710000D01*
X139290001Y-149290000D01*
G04 #@! TD*
M02*
