G04 #@! TF.GenerationSoftware,KiCad,Pcbnew,(5.0.0-3-g5ebb6b6)*
G04 #@! TF.CreationDate,2018-09-07T14:59:23+09:00*
G04 #@! TF.ProjectId,macro4x4,6D6163726F3478342E6B696361645F70,rev?*
G04 #@! TF.SameCoordinates,Original*
G04 #@! TF.FileFunction,Legend,Top*
G04 #@! TF.FilePolarity,Positive*
%FSLAX46Y46*%
G04 Gerber Fmt 4.6, Leading zero omitted, Abs format (unit mm)*
G04 Created by KiCad (PCBNEW (5.0.0-3-g5ebb6b6)) date *
%MOMM*%
%LPD*%
G01*
G04 APERTURE LIST*
%ADD10C,0.120000*%
%ADD11C,0.150000*%
%ADD12C,6.800000*%
%ADD13R,2.000000X2.000000*%
%ADD14O,2.000000X2.000000*%
%ADD15C,2.600000*%
%ADD16C,4.400000*%
%ADD17C,2.100000*%
%ADD18C,2.000000*%
%ADD19C,2.400000*%
G04 APERTURE END LIST*
D10*
G04 #@! TO.C,D1*
X68640000Y-80795000D02*
X68640000Y-83035000D01*
X68640000Y-83035000D02*
X72880000Y-83035000D01*
X72880000Y-83035000D02*
X72880000Y-80795000D01*
X72880000Y-80795000D02*
X68640000Y-80795000D01*
X67990000Y-81915000D02*
X68640000Y-81915000D01*
X73530000Y-81915000D02*
X72880000Y-81915000D01*
X69360000Y-80795000D02*
X69360000Y-83035000D01*
X69480000Y-80795000D02*
X69480000Y-83035000D01*
X69240000Y-80795000D02*
X69240000Y-83035000D01*
G04 #@! TO.C,D2*
X88290000Y-80795000D02*
X88290000Y-83035000D01*
X88530000Y-80795000D02*
X88530000Y-83035000D01*
X88410000Y-80795000D02*
X88410000Y-83035000D01*
X92580000Y-81915000D02*
X91930000Y-81915000D01*
X87040000Y-81915000D02*
X87690000Y-81915000D01*
X91930000Y-80795000D02*
X87690000Y-80795000D01*
X91930000Y-83035000D02*
X91930000Y-80795000D01*
X87690000Y-83035000D02*
X91930000Y-83035000D01*
X87690000Y-80795000D02*
X87690000Y-83035000D01*
G04 #@! TO.C,D3*
X106740000Y-80795000D02*
X106740000Y-83035000D01*
X106740000Y-83035000D02*
X110980000Y-83035000D01*
X110980000Y-83035000D02*
X110980000Y-80795000D01*
X110980000Y-80795000D02*
X106740000Y-80795000D01*
X106090000Y-81915000D02*
X106740000Y-81915000D01*
X111630000Y-81915000D02*
X110980000Y-81915000D01*
X107460000Y-80795000D02*
X107460000Y-83035000D01*
X107580000Y-80795000D02*
X107580000Y-83035000D01*
X107340000Y-80795000D02*
X107340000Y-83035000D01*
G04 #@! TO.C,D4*
X125790000Y-80795000D02*
X125790000Y-83035000D01*
X125790000Y-83035000D02*
X130030000Y-83035000D01*
X130030000Y-83035000D02*
X130030000Y-80795000D01*
X130030000Y-80795000D02*
X125790000Y-80795000D01*
X125140000Y-81915000D02*
X125790000Y-81915000D01*
X130680000Y-81915000D02*
X130030000Y-81915000D01*
X126510000Y-80795000D02*
X126510000Y-83035000D01*
X126630000Y-80795000D02*
X126630000Y-83035000D01*
X126390000Y-80795000D02*
X126390000Y-83035000D01*
G04 #@! TO.C,D5*
X68640000Y-99845000D02*
X68640000Y-102085000D01*
X68640000Y-102085000D02*
X72880000Y-102085000D01*
X72880000Y-102085000D02*
X72880000Y-99845000D01*
X72880000Y-99845000D02*
X68640000Y-99845000D01*
X67990000Y-100965000D02*
X68640000Y-100965000D01*
X73530000Y-100965000D02*
X72880000Y-100965000D01*
X69360000Y-99845000D02*
X69360000Y-102085000D01*
X69480000Y-99845000D02*
X69480000Y-102085000D01*
X69240000Y-99845000D02*
X69240000Y-102085000D01*
G04 #@! TO.C,D6*
X87690000Y-99845000D02*
X87690000Y-102085000D01*
X87690000Y-102085000D02*
X91930000Y-102085000D01*
X91930000Y-102085000D02*
X91930000Y-99845000D01*
X91930000Y-99845000D02*
X87690000Y-99845000D01*
X87040000Y-100965000D02*
X87690000Y-100965000D01*
X92580000Y-100965000D02*
X91930000Y-100965000D01*
X88410000Y-99845000D02*
X88410000Y-102085000D01*
X88530000Y-99845000D02*
X88530000Y-102085000D01*
X88290000Y-99845000D02*
X88290000Y-102085000D01*
G04 #@! TO.C,D7*
X107340000Y-99845000D02*
X107340000Y-102085000D01*
X107580000Y-99845000D02*
X107580000Y-102085000D01*
X107460000Y-99845000D02*
X107460000Y-102085000D01*
X111630000Y-100965000D02*
X110980000Y-100965000D01*
X106090000Y-100965000D02*
X106740000Y-100965000D01*
X110980000Y-99845000D02*
X106740000Y-99845000D01*
X110980000Y-102085000D02*
X110980000Y-99845000D01*
X106740000Y-102085000D02*
X110980000Y-102085000D01*
X106740000Y-99845000D02*
X106740000Y-102085000D01*
G04 #@! TO.C,D8*
X126390000Y-99845000D02*
X126390000Y-102085000D01*
X126630000Y-99845000D02*
X126630000Y-102085000D01*
X126510000Y-99845000D02*
X126510000Y-102085000D01*
X130680000Y-100965000D02*
X130030000Y-100965000D01*
X125140000Y-100965000D02*
X125790000Y-100965000D01*
X130030000Y-99845000D02*
X125790000Y-99845000D01*
X130030000Y-102085000D02*
X130030000Y-99845000D01*
X125790000Y-102085000D02*
X130030000Y-102085000D01*
X125790000Y-99845000D02*
X125790000Y-102085000D01*
G04 #@! TO.C,D9*
X69240000Y-118895000D02*
X69240000Y-121135000D01*
X69480000Y-118895000D02*
X69480000Y-121135000D01*
X69360000Y-118895000D02*
X69360000Y-121135000D01*
X73530000Y-120015000D02*
X72880000Y-120015000D01*
X67990000Y-120015000D02*
X68640000Y-120015000D01*
X72880000Y-118895000D02*
X68640000Y-118895000D01*
X72880000Y-121135000D02*
X72880000Y-118895000D01*
X68640000Y-121135000D02*
X72880000Y-121135000D01*
X68640000Y-118895000D02*
X68640000Y-121135000D01*
G04 #@! TO.C,D10*
X88290000Y-118895000D02*
X88290000Y-121135000D01*
X88530000Y-118895000D02*
X88530000Y-121135000D01*
X88410000Y-118895000D02*
X88410000Y-121135000D01*
X92580000Y-120015000D02*
X91930000Y-120015000D01*
X87040000Y-120015000D02*
X87690000Y-120015000D01*
X91930000Y-118895000D02*
X87690000Y-118895000D01*
X91930000Y-121135000D02*
X91930000Y-118895000D01*
X87690000Y-121135000D02*
X91930000Y-121135000D01*
X87690000Y-118895000D02*
X87690000Y-121135000D01*
G04 #@! TO.C,D11*
X106740000Y-118895000D02*
X106740000Y-121135000D01*
X106740000Y-121135000D02*
X110980000Y-121135000D01*
X110980000Y-121135000D02*
X110980000Y-118895000D01*
X110980000Y-118895000D02*
X106740000Y-118895000D01*
X106090000Y-120015000D02*
X106740000Y-120015000D01*
X111630000Y-120015000D02*
X110980000Y-120015000D01*
X107460000Y-118895000D02*
X107460000Y-121135000D01*
X107580000Y-118895000D02*
X107580000Y-121135000D01*
X107340000Y-118895000D02*
X107340000Y-121135000D01*
G04 #@! TO.C,D12*
X125790000Y-118895000D02*
X125790000Y-121135000D01*
X125790000Y-121135000D02*
X130030000Y-121135000D01*
X130030000Y-121135000D02*
X130030000Y-118895000D01*
X130030000Y-118895000D02*
X125790000Y-118895000D01*
X125140000Y-120015000D02*
X125790000Y-120015000D01*
X130680000Y-120015000D02*
X130030000Y-120015000D01*
X126510000Y-118895000D02*
X126510000Y-121135000D01*
X126630000Y-118895000D02*
X126630000Y-121135000D01*
X126390000Y-118895000D02*
X126390000Y-121135000D01*
G04 #@! TO.C,D13*
X69240000Y-137945000D02*
X69240000Y-140185000D01*
X69480000Y-137945000D02*
X69480000Y-140185000D01*
X69360000Y-137945000D02*
X69360000Y-140185000D01*
X73530000Y-139065000D02*
X72880000Y-139065000D01*
X67990000Y-139065000D02*
X68640000Y-139065000D01*
X72880000Y-137945000D02*
X68640000Y-137945000D01*
X72880000Y-140185000D02*
X72880000Y-137945000D01*
X68640000Y-140185000D02*
X72880000Y-140185000D01*
X68640000Y-137945000D02*
X68640000Y-140185000D01*
G04 #@! TO.C,D14*
X87690000Y-137945000D02*
X87690000Y-140185000D01*
X87690000Y-140185000D02*
X91930000Y-140185000D01*
X91930000Y-140185000D02*
X91930000Y-137945000D01*
X91930000Y-137945000D02*
X87690000Y-137945000D01*
X87040000Y-139065000D02*
X87690000Y-139065000D01*
X92580000Y-139065000D02*
X91930000Y-139065000D01*
X88410000Y-137945000D02*
X88410000Y-140185000D01*
X88530000Y-137945000D02*
X88530000Y-140185000D01*
X88290000Y-137945000D02*
X88290000Y-140185000D01*
G04 #@! TO.C,D15*
X107340000Y-137945000D02*
X107340000Y-140185000D01*
X107580000Y-137945000D02*
X107580000Y-140185000D01*
X107460000Y-137945000D02*
X107460000Y-140185000D01*
X111630000Y-139065000D02*
X110980000Y-139065000D01*
X106090000Y-139065000D02*
X106740000Y-139065000D01*
X110980000Y-137945000D02*
X106740000Y-137945000D01*
X110980000Y-140185000D02*
X110980000Y-137945000D01*
X106740000Y-140185000D02*
X110980000Y-140185000D01*
X106740000Y-137945000D02*
X106740000Y-140185000D01*
G04 #@! TO.C,D16*
X126390000Y-137945000D02*
X126390000Y-140185000D01*
X126630000Y-137945000D02*
X126630000Y-140185000D01*
X126510000Y-137945000D02*
X126510000Y-140185000D01*
X130680000Y-139065000D02*
X130030000Y-139065000D01*
X125140000Y-139065000D02*
X125790000Y-139065000D01*
X130030000Y-137945000D02*
X125790000Y-137945000D01*
X130030000Y-140185000D02*
X130030000Y-137945000D01*
X125790000Y-140185000D02*
X130030000Y-140185000D01*
X125790000Y-137945000D02*
X125790000Y-140185000D01*
G04 #@! TO.C,SW1*
X63775000Y-65385000D02*
X77745000Y-65385000D01*
X77745000Y-65385000D02*
X77745000Y-79355000D01*
X77745000Y-79355000D02*
X63775000Y-79355000D01*
X63775000Y-79355000D02*
X63775000Y-65385000D01*
G04 #@! TO.C,SW2*
X82825000Y-79355000D02*
X82825000Y-65385000D01*
X96795000Y-79355000D02*
X82825000Y-79355000D01*
X96795000Y-65385000D02*
X96795000Y-79355000D01*
X82825000Y-65385000D02*
X96795000Y-65385000D01*
G04 #@! TO.C,SW3*
X101875000Y-65385000D02*
X115845000Y-65385000D01*
X115845000Y-65385000D02*
X115845000Y-79355000D01*
X115845000Y-79355000D02*
X101875000Y-79355000D01*
X101875000Y-79355000D02*
X101875000Y-65385000D01*
G04 #@! TO.C,SW4*
X120925000Y-65385000D02*
X134895000Y-65385000D01*
X134895000Y-65385000D02*
X134895000Y-79355000D01*
X134895000Y-79355000D02*
X120925000Y-79355000D01*
X120925000Y-79355000D02*
X120925000Y-65385000D01*
G04 #@! TO.C,SW5*
X63775000Y-84435000D02*
X77745000Y-84435000D01*
X77745000Y-84435000D02*
X77745000Y-98405000D01*
X77745000Y-98405000D02*
X63775000Y-98405000D01*
X63775000Y-98405000D02*
X63775000Y-84435000D01*
G04 #@! TO.C,SW6*
X82825000Y-98405000D02*
X82825000Y-84435000D01*
X96795000Y-98405000D02*
X82825000Y-98405000D01*
X96795000Y-84435000D02*
X96795000Y-98405000D01*
X82825000Y-84435000D02*
X96795000Y-84435000D01*
G04 #@! TO.C,SW7*
X101875000Y-98405000D02*
X101875000Y-84435000D01*
X115845000Y-98405000D02*
X101875000Y-98405000D01*
X115845000Y-84435000D02*
X115845000Y-98405000D01*
X101875000Y-84435000D02*
X115845000Y-84435000D01*
G04 #@! TO.C,SW8*
X120925000Y-98405000D02*
X120925000Y-84435000D01*
X134895000Y-98405000D02*
X120925000Y-98405000D01*
X134895000Y-84435000D02*
X134895000Y-98405000D01*
X120925000Y-84435000D02*
X134895000Y-84435000D01*
G04 #@! TO.C,SW9*
X63775000Y-117455000D02*
X63775000Y-103485000D01*
X77745000Y-117455000D02*
X63775000Y-117455000D01*
X77745000Y-103485000D02*
X77745000Y-117455000D01*
X63775000Y-103485000D02*
X77745000Y-103485000D01*
G04 #@! TO.C,SW10*
X82825000Y-117455000D02*
X82825000Y-103485000D01*
X96795000Y-117455000D02*
X82825000Y-117455000D01*
X96795000Y-103485000D02*
X96795000Y-117455000D01*
X82825000Y-103485000D02*
X96795000Y-103485000D01*
G04 #@! TO.C,SW11*
X101875000Y-117455000D02*
X101875000Y-103485000D01*
X115845000Y-117455000D02*
X101875000Y-117455000D01*
X115845000Y-103485000D02*
X115845000Y-117455000D01*
X101875000Y-103485000D02*
X115845000Y-103485000D01*
G04 #@! TO.C,SW12*
X120925000Y-117455000D02*
X120925000Y-103485000D01*
X134895000Y-117455000D02*
X120925000Y-117455000D01*
X134895000Y-103485000D02*
X134895000Y-117455000D01*
X120925000Y-103485000D02*
X134895000Y-103485000D01*
G04 #@! TO.C,SW13*
X63775000Y-122535000D02*
X77745000Y-122535000D01*
X77745000Y-122535000D02*
X77745000Y-136505000D01*
X77745000Y-136505000D02*
X63775000Y-136505000D01*
X63775000Y-136505000D02*
X63775000Y-122535000D01*
G04 #@! TO.C,SW14*
X82825000Y-122535000D02*
X96795000Y-122535000D01*
X96795000Y-122535000D02*
X96795000Y-136505000D01*
X96795000Y-136505000D02*
X82825000Y-136505000D01*
X82825000Y-136505000D02*
X82825000Y-122535000D01*
G04 #@! TO.C,SW15*
X101875000Y-122535000D02*
X115845000Y-122535000D01*
X115845000Y-122535000D02*
X115845000Y-136505000D01*
X115845000Y-136505000D02*
X101875000Y-136505000D01*
X101875000Y-136505000D02*
X101875000Y-122535000D01*
G04 #@! TO.C,SW16*
X120925000Y-122535000D02*
X134895000Y-122535000D01*
X134895000Y-122535000D02*
X134895000Y-136505000D01*
X134895000Y-136505000D02*
X120925000Y-136505000D01*
X120925000Y-136505000D02*
X120925000Y-122535000D01*
D11*
G04 #@! TO.C,U1*
X41110000Y-53760000D02*
X41110000Y-84240000D01*
X41110000Y-53760000D02*
X46190000Y-53760000D01*
X46190000Y-53760000D02*
X46190000Y-51220000D01*
X46190000Y-51220000D02*
X53810000Y-51220000D01*
X53810000Y-51220000D02*
X53810000Y-53760000D01*
X53810000Y-53760000D02*
X58890000Y-53760000D01*
X58890000Y-53760000D02*
X58890000Y-84240000D01*
X58890000Y-84240000D02*
X41110000Y-84240000D01*
D10*
G04 #@! TO.C,RST_SW1*
X47000000Y-101500000D02*
X51500000Y-101500000D01*
X45750000Y-97500000D02*
X45750000Y-99000000D01*
X51500000Y-95000000D02*
X47000000Y-95000000D01*
X52750000Y-99000000D02*
X52750000Y-97500000D01*
G04 #@! TO.C,D1*
D11*
X70021904Y-80247380D02*
X70021904Y-79247380D01*
X70260000Y-79247380D01*
X70402857Y-79295000D01*
X70498095Y-79390238D01*
X70545714Y-79485476D01*
X70593333Y-79675952D01*
X70593333Y-79818809D01*
X70545714Y-80009285D01*
X70498095Y-80104523D01*
X70402857Y-80199761D01*
X70260000Y-80247380D01*
X70021904Y-80247380D01*
X71545714Y-80247380D02*
X70974285Y-80247380D01*
X71260000Y-80247380D02*
X71260000Y-79247380D01*
X71164761Y-79390238D01*
X71069523Y-79485476D01*
X70974285Y-79533095D01*
X66688095Y-80567380D02*
X66688095Y-79567380D01*
X67259523Y-80567380D02*
X66830952Y-79995952D01*
X67259523Y-79567380D02*
X66688095Y-80138809D01*
G04 #@! TO.C,D2*
X89071904Y-80247380D02*
X89071904Y-79247380D01*
X89310000Y-79247380D01*
X89452857Y-79295000D01*
X89548095Y-79390238D01*
X89595714Y-79485476D01*
X89643333Y-79675952D01*
X89643333Y-79818809D01*
X89595714Y-80009285D01*
X89548095Y-80104523D01*
X89452857Y-80199761D01*
X89310000Y-80247380D01*
X89071904Y-80247380D01*
X90024285Y-79342619D02*
X90071904Y-79295000D01*
X90167142Y-79247380D01*
X90405238Y-79247380D01*
X90500476Y-79295000D01*
X90548095Y-79342619D01*
X90595714Y-79437857D01*
X90595714Y-79533095D01*
X90548095Y-79675952D01*
X89976666Y-80247380D01*
X90595714Y-80247380D01*
X85738095Y-80567380D02*
X85738095Y-79567380D01*
X86309523Y-80567380D02*
X85880952Y-79995952D01*
X86309523Y-79567380D02*
X85738095Y-80138809D01*
G04 #@! TO.C,D3*
X108121904Y-80247380D02*
X108121904Y-79247380D01*
X108360000Y-79247380D01*
X108502857Y-79295000D01*
X108598095Y-79390238D01*
X108645714Y-79485476D01*
X108693333Y-79675952D01*
X108693333Y-79818809D01*
X108645714Y-80009285D01*
X108598095Y-80104523D01*
X108502857Y-80199761D01*
X108360000Y-80247380D01*
X108121904Y-80247380D01*
X109026666Y-79247380D02*
X109645714Y-79247380D01*
X109312380Y-79628333D01*
X109455238Y-79628333D01*
X109550476Y-79675952D01*
X109598095Y-79723571D01*
X109645714Y-79818809D01*
X109645714Y-80056904D01*
X109598095Y-80152142D01*
X109550476Y-80199761D01*
X109455238Y-80247380D01*
X109169523Y-80247380D01*
X109074285Y-80199761D01*
X109026666Y-80152142D01*
X104788095Y-80567380D02*
X104788095Y-79567380D01*
X105359523Y-80567380D02*
X104930952Y-79995952D01*
X105359523Y-79567380D02*
X104788095Y-80138809D01*
G04 #@! TO.C,D4*
X127171904Y-80247380D02*
X127171904Y-79247380D01*
X127410000Y-79247380D01*
X127552857Y-79295000D01*
X127648095Y-79390238D01*
X127695714Y-79485476D01*
X127743333Y-79675952D01*
X127743333Y-79818809D01*
X127695714Y-80009285D01*
X127648095Y-80104523D01*
X127552857Y-80199761D01*
X127410000Y-80247380D01*
X127171904Y-80247380D01*
X128600476Y-79580714D02*
X128600476Y-80247380D01*
X128362380Y-79199761D02*
X128124285Y-79914047D01*
X128743333Y-79914047D01*
X123838095Y-80567380D02*
X123838095Y-79567380D01*
X124409523Y-80567380D02*
X123980952Y-79995952D01*
X124409523Y-79567380D02*
X123838095Y-80138809D01*
G04 #@! TO.C,D5*
X70021904Y-99297380D02*
X70021904Y-98297380D01*
X70260000Y-98297380D01*
X70402857Y-98345000D01*
X70498095Y-98440238D01*
X70545714Y-98535476D01*
X70593333Y-98725952D01*
X70593333Y-98868809D01*
X70545714Y-99059285D01*
X70498095Y-99154523D01*
X70402857Y-99249761D01*
X70260000Y-99297380D01*
X70021904Y-99297380D01*
X71498095Y-98297380D02*
X71021904Y-98297380D01*
X70974285Y-98773571D01*
X71021904Y-98725952D01*
X71117142Y-98678333D01*
X71355238Y-98678333D01*
X71450476Y-98725952D01*
X71498095Y-98773571D01*
X71545714Y-98868809D01*
X71545714Y-99106904D01*
X71498095Y-99202142D01*
X71450476Y-99249761D01*
X71355238Y-99297380D01*
X71117142Y-99297380D01*
X71021904Y-99249761D01*
X70974285Y-99202142D01*
X66688095Y-99617380D02*
X66688095Y-98617380D01*
X67259523Y-99617380D02*
X66830952Y-99045952D01*
X67259523Y-98617380D02*
X66688095Y-99188809D01*
G04 #@! TO.C,D6*
X89071904Y-99297380D02*
X89071904Y-98297380D01*
X89310000Y-98297380D01*
X89452857Y-98345000D01*
X89548095Y-98440238D01*
X89595714Y-98535476D01*
X89643333Y-98725952D01*
X89643333Y-98868809D01*
X89595714Y-99059285D01*
X89548095Y-99154523D01*
X89452857Y-99249761D01*
X89310000Y-99297380D01*
X89071904Y-99297380D01*
X90500476Y-98297380D02*
X90310000Y-98297380D01*
X90214761Y-98345000D01*
X90167142Y-98392619D01*
X90071904Y-98535476D01*
X90024285Y-98725952D01*
X90024285Y-99106904D01*
X90071904Y-99202142D01*
X90119523Y-99249761D01*
X90214761Y-99297380D01*
X90405238Y-99297380D01*
X90500476Y-99249761D01*
X90548095Y-99202142D01*
X90595714Y-99106904D01*
X90595714Y-98868809D01*
X90548095Y-98773571D01*
X90500476Y-98725952D01*
X90405238Y-98678333D01*
X90214761Y-98678333D01*
X90119523Y-98725952D01*
X90071904Y-98773571D01*
X90024285Y-98868809D01*
X85738095Y-99617380D02*
X85738095Y-98617380D01*
X86309523Y-99617380D02*
X85880952Y-99045952D01*
X86309523Y-98617380D02*
X85738095Y-99188809D01*
G04 #@! TO.C,D7*
X108121904Y-99297380D02*
X108121904Y-98297380D01*
X108360000Y-98297380D01*
X108502857Y-98345000D01*
X108598095Y-98440238D01*
X108645714Y-98535476D01*
X108693333Y-98725952D01*
X108693333Y-98868809D01*
X108645714Y-99059285D01*
X108598095Y-99154523D01*
X108502857Y-99249761D01*
X108360000Y-99297380D01*
X108121904Y-99297380D01*
X109026666Y-98297380D02*
X109693333Y-98297380D01*
X109264761Y-99297380D01*
X104788095Y-99617380D02*
X104788095Y-98617380D01*
X105359523Y-99617380D02*
X104930952Y-99045952D01*
X105359523Y-98617380D02*
X104788095Y-99188809D01*
G04 #@! TO.C,D8*
X127171904Y-99297380D02*
X127171904Y-98297380D01*
X127410000Y-98297380D01*
X127552857Y-98345000D01*
X127648095Y-98440238D01*
X127695714Y-98535476D01*
X127743333Y-98725952D01*
X127743333Y-98868809D01*
X127695714Y-99059285D01*
X127648095Y-99154523D01*
X127552857Y-99249761D01*
X127410000Y-99297380D01*
X127171904Y-99297380D01*
X128314761Y-98725952D02*
X128219523Y-98678333D01*
X128171904Y-98630714D01*
X128124285Y-98535476D01*
X128124285Y-98487857D01*
X128171904Y-98392619D01*
X128219523Y-98345000D01*
X128314761Y-98297380D01*
X128505238Y-98297380D01*
X128600476Y-98345000D01*
X128648095Y-98392619D01*
X128695714Y-98487857D01*
X128695714Y-98535476D01*
X128648095Y-98630714D01*
X128600476Y-98678333D01*
X128505238Y-98725952D01*
X128314761Y-98725952D01*
X128219523Y-98773571D01*
X128171904Y-98821190D01*
X128124285Y-98916428D01*
X128124285Y-99106904D01*
X128171904Y-99202142D01*
X128219523Y-99249761D01*
X128314761Y-99297380D01*
X128505238Y-99297380D01*
X128600476Y-99249761D01*
X128648095Y-99202142D01*
X128695714Y-99106904D01*
X128695714Y-98916428D01*
X128648095Y-98821190D01*
X128600476Y-98773571D01*
X128505238Y-98725952D01*
X123838095Y-99617380D02*
X123838095Y-98617380D01*
X124409523Y-99617380D02*
X123980952Y-99045952D01*
X124409523Y-98617380D02*
X123838095Y-99188809D01*
G04 #@! TO.C,D9*
X70021904Y-118347380D02*
X70021904Y-117347380D01*
X70260000Y-117347380D01*
X70402857Y-117395000D01*
X70498095Y-117490238D01*
X70545714Y-117585476D01*
X70593333Y-117775952D01*
X70593333Y-117918809D01*
X70545714Y-118109285D01*
X70498095Y-118204523D01*
X70402857Y-118299761D01*
X70260000Y-118347380D01*
X70021904Y-118347380D01*
X71069523Y-118347380D02*
X71260000Y-118347380D01*
X71355238Y-118299761D01*
X71402857Y-118252142D01*
X71498095Y-118109285D01*
X71545714Y-117918809D01*
X71545714Y-117537857D01*
X71498095Y-117442619D01*
X71450476Y-117395000D01*
X71355238Y-117347380D01*
X71164761Y-117347380D01*
X71069523Y-117395000D01*
X71021904Y-117442619D01*
X70974285Y-117537857D01*
X70974285Y-117775952D01*
X71021904Y-117871190D01*
X71069523Y-117918809D01*
X71164761Y-117966428D01*
X71355238Y-117966428D01*
X71450476Y-117918809D01*
X71498095Y-117871190D01*
X71545714Y-117775952D01*
X66688095Y-118667380D02*
X66688095Y-117667380D01*
X67259523Y-118667380D02*
X66830952Y-118095952D01*
X67259523Y-117667380D02*
X66688095Y-118238809D01*
G04 #@! TO.C,D10*
X88595714Y-118347380D02*
X88595714Y-117347380D01*
X88833809Y-117347380D01*
X88976666Y-117395000D01*
X89071904Y-117490238D01*
X89119523Y-117585476D01*
X89167142Y-117775952D01*
X89167142Y-117918809D01*
X89119523Y-118109285D01*
X89071904Y-118204523D01*
X88976666Y-118299761D01*
X88833809Y-118347380D01*
X88595714Y-118347380D01*
X90119523Y-118347380D02*
X89548095Y-118347380D01*
X89833809Y-118347380D02*
X89833809Y-117347380D01*
X89738571Y-117490238D01*
X89643333Y-117585476D01*
X89548095Y-117633095D01*
X90738571Y-117347380D02*
X90833809Y-117347380D01*
X90929047Y-117395000D01*
X90976666Y-117442619D01*
X91024285Y-117537857D01*
X91071904Y-117728333D01*
X91071904Y-117966428D01*
X91024285Y-118156904D01*
X90976666Y-118252142D01*
X90929047Y-118299761D01*
X90833809Y-118347380D01*
X90738571Y-118347380D01*
X90643333Y-118299761D01*
X90595714Y-118252142D01*
X90548095Y-118156904D01*
X90500476Y-117966428D01*
X90500476Y-117728333D01*
X90548095Y-117537857D01*
X90595714Y-117442619D01*
X90643333Y-117395000D01*
X90738571Y-117347380D01*
X85738095Y-118667380D02*
X85738095Y-117667380D01*
X86309523Y-118667380D02*
X85880952Y-118095952D01*
X86309523Y-117667380D02*
X85738095Y-118238809D01*
G04 #@! TO.C,D11*
X107645714Y-118347380D02*
X107645714Y-117347380D01*
X107883809Y-117347380D01*
X108026666Y-117395000D01*
X108121904Y-117490238D01*
X108169523Y-117585476D01*
X108217142Y-117775952D01*
X108217142Y-117918809D01*
X108169523Y-118109285D01*
X108121904Y-118204523D01*
X108026666Y-118299761D01*
X107883809Y-118347380D01*
X107645714Y-118347380D01*
X109169523Y-118347380D02*
X108598095Y-118347380D01*
X108883809Y-118347380D02*
X108883809Y-117347380D01*
X108788571Y-117490238D01*
X108693333Y-117585476D01*
X108598095Y-117633095D01*
X110121904Y-118347380D02*
X109550476Y-118347380D01*
X109836190Y-118347380D02*
X109836190Y-117347380D01*
X109740952Y-117490238D01*
X109645714Y-117585476D01*
X109550476Y-117633095D01*
X104788095Y-118667380D02*
X104788095Y-117667380D01*
X105359523Y-118667380D02*
X104930952Y-118095952D01*
X105359523Y-117667380D02*
X104788095Y-118238809D01*
G04 #@! TO.C,D12*
X126695714Y-118347380D02*
X126695714Y-117347380D01*
X126933809Y-117347380D01*
X127076666Y-117395000D01*
X127171904Y-117490238D01*
X127219523Y-117585476D01*
X127267142Y-117775952D01*
X127267142Y-117918809D01*
X127219523Y-118109285D01*
X127171904Y-118204523D01*
X127076666Y-118299761D01*
X126933809Y-118347380D01*
X126695714Y-118347380D01*
X128219523Y-118347380D02*
X127648095Y-118347380D01*
X127933809Y-118347380D02*
X127933809Y-117347380D01*
X127838571Y-117490238D01*
X127743333Y-117585476D01*
X127648095Y-117633095D01*
X128600476Y-117442619D02*
X128648095Y-117395000D01*
X128743333Y-117347380D01*
X128981428Y-117347380D01*
X129076666Y-117395000D01*
X129124285Y-117442619D01*
X129171904Y-117537857D01*
X129171904Y-117633095D01*
X129124285Y-117775952D01*
X128552857Y-118347380D01*
X129171904Y-118347380D01*
X123838095Y-118667380D02*
X123838095Y-117667380D01*
X124409523Y-118667380D02*
X123980952Y-118095952D01*
X124409523Y-117667380D02*
X123838095Y-118238809D01*
G04 #@! TO.C,D13*
X69545714Y-137397380D02*
X69545714Y-136397380D01*
X69783809Y-136397380D01*
X69926666Y-136445000D01*
X70021904Y-136540238D01*
X70069523Y-136635476D01*
X70117142Y-136825952D01*
X70117142Y-136968809D01*
X70069523Y-137159285D01*
X70021904Y-137254523D01*
X69926666Y-137349761D01*
X69783809Y-137397380D01*
X69545714Y-137397380D01*
X71069523Y-137397380D02*
X70498095Y-137397380D01*
X70783809Y-137397380D02*
X70783809Y-136397380D01*
X70688571Y-136540238D01*
X70593333Y-136635476D01*
X70498095Y-136683095D01*
X71402857Y-136397380D02*
X72021904Y-136397380D01*
X71688571Y-136778333D01*
X71831428Y-136778333D01*
X71926666Y-136825952D01*
X71974285Y-136873571D01*
X72021904Y-136968809D01*
X72021904Y-137206904D01*
X71974285Y-137302142D01*
X71926666Y-137349761D01*
X71831428Y-137397380D01*
X71545714Y-137397380D01*
X71450476Y-137349761D01*
X71402857Y-137302142D01*
X66688095Y-137717380D02*
X66688095Y-136717380D01*
X67259523Y-137717380D02*
X66830952Y-137145952D01*
X67259523Y-136717380D02*
X66688095Y-137288809D01*
G04 #@! TO.C,D14*
X88595714Y-137397380D02*
X88595714Y-136397380D01*
X88833809Y-136397380D01*
X88976666Y-136445000D01*
X89071904Y-136540238D01*
X89119523Y-136635476D01*
X89167142Y-136825952D01*
X89167142Y-136968809D01*
X89119523Y-137159285D01*
X89071904Y-137254523D01*
X88976666Y-137349761D01*
X88833809Y-137397380D01*
X88595714Y-137397380D01*
X90119523Y-137397380D02*
X89548095Y-137397380D01*
X89833809Y-137397380D02*
X89833809Y-136397380D01*
X89738571Y-136540238D01*
X89643333Y-136635476D01*
X89548095Y-136683095D01*
X90976666Y-136730714D02*
X90976666Y-137397380D01*
X90738571Y-136349761D02*
X90500476Y-137064047D01*
X91119523Y-137064047D01*
X85738095Y-137717380D02*
X85738095Y-136717380D01*
X86309523Y-137717380D02*
X85880952Y-137145952D01*
X86309523Y-136717380D02*
X85738095Y-137288809D01*
G04 #@! TO.C,D15*
X107645714Y-137397380D02*
X107645714Y-136397380D01*
X107883809Y-136397380D01*
X108026666Y-136445000D01*
X108121904Y-136540238D01*
X108169523Y-136635476D01*
X108217142Y-136825952D01*
X108217142Y-136968809D01*
X108169523Y-137159285D01*
X108121904Y-137254523D01*
X108026666Y-137349761D01*
X107883809Y-137397380D01*
X107645714Y-137397380D01*
X109169523Y-137397380D02*
X108598095Y-137397380D01*
X108883809Y-137397380D02*
X108883809Y-136397380D01*
X108788571Y-136540238D01*
X108693333Y-136635476D01*
X108598095Y-136683095D01*
X110074285Y-136397380D02*
X109598095Y-136397380D01*
X109550476Y-136873571D01*
X109598095Y-136825952D01*
X109693333Y-136778333D01*
X109931428Y-136778333D01*
X110026666Y-136825952D01*
X110074285Y-136873571D01*
X110121904Y-136968809D01*
X110121904Y-137206904D01*
X110074285Y-137302142D01*
X110026666Y-137349761D01*
X109931428Y-137397380D01*
X109693333Y-137397380D01*
X109598095Y-137349761D01*
X109550476Y-137302142D01*
X104788095Y-137717380D02*
X104788095Y-136717380D01*
X105359523Y-137717380D02*
X104930952Y-137145952D01*
X105359523Y-136717380D02*
X104788095Y-137288809D01*
G04 #@! TO.C,D16*
X126695714Y-137397380D02*
X126695714Y-136397380D01*
X126933809Y-136397380D01*
X127076666Y-136445000D01*
X127171904Y-136540238D01*
X127219523Y-136635476D01*
X127267142Y-136825952D01*
X127267142Y-136968809D01*
X127219523Y-137159285D01*
X127171904Y-137254523D01*
X127076666Y-137349761D01*
X126933809Y-137397380D01*
X126695714Y-137397380D01*
X128219523Y-137397380D02*
X127648095Y-137397380D01*
X127933809Y-137397380D02*
X127933809Y-136397380D01*
X127838571Y-136540238D01*
X127743333Y-136635476D01*
X127648095Y-136683095D01*
X129076666Y-136397380D02*
X128886190Y-136397380D01*
X128790952Y-136445000D01*
X128743333Y-136492619D01*
X128648095Y-136635476D01*
X128600476Y-136825952D01*
X128600476Y-137206904D01*
X128648095Y-137302142D01*
X128695714Y-137349761D01*
X128790952Y-137397380D01*
X128981428Y-137397380D01*
X129076666Y-137349761D01*
X129124285Y-137302142D01*
X129171904Y-137206904D01*
X129171904Y-136968809D01*
X129124285Y-136873571D01*
X129076666Y-136825952D01*
X128981428Y-136778333D01*
X128790952Y-136778333D01*
X128695714Y-136825952D01*
X128648095Y-136873571D01*
X128600476Y-136968809D01*
X123838095Y-137717380D02*
X123838095Y-136717380D01*
X124409523Y-137717380D02*
X123980952Y-137145952D01*
X124409523Y-136717380D02*
X123838095Y-137288809D01*
G04 #@! TO.C,SW1*
X69426666Y-64900761D02*
X69569523Y-64948380D01*
X69807619Y-64948380D01*
X69902857Y-64900761D01*
X69950476Y-64853142D01*
X69998095Y-64757904D01*
X69998095Y-64662666D01*
X69950476Y-64567428D01*
X69902857Y-64519809D01*
X69807619Y-64472190D01*
X69617142Y-64424571D01*
X69521904Y-64376952D01*
X69474285Y-64329333D01*
X69426666Y-64234095D01*
X69426666Y-64138857D01*
X69474285Y-64043619D01*
X69521904Y-63996000D01*
X69617142Y-63948380D01*
X69855238Y-63948380D01*
X69998095Y-63996000D01*
X70331428Y-63948380D02*
X70569523Y-64948380D01*
X70760000Y-64234095D01*
X70950476Y-64948380D01*
X71188571Y-63948380D01*
X72093333Y-64948380D02*
X71521904Y-64948380D01*
X71807619Y-64948380D02*
X71807619Y-63948380D01*
X71712380Y-64091238D01*
X71617142Y-64186476D01*
X71521904Y-64234095D01*
G04 #@! TO.C,SW2*
X88476666Y-64900761D02*
X88619523Y-64948380D01*
X88857619Y-64948380D01*
X88952857Y-64900761D01*
X89000476Y-64853142D01*
X89048095Y-64757904D01*
X89048095Y-64662666D01*
X89000476Y-64567428D01*
X88952857Y-64519809D01*
X88857619Y-64472190D01*
X88667142Y-64424571D01*
X88571904Y-64376952D01*
X88524285Y-64329333D01*
X88476666Y-64234095D01*
X88476666Y-64138857D01*
X88524285Y-64043619D01*
X88571904Y-63996000D01*
X88667142Y-63948380D01*
X88905238Y-63948380D01*
X89048095Y-63996000D01*
X89381428Y-63948380D02*
X89619523Y-64948380D01*
X89810000Y-64234095D01*
X90000476Y-64948380D01*
X90238571Y-63948380D01*
X90571904Y-64043619D02*
X90619523Y-63996000D01*
X90714761Y-63948380D01*
X90952857Y-63948380D01*
X91048095Y-63996000D01*
X91095714Y-64043619D01*
X91143333Y-64138857D01*
X91143333Y-64234095D01*
X91095714Y-64376952D01*
X90524285Y-64948380D01*
X91143333Y-64948380D01*
G04 #@! TO.C,SW3*
X107526666Y-64900761D02*
X107669523Y-64948380D01*
X107907619Y-64948380D01*
X108002857Y-64900761D01*
X108050476Y-64853142D01*
X108098095Y-64757904D01*
X108098095Y-64662666D01*
X108050476Y-64567428D01*
X108002857Y-64519809D01*
X107907619Y-64472190D01*
X107717142Y-64424571D01*
X107621904Y-64376952D01*
X107574285Y-64329333D01*
X107526666Y-64234095D01*
X107526666Y-64138857D01*
X107574285Y-64043619D01*
X107621904Y-63996000D01*
X107717142Y-63948380D01*
X107955238Y-63948380D01*
X108098095Y-63996000D01*
X108431428Y-63948380D02*
X108669523Y-64948380D01*
X108860000Y-64234095D01*
X109050476Y-64948380D01*
X109288571Y-63948380D01*
X109574285Y-63948380D02*
X110193333Y-63948380D01*
X109860000Y-64329333D01*
X110002857Y-64329333D01*
X110098095Y-64376952D01*
X110145714Y-64424571D01*
X110193333Y-64519809D01*
X110193333Y-64757904D01*
X110145714Y-64853142D01*
X110098095Y-64900761D01*
X110002857Y-64948380D01*
X109717142Y-64948380D01*
X109621904Y-64900761D01*
X109574285Y-64853142D01*
G04 #@! TO.C,SW4*
X126576666Y-64900761D02*
X126719523Y-64948380D01*
X126957619Y-64948380D01*
X127052857Y-64900761D01*
X127100476Y-64853142D01*
X127148095Y-64757904D01*
X127148095Y-64662666D01*
X127100476Y-64567428D01*
X127052857Y-64519809D01*
X126957619Y-64472190D01*
X126767142Y-64424571D01*
X126671904Y-64376952D01*
X126624285Y-64329333D01*
X126576666Y-64234095D01*
X126576666Y-64138857D01*
X126624285Y-64043619D01*
X126671904Y-63996000D01*
X126767142Y-63948380D01*
X127005238Y-63948380D01*
X127148095Y-63996000D01*
X127481428Y-63948380D02*
X127719523Y-64948380D01*
X127910000Y-64234095D01*
X128100476Y-64948380D01*
X128338571Y-63948380D01*
X129148095Y-64281714D02*
X129148095Y-64948380D01*
X128910000Y-63900761D02*
X128671904Y-64615047D01*
X129290952Y-64615047D01*
G04 #@! TO.C,SW5*
X69426666Y-83950761D02*
X69569523Y-83998380D01*
X69807619Y-83998380D01*
X69902857Y-83950761D01*
X69950476Y-83903142D01*
X69998095Y-83807904D01*
X69998095Y-83712666D01*
X69950476Y-83617428D01*
X69902857Y-83569809D01*
X69807619Y-83522190D01*
X69617142Y-83474571D01*
X69521904Y-83426952D01*
X69474285Y-83379333D01*
X69426666Y-83284095D01*
X69426666Y-83188857D01*
X69474285Y-83093619D01*
X69521904Y-83046000D01*
X69617142Y-82998380D01*
X69855238Y-82998380D01*
X69998095Y-83046000D01*
X70331428Y-82998380D02*
X70569523Y-83998380D01*
X70760000Y-83284095D01*
X70950476Y-83998380D01*
X71188571Y-82998380D01*
X72045714Y-82998380D02*
X71569523Y-82998380D01*
X71521904Y-83474571D01*
X71569523Y-83426952D01*
X71664761Y-83379333D01*
X71902857Y-83379333D01*
X71998095Y-83426952D01*
X72045714Y-83474571D01*
X72093333Y-83569809D01*
X72093333Y-83807904D01*
X72045714Y-83903142D01*
X71998095Y-83950761D01*
X71902857Y-83998380D01*
X71664761Y-83998380D01*
X71569523Y-83950761D01*
X71521904Y-83903142D01*
G04 #@! TO.C,SW6*
X88476666Y-83950761D02*
X88619523Y-83998380D01*
X88857619Y-83998380D01*
X88952857Y-83950761D01*
X89000476Y-83903142D01*
X89048095Y-83807904D01*
X89048095Y-83712666D01*
X89000476Y-83617428D01*
X88952857Y-83569809D01*
X88857619Y-83522190D01*
X88667142Y-83474571D01*
X88571904Y-83426952D01*
X88524285Y-83379333D01*
X88476666Y-83284095D01*
X88476666Y-83188857D01*
X88524285Y-83093619D01*
X88571904Y-83046000D01*
X88667142Y-82998380D01*
X88905238Y-82998380D01*
X89048095Y-83046000D01*
X89381428Y-82998380D02*
X89619523Y-83998380D01*
X89810000Y-83284095D01*
X90000476Y-83998380D01*
X90238571Y-82998380D01*
X91048095Y-82998380D02*
X90857619Y-82998380D01*
X90762380Y-83046000D01*
X90714761Y-83093619D01*
X90619523Y-83236476D01*
X90571904Y-83426952D01*
X90571904Y-83807904D01*
X90619523Y-83903142D01*
X90667142Y-83950761D01*
X90762380Y-83998380D01*
X90952857Y-83998380D01*
X91048095Y-83950761D01*
X91095714Y-83903142D01*
X91143333Y-83807904D01*
X91143333Y-83569809D01*
X91095714Y-83474571D01*
X91048095Y-83426952D01*
X90952857Y-83379333D01*
X90762380Y-83379333D01*
X90667142Y-83426952D01*
X90619523Y-83474571D01*
X90571904Y-83569809D01*
G04 #@! TO.C,SW7*
X107526666Y-83950761D02*
X107669523Y-83998380D01*
X107907619Y-83998380D01*
X108002857Y-83950761D01*
X108050476Y-83903142D01*
X108098095Y-83807904D01*
X108098095Y-83712666D01*
X108050476Y-83617428D01*
X108002857Y-83569809D01*
X107907619Y-83522190D01*
X107717142Y-83474571D01*
X107621904Y-83426952D01*
X107574285Y-83379333D01*
X107526666Y-83284095D01*
X107526666Y-83188857D01*
X107574285Y-83093619D01*
X107621904Y-83046000D01*
X107717142Y-82998380D01*
X107955238Y-82998380D01*
X108098095Y-83046000D01*
X108431428Y-82998380D02*
X108669523Y-83998380D01*
X108860000Y-83284095D01*
X109050476Y-83998380D01*
X109288571Y-82998380D01*
X109574285Y-82998380D02*
X110240952Y-82998380D01*
X109812380Y-83998380D01*
G04 #@! TO.C,SW8*
X126576666Y-83950761D02*
X126719523Y-83998380D01*
X126957619Y-83998380D01*
X127052857Y-83950761D01*
X127100476Y-83903142D01*
X127148095Y-83807904D01*
X127148095Y-83712666D01*
X127100476Y-83617428D01*
X127052857Y-83569809D01*
X126957619Y-83522190D01*
X126767142Y-83474571D01*
X126671904Y-83426952D01*
X126624285Y-83379333D01*
X126576666Y-83284095D01*
X126576666Y-83188857D01*
X126624285Y-83093619D01*
X126671904Y-83046000D01*
X126767142Y-82998380D01*
X127005238Y-82998380D01*
X127148095Y-83046000D01*
X127481428Y-82998380D02*
X127719523Y-83998380D01*
X127910000Y-83284095D01*
X128100476Y-83998380D01*
X128338571Y-82998380D01*
X128862380Y-83426952D02*
X128767142Y-83379333D01*
X128719523Y-83331714D01*
X128671904Y-83236476D01*
X128671904Y-83188857D01*
X128719523Y-83093619D01*
X128767142Y-83046000D01*
X128862380Y-82998380D01*
X129052857Y-82998380D01*
X129148095Y-83046000D01*
X129195714Y-83093619D01*
X129243333Y-83188857D01*
X129243333Y-83236476D01*
X129195714Y-83331714D01*
X129148095Y-83379333D01*
X129052857Y-83426952D01*
X128862380Y-83426952D01*
X128767142Y-83474571D01*
X128719523Y-83522190D01*
X128671904Y-83617428D01*
X128671904Y-83807904D01*
X128719523Y-83903142D01*
X128767142Y-83950761D01*
X128862380Y-83998380D01*
X129052857Y-83998380D01*
X129148095Y-83950761D01*
X129195714Y-83903142D01*
X129243333Y-83807904D01*
X129243333Y-83617428D01*
X129195714Y-83522190D01*
X129148095Y-83474571D01*
X129052857Y-83426952D01*
G04 #@! TO.C,SW9*
X69426666Y-103000761D02*
X69569523Y-103048380D01*
X69807619Y-103048380D01*
X69902857Y-103000761D01*
X69950476Y-102953142D01*
X69998095Y-102857904D01*
X69998095Y-102762666D01*
X69950476Y-102667428D01*
X69902857Y-102619809D01*
X69807619Y-102572190D01*
X69617142Y-102524571D01*
X69521904Y-102476952D01*
X69474285Y-102429333D01*
X69426666Y-102334095D01*
X69426666Y-102238857D01*
X69474285Y-102143619D01*
X69521904Y-102096000D01*
X69617142Y-102048380D01*
X69855238Y-102048380D01*
X69998095Y-102096000D01*
X70331428Y-102048380D02*
X70569523Y-103048380D01*
X70760000Y-102334095D01*
X70950476Y-103048380D01*
X71188571Y-102048380D01*
X71617142Y-103048380D02*
X71807619Y-103048380D01*
X71902857Y-103000761D01*
X71950476Y-102953142D01*
X72045714Y-102810285D01*
X72093333Y-102619809D01*
X72093333Y-102238857D01*
X72045714Y-102143619D01*
X71998095Y-102096000D01*
X71902857Y-102048380D01*
X71712380Y-102048380D01*
X71617142Y-102096000D01*
X71569523Y-102143619D01*
X71521904Y-102238857D01*
X71521904Y-102476952D01*
X71569523Y-102572190D01*
X71617142Y-102619809D01*
X71712380Y-102667428D01*
X71902857Y-102667428D01*
X71998095Y-102619809D01*
X72045714Y-102572190D01*
X72093333Y-102476952D01*
G04 #@! TO.C,SW10*
X88000476Y-103000761D02*
X88143333Y-103048380D01*
X88381428Y-103048380D01*
X88476666Y-103000761D01*
X88524285Y-102953142D01*
X88571904Y-102857904D01*
X88571904Y-102762666D01*
X88524285Y-102667428D01*
X88476666Y-102619809D01*
X88381428Y-102572190D01*
X88190952Y-102524571D01*
X88095714Y-102476952D01*
X88048095Y-102429333D01*
X88000476Y-102334095D01*
X88000476Y-102238857D01*
X88048095Y-102143619D01*
X88095714Y-102096000D01*
X88190952Y-102048380D01*
X88429047Y-102048380D01*
X88571904Y-102096000D01*
X88905238Y-102048380D02*
X89143333Y-103048380D01*
X89333809Y-102334095D01*
X89524285Y-103048380D01*
X89762380Y-102048380D01*
X90667142Y-103048380D02*
X90095714Y-103048380D01*
X90381428Y-103048380D02*
X90381428Y-102048380D01*
X90286190Y-102191238D01*
X90190952Y-102286476D01*
X90095714Y-102334095D01*
X91286190Y-102048380D02*
X91381428Y-102048380D01*
X91476666Y-102096000D01*
X91524285Y-102143619D01*
X91571904Y-102238857D01*
X91619523Y-102429333D01*
X91619523Y-102667428D01*
X91571904Y-102857904D01*
X91524285Y-102953142D01*
X91476666Y-103000761D01*
X91381428Y-103048380D01*
X91286190Y-103048380D01*
X91190952Y-103000761D01*
X91143333Y-102953142D01*
X91095714Y-102857904D01*
X91048095Y-102667428D01*
X91048095Y-102429333D01*
X91095714Y-102238857D01*
X91143333Y-102143619D01*
X91190952Y-102096000D01*
X91286190Y-102048380D01*
G04 #@! TO.C,SW11*
X107050476Y-103000761D02*
X107193333Y-103048380D01*
X107431428Y-103048380D01*
X107526666Y-103000761D01*
X107574285Y-102953142D01*
X107621904Y-102857904D01*
X107621904Y-102762666D01*
X107574285Y-102667428D01*
X107526666Y-102619809D01*
X107431428Y-102572190D01*
X107240952Y-102524571D01*
X107145714Y-102476952D01*
X107098095Y-102429333D01*
X107050476Y-102334095D01*
X107050476Y-102238857D01*
X107098095Y-102143619D01*
X107145714Y-102096000D01*
X107240952Y-102048380D01*
X107479047Y-102048380D01*
X107621904Y-102096000D01*
X107955238Y-102048380D02*
X108193333Y-103048380D01*
X108383809Y-102334095D01*
X108574285Y-103048380D01*
X108812380Y-102048380D01*
X109717142Y-103048380D02*
X109145714Y-103048380D01*
X109431428Y-103048380D02*
X109431428Y-102048380D01*
X109336190Y-102191238D01*
X109240952Y-102286476D01*
X109145714Y-102334095D01*
X110669523Y-103048380D02*
X110098095Y-103048380D01*
X110383809Y-103048380D02*
X110383809Y-102048380D01*
X110288571Y-102191238D01*
X110193333Y-102286476D01*
X110098095Y-102334095D01*
G04 #@! TO.C,SW12*
X126100476Y-103000761D02*
X126243333Y-103048380D01*
X126481428Y-103048380D01*
X126576666Y-103000761D01*
X126624285Y-102953142D01*
X126671904Y-102857904D01*
X126671904Y-102762666D01*
X126624285Y-102667428D01*
X126576666Y-102619809D01*
X126481428Y-102572190D01*
X126290952Y-102524571D01*
X126195714Y-102476952D01*
X126148095Y-102429333D01*
X126100476Y-102334095D01*
X126100476Y-102238857D01*
X126148095Y-102143619D01*
X126195714Y-102096000D01*
X126290952Y-102048380D01*
X126529047Y-102048380D01*
X126671904Y-102096000D01*
X127005238Y-102048380D02*
X127243333Y-103048380D01*
X127433809Y-102334095D01*
X127624285Y-103048380D01*
X127862380Y-102048380D01*
X128767142Y-103048380D02*
X128195714Y-103048380D01*
X128481428Y-103048380D02*
X128481428Y-102048380D01*
X128386190Y-102191238D01*
X128290952Y-102286476D01*
X128195714Y-102334095D01*
X129148095Y-102143619D02*
X129195714Y-102096000D01*
X129290952Y-102048380D01*
X129529047Y-102048380D01*
X129624285Y-102096000D01*
X129671904Y-102143619D01*
X129719523Y-102238857D01*
X129719523Y-102334095D01*
X129671904Y-102476952D01*
X129100476Y-103048380D01*
X129719523Y-103048380D01*
G04 #@! TO.C,SW13*
X68950476Y-122050761D02*
X69093333Y-122098380D01*
X69331428Y-122098380D01*
X69426666Y-122050761D01*
X69474285Y-122003142D01*
X69521904Y-121907904D01*
X69521904Y-121812666D01*
X69474285Y-121717428D01*
X69426666Y-121669809D01*
X69331428Y-121622190D01*
X69140952Y-121574571D01*
X69045714Y-121526952D01*
X68998095Y-121479333D01*
X68950476Y-121384095D01*
X68950476Y-121288857D01*
X68998095Y-121193619D01*
X69045714Y-121146000D01*
X69140952Y-121098380D01*
X69379047Y-121098380D01*
X69521904Y-121146000D01*
X69855238Y-121098380D02*
X70093333Y-122098380D01*
X70283809Y-121384095D01*
X70474285Y-122098380D01*
X70712380Y-121098380D01*
X71617142Y-122098380D02*
X71045714Y-122098380D01*
X71331428Y-122098380D02*
X71331428Y-121098380D01*
X71236190Y-121241238D01*
X71140952Y-121336476D01*
X71045714Y-121384095D01*
X71950476Y-121098380D02*
X72569523Y-121098380D01*
X72236190Y-121479333D01*
X72379047Y-121479333D01*
X72474285Y-121526952D01*
X72521904Y-121574571D01*
X72569523Y-121669809D01*
X72569523Y-121907904D01*
X72521904Y-122003142D01*
X72474285Y-122050761D01*
X72379047Y-122098380D01*
X72093333Y-122098380D01*
X71998095Y-122050761D01*
X71950476Y-122003142D01*
G04 #@! TO.C,SW14*
X88000476Y-122050761D02*
X88143333Y-122098380D01*
X88381428Y-122098380D01*
X88476666Y-122050761D01*
X88524285Y-122003142D01*
X88571904Y-121907904D01*
X88571904Y-121812666D01*
X88524285Y-121717428D01*
X88476666Y-121669809D01*
X88381428Y-121622190D01*
X88190952Y-121574571D01*
X88095714Y-121526952D01*
X88048095Y-121479333D01*
X88000476Y-121384095D01*
X88000476Y-121288857D01*
X88048095Y-121193619D01*
X88095714Y-121146000D01*
X88190952Y-121098380D01*
X88429047Y-121098380D01*
X88571904Y-121146000D01*
X88905238Y-121098380D02*
X89143333Y-122098380D01*
X89333809Y-121384095D01*
X89524285Y-122098380D01*
X89762380Y-121098380D01*
X90667142Y-122098380D02*
X90095714Y-122098380D01*
X90381428Y-122098380D02*
X90381428Y-121098380D01*
X90286190Y-121241238D01*
X90190952Y-121336476D01*
X90095714Y-121384095D01*
X91524285Y-121431714D02*
X91524285Y-122098380D01*
X91286190Y-121050761D02*
X91048095Y-121765047D01*
X91667142Y-121765047D01*
G04 #@! TO.C,SW15*
X107050476Y-122050761D02*
X107193333Y-122098380D01*
X107431428Y-122098380D01*
X107526666Y-122050761D01*
X107574285Y-122003142D01*
X107621904Y-121907904D01*
X107621904Y-121812666D01*
X107574285Y-121717428D01*
X107526666Y-121669809D01*
X107431428Y-121622190D01*
X107240952Y-121574571D01*
X107145714Y-121526952D01*
X107098095Y-121479333D01*
X107050476Y-121384095D01*
X107050476Y-121288857D01*
X107098095Y-121193619D01*
X107145714Y-121146000D01*
X107240952Y-121098380D01*
X107479047Y-121098380D01*
X107621904Y-121146000D01*
X107955238Y-121098380D02*
X108193333Y-122098380D01*
X108383809Y-121384095D01*
X108574285Y-122098380D01*
X108812380Y-121098380D01*
X109717142Y-122098380D02*
X109145714Y-122098380D01*
X109431428Y-122098380D02*
X109431428Y-121098380D01*
X109336190Y-121241238D01*
X109240952Y-121336476D01*
X109145714Y-121384095D01*
X110621904Y-121098380D02*
X110145714Y-121098380D01*
X110098095Y-121574571D01*
X110145714Y-121526952D01*
X110240952Y-121479333D01*
X110479047Y-121479333D01*
X110574285Y-121526952D01*
X110621904Y-121574571D01*
X110669523Y-121669809D01*
X110669523Y-121907904D01*
X110621904Y-122003142D01*
X110574285Y-122050761D01*
X110479047Y-122098380D01*
X110240952Y-122098380D01*
X110145714Y-122050761D01*
X110098095Y-122003142D01*
G04 #@! TO.C,SW16*
X126100476Y-122050761D02*
X126243333Y-122098380D01*
X126481428Y-122098380D01*
X126576666Y-122050761D01*
X126624285Y-122003142D01*
X126671904Y-121907904D01*
X126671904Y-121812666D01*
X126624285Y-121717428D01*
X126576666Y-121669809D01*
X126481428Y-121622190D01*
X126290952Y-121574571D01*
X126195714Y-121526952D01*
X126148095Y-121479333D01*
X126100476Y-121384095D01*
X126100476Y-121288857D01*
X126148095Y-121193619D01*
X126195714Y-121146000D01*
X126290952Y-121098380D01*
X126529047Y-121098380D01*
X126671904Y-121146000D01*
X127005238Y-121098380D02*
X127243333Y-122098380D01*
X127433809Y-121384095D01*
X127624285Y-122098380D01*
X127862380Y-121098380D01*
X128767142Y-122098380D02*
X128195714Y-122098380D01*
X128481428Y-122098380D02*
X128481428Y-121098380D01*
X128386190Y-121241238D01*
X128290952Y-121336476D01*
X128195714Y-121384095D01*
X129624285Y-121098380D02*
X129433809Y-121098380D01*
X129338571Y-121146000D01*
X129290952Y-121193619D01*
X129195714Y-121336476D01*
X129148095Y-121526952D01*
X129148095Y-121907904D01*
X129195714Y-122003142D01*
X129243333Y-122050761D01*
X129338571Y-122098380D01*
X129529047Y-122098380D01*
X129624285Y-122050761D01*
X129671904Y-122003142D01*
X129719523Y-121907904D01*
X129719523Y-121669809D01*
X129671904Y-121574571D01*
X129624285Y-121526952D01*
X129529047Y-121479333D01*
X129338571Y-121479333D01*
X129243333Y-121526952D01*
X129195714Y-121574571D01*
X129148095Y-121669809D01*
G04 #@! TO.C,RST_SW1*
X46797619Y-94452380D02*
X46464285Y-93976190D01*
X46226190Y-94452380D02*
X46226190Y-93452380D01*
X46607142Y-93452380D01*
X46702380Y-93500000D01*
X46750000Y-93547619D01*
X46797619Y-93642857D01*
X46797619Y-93785714D01*
X46750000Y-93880952D01*
X46702380Y-93928571D01*
X46607142Y-93976190D01*
X46226190Y-93976190D01*
X47178571Y-94404761D02*
X47321428Y-94452380D01*
X47559523Y-94452380D01*
X47654761Y-94404761D01*
X47702380Y-94357142D01*
X47750000Y-94261904D01*
X47750000Y-94166666D01*
X47702380Y-94071428D01*
X47654761Y-94023809D01*
X47559523Y-93976190D01*
X47369047Y-93928571D01*
X47273809Y-93880952D01*
X47226190Y-93833333D01*
X47178571Y-93738095D01*
X47178571Y-93642857D01*
X47226190Y-93547619D01*
X47273809Y-93500000D01*
X47369047Y-93452380D01*
X47607142Y-93452380D01*
X47750000Y-93500000D01*
X48035714Y-93452380D02*
X48607142Y-93452380D01*
X48321428Y-94452380D02*
X48321428Y-93452380D01*
X48702380Y-94547619D02*
X49464285Y-94547619D01*
X49654761Y-94404761D02*
X49797619Y-94452380D01*
X50035714Y-94452380D01*
X50130952Y-94404761D01*
X50178571Y-94357142D01*
X50226190Y-94261904D01*
X50226190Y-94166666D01*
X50178571Y-94071428D01*
X50130952Y-94023809D01*
X50035714Y-93976190D01*
X49845238Y-93928571D01*
X49750000Y-93880952D01*
X49702380Y-93833333D01*
X49654761Y-93738095D01*
X49654761Y-93642857D01*
X49702380Y-93547619D01*
X49750000Y-93500000D01*
X49845238Y-93452380D01*
X50083333Y-93452380D01*
X50226190Y-93500000D01*
X50559523Y-93452380D02*
X50797619Y-94452380D01*
X50988095Y-93738095D01*
X51178571Y-94452380D01*
X51416666Y-93452380D01*
X52321428Y-94452380D02*
X51750000Y-94452380D01*
X52035714Y-94452380D02*
X52035714Y-93452380D01*
X51940476Y-93595238D01*
X51845238Y-93690476D01*
X51750000Y-93738095D01*
G04 #@! TD*
%LPC*%
D12*
G04 #@! TO.C,m4*
X135000000Y-145000000D03*
G04 #@! TD*
G04 #@! TO.C,m3*
X135000000Y-55000000D03*
G04 #@! TD*
G04 #@! TO.C,m2*
X45000000Y-145000000D03*
G04 #@! TD*
D13*
G04 #@! TO.C,D1*
X66950000Y-81915000D03*
D14*
X74570000Y-81915000D03*
G04 #@! TD*
G04 #@! TO.C,D2*
X93620000Y-81915000D03*
D13*
X86000000Y-81915000D03*
G04 #@! TD*
G04 #@! TO.C,D3*
X105050000Y-81915000D03*
D14*
X112670000Y-81915000D03*
G04 #@! TD*
D13*
G04 #@! TO.C,D4*
X124100000Y-81915000D03*
D14*
X131720000Y-81915000D03*
G04 #@! TD*
D13*
G04 #@! TO.C,D5*
X66950000Y-100965000D03*
D14*
X74570000Y-100965000D03*
G04 #@! TD*
D13*
G04 #@! TO.C,D6*
X86000000Y-100965000D03*
D14*
X93620000Y-100965000D03*
G04 #@! TD*
G04 #@! TO.C,D7*
X112670000Y-100965000D03*
D13*
X105050000Y-100965000D03*
G04 #@! TD*
D14*
G04 #@! TO.C,D8*
X131720000Y-100965000D03*
D13*
X124100000Y-100965000D03*
G04 #@! TD*
D14*
G04 #@! TO.C,D9*
X74570000Y-120015000D03*
D13*
X66950000Y-120015000D03*
G04 #@! TD*
D14*
G04 #@! TO.C,D10*
X93620000Y-120015000D03*
D13*
X86000000Y-120015000D03*
G04 #@! TD*
G04 #@! TO.C,D11*
X105050000Y-120015000D03*
D14*
X112670000Y-120015000D03*
G04 #@! TD*
D13*
G04 #@! TO.C,D12*
X124100000Y-120015000D03*
D14*
X131720000Y-120015000D03*
G04 #@! TD*
G04 #@! TO.C,D13*
X74570000Y-139065000D03*
D13*
X66950000Y-139065000D03*
G04 #@! TD*
G04 #@! TO.C,D14*
X86000000Y-139065000D03*
D14*
X93620000Y-139065000D03*
G04 #@! TD*
G04 #@! TO.C,D15*
X112670000Y-139065000D03*
D13*
X105050000Y-139065000D03*
G04 #@! TD*
D14*
G04 #@! TO.C,D16*
X131720000Y-139065000D03*
D13*
X124100000Y-139065000D03*
G04 #@! TD*
D15*
G04 #@! TO.C,SW1*
X73300000Y-67290000D03*
X66950000Y-69830000D03*
D16*
X70760000Y-72370000D03*
D17*
X65680000Y-72370000D03*
X75840000Y-72370000D03*
G04 #@! TD*
G04 #@! TO.C,SW2*
X94890000Y-72370000D03*
X84730000Y-72370000D03*
D16*
X89810000Y-72370000D03*
D15*
X86000000Y-69830000D03*
X92350000Y-67290000D03*
G04 #@! TD*
G04 #@! TO.C,SW3*
X111400000Y-67290000D03*
X105050000Y-69830000D03*
D16*
X108860000Y-72370000D03*
D17*
X103780000Y-72370000D03*
X113940000Y-72370000D03*
G04 #@! TD*
D15*
G04 #@! TO.C,SW4*
X130450000Y-67290000D03*
X124100000Y-69830000D03*
D16*
X127910000Y-72370000D03*
D17*
X122830000Y-72370000D03*
X132990000Y-72370000D03*
G04 #@! TD*
D15*
G04 #@! TO.C,SW5*
X73300000Y-86340000D03*
X66950000Y-88880000D03*
D16*
X70760000Y-91420000D03*
D17*
X65680000Y-91420000D03*
X75840000Y-91420000D03*
G04 #@! TD*
G04 #@! TO.C,SW6*
X94890000Y-91420000D03*
X84730000Y-91420000D03*
D16*
X89810000Y-91420000D03*
D15*
X86000000Y-88880000D03*
X92350000Y-86340000D03*
G04 #@! TD*
D17*
G04 #@! TO.C,SW7*
X113940000Y-91420000D03*
X103780000Y-91420000D03*
D16*
X108860000Y-91420000D03*
D15*
X105050000Y-88880000D03*
X111400000Y-86340000D03*
G04 #@! TD*
D17*
G04 #@! TO.C,SW8*
X132990000Y-91420000D03*
X122830000Y-91420000D03*
D16*
X127910000Y-91420000D03*
D15*
X124100000Y-88880000D03*
X130450000Y-86340000D03*
G04 #@! TD*
D17*
G04 #@! TO.C,SW9*
X75840000Y-110470000D03*
X65680000Y-110470000D03*
D16*
X70760000Y-110470000D03*
D15*
X66950000Y-107930000D03*
X73300000Y-105390000D03*
G04 #@! TD*
D17*
G04 #@! TO.C,SW10*
X94890000Y-110470000D03*
X84730000Y-110470000D03*
D16*
X89810000Y-110470000D03*
D15*
X86000000Y-107930000D03*
X92350000Y-105390000D03*
G04 #@! TD*
D17*
G04 #@! TO.C,SW11*
X113940000Y-110470000D03*
X103780000Y-110470000D03*
D16*
X108860000Y-110470000D03*
D15*
X105050000Y-107930000D03*
X111400000Y-105390000D03*
G04 #@! TD*
D17*
G04 #@! TO.C,SW12*
X132990000Y-110470000D03*
X122830000Y-110470000D03*
D16*
X127910000Y-110470000D03*
D15*
X124100000Y-107930000D03*
X130450000Y-105390000D03*
G04 #@! TD*
G04 #@! TO.C,SW13*
X73300000Y-124440000D03*
X66950000Y-126980000D03*
D16*
X70760000Y-129520000D03*
D17*
X65680000Y-129520000D03*
X75840000Y-129520000D03*
G04 #@! TD*
D15*
G04 #@! TO.C,SW14*
X92350000Y-124440000D03*
X86000000Y-126980000D03*
D16*
X89810000Y-129520000D03*
D17*
X84730000Y-129520000D03*
X94890000Y-129520000D03*
G04 #@! TD*
D15*
G04 #@! TO.C,SW15*
X111400000Y-124440000D03*
X105050000Y-126980000D03*
D16*
X108860000Y-129520000D03*
D17*
X103780000Y-129520000D03*
X113940000Y-129520000D03*
G04 #@! TD*
D15*
G04 #@! TO.C,SW16*
X130450000Y-124440000D03*
X124100000Y-126980000D03*
D16*
X127910000Y-129520000D03*
D17*
X122830000Y-129520000D03*
X132990000Y-129520000D03*
G04 #@! TD*
D13*
G04 #@! TO.C,U1*
X42380000Y-55030000D03*
D18*
X42380000Y-57570000D03*
X42380000Y-60110000D03*
X42380000Y-62650000D03*
X42380000Y-65190000D03*
X42380000Y-67730000D03*
X42380000Y-70270000D03*
X42380000Y-72810000D03*
X42380000Y-75350000D03*
X42380000Y-77890000D03*
X42380000Y-80430000D03*
X42380000Y-82970000D03*
X57620000Y-82970000D03*
X57620000Y-80430000D03*
X57620000Y-77890000D03*
X57620000Y-75350000D03*
X57620000Y-72810000D03*
X57620000Y-70270000D03*
X57620000Y-67730000D03*
X57620000Y-65190000D03*
X57620000Y-62650000D03*
X57620000Y-60110000D03*
X57620000Y-57570000D03*
X57620000Y-55030000D03*
G04 #@! TD*
D12*
G04 #@! TO.C,m1*
X65000000Y-55000000D03*
G04 #@! TD*
D19*
G04 #@! TO.C,RST_SW1*
X46000000Y-100500000D03*
X46000000Y-96000000D03*
X52500000Y-100500000D03*
X52500000Y-96000000D03*
G04 #@! TD*
M02*
