M48
;DRILL file {KiCad (5.0.0-3-g5ebb6b6)} date 
;FORMAT={-:-/ absolute / metric / decimal}
FMAT,2
METRIC,TZ
T1C0.400
T2C0.800
T3C1.100
T4C1.500
T5C3.200
T6C1.700
T7C4.000
%
G90
G05
M71
T1
X63.206Y-89.777
X71.093Y-82.678
T2
X66.95Y-81.915
X74.57Y-81.915
X66.95Y-100.965
X74.57Y-100.965
X86.Y-120.015
X93.62Y-120.015
X124.1Y-100.965
X131.72Y-100.965
X86.Y-139.065
X93.62Y-139.065
X86.Y-100.965
X93.62Y-100.965
X105.05Y-81.915
X112.67Y-81.915
X124.1Y-139.065
X131.72Y-139.065
X124.1Y-120.015
X131.72Y-120.015
X124.1Y-81.915
X131.72Y-81.915
X105.05Y-120.015
X112.67Y-120.015
X66.95Y-120.015
X74.57Y-120.015
X105.05Y-139.065
X112.67Y-139.065
X86.Y-81.915
X93.62Y-81.915
X105.05Y-100.965
X112.67Y-100.965
X66.95Y-139.065
X74.57Y-139.065
T3
X46.Y-96.
X46.Y-100.5
X52.5Y-96.
X52.5Y-100.5
X42.38Y-55.03
X42.38Y-57.57
X42.38Y-60.11
X42.38Y-62.65
X42.38Y-65.19
X42.38Y-67.73
X42.38Y-70.27
X42.38Y-72.81
X42.38Y-75.35
X42.38Y-77.89
X42.38Y-80.43
X42.38Y-82.97
X57.62Y-55.03
X57.62Y-57.57
X57.62Y-60.11
X57.62Y-62.65
X57.62Y-65.19
X57.62Y-67.73
X57.62Y-70.27
X57.62Y-72.81
X57.62Y-75.35
X57.62Y-77.89
X57.62Y-80.43
X57.62Y-82.97
T4
X86.Y-107.93
X92.35Y-105.39
X124.1Y-88.88
X130.45Y-86.34
X105.05Y-69.83
X111.4Y-67.29
X86.Y-88.88
X92.35Y-86.34
X124.1Y-69.83
X130.45Y-67.29
X66.95Y-69.83
X73.3Y-67.29
X105.05Y-126.98
X111.4Y-124.44
X66.95Y-126.98
X73.3Y-124.44
X105.05Y-107.93
X111.4Y-105.39
X66.95Y-107.93
X73.3Y-105.39
X105.05Y-88.88
X111.4Y-86.34
X86.Y-69.83
X92.35Y-67.29
X66.95Y-88.88
X73.3Y-86.34
X124.1Y-126.98
X130.45Y-124.44
X86.Y-126.98
X92.35Y-124.44
X124.1Y-107.93
X130.45Y-105.39
T5
X65.Y-55.
X135.Y-145.
X45.Y-145.
X135.Y-55.
T6
X84.73Y-110.47
X94.89Y-110.47
X122.83Y-91.42
X132.99Y-91.42
X103.78Y-72.37
X113.94Y-72.37
X84.73Y-91.42
X94.89Y-91.42
X122.83Y-72.37
X132.99Y-72.37
X65.68Y-72.37
X75.84Y-72.37
X103.78Y-129.52
X113.94Y-129.52
X65.68Y-129.52
X75.84Y-129.52
X103.78Y-110.47
X113.94Y-110.47
X65.68Y-110.47
X75.84Y-110.47
X103.78Y-91.42
X113.94Y-91.42
X84.73Y-72.37
X94.89Y-72.37
X65.68Y-91.42
X75.84Y-91.42
X122.83Y-129.52
X132.99Y-129.52
X84.73Y-129.52
X94.89Y-129.52
X122.83Y-110.47
X132.99Y-110.47
T7
X89.81Y-110.47
X127.91Y-91.42
X108.86Y-72.37
X89.81Y-91.42
X127.91Y-72.37
X70.76Y-72.37
X108.86Y-129.52
X70.76Y-129.52
X108.86Y-110.47
X70.76Y-110.47
X108.86Y-91.42
X89.81Y-72.37
X70.76Y-91.42
X127.91Y-129.52
X89.81Y-129.52
X127.91Y-110.47
T0
M30
