G04 #@! TF.GenerationSoftware,KiCad,Pcbnew,(5.0.0-3-g5ebb6b6)*
G04 #@! TF.CreationDate,2018-09-07T14:59:23+09:00*
G04 #@! TF.ProjectId,macro4x4,6D6163726F3478342E6B696361645F70,rev?*
G04 #@! TF.SameCoordinates,Original*
G04 #@! TF.FileFunction,Copper,L2,Bot,Signal*
G04 #@! TF.FilePolarity,Positive*
%FSLAX46Y46*%
G04 Gerber Fmt 4.6, Leading zero omitted, Abs format (unit mm)*
G04 Created by KiCad (PCBNEW (5.0.0-3-g5ebb6b6)) date *
%MOMM*%
%LPD*%
G01*
G04 APERTURE LIST*
G04 #@! TA.AperFunction,ComponentPad*
%ADD10C,6.400000*%
G04 #@! TD*
G04 #@! TA.AperFunction,ComponentPad*
%ADD11R,1.600000X1.600000*%
G04 #@! TD*
G04 #@! TA.AperFunction,ComponentPad*
%ADD12O,1.600000X1.600000*%
G04 #@! TD*
G04 #@! TA.AperFunction,ComponentPad*
%ADD13C,2.200000*%
G04 #@! TD*
G04 #@! TA.AperFunction,ComponentPad*
%ADD14C,1.600000*%
G04 #@! TD*
G04 #@! TA.AperFunction,ComponentPad*
%ADD15C,2.000000*%
G04 #@! TD*
G04 #@! TA.AperFunction,ViaPad*
%ADD16C,0.650000*%
G04 #@! TD*
G04 #@! TA.AperFunction,Conductor*
%ADD17C,0.800000*%
G04 #@! TD*
G04 #@! TA.AperFunction,Conductor*
%ADD18C,0.254000*%
G04 #@! TD*
G04 APERTURE END LIST*
D10*
G04 #@! TO.P,m4,1*
G04 #@! TO.N,N/C*
X135000000Y-145000000D03*
G04 #@! TD*
G04 #@! TO.P,m3,1*
G04 #@! TO.N,N/C*
X135000000Y-55000000D03*
G04 #@! TD*
G04 #@! TO.P,m2,1*
G04 #@! TO.N,N/C*
X45000000Y-145000000D03*
G04 #@! TD*
D11*
G04 #@! TO.P,D1,1*
G04 #@! TO.N,Net-(D1-Pad1)*
X66950000Y-81915000D03*
D12*
G04 #@! TO.P,D1,2*
G04 #@! TO.N,COL0*
X74570000Y-81915000D03*
G04 #@! TD*
G04 #@! TO.P,D2,2*
G04 #@! TO.N,COL1*
X93620000Y-81915000D03*
D11*
G04 #@! TO.P,D2,1*
G04 #@! TO.N,Net-(D2-Pad1)*
X86000000Y-81915000D03*
G04 #@! TD*
G04 #@! TO.P,D3,1*
G04 #@! TO.N,Net-(D3-Pad1)*
X105050000Y-81915000D03*
D12*
G04 #@! TO.P,D3,2*
G04 #@! TO.N,COL2*
X112670000Y-81915000D03*
G04 #@! TD*
D11*
G04 #@! TO.P,D4,1*
G04 #@! TO.N,Net-(D4-Pad1)*
X124100000Y-81915000D03*
D12*
G04 #@! TO.P,D4,2*
G04 #@! TO.N,COL3*
X131720000Y-81915000D03*
G04 #@! TD*
D11*
G04 #@! TO.P,D5,1*
G04 #@! TO.N,Net-(D5-Pad1)*
X66950000Y-100965000D03*
D12*
G04 #@! TO.P,D5,2*
G04 #@! TO.N,COL0*
X74570000Y-100965000D03*
G04 #@! TD*
D11*
G04 #@! TO.P,D6,1*
G04 #@! TO.N,Net-(D6-Pad1)*
X86000000Y-100965000D03*
D12*
G04 #@! TO.P,D6,2*
G04 #@! TO.N,COL1*
X93620000Y-100965000D03*
G04 #@! TD*
G04 #@! TO.P,D7,2*
G04 #@! TO.N,COL2*
X112670000Y-100965000D03*
D11*
G04 #@! TO.P,D7,1*
G04 #@! TO.N,Net-(D7-Pad1)*
X105050000Y-100965000D03*
G04 #@! TD*
D12*
G04 #@! TO.P,D8,2*
G04 #@! TO.N,COL3*
X131720000Y-100965000D03*
D11*
G04 #@! TO.P,D8,1*
G04 #@! TO.N,Net-(D8-Pad1)*
X124100000Y-100965000D03*
G04 #@! TD*
D12*
G04 #@! TO.P,D9,2*
G04 #@! TO.N,COL0*
X74570000Y-120015000D03*
D11*
G04 #@! TO.P,D9,1*
G04 #@! TO.N,Net-(D9-Pad1)*
X66950000Y-120015000D03*
G04 #@! TD*
D12*
G04 #@! TO.P,D10,2*
G04 #@! TO.N,COL1*
X93620000Y-120015000D03*
D11*
G04 #@! TO.P,D10,1*
G04 #@! TO.N,Net-(D10-Pad1)*
X86000000Y-120015000D03*
G04 #@! TD*
G04 #@! TO.P,D11,1*
G04 #@! TO.N,Net-(D11-Pad1)*
X105050000Y-120015000D03*
D12*
G04 #@! TO.P,D11,2*
G04 #@! TO.N,COL2*
X112670000Y-120015000D03*
G04 #@! TD*
D11*
G04 #@! TO.P,D12,1*
G04 #@! TO.N,Net-(D12-Pad1)*
X124100000Y-120015000D03*
D12*
G04 #@! TO.P,D12,2*
G04 #@! TO.N,COL3*
X131720000Y-120015000D03*
G04 #@! TD*
G04 #@! TO.P,D13,2*
G04 #@! TO.N,COL0*
X74570000Y-139065000D03*
D11*
G04 #@! TO.P,D13,1*
G04 #@! TO.N,Net-(D13-Pad1)*
X66950000Y-139065000D03*
G04 #@! TD*
G04 #@! TO.P,D14,1*
G04 #@! TO.N,Net-(D14-Pad1)*
X86000000Y-139065000D03*
D12*
G04 #@! TO.P,D14,2*
G04 #@! TO.N,COL1*
X93620000Y-139065000D03*
G04 #@! TD*
G04 #@! TO.P,D15,2*
G04 #@! TO.N,COL2*
X112670000Y-139065000D03*
D11*
G04 #@! TO.P,D15,1*
G04 #@! TO.N,Net-(D15-Pad1)*
X105050000Y-139065000D03*
G04 #@! TD*
D12*
G04 #@! TO.P,D16,2*
G04 #@! TO.N,COL3*
X131720000Y-139065000D03*
D11*
G04 #@! TO.P,D16,1*
G04 #@! TO.N,Net-(D16-Pad1)*
X124100000Y-139065000D03*
G04 #@! TD*
D13*
G04 #@! TO.P,SW1,1*
G04 #@! TO.N,ROW0*
X73300000Y-67290000D03*
G04 #@! TO.P,SW1,2*
G04 #@! TO.N,Net-(D1-Pad1)*
X66950000Y-69830000D03*
G04 #@! TD*
G04 #@! TO.P,SW2,2*
G04 #@! TO.N,Net-(D2-Pad1)*
X86000000Y-69830000D03*
G04 #@! TO.P,SW2,1*
G04 #@! TO.N,ROW0*
X92350000Y-67290000D03*
G04 #@! TD*
G04 #@! TO.P,SW3,1*
G04 #@! TO.N,ROW0*
X111400000Y-67290000D03*
G04 #@! TO.P,SW3,2*
G04 #@! TO.N,Net-(D3-Pad1)*
X105050000Y-69830000D03*
G04 #@! TD*
G04 #@! TO.P,SW4,1*
G04 #@! TO.N,ROW0*
X130450000Y-67290000D03*
G04 #@! TO.P,SW4,2*
G04 #@! TO.N,Net-(D4-Pad1)*
X124100000Y-69830000D03*
G04 #@! TD*
G04 #@! TO.P,SW5,1*
G04 #@! TO.N,ROW1*
X73300000Y-86340000D03*
G04 #@! TO.P,SW5,2*
G04 #@! TO.N,Net-(D5-Pad1)*
X66950000Y-88880000D03*
G04 #@! TD*
G04 #@! TO.P,SW6,2*
G04 #@! TO.N,Net-(D6-Pad1)*
X86000000Y-88880000D03*
G04 #@! TO.P,SW6,1*
G04 #@! TO.N,ROW1*
X92350000Y-86340000D03*
G04 #@! TD*
G04 #@! TO.P,SW7,2*
G04 #@! TO.N,Net-(D7-Pad1)*
X105050000Y-88880000D03*
G04 #@! TO.P,SW7,1*
G04 #@! TO.N,ROW1*
X111400000Y-86340000D03*
G04 #@! TD*
G04 #@! TO.P,SW8,2*
G04 #@! TO.N,Net-(D8-Pad1)*
X124100000Y-88880000D03*
G04 #@! TO.P,SW8,1*
G04 #@! TO.N,ROW1*
X130450000Y-86340000D03*
G04 #@! TD*
G04 #@! TO.P,SW9,2*
G04 #@! TO.N,Net-(D9-Pad1)*
X66950000Y-107930000D03*
G04 #@! TO.P,SW9,1*
G04 #@! TO.N,ROW2*
X73300000Y-105390000D03*
G04 #@! TD*
G04 #@! TO.P,SW10,2*
G04 #@! TO.N,Net-(D10-Pad1)*
X86000000Y-107930000D03*
G04 #@! TO.P,SW10,1*
G04 #@! TO.N,ROW2*
X92350000Y-105390000D03*
G04 #@! TD*
G04 #@! TO.P,SW11,2*
G04 #@! TO.N,Net-(D11-Pad1)*
X105050000Y-107930000D03*
G04 #@! TO.P,SW11,1*
G04 #@! TO.N,ROW2*
X111400000Y-105390000D03*
G04 #@! TD*
G04 #@! TO.P,SW12,2*
G04 #@! TO.N,Net-(D12-Pad1)*
X124100000Y-107930000D03*
G04 #@! TO.P,SW12,1*
G04 #@! TO.N,ROW2*
X130450000Y-105390000D03*
G04 #@! TD*
G04 #@! TO.P,SW13,1*
G04 #@! TO.N,ROW3*
X73300000Y-124440000D03*
G04 #@! TO.P,SW13,2*
G04 #@! TO.N,Net-(D13-Pad1)*
X66950000Y-126980000D03*
G04 #@! TD*
G04 #@! TO.P,SW14,1*
G04 #@! TO.N,ROW3*
X92350000Y-124440000D03*
G04 #@! TO.P,SW14,2*
G04 #@! TO.N,Net-(D14-Pad1)*
X86000000Y-126980000D03*
G04 #@! TD*
G04 #@! TO.P,SW15,1*
G04 #@! TO.N,ROW3*
X111400000Y-124440000D03*
G04 #@! TO.P,SW15,2*
G04 #@! TO.N,Net-(D15-Pad1)*
X105050000Y-126980000D03*
G04 #@! TD*
G04 #@! TO.P,SW16,1*
G04 #@! TO.N,ROW3*
X130450000Y-124440000D03*
G04 #@! TO.P,SW16,2*
G04 #@! TO.N,Net-(D16-Pad1)*
X124100000Y-126980000D03*
G04 #@! TD*
D11*
G04 #@! TO.P,U1,1*
G04 #@! TO.N,Net-(U1-Pad1)*
X42380000Y-55030000D03*
D14*
G04 #@! TO.P,U1,2*
G04 #@! TO.N,Net-(U1-Pad2)*
X42380000Y-57570000D03*
G04 #@! TO.P,U1,3*
G04 #@! TO.N,GND*
X42380000Y-60110000D03*
G04 #@! TO.P,U1,4*
X42380000Y-62650000D03*
G04 #@! TO.P,U1,5*
G04 #@! TO.N,Net-(U1-Pad5)*
X42380000Y-65190000D03*
G04 #@! TO.P,U1,6*
G04 #@! TO.N,Net-(U1-Pad6)*
X42380000Y-67730000D03*
G04 #@! TO.P,U1,7*
G04 #@! TO.N,Net-(U1-Pad7)*
X42380000Y-70270000D03*
G04 #@! TO.P,U1,8*
G04 #@! TO.N,Net-(U1-Pad8)*
X42380000Y-72810000D03*
G04 #@! TO.P,U1,9*
G04 #@! TO.N,Net-(U1-Pad9)*
X42380000Y-75350000D03*
G04 #@! TO.P,U1,10*
G04 #@! TO.N,Net-(U1-Pad10)*
X42380000Y-77890000D03*
G04 #@! TO.P,U1,11*
G04 #@! TO.N,Net-(U1-Pad11)*
X42380000Y-80430000D03*
G04 #@! TO.P,U1,12*
G04 #@! TO.N,Net-(U1-Pad12)*
X42380000Y-82970000D03*
G04 #@! TO.P,U1,13*
G04 #@! TO.N,COL3*
X57620000Y-82970000D03*
G04 #@! TO.P,U1,14*
G04 #@! TO.N,COL2*
X57620000Y-80430000D03*
G04 #@! TO.P,U1,15*
G04 #@! TO.N,COL1*
X57620000Y-77890000D03*
G04 #@! TO.P,U1,16*
G04 #@! TO.N,COL0*
X57620000Y-75350000D03*
G04 #@! TO.P,U1,17*
G04 #@! TO.N,ROW3*
X57620000Y-72810000D03*
G04 #@! TO.P,U1,18*
G04 #@! TO.N,ROW2*
X57620000Y-70270000D03*
G04 #@! TO.P,U1,19*
G04 #@! TO.N,ROW1*
X57620000Y-67730000D03*
G04 #@! TO.P,U1,20*
G04 #@! TO.N,ROW0*
X57620000Y-65190000D03*
G04 #@! TO.P,U1,21*
G04 #@! TO.N,Net-(U1-Pad21)*
X57620000Y-62650000D03*
G04 #@! TO.P,U1,22*
G04 #@! TO.N,Net-(RST_SW1-Pad1)*
X57620000Y-60110000D03*
G04 #@! TO.P,U1,23*
G04 #@! TO.N,GND*
X57620000Y-57570000D03*
G04 #@! TO.P,U1,24*
G04 #@! TO.N,Net-(U1-Pad24)*
X57620000Y-55030000D03*
G04 #@! TD*
D10*
G04 #@! TO.P,m1,1*
G04 #@! TO.N,N/C*
X65000000Y-55000000D03*
G04 #@! TD*
D15*
G04 #@! TO.P,RST_SW1,2*
G04 #@! TO.N,GND*
X46000000Y-100500000D03*
G04 #@! TO.P,RST_SW1,1*
G04 #@! TO.N,Net-(RST_SW1-Pad1)*
X46000000Y-96000000D03*
G04 #@! TO.P,RST_SW1,2*
G04 #@! TO.N,GND*
X52500000Y-100500000D03*
G04 #@! TO.P,RST_SW1,1*
G04 #@! TO.N,Net-(RST_SW1-Pad1)*
X52500000Y-96000000D03*
G04 #@! TD*
D16*
G04 #@! TO.N,COL0*
X71093200Y-82678300D03*
G04 #@! TO.N,Net-(D5-Pad1)*
X63205900Y-89777100D03*
G04 #@! TD*
D17*
G04 #@! TO.N,COL0*
X74570000Y-100965000D02*
X74570000Y-102565300D01*
X74570000Y-100965000D02*
X74570000Y-99364700D01*
X74570000Y-99364700D02*
X74189600Y-98984300D01*
X74189600Y-98984300D02*
X74189600Y-90368200D01*
X74189600Y-90368200D02*
X71093200Y-87271800D01*
X71093200Y-87271800D02*
X71093200Y-82678300D01*
X74570000Y-120793000D02*
X74135600Y-120358600D01*
X74135600Y-120358600D02*
X74135600Y-107958000D01*
X74135600Y-107958000D02*
X75211800Y-106881800D01*
X75211800Y-106881800D02*
X75211800Y-103207100D01*
X75211800Y-103207100D02*
X74570000Y-102565300D01*
X74570000Y-120793000D02*
X74570000Y-121615300D01*
X74570000Y-120015000D02*
X74570000Y-120793000D01*
X74570000Y-139065000D02*
X74570000Y-137464700D01*
X74570000Y-137464700D02*
X74135600Y-137030300D01*
X74135600Y-137030300D02*
X74135600Y-127611100D01*
X74135600Y-127611100D02*
X75232900Y-126513800D01*
X75232900Y-126513800D02*
X75232900Y-122278200D01*
X75232900Y-122278200D02*
X74570000Y-121615300D01*
G04 #@! TO.N,Net-(D2-Pad1)*
X86000000Y-81915000D02*
X86000000Y-80314700D01*
X86000000Y-69830000D02*
X86434400Y-70264400D01*
X86434400Y-70264400D02*
X86434400Y-79880300D01*
X86434400Y-79880300D02*
X86000000Y-80314700D01*
G04 #@! TO.N,Net-(D3-Pad1)*
X105050000Y-81915000D02*
X105050000Y-80314700D01*
X105050000Y-69830000D02*
X105484400Y-70264400D01*
X105484400Y-70264400D02*
X105484400Y-79880300D01*
X105484400Y-79880300D02*
X105050000Y-80314700D01*
G04 #@! TO.N,Net-(D4-Pad1)*
X124100000Y-81915000D02*
X124100000Y-80314700D01*
X124100000Y-69830000D02*
X124534400Y-70264400D01*
X124534400Y-70264400D02*
X124534400Y-79880300D01*
X124534400Y-79880300D02*
X124100000Y-80314700D01*
G04 #@! TO.N,COL1*
X93620000Y-100965000D02*
X93620000Y-99364700D01*
X93620000Y-81915000D02*
X93620000Y-83515300D01*
X93620000Y-83515300D02*
X94271100Y-84166400D01*
X94271100Y-84166400D02*
X94271100Y-88162100D01*
X94271100Y-88162100D02*
X93185600Y-89247600D01*
X93185600Y-89247600D02*
X93185600Y-98930300D01*
X93185600Y-98930300D02*
X93620000Y-99364700D01*
X93620000Y-100965000D02*
X93620000Y-102565300D01*
X93620000Y-120815100D02*
X96543500Y-117891600D01*
X96543500Y-117891600D02*
X96543500Y-105488800D01*
X96543500Y-105488800D02*
X93620000Y-102565300D01*
X93620000Y-120815100D02*
X93620000Y-121615300D01*
X93620000Y-120015000D02*
X93620000Y-120815100D01*
X93620000Y-139065000D02*
X93620000Y-137464700D01*
X93620000Y-121615300D02*
X94271100Y-122266400D01*
X94271100Y-122266400D02*
X94271100Y-126262100D01*
X94271100Y-126262100D02*
X93185600Y-127347600D01*
X93185600Y-127347600D02*
X93185600Y-137030300D01*
X93185600Y-137030300D02*
X93620000Y-137464700D01*
G04 #@! TO.N,Net-(D5-Pad1)*
X66950000Y-100965000D02*
X66950000Y-99364700D01*
X63205900Y-89777100D02*
X62772400Y-90210600D01*
X62772400Y-90210600D02*
X62772400Y-95187100D01*
X62772400Y-95187100D02*
X66950000Y-99364700D01*
G04 #@! TO.N,Net-(D6-Pad1)*
X86000000Y-100965000D02*
X86000000Y-99364700D01*
X86000000Y-88880000D02*
X86434400Y-89314400D01*
X86434400Y-89314400D02*
X86434400Y-98930300D01*
X86434400Y-98930300D02*
X86000000Y-99364700D01*
G04 #@! TO.N,Net-(D7-Pad1)*
X105050000Y-100965000D02*
X105050000Y-99364700D01*
X105050000Y-88880000D02*
X105484400Y-89314400D01*
X105484400Y-89314400D02*
X105484400Y-98930300D01*
X105484400Y-98930300D02*
X105050000Y-99364700D01*
G04 #@! TO.N,Net-(D8-Pad1)*
X124100000Y-100965000D02*
X124100000Y-99364700D01*
X124100000Y-88880000D02*
X124534400Y-89314400D01*
X124534400Y-89314400D02*
X124534400Y-98930300D01*
X124534400Y-98930300D02*
X124100000Y-99364700D01*
G04 #@! TO.N,COL2*
X112670000Y-100965000D02*
X112670000Y-99364700D01*
X112670000Y-120015000D02*
X112670000Y-118414700D01*
X112670000Y-100965000D02*
X112670000Y-102565300D01*
X112670000Y-102565300D02*
X113321100Y-103216400D01*
X113321100Y-103216400D02*
X113321100Y-107212100D01*
X113321100Y-107212100D02*
X112235600Y-108297600D01*
X112235600Y-108297600D02*
X112235600Y-117980300D01*
X112235600Y-117980300D02*
X112670000Y-118414700D01*
X112670000Y-83515300D02*
X113312900Y-84158200D01*
X113312900Y-84158200D02*
X113312900Y-88394000D01*
X113312900Y-88394000D02*
X112283500Y-89423400D01*
X112283500Y-89423400D02*
X112283500Y-98978200D01*
X112283500Y-98978200D02*
X112670000Y-99364700D01*
X112670000Y-81915000D02*
X112670000Y-83515300D01*
X112670000Y-120015000D02*
X112670000Y-121615300D01*
X112670000Y-121615300D02*
X115593500Y-124538800D01*
X115593500Y-124538800D02*
X115593500Y-134541200D01*
X115593500Y-134541200D02*
X112670000Y-137464700D01*
X112670000Y-139065000D02*
X112670000Y-137464700D01*
G04 #@! TO.N,Net-(D10-Pad1)*
X86000000Y-120015000D02*
X86000000Y-118414700D01*
X86000000Y-107930000D02*
X86434400Y-108364400D01*
X86434400Y-108364400D02*
X86434400Y-117980300D01*
X86434400Y-117980300D02*
X86000000Y-118414700D01*
G04 #@! TO.N,Net-(D11-Pad1)*
X105050000Y-120015000D02*
X105050000Y-118414700D01*
X105050000Y-107930000D02*
X105484400Y-108364400D01*
X105484400Y-108364400D02*
X105484400Y-117980300D01*
X105484400Y-117980300D02*
X105050000Y-118414700D01*
G04 #@! TO.N,Net-(D12-Pad1)*
X124100000Y-120015000D02*
X124100000Y-118414700D01*
X124100000Y-107930000D02*
X124534400Y-108364400D01*
X124534400Y-108364400D02*
X124534400Y-117980300D01*
X124534400Y-117980300D02*
X124100000Y-118414700D01*
G04 #@! TO.N,Net-(D13-Pad1)*
X66950000Y-139065000D02*
X66950000Y-137464700D01*
X66950000Y-126980000D02*
X67384400Y-127414400D01*
X67384400Y-127414400D02*
X67384400Y-137030300D01*
X67384400Y-137030300D02*
X66950000Y-137464700D01*
G04 #@! TO.N,COL3*
X131720000Y-81915000D02*
X131720000Y-83515300D01*
X131720000Y-101765100D02*
X131285600Y-101330700D01*
X131285600Y-101330700D02*
X131285600Y-89511100D01*
X131285600Y-89511100D02*
X132369100Y-88427600D01*
X132369100Y-88427600D02*
X132369100Y-84164400D01*
X132369100Y-84164400D02*
X131720000Y-83515300D01*
X131720000Y-101765100D02*
X131720000Y-102565300D01*
X131720000Y-100965000D02*
X131720000Y-101765100D01*
X131720000Y-120015000D02*
X131720000Y-118414700D01*
X131720000Y-102565300D02*
X132354700Y-103200000D01*
X132354700Y-103200000D02*
X132354700Y-106334200D01*
X132354700Y-106334200D02*
X131285600Y-107403300D01*
X131285600Y-107403300D02*
X131285600Y-117980300D01*
X131285600Y-117980300D02*
X131720000Y-118414700D01*
X131720000Y-120015000D02*
X131720000Y-121615300D01*
X131720000Y-139065000D02*
X131720000Y-137464700D01*
X131720000Y-137464700D02*
X134673900Y-134510800D01*
X134673900Y-134510800D02*
X134673900Y-124569200D01*
X134673900Y-124569200D02*
X131720000Y-121615300D01*
G04 #@! TO.N,Net-(D14-Pad1)*
X86000000Y-139065000D02*
X86000000Y-137464700D01*
X86000000Y-126980000D02*
X86434400Y-127414400D01*
X86434400Y-127414400D02*
X86434400Y-137030300D01*
X86434400Y-137030300D02*
X86000000Y-137464700D01*
G04 #@! TO.N,Net-(D15-Pad1)*
X105050000Y-139065000D02*
X105050000Y-137464700D01*
X105050000Y-126980000D02*
X105484400Y-127414400D01*
X105484400Y-127414400D02*
X105484400Y-137030300D01*
X105484400Y-137030300D02*
X105050000Y-137464700D01*
G04 #@! TO.N,Net-(D16-Pad1)*
X124100000Y-139065000D02*
X124100000Y-137464700D01*
X124100000Y-126980000D02*
X124534400Y-127414400D01*
X124534400Y-127414400D02*
X124534400Y-137030300D01*
X124534400Y-137030300D02*
X124100000Y-137464700D01*
G04 #@! TO.N,ROW1*
X73300000Y-86340000D02*
X73300000Y-83187600D01*
X73300000Y-83187600D02*
X57842400Y-67730000D01*
X57842400Y-67730000D02*
X57620000Y-67730000D01*
X92350000Y-86340000D02*
X73300000Y-86340000D01*
G04 #@! TO.N,ROW2*
X73300000Y-105390000D02*
X73300000Y-102170500D01*
X73300000Y-102170500D02*
X64013800Y-92884300D01*
X64013800Y-92884300D02*
X64013800Y-90666700D01*
X64013800Y-90666700D02*
X64406200Y-90274300D01*
X64406200Y-90274300D02*
X64406200Y-77056200D01*
X64406200Y-77056200D02*
X57620000Y-70270000D01*
G04 #@! TO.N,ROW3*
X57620000Y-72810000D02*
X59877900Y-75067900D01*
X59877900Y-75067900D02*
X59877900Y-107798400D01*
X59877900Y-107798400D02*
X73300000Y-121220500D01*
X73300000Y-121220500D02*
X73300000Y-124440000D01*
G04 #@! TO.N,GND*
X47460000Y-67730000D02*
X42380000Y-62650000D01*
X47837100Y-98662900D02*
X47837100Y-68107100D01*
X47837100Y-68107100D02*
X47460000Y-67730000D01*
X57620000Y-57570000D02*
X47460000Y-67730000D01*
X46000000Y-100500000D02*
X47837100Y-98662900D01*
X52500000Y-100500000D02*
X49674200Y-100500000D01*
X49674200Y-100500000D02*
X47837100Y-98662900D01*
X42380000Y-60110000D02*
X42380000Y-62650000D01*
G04 #@! TO.N,Net-(RST_SW1-Pad1)*
X52500000Y-96000000D02*
X52500000Y-65230000D01*
X52500000Y-65230000D02*
X57620000Y-60110000D01*
G04 #@! TD*
D18*
G04 #@! TO.N,GND*
G36*
X139290001Y-149290000D02*
X40710000Y-149290000D01*
X40710000Y-144237171D01*
X41165000Y-144237171D01*
X41165000Y-145762829D01*
X41748844Y-147172353D01*
X42827647Y-148251156D01*
X44237171Y-148835000D01*
X45762829Y-148835000D01*
X47172353Y-148251156D01*
X48251156Y-147172353D01*
X48835000Y-145762829D01*
X48835000Y-144237171D01*
X131165000Y-144237171D01*
X131165000Y-145762829D01*
X131748844Y-147172353D01*
X132827647Y-148251156D01*
X134237171Y-148835000D01*
X135762829Y-148835000D01*
X137172353Y-148251156D01*
X138251156Y-147172353D01*
X138835000Y-145762829D01*
X138835000Y-144237171D01*
X138251156Y-142827647D01*
X137172353Y-141748844D01*
X135762829Y-141165000D01*
X134237171Y-141165000D01*
X132827647Y-141748844D01*
X131748844Y-142827647D01*
X131165000Y-144237171D01*
X48835000Y-144237171D01*
X48251156Y-142827647D01*
X47172353Y-141748844D01*
X45762829Y-141165000D01*
X44237171Y-141165000D01*
X42827647Y-141748844D01*
X41748844Y-142827647D01*
X41165000Y-144237171D01*
X40710000Y-144237171D01*
X40710000Y-119215000D01*
X65502560Y-119215000D01*
X65502560Y-120815000D01*
X65551843Y-121062765D01*
X65692191Y-121272809D01*
X65902235Y-121413157D01*
X66150000Y-121462440D01*
X67750000Y-121462440D01*
X67997765Y-121413157D01*
X68207809Y-121272809D01*
X68348157Y-121062765D01*
X68397440Y-120815000D01*
X68397440Y-119215000D01*
X68348157Y-118967235D01*
X68207809Y-118757191D01*
X67997765Y-118616843D01*
X67750000Y-118567560D01*
X66150000Y-118567560D01*
X65902235Y-118616843D01*
X65692191Y-118757191D01*
X65551843Y-118967235D01*
X65502560Y-119215000D01*
X40710000Y-119215000D01*
X40710000Y-101652532D01*
X45027073Y-101652532D01*
X45125736Y-101919387D01*
X45735461Y-102145908D01*
X46385460Y-102121856D01*
X46874264Y-101919387D01*
X46972927Y-101652532D01*
X51527073Y-101652532D01*
X51625736Y-101919387D01*
X52235461Y-102145908D01*
X52885460Y-102121856D01*
X53374264Y-101919387D01*
X53472927Y-101652532D01*
X52500000Y-100679605D01*
X51527073Y-101652532D01*
X46972927Y-101652532D01*
X46000000Y-100679605D01*
X45027073Y-101652532D01*
X40710000Y-101652532D01*
X40710000Y-100235461D01*
X44354092Y-100235461D01*
X44378144Y-100885460D01*
X44580613Y-101374264D01*
X44847468Y-101472927D01*
X45820395Y-100500000D01*
X46179605Y-100500000D01*
X47152532Y-101472927D01*
X47419387Y-101374264D01*
X47645908Y-100764539D01*
X47626331Y-100235461D01*
X50854092Y-100235461D01*
X50878144Y-100885460D01*
X51080613Y-101374264D01*
X51347468Y-101472927D01*
X52320395Y-100500000D01*
X52679605Y-100500000D01*
X53652532Y-101472927D01*
X53919387Y-101374264D01*
X54145908Y-100764539D01*
X54121856Y-100114540D01*
X53919387Y-99625736D01*
X53652532Y-99527073D01*
X52679605Y-100500000D01*
X52320395Y-100500000D01*
X51347468Y-99527073D01*
X51080613Y-99625736D01*
X50854092Y-100235461D01*
X47626331Y-100235461D01*
X47621856Y-100114540D01*
X47419387Y-99625736D01*
X47152532Y-99527073D01*
X46179605Y-100500000D01*
X45820395Y-100500000D01*
X44847468Y-99527073D01*
X44580613Y-99625736D01*
X44354092Y-100235461D01*
X40710000Y-100235461D01*
X40710000Y-99347468D01*
X45027073Y-99347468D01*
X46000000Y-100320395D01*
X46972927Y-99347468D01*
X51527073Y-99347468D01*
X52500000Y-100320395D01*
X53472927Y-99347468D01*
X53374264Y-99080613D01*
X52764539Y-98854092D01*
X52114540Y-98878144D01*
X51625736Y-99080613D01*
X51527073Y-99347468D01*
X46972927Y-99347468D01*
X46874264Y-99080613D01*
X46264539Y-98854092D01*
X45614540Y-98878144D01*
X45125736Y-99080613D01*
X45027073Y-99347468D01*
X40710000Y-99347468D01*
X40710000Y-95674778D01*
X44365000Y-95674778D01*
X44365000Y-96325222D01*
X44613914Y-96926153D01*
X45073847Y-97386086D01*
X45674778Y-97635000D01*
X46325222Y-97635000D01*
X46926153Y-97386086D01*
X47386086Y-96926153D01*
X47635000Y-96325222D01*
X47635000Y-95674778D01*
X50865000Y-95674778D01*
X50865000Y-96325222D01*
X51113914Y-96926153D01*
X51573847Y-97386086D01*
X52174778Y-97635000D01*
X52825222Y-97635000D01*
X53426153Y-97386086D01*
X53886086Y-96926153D01*
X54135000Y-96325222D01*
X54135000Y-95674778D01*
X53886086Y-95073847D01*
X53535000Y-94722761D01*
X53535000Y-65658710D01*
X56206461Y-62987250D01*
X56403466Y-63462862D01*
X56807138Y-63866534D01*
X56936216Y-63920000D01*
X56807138Y-63973466D01*
X56403466Y-64377138D01*
X56185000Y-64904561D01*
X56185000Y-65475439D01*
X56403466Y-66002862D01*
X56807138Y-66406534D01*
X56936216Y-66460000D01*
X56807138Y-66513466D01*
X56403466Y-66917138D01*
X56185000Y-67444561D01*
X56185000Y-68015439D01*
X56403466Y-68542862D01*
X56807138Y-68946534D01*
X56936216Y-69000000D01*
X56807138Y-69053466D01*
X56403466Y-69457138D01*
X56185000Y-69984561D01*
X56185000Y-70555439D01*
X56403466Y-71082862D01*
X56807138Y-71486534D01*
X56936216Y-71540000D01*
X56807138Y-71593466D01*
X56403466Y-71997138D01*
X56185000Y-72524561D01*
X56185000Y-73095439D01*
X56403466Y-73622862D01*
X56807138Y-74026534D01*
X56936216Y-74080000D01*
X56807138Y-74133466D01*
X56403466Y-74537138D01*
X56185000Y-75064561D01*
X56185000Y-75635439D01*
X56403466Y-76162862D01*
X56807138Y-76566534D01*
X56936216Y-76620000D01*
X56807138Y-76673466D01*
X56403466Y-77077138D01*
X56185000Y-77604561D01*
X56185000Y-78175439D01*
X56403466Y-78702862D01*
X56807138Y-79106534D01*
X56936216Y-79160000D01*
X56807138Y-79213466D01*
X56403466Y-79617138D01*
X56185000Y-80144561D01*
X56185000Y-80715439D01*
X56403466Y-81242862D01*
X56807138Y-81646534D01*
X56936216Y-81700000D01*
X56807138Y-81753466D01*
X56403466Y-82157138D01*
X56185000Y-82684561D01*
X56185000Y-83255439D01*
X56403466Y-83782862D01*
X56807138Y-84186534D01*
X57334561Y-84405000D01*
X57905439Y-84405000D01*
X58432862Y-84186534D01*
X58836534Y-83782862D01*
X58842900Y-83767492D01*
X58842901Y-107696461D01*
X58822624Y-107798400D01*
X58902952Y-108202236D01*
X59009594Y-108361836D01*
X59131708Y-108544593D01*
X59218125Y-108602335D01*
X72265000Y-121649211D01*
X72265001Y-123021338D01*
X71829138Y-123457201D01*
X71565000Y-124094887D01*
X71565000Y-124785113D01*
X71829138Y-125422799D01*
X72317201Y-125910862D01*
X72954887Y-126175000D01*
X73645113Y-126175000D01*
X74197900Y-125946028D01*
X74197900Y-126085089D01*
X73475825Y-126807165D01*
X73389408Y-126864907D01*
X73331666Y-126951324D01*
X73160652Y-127207264D01*
X73080324Y-127611100D01*
X73100601Y-127713039D01*
X73100601Y-128285124D01*
X72993845Y-128027392D01*
X72252608Y-127286155D01*
X71284134Y-126885000D01*
X70235866Y-126885000D01*
X69267392Y-127286155D01*
X68526155Y-128027392D01*
X68419400Y-128285121D01*
X68419400Y-127964261D01*
X68420862Y-127962799D01*
X68685000Y-127325113D01*
X68685000Y-126634887D01*
X68420862Y-125997201D01*
X67932799Y-125509138D01*
X67295113Y-125245000D01*
X66604887Y-125245000D01*
X65967201Y-125509138D01*
X65479138Y-125997201D01*
X65215000Y-126634887D01*
X65215000Y-127325113D01*
X65479138Y-127962799D01*
X65551339Y-128035000D01*
X65384615Y-128035000D01*
X64838815Y-128261078D01*
X64421078Y-128678815D01*
X64195000Y-129224615D01*
X64195000Y-129815385D01*
X64421078Y-130361185D01*
X64838815Y-130778922D01*
X65384615Y-131005000D01*
X65975385Y-131005000D01*
X66349400Y-130850078D01*
X66349401Y-136601589D01*
X66290225Y-136660765D01*
X66203808Y-136718507D01*
X66146066Y-136804924D01*
X65975052Y-137060864D01*
X65894724Y-137464700D01*
X65915001Y-137566639D01*
X65915001Y-137664304D01*
X65902235Y-137666843D01*
X65692191Y-137807191D01*
X65551843Y-138017235D01*
X65502560Y-138265000D01*
X65502560Y-139865000D01*
X65551843Y-140112765D01*
X65692191Y-140322809D01*
X65902235Y-140463157D01*
X66150000Y-140512440D01*
X67750000Y-140512440D01*
X67997765Y-140463157D01*
X68207809Y-140322809D01*
X68348157Y-140112765D01*
X68397440Y-139865000D01*
X68397440Y-138265000D01*
X68348157Y-138017235D01*
X68207809Y-137807191D01*
X68140246Y-137762046D01*
X68359348Y-137434137D01*
X68419400Y-137132235D01*
X68419400Y-137132230D01*
X68439675Y-137030301D01*
X68419400Y-136928371D01*
X68419400Y-130754879D01*
X68526155Y-131012608D01*
X69267392Y-131753845D01*
X70235866Y-132155000D01*
X71284134Y-132155000D01*
X72252608Y-131753845D01*
X72993845Y-131012608D01*
X73100601Y-130754878D01*
X73100600Y-136928366D01*
X73080324Y-137030300D01*
X73100600Y-137132234D01*
X73160652Y-137434136D01*
X73389407Y-137776493D01*
X73475827Y-137834237D01*
X73535001Y-137893411D01*
X73535001Y-138031055D01*
X73218260Y-138505091D01*
X73106887Y-139065000D01*
X73218260Y-139624909D01*
X73535423Y-140099577D01*
X74010091Y-140416740D01*
X74428667Y-140500000D01*
X74711333Y-140500000D01*
X75129909Y-140416740D01*
X75604577Y-140099577D01*
X75921740Y-139624909D01*
X76033113Y-139065000D01*
X75921740Y-138505091D01*
X75605000Y-138031056D01*
X75605000Y-137566629D01*
X75625275Y-137464699D01*
X75605000Y-137362770D01*
X75605000Y-137362765D01*
X75544948Y-137060863D01*
X75316193Y-136718507D01*
X75229773Y-136660763D01*
X75170600Y-136601590D01*
X75170600Y-130850078D01*
X75544615Y-131005000D01*
X76135385Y-131005000D01*
X76681185Y-130778922D01*
X77098922Y-130361185D01*
X77325000Y-129815385D01*
X77325000Y-129224615D01*
X77098922Y-128678815D01*
X76681185Y-128261078D01*
X76135385Y-128035000D01*
X75544615Y-128035000D01*
X75170600Y-128189922D01*
X75170600Y-128039810D01*
X75892676Y-127317735D01*
X75979093Y-127259993D01*
X76207848Y-126917637D01*
X76267900Y-126615735D01*
X76267900Y-126615734D01*
X76288176Y-126513800D01*
X76267900Y-126411866D01*
X76267900Y-122380134D01*
X76288176Y-122278199D01*
X76207848Y-121874363D01*
X76190417Y-121848275D01*
X75979093Y-121532007D01*
X75892675Y-121474265D01*
X75605000Y-121186590D01*
X75605000Y-121048944D01*
X75921740Y-120574909D01*
X76033113Y-120015000D01*
X75921740Y-119455091D01*
X75604577Y-118980423D01*
X75170600Y-118690449D01*
X75170600Y-111800078D01*
X75544615Y-111955000D01*
X76135385Y-111955000D01*
X76681185Y-111728922D01*
X77098922Y-111311185D01*
X77325000Y-110765385D01*
X77325000Y-110174615D01*
X83245000Y-110174615D01*
X83245000Y-110765385D01*
X83471078Y-111311185D01*
X83888815Y-111728922D01*
X84434615Y-111955000D01*
X85025385Y-111955000D01*
X85399400Y-111800078D01*
X85399401Y-117551589D01*
X85340225Y-117610765D01*
X85253808Y-117668507D01*
X85196066Y-117754924D01*
X85025052Y-118010864D01*
X84944724Y-118414700D01*
X84965001Y-118516639D01*
X84965001Y-118614304D01*
X84952235Y-118616843D01*
X84742191Y-118757191D01*
X84601843Y-118967235D01*
X84552560Y-119215000D01*
X84552560Y-120815000D01*
X84601843Y-121062765D01*
X84742191Y-121272809D01*
X84952235Y-121413157D01*
X85200000Y-121462440D01*
X86800000Y-121462440D01*
X87047765Y-121413157D01*
X87257809Y-121272809D01*
X87398157Y-121062765D01*
X87447440Y-120815000D01*
X87447440Y-119215000D01*
X87398157Y-118967235D01*
X87257809Y-118757191D01*
X87190246Y-118712046D01*
X87409348Y-118384137D01*
X87469400Y-118082235D01*
X87469400Y-118082230D01*
X87489675Y-117980301D01*
X87469400Y-117878371D01*
X87469400Y-111704879D01*
X87576155Y-111962608D01*
X88317392Y-112703845D01*
X89285866Y-113105000D01*
X90334134Y-113105000D01*
X91302608Y-112703845D01*
X92043845Y-111962608D01*
X92445000Y-110994134D01*
X92445000Y-109945866D01*
X92043845Y-108977392D01*
X91302608Y-108236155D01*
X90334134Y-107835000D01*
X89285866Y-107835000D01*
X88317392Y-108236155D01*
X87576155Y-108977392D01*
X87469400Y-109235121D01*
X87469400Y-108914261D01*
X87470862Y-108912799D01*
X87735000Y-108275113D01*
X87735000Y-107584887D01*
X87470862Y-106947201D01*
X86982799Y-106459138D01*
X86345113Y-106195000D01*
X85654887Y-106195000D01*
X85017201Y-106459138D01*
X84529138Y-106947201D01*
X84265000Y-107584887D01*
X84265000Y-108275113D01*
X84529138Y-108912799D01*
X84601339Y-108985000D01*
X84434615Y-108985000D01*
X83888815Y-109211078D01*
X83471078Y-109628815D01*
X83245000Y-110174615D01*
X77325000Y-110174615D01*
X77098922Y-109628815D01*
X76681185Y-109211078D01*
X76135385Y-108985000D01*
X75544615Y-108985000D01*
X75170600Y-109139922D01*
X75170600Y-108386710D01*
X75871576Y-107685735D01*
X75957993Y-107627993D01*
X76186748Y-107285637D01*
X76246800Y-106983735D01*
X76246800Y-106983734D01*
X76267076Y-106881800D01*
X76246800Y-106779866D01*
X76246800Y-105044887D01*
X90615000Y-105044887D01*
X90615000Y-105735113D01*
X90879138Y-106372799D01*
X91367201Y-106860862D01*
X92004887Y-107125000D01*
X92695113Y-107125000D01*
X93332799Y-106860862D01*
X93820862Y-106372799D01*
X94085000Y-105735113D01*
X94085000Y-105044887D01*
X93820862Y-104407201D01*
X93332799Y-103919138D01*
X92695113Y-103655000D01*
X92004887Y-103655000D01*
X91367201Y-103919138D01*
X90879138Y-104407201D01*
X90615000Y-105044887D01*
X76246800Y-105044887D01*
X76246800Y-103309034D01*
X76267076Y-103207099D01*
X76186748Y-102803263D01*
X76144508Y-102740047D01*
X75957993Y-102460907D01*
X75871573Y-102403163D01*
X75605000Y-102136590D01*
X75605000Y-101998944D01*
X75921740Y-101524909D01*
X76033113Y-100965000D01*
X75921740Y-100405091D01*
X75605000Y-99931056D01*
X75605000Y-99466634D01*
X75625276Y-99364700D01*
X75568768Y-99080613D01*
X75544948Y-98960863D01*
X75316193Y-98618507D01*
X75229773Y-98560763D01*
X75224600Y-98555590D01*
X75224600Y-92772445D01*
X75544615Y-92905000D01*
X76135385Y-92905000D01*
X76681185Y-92678922D01*
X77098922Y-92261185D01*
X77325000Y-91715385D01*
X77325000Y-91124615D01*
X77098922Y-90578815D01*
X76681185Y-90161078D01*
X76135385Y-89935000D01*
X75544615Y-89935000D01*
X75188083Y-90082681D01*
X75164548Y-89964363D01*
X74935793Y-89622007D01*
X74849376Y-89564265D01*
X73360110Y-88075000D01*
X73645113Y-88075000D01*
X74282799Y-87810862D01*
X74718661Y-87375000D01*
X85099617Y-87375000D01*
X85017201Y-87409138D01*
X84529138Y-87897201D01*
X84265000Y-88534887D01*
X84265000Y-89225113D01*
X84529138Y-89862799D01*
X84601339Y-89935000D01*
X84434615Y-89935000D01*
X83888815Y-90161078D01*
X83471078Y-90578815D01*
X83245000Y-91124615D01*
X83245000Y-91715385D01*
X83471078Y-92261185D01*
X83888815Y-92678922D01*
X84434615Y-92905000D01*
X85025385Y-92905000D01*
X85399400Y-92750078D01*
X85399401Y-98501589D01*
X85340225Y-98560765D01*
X85253808Y-98618507D01*
X85196067Y-98704923D01*
X85196066Y-98704924D01*
X85025052Y-98960864D01*
X84944724Y-99364700D01*
X84965001Y-99466639D01*
X84965001Y-99564304D01*
X84952235Y-99566843D01*
X84742191Y-99707191D01*
X84601843Y-99917235D01*
X84552560Y-100165000D01*
X84552560Y-101765000D01*
X84601843Y-102012765D01*
X84742191Y-102222809D01*
X84952235Y-102363157D01*
X85200000Y-102412440D01*
X86800000Y-102412440D01*
X87047765Y-102363157D01*
X87257809Y-102222809D01*
X87398157Y-102012765D01*
X87447440Y-101765000D01*
X87447440Y-100165000D01*
X87398157Y-99917235D01*
X87257809Y-99707191D01*
X87190246Y-99662046D01*
X87409348Y-99334137D01*
X87469400Y-99032235D01*
X87469400Y-99032230D01*
X87489675Y-98930301D01*
X87469400Y-98828371D01*
X87469400Y-92654879D01*
X87576155Y-92912608D01*
X88317392Y-93653845D01*
X89285866Y-94055000D01*
X90334134Y-94055000D01*
X91302608Y-93653845D01*
X92043845Y-92912608D01*
X92150600Y-92654879D01*
X92150601Y-98828361D01*
X92130324Y-98930300D01*
X92210652Y-99334136D01*
X92333212Y-99517560D01*
X92439408Y-99676493D01*
X92525825Y-99734235D01*
X92585001Y-99793411D01*
X92585001Y-99931055D01*
X92268260Y-100405091D01*
X92156887Y-100965000D01*
X92268260Y-101524909D01*
X92585001Y-101998945D01*
X92585001Y-102463361D01*
X92564724Y-102565300D01*
X92645052Y-102969136D01*
X92735944Y-103105165D01*
X92873808Y-103311493D01*
X92960225Y-103369235D01*
X95508501Y-105917512D01*
X95508501Y-109118839D01*
X95185385Y-108985000D01*
X94594615Y-108985000D01*
X94048815Y-109211078D01*
X93631078Y-109628815D01*
X93405000Y-110174615D01*
X93405000Y-110765385D01*
X93631078Y-111311185D01*
X94048815Y-111728922D01*
X94594615Y-111955000D01*
X95185385Y-111955000D01*
X95508500Y-111821161D01*
X95508500Y-117462889D01*
X94256772Y-118714618D01*
X94179909Y-118663260D01*
X93761333Y-118580000D01*
X93478667Y-118580000D01*
X93060091Y-118663260D01*
X92585423Y-118980423D01*
X92268260Y-119455091D01*
X92156887Y-120015000D01*
X92268260Y-120574909D01*
X92585000Y-121048944D01*
X92585000Y-121513366D01*
X92564724Y-121615300D01*
X92645052Y-122019136D01*
X92762860Y-122195448D01*
X92873808Y-122361493D01*
X92960225Y-122419235D01*
X93236100Y-122695110D01*
X93236100Y-122929084D01*
X92695113Y-122705000D01*
X92004887Y-122705000D01*
X91367201Y-122969138D01*
X90879138Y-123457201D01*
X90615000Y-124094887D01*
X90615000Y-124785113D01*
X90879138Y-125422799D01*
X91367201Y-125910862D01*
X92004887Y-126175000D01*
X92695113Y-126175000D01*
X93035470Y-126034020D01*
X92525827Y-126543663D01*
X92439407Y-126601407D01*
X92225276Y-126921877D01*
X92210652Y-126943764D01*
X92130324Y-127347600D01*
X92150600Y-127449534D01*
X92150600Y-128285121D01*
X92043845Y-128027392D01*
X91302608Y-127286155D01*
X90334134Y-126885000D01*
X89285866Y-126885000D01*
X88317392Y-127286155D01*
X87576155Y-128027392D01*
X87469400Y-128285121D01*
X87469400Y-127964261D01*
X87470862Y-127962799D01*
X87735000Y-127325113D01*
X87735000Y-126634887D01*
X87470862Y-125997201D01*
X86982799Y-125509138D01*
X86345113Y-125245000D01*
X85654887Y-125245000D01*
X85017201Y-125509138D01*
X84529138Y-125997201D01*
X84265000Y-126634887D01*
X84265000Y-127325113D01*
X84529138Y-127962799D01*
X84601339Y-128035000D01*
X84434615Y-128035000D01*
X83888815Y-128261078D01*
X83471078Y-128678815D01*
X83245000Y-129224615D01*
X83245000Y-129815385D01*
X83471078Y-130361185D01*
X83888815Y-130778922D01*
X84434615Y-131005000D01*
X85025385Y-131005000D01*
X85399400Y-130850078D01*
X85399401Y-136601589D01*
X85340225Y-136660765D01*
X85253808Y-136718507D01*
X85196066Y-136804924D01*
X85025052Y-137060864D01*
X84944724Y-137464700D01*
X84965001Y-137566639D01*
X84965001Y-137664304D01*
X84952235Y-137666843D01*
X84742191Y-137807191D01*
X84601843Y-138017235D01*
X84552560Y-138265000D01*
X84552560Y-139865000D01*
X84601843Y-140112765D01*
X84742191Y-140322809D01*
X84952235Y-140463157D01*
X85200000Y-140512440D01*
X86800000Y-140512440D01*
X87047765Y-140463157D01*
X87257809Y-140322809D01*
X87398157Y-140112765D01*
X87447440Y-139865000D01*
X87447440Y-138265000D01*
X87398157Y-138017235D01*
X87257809Y-137807191D01*
X87190246Y-137762046D01*
X87409348Y-137434137D01*
X87469400Y-137132235D01*
X87469400Y-137132230D01*
X87489675Y-137030301D01*
X87469400Y-136928371D01*
X87469400Y-130754879D01*
X87576155Y-131012608D01*
X88317392Y-131753845D01*
X89285866Y-132155000D01*
X90334134Y-132155000D01*
X91302608Y-131753845D01*
X92043845Y-131012608D01*
X92150600Y-130754879D01*
X92150601Y-136928361D01*
X92130324Y-137030300D01*
X92210652Y-137434136D01*
X92333212Y-137617560D01*
X92439408Y-137776493D01*
X92525825Y-137834235D01*
X92585001Y-137893411D01*
X92585001Y-138031055D01*
X92268260Y-138505091D01*
X92156887Y-139065000D01*
X92268260Y-139624909D01*
X92585423Y-140099577D01*
X93060091Y-140416740D01*
X93478667Y-140500000D01*
X93761333Y-140500000D01*
X94179909Y-140416740D01*
X94654577Y-140099577D01*
X94971740Y-139624909D01*
X95083113Y-139065000D01*
X94971740Y-138505091D01*
X94655000Y-138031056D01*
X94655000Y-137566629D01*
X94675275Y-137464699D01*
X94655000Y-137362770D01*
X94655000Y-137362765D01*
X94594948Y-137060863D01*
X94366193Y-136718507D01*
X94279773Y-136660763D01*
X94220600Y-136601590D01*
X94220600Y-130850078D01*
X94594615Y-131005000D01*
X95185385Y-131005000D01*
X95731185Y-130778922D01*
X96148922Y-130361185D01*
X96375000Y-129815385D01*
X96375000Y-129224615D01*
X102295000Y-129224615D01*
X102295000Y-129815385D01*
X102521078Y-130361185D01*
X102938815Y-130778922D01*
X103484615Y-131005000D01*
X104075385Y-131005000D01*
X104449400Y-130850078D01*
X104449401Y-136601589D01*
X104390225Y-136660765D01*
X104303808Y-136718507D01*
X104246066Y-136804924D01*
X104075052Y-137060864D01*
X103994724Y-137464700D01*
X104015001Y-137566639D01*
X104015001Y-137664304D01*
X104002235Y-137666843D01*
X103792191Y-137807191D01*
X103651843Y-138017235D01*
X103602560Y-138265000D01*
X103602560Y-139865000D01*
X103651843Y-140112765D01*
X103792191Y-140322809D01*
X104002235Y-140463157D01*
X104250000Y-140512440D01*
X105850000Y-140512440D01*
X106097765Y-140463157D01*
X106307809Y-140322809D01*
X106448157Y-140112765D01*
X106497440Y-139865000D01*
X106497440Y-138265000D01*
X106448157Y-138017235D01*
X106307809Y-137807191D01*
X106240246Y-137762046D01*
X106459348Y-137434137D01*
X106519400Y-137132235D01*
X106519400Y-137132230D01*
X106539675Y-137030301D01*
X106519400Y-136928371D01*
X106519400Y-130754879D01*
X106626155Y-131012608D01*
X107367392Y-131753845D01*
X108335866Y-132155000D01*
X109384134Y-132155000D01*
X110352608Y-131753845D01*
X111093845Y-131012608D01*
X111495000Y-130044134D01*
X111495000Y-128995866D01*
X111093845Y-128027392D01*
X110352608Y-127286155D01*
X109384134Y-126885000D01*
X108335866Y-126885000D01*
X107367392Y-127286155D01*
X106626155Y-128027392D01*
X106519400Y-128285121D01*
X106519400Y-127964261D01*
X106520862Y-127962799D01*
X106785000Y-127325113D01*
X106785000Y-126634887D01*
X106520862Y-125997201D01*
X106032799Y-125509138D01*
X105395113Y-125245000D01*
X104704887Y-125245000D01*
X104067201Y-125509138D01*
X103579138Y-125997201D01*
X103315000Y-126634887D01*
X103315000Y-127325113D01*
X103579138Y-127962799D01*
X103651339Y-128035000D01*
X103484615Y-128035000D01*
X102938815Y-128261078D01*
X102521078Y-128678815D01*
X102295000Y-129224615D01*
X96375000Y-129224615D01*
X96148922Y-128678815D01*
X95731185Y-128261078D01*
X95185385Y-128035000D01*
X94594615Y-128035000D01*
X94220600Y-128189922D01*
X94220600Y-127776310D01*
X94930876Y-127066035D01*
X95017293Y-127008293D01*
X95246048Y-126665937D01*
X95306100Y-126364035D01*
X95326376Y-126262100D01*
X95306100Y-126160166D01*
X95306100Y-124094887D01*
X109665000Y-124094887D01*
X109665000Y-124785113D01*
X109929138Y-125422799D01*
X110417201Y-125910862D01*
X111054887Y-126175000D01*
X111745113Y-126175000D01*
X112382799Y-125910862D01*
X112870862Y-125422799D01*
X113135000Y-124785113D01*
X113135000Y-124094887D01*
X112870862Y-123457201D01*
X112382799Y-122969138D01*
X111745113Y-122705000D01*
X111054887Y-122705000D01*
X110417201Y-122969138D01*
X109929138Y-123457201D01*
X109665000Y-124094887D01*
X95306100Y-124094887D01*
X95306100Y-122368329D01*
X95326375Y-122266399D01*
X95306100Y-122164470D01*
X95306100Y-122164465D01*
X95246048Y-121862563D01*
X95017293Y-121520207D01*
X94930873Y-121462463D01*
X94683610Y-121215200D01*
X97203276Y-118695535D01*
X97289693Y-118637793D01*
X97518448Y-118295437D01*
X97578500Y-117993535D01*
X97578500Y-117993534D01*
X97598776Y-117891601D01*
X97578500Y-117789668D01*
X97578500Y-105590732D01*
X97598776Y-105488799D01*
X97557029Y-105278924D01*
X97518448Y-105084963D01*
X97289693Y-104742607D01*
X97203276Y-104684865D01*
X94655000Y-102136590D01*
X94655000Y-101998944D01*
X94971740Y-101524909D01*
X95083113Y-100965000D01*
X94971740Y-100405091D01*
X94655000Y-99931056D01*
X94655000Y-99466629D01*
X94675275Y-99364699D01*
X94655000Y-99262770D01*
X94655000Y-99262765D01*
X94594948Y-98960863D01*
X94366193Y-98618507D01*
X94279773Y-98560763D01*
X94220600Y-98501590D01*
X94220600Y-92750078D01*
X94594615Y-92905000D01*
X95185385Y-92905000D01*
X95731185Y-92678922D01*
X96148922Y-92261185D01*
X96375000Y-91715385D01*
X96375000Y-91124615D01*
X102295000Y-91124615D01*
X102295000Y-91715385D01*
X102521078Y-92261185D01*
X102938815Y-92678922D01*
X103484615Y-92905000D01*
X104075385Y-92905000D01*
X104449400Y-92750078D01*
X104449401Y-98501589D01*
X104390225Y-98560765D01*
X104303808Y-98618507D01*
X104246067Y-98704923D01*
X104246066Y-98704924D01*
X104075052Y-98960864D01*
X103994724Y-99364700D01*
X104015001Y-99466639D01*
X104015001Y-99564304D01*
X104002235Y-99566843D01*
X103792191Y-99707191D01*
X103651843Y-99917235D01*
X103602560Y-100165000D01*
X103602560Y-101765000D01*
X103651843Y-102012765D01*
X103792191Y-102222809D01*
X104002235Y-102363157D01*
X104250000Y-102412440D01*
X105850000Y-102412440D01*
X106097765Y-102363157D01*
X106307809Y-102222809D01*
X106448157Y-102012765D01*
X106497440Y-101765000D01*
X106497440Y-100165000D01*
X106448157Y-99917235D01*
X106307809Y-99707191D01*
X106240246Y-99662046D01*
X106459348Y-99334137D01*
X106519400Y-99032235D01*
X106519400Y-99032230D01*
X106539675Y-98930301D01*
X106519400Y-98828371D01*
X106519400Y-92654879D01*
X106626155Y-92912608D01*
X107367392Y-93653845D01*
X108335866Y-94055000D01*
X109384134Y-94055000D01*
X110352608Y-93653845D01*
X111093845Y-92912608D01*
X111248500Y-92539237D01*
X111248501Y-98876261D01*
X111228224Y-98978200D01*
X111308552Y-99382036D01*
X111405463Y-99527073D01*
X111537308Y-99724393D01*
X111623725Y-99782135D01*
X111635001Y-99793411D01*
X111635001Y-99931055D01*
X111318260Y-100405091D01*
X111206887Y-100965000D01*
X111318260Y-101524909D01*
X111635001Y-101998945D01*
X111635001Y-102463361D01*
X111614724Y-102565300D01*
X111695052Y-102969136D01*
X111785944Y-103105165D01*
X111923808Y-103311493D01*
X112010225Y-103369235D01*
X112286100Y-103645110D01*
X112286100Y-103879084D01*
X111745113Y-103655000D01*
X111054887Y-103655000D01*
X110417201Y-103919138D01*
X109929138Y-104407201D01*
X109665000Y-105044887D01*
X109665000Y-105735113D01*
X109929138Y-106372799D01*
X110417201Y-106860862D01*
X111054887Y-107125000D01*
X111745113Y-107125000D01*
X112085470Y-106984020D01*
X111575827Y-107493663D01*
X111489407Y-107551407D01*
X111324372Y-107798400D01*
X111260652Y-107893764D01*
X111180324Y-108297600D01*
X111200600Y-108399534D01*
X111200600Y-109235121D01*
X111093845Y-108977392D01*
X110352608Y-108236155D01*
X109384134Y-107835000D01*
X108335866Y-107835000D01*
X107367392Y-108236155D01*
X106626155Y-108977392D01*
X106519400Y-109235121D01*
X106519400Y-108914261D01*
X106520862Y-108912799D01*
X106785000Y-108275113D01*
X106785000Y-107584887D01*
X106520862Y-106947201D01*
X106032799Y-106459138D01*
X105395113Y-106195000D01*
X104704887Y-106195000D01*
X104067201Y-106459138D01*
X103579138Y-106947201D01*
X103315000Y-107584887D01*
X103315000Y-108275113D01*
X103579138Y-108912799D01*
X103651339Y-108985000D01*
X103484615Y-108985000D01*
X102938815Y-109211078D01*
X102521078Y-109628815D01*
X102295000Y-110174615D01*
X102295000Y-110765385D01*
X102521078Y-111311185D01*
X102938815Y-111728922D01*
X103484615Y-111955000D01*
X104075385Y-111955000D01*
X104449400Y-111800078D01*
X104449401Y-117551589D01*
X104390225Y-117610765D01*
X104303808Y-117668507D01*
X104246066Y-117754924D01*
X104075052Y-118010864D01*
X103994724Y-118414700D01*
X104015001Y-118516639D01*
X104015001Y-118614304D01*
X104002235Y-118616843D01*
X103792191Y-118757191D01*
X103651843Y-118967235D01*
X103602560Y-119215000D01*
X103602560Y-120815000D01*
X103651843Y-121062765D01*
X103792191Y-121272809D01*
X104002235Y-121413157D01*
X104250000Y-121462440D01*
X105850000Y-121462440D01*
X106097765Y-121413157D01*
X106307809Y-121272809D01*
X106448157Y-121062765D01*
X106497440Y-120815000D01*
X106497440Y-119215000D01*
X106448157Y-118967235D01*
X106307809Y-118757191D01*
X106240246Y-118712046D01*
X106459348Y-118384137D01*
X106519400Y-118082235D01*
X106519400Y-118082230D01*
X106539675Y-117980301D01*
X106519400Y-117878371D01*
X106519400Y-111704879D01*
X106626155Y-111962608D01*
X107367392Y-112703845D01*
X108335866Y-113105000D01*
X109384134Y-113105000D01*
X110352608Y-112703845D01*
X111093845Y-111962608D01*
X111200600Y-111704879D01*
X111200601Y-117878361D01*
X111180324Y-117980300D01*
X111260652Y-118384136D01*
X111372399Y-118551377D01*
X111489408Y-118726493D01*
X111575825Y-118784235D01*
X111635001Y-118843411D01*
X111635001Y-118981055D01*
X111318260Y-119455091D01*
X111206887Y-120015000D01*
X111318260Y-120574909D01*
X111635001Y-121048945D01*
X111635001Y-121513361D01*
X111614724Y-121615300D01*
X111695052Y-122019136D01*
X111812860Y-122195448D01*
X111923808Y-122361493D01*
X112010225Y-122419235D01*
X114558500Y-124967511D01*
X114558500Y-128168839D01*
X114235385Y-128035000D01*
X113644615Y-128035000D01*
X113098815Y-128261078D01*
X112681078Y-128678815D01*
X112455000Y-129224615D01*
X112455000Y-129815385D01*
X112681078Y-130361185D01*
X113098815Y-130778922D01*
X113644615Y-131005000D01*
X114235385Y-131005000D01*
X114558501Y-130871161D01*
X114558501Y-134112488D01*
X112010225Y-136660765D01*
X111923808Y-136718507D01*
X111866066Y-136804924D01*
X111695052Y-137060864D01*
X111614724Y-137464700D01*
X111635001Y-137566639D01*
X111635001Y-138031055D01*
X111318260Y-138505091D01*
X111206887Y-139065000D01*
X111318260Y-139624909D01*
X111635423Y-140099577D01*
X112110091Y-140416740D01*
X112528667Y-140500000D01*
X112811333Y-140500000D01*
X113229909Y-140416740D01*
X113704577Y-140099577D01*
X114021740Y-139624909D01*
X114133113Y-139065000D01*
X114021740Y-138505091D01*
X113705000Y-138031056D01*
X113705000Y-137893410D01*
X116253276Y-135345135D01*
X116339693Y-135287393D01*
X116568448Y-134945037D01*
X116628500Y-134643135D01*
X116628500Y-134643134D01*
X116648776Y-134541201D01*
X116628500Y-134439268D01*
X116628500Y-129224615D01*
X121345000Y-129224615D01*
X121345000Y-129815385D01*
X121571078Y-130361185D01*
X121988815Y-130778922D01*
X122534615Y-131005000D01*
X123125385Y-131005000D01*
X123499400Y-130850078D01*
X123499401Y-136601589D01*
X123440225Y-136660765D01*
X123353808Y-136718507D01*
X123296066Y-136804924D01*
X123125052Y-137060864D01*
X123044724Y-137464700D01*
X123065001Y-137566639D01*
X123065001Y-137664304D01*
X123052235Y-137666843D01*
X122842191Y-137807191D01*
X122701843Y-138017235D01*
X122652560Y-138265000D01*
X122652560Y-139865000D01*
X122701843Y-140112765D01*
X122842191Y-140322809D01*
X123052235Y-140463157D01*
X123300000Y-140512440D01*
X124900000Y-140512440D01*
X125147765Y-140463157D01*
X125357809Y-140322809D01*
X125498157Y-140112765D01*
X125547440Y-139865000D01*
X125547440Y-138265000D01*
X125498157Y-138017235D01*
X125357809Y-137807191D01*
X125290246Y-137762046D01*
X125509348Y-137434137D01*
X125569400Y-137132235D01*
X125569400Y-137132230D01*
X125589675Y-137030301D01*
X125569400Y-136928371D01*
X125569400Y-130754879D01*
X125676155Y-131012608D01*
X126417392Y-131753845D01*
X127385866Y-132155000D01*
X128434134Y-132155000D01*
X129402608Y-131753845D01*
X130143845Y-131012608D01*
X130545000Y-130044134D01*
X130545000Y-128995866D01*
X130143845Y-128027392D01*
X129402608Y-127286155D01*
X128434134Y-126885000D01*
X127385866Y-126885000D01*
X126417392Y-127286155D01*
X125676155Y-128027392D01*
X125569400Y-128285121D01*
X125569400Y-127964261D01*
X125570862Y-127962799D01*
X125835000Y-127325113D01*
X125835000Y-126634887D01*
X125570862Y-125997201D01*
X125082799Y-125509138D01*
X124445113Y-125245000D01*
X123754887Y-125245000D01*
X123117201Y-125509138D01*
X122629138Y-125997201D01*
X122365000Y-126634887D01*
X122365000Y-127325113D01*
X122629138Y-127962799D01*
X122701339Y-128035000D01*
X122534615Y-128035000D01*
X121988815Y-128261078D01*
X121571078Y-128678815D01*
X121345000Y-129224615D01*
X116628500Y-129224615D01*
X116628500Y-124640732D01*
X116648776Y-124538799D01*
X116628500Y-124436865D01*
X116568448Y-124134963D01*
X116541671Y-124094887D01*
X128715000Y-124094887D01*
X128715000Y-124785113D01*
X128979138Y-125422799D01*
X129467201Y-125910862D01*
X130104887Y-126175000D01*
X130795113Y-126175000D01*
X131432799Y-125910862D01*
X131920862Y-125422799D01*
X132185000Y-124785113D01*
X132185000Y-124094887D01*
X131920862Y-123457201D01*
X131432799Y-122969138D01*
X130795113Y-122705000D01*
X130104887Y-122705000D01*
X129467201Y-122969138D01*
X128979138Y-123457201D01*
X128715000Y-124094887D01*
X116541671Y-124094887D01*
X116339693Y-123792607D01*
X116253276Y-123734865D01*
X113705000Y-121186590D01*
X113705000Y-121048944D01*
X114021740Y-120574909D01*
X114133113Y-120015000D01*
X114021740Y-119455091D01*
X113705000Y-118981056D01*
X113705000Y-118516629D01*
X113725275Y-118414699D01*
X113705000Y-118312770D01*
X113705000Y-118312765D01*
X113644948Y-118010863D01*
X113416193Y-117668507D01*
X113329773Y-117610763D01*
X113270600Y-117551590D01*
X113270600Y-111800078D01*
X113644615Y-111955000D01*
X114235385Y-111955000D01*
X114781185Y-111728922D01*
X115198922Y-111311185D01*
X115425000Y-110765385D01*
X115425000Y-110174615D01*
X115198922Y-109628815D01*
X114781185Y-109211078D01*
X114235385Y-108985000D01*
X113644615Y-108985000D01*
X113270600Y-109139922D01*
X113270600Y-108726310D01*
X113980876Y-108016035D01*
X114067293Y-107958293D01*
X114296048Y-107615937D01*
X114356100Y-107314035D01*
X114376376Y-107212100D01*
X114356100Y-107110166D01*
X114356100Y-103318329D01*
X114376375Y-103216399D01*
X114356100Y-103114470D01*
X114356100Y-103114465D01*
X114296048Y-102812563D01*
X114067293Y-102470207D01*
X113980873Y-102412463D01*
X113705000Y-102136590D01*
X113705000Y-101998944D01*
X114021740Y-101524909D01*
X114133113Y-100965000D01*
X114021740Y-100405091D01*
X113705000Y-99931056D01*
X113705000Y-99466634D01*
X113725276Y-99364700D01*
X113668768Y-99080613D01*
X113644948Y-98960863D01*
X113416193Y-98618507D01*
X113329773Y-98560763D01*
X113318500Y-98549490D01*
X113318500Y-92769919D01*
X113644615Y-92905000D01*
X114235385Y-92905000D01*
X114781185Y-92678922D01*
X115198922Y-92261185D01*
X115425000Y-91715385D01*
X115425000Y-91124615D01*
X121345000Y-91124615D01*
X121345000Y-91715385D01*
X121571078Y-92261185D01*
X121988815Y-92678922D01*
X122534615Y-92905000D01*
X123125385Y-92905000D01*
X123499400Y-92750078D01*
X123499401Y-98501589D01*
X123440225Y-98560765D01*
X123353808Y-98618507D01*
X123296067Y-98704923D01*
X123296066Y-98704924D01*
X123125052Y-98960864D01*
X123044724Y-99364700D01*
X123065001Y-99466639D01*
X123065001Y-99564304D01*
X123052235Y-99566843D01*
X122842191Y-99707191D01*
X122701843Y-99917235D01*
X122652560Y-100165000D01*
X122652560Y-101765000D01*
X122701843Y-102012765D01*
X122842191Y-102222809D01*
X123052235Y-102363157D01*
X123300000Y-102412440D01*
X124900000Y-102412440D01*
X125147765Y-102363157D01*
X125357809Y-102222809D01*
X125498157Y-102012765D01*
X125547440Y-101765000D01*
X125547440Y-100165000D01*
X125498157Y-99917235D01*
X125357809Y-99707191D01*
X125290246Y-99662046D01*
X125509348Y-99334137D01*
X125569400Y-99032235D01*
X125569400Y-99032230D01*
X125589675Y-98930301D01*
X125569400Y-98828371D01*
X125569400Y-92654879D01*
X125676155Y-92912608D01*
X126417392Y-93653845D01*
X127385866Y-94055000D01*
X128434134Y-94055000D01*
X129402608Y-93653845D01*
X130143845Y-92912608D01*
X130250601Y-92654878D01*
X130250600Y-101228766D01*
X130230324Y-101330700D01*
X130250600Y-101432634D01*
X130310652Y-101734536D01*
X130539407Y-102076893D01*
X130625827Y-102134637D01*
X130685000Y-102193810D01*
X130685000Y-102463366D01*
X130664724Y-102565300D01*
X130745052Y-102969136D01*
X130835944Y-103105165D01*
X130973808Y-103311493D01*
X131060225Y-103369235D01*
X131319700Y-103628710D01*
X131319700Y-103872291D01*
X130795113Y-103655000D01*
X130104887Y-103655000D01*
X129467201Y-103919138D01*
X128979138Y-104407201D01*
X128715000Y-105044887D01*
X128715000Y-105735113D01*
X128979138Y-106372799D01*
X129467201Y-106860862D01*
X130104887Y-107125000D01*
X130285681Y-107125000D01*
X130230324Y-107403300D01*
X130250600Y-107505234D01*
X130250600Y-109235121D01*
X130143845Y-108977392D01*
X129402608Y-108236155D01*
X128434134Y-107835000D01*
X127385866Y-107835000D01*
X126417392Y-108236155D01*
X125676155Y-108977392D01*
X125569400Y-109235121D01*
X125569400Y-108914261D01*
X125570862Y-108912799D01*
X125835000Y-108275113D01*
X125835000Y-107584887D01*
X125570862Y-106947201D01*
X125082799Y-106459138D01*
X124445113Y-106195000D01*
X123754887Y-106195000D01*
X123117201Y-106459138D01*
X122629138Y-106947201D01*
X122365000Y-107584887D01*
X122365000Y-108275113D01*
X122629138Y-108912799D01*
X122701339Y-108985000D01*
X122534615Y-108985000D01*
X121988815Y-109211078D01*
X121571078Y-109628815D01*
X121345000Y-110174615D01*
X121345000Y-110765385D01*
X121571078Y-111311185D01*
X121988815Y-111728922D01*
X122534615Y-111955000D01*
X123125385Y-111955000D01*
X123499400Y-111800078D01*
X123499401Y-117551589D01*
X123440225Y-117610765D01*
X123353808Y-117668507D01*
X123296066Y-117754924D01*
X123125052Y-118010864D01*
X123044724Y-118414700D01*
X123065001Y-118516639D01*
X123065001Y-118614304D01*
X123052235Y-118616843D01*
X122842191Y-118757191D01*
X122701843Y-118967235D01*
X122652560Y-119215000D01*
X122652560Y-120815000D01*
X122701843Y-121062765D01*
X122842191Y-121272809D01*
X123052235Y-121413157D01*
X123300000Y-121462440D01*
X124900000Y-121462440D01*
X125147765Y-121413157D01*
X125357809Y-121272809D01*
X125498157Y-121062765D01*
X125547440Y-120815000D01*
X125547440Y-119215000D01*
X125498157Y-118967235D01*
X125357809Y-118757191D01*
X125290246Y-118712046D01*
X125509348Y-118384137D01*
X125569400Y-118082235D01*
X125569400Y-118082230D01*
X125589675Y-117980301D01*
X125569400Y-117878371D01*
X125569400Y-111704879D01*
X125676155Y-111962608D01*
X126417392Y-112703845D01*
X127385866Y-113105000D01*
X128434134Y-113105000D01*
X129402608Y-112703845D01*
X130143845Y-111962608D01*
X130250600Y-111704879D01*
X130250601Y-117878361D01*
X130230324Y-117980300D01*
X130310652Y-118384136D01*
X130422399Y-118551377D01*
X130539408Y-118726493D01*
X130625825Y-118784235D01*
X130685001Y-118843411D01*
X130685001Y-118981055D01*
X130368260Y-119455091D01*
X130256887Y-120015000D01*
X130368260Y-120574909D01*
X130685001Y-121048945D01*
X130685001Y-121513361D01*
X130664724Y-121615300D01*
X130745052Y-122019136D01*
X130862860Y-122195448D01*
X130973808Y-122361493D01*
X131060225Y-122419235D01*
X133638901Y-124997912D01*
X133638901Y-128181431D01*
X133285385Y-128035000D01*
X132694615Y-128035000D01*
X132148815Y-128261078D01*
X131731078Y-128678815D01*
X131505000Y-129224615D01*
X131505000Y-129815385D01*
X131731078Y-130361185D01*
X132148815Y-130778922D01*
X132694615Y-131005000D01*
X133285385Y-131005000D01*
X133638900Y-130858569D01*
X133638900Y-134082089D01*
X131060225Y-136660765D01*
X130973808Y-136718507D01*
X130916066Y-136804924D01*
X130745052Y-137060864D01*
X130664724Y-137464700D01*
X130685001Y-137566639D01*
X130685001Y-138031055D01*
X130368260Y-138505091D01*
X130256887Y-139065000D01*
X130368260Y-139624909D01*
X130685423Y-140099577D01*
X131160091Y-140416740D01*
X131578667Y-140500000D01*
X131861333Y-140500000D01*
X132279909Y-140416740D01*
X132754577Y-140099577D01*
X133071740Y-139624909D01*
X133183113Y-139065000D01*
X133071740Y-138505091D01*
X132755000Y-138031056D01*
X132755000Y-137893410D01*
X135333676Y-135314735D01*
X135420093Y-135256993D01*
X135648848Y-134914637D01*
X135708900Y-134612735D01*
X135708900Y-134612730D01*
X135729175Y-134510801D01*
X135708900Y-134408871D01*
X135708900Y-124671129D01*
X135729175Y-124569199D01*
X135708900Y-124467270D01*
X135708900Y-124467265D01*
X135648848Y-124165363D01*
X135420093Y-123823007D01*
X135333676Y-123765265D01*
X132755000Y-121186590D01*
X132755000Y-121048944D01*
X133071740Y-120574909D01*
X133183113Y-120015000D01*
X133071740Y-119455091D01*
X132755000Y-118981056D01*
X132755000Y-118516629D01*
X132775275Y-118414699D01*
X132755000Y-118312770D01*
X132755000Y-118312765D01*
X132694948Y-118010863D01*
X132466193Y-117668507D01*
X132379773Y-117610763D01*
X132320600Y-117551590D01*
X132320600Y-111800078D01*
X132694615Y-111955000D01*
X133285385Y-111955000D01*
X133831185Y-111728922D01*
X134248922Y-111311185D01*
X134475000Y-110765385D01*
X134475000Y-110174615D01*
X134248922Y-109628815D01*
X133831185Y-109211078D01*
X133285385Y-108985000D01*
X132694615Y-108985000D01*
X132320600Y-109139922D01*
X132320600Y-107832010D01*
X133014476Y-107138135D01*
X133100893Y-107080393D01*
X133329648Y-106738037D01*
X133389700Y-106436135D01*
X133409976Y-106334200D01*
X133389700Y-106232266D01*
X133389700Y-103301932D01*
X133409976Y-103199999D01*
X133365108Y-102974434D01*
X133329648Y-102796163D01*
X133100893Y-102453807D01*
X133014473Y-102396063D01*
X132755000Y-102136590D01*
X132755000Y-101998944D01*
X133071740Y-101524909D01*
X133183113Y-100965000D01*
X133071740Y-100405091D01*
X132754577Y-99930423D01*
X132320600Y-99640449D01*
X132320600Y-92750078D01*
X132694615Y-92905000D01*
X133285385Y-92905000D01*
X133831185Y-92678922D01*
X134248922Y-92261185D01*
X134475000Y-91715385D01*
X134475000Y-91124615D01*
X134248922Y-90578815D01*
X133831185Y-90161078D01*
X133285385Y-89935000D01*
X132694615Y-89935000D01*
X132320600Y-90089922D01*
X132320600Y-89939810D01*
X133028876Y-89231535D01*
X133115293Y-89173793D01*
X133344048Y-88831437D01*
X133404100Y-88529535D01*
X133404100Y-88529530D01*
X133424375Y-88427601D01*
X133404100Y-88325671D01*
X133404100Y-84266334D01*
X133424376Y-84164399D01*
X133344048Y-83760563D01*
X133248279Y-83617235D01*
X133115293Y-83418207D01*
X133028873Y-83360463D01*
X132755000Y-83086590D01*
X132755000Y-82948944D01*
X133071740Y-82474909D01*
X133183113Y-81915000D01*
X133071740Y-81355091D01*
X132754577Y-80880423D01*
X132279909Y-80563260D01*
X131861333Y-80480000D01*
X131578667Y-80480000D01*
X131160091Y-80563260D01*
X130685423Y-80880423D01*
X130368260Y-81355091D01*
X130256887Y-81915000D01*
X130368260Y-82474909D01*
X130685001Y-82948945D01*
X130685001Y-83413361D01*
X130664724Y-83515300D01*
X130745052Y-83919136D01*
X130745053Y-83919137D01*
X130973808Y-84261493D01*
X131060225Y-84319235D01*
X131334101Y-84593111D01*
X131334101Y-84828256D01*
X130795113Y-84605000D01*
X130104887Y-84605000D01*
X129467201Y-84869138D01*
X128979138Y-85357201D01*
X128715000Y-85994887D01*
X128715000Y-86685113D01*
X128979138Y-87322799D01*
X129467201Y-87810862D01*
X130104887Y-88075000D01*
X130795113Y-88075000D01*
X131334100Y-87851744D01*
X131334100Y-87998889D01*
X130625825Y-88707165D01*
X130539408Y-88764907D01*
X130481666Y-88851324D01*
X130310652Y-89107264D01*
X130230324Y-89511100D01*
X130250601Y-89613039D01*
X130250601Y-90185124D01*
X130143845Y-89927392D01*
X129402608Y-89186155D01*
X128434134Y-88785000D01*
X127385866Y-88785000D01*
X126417392Y-89186155D01*
X125676155Y-89927392D01*
X125569400Y-90185121D01*
X125569400Y-89864261D01*
X125570862Y-89862799D01*
X125835000Y-89225113D01*
X125835000Y-88534887D01*
X125570862Y-87897201D01*
X125082799Y-87409138D01*
X124445113Y-87145000D01*
X123754887Y-87145000D01*
X123117201Y-87409138D01*
X122629138Y-87897201D01*
X122365000Y-88534887D01*
X122365000Y-89225113D01*
X122629138Y-89862799D01*
X122701339Y-89935000D01*
X122534615Y-89935000D01*
X121988815Y-90161078D01*
X121571078Y-90578815D01*
X121345000Y-91124615D01*
X115425000Y-91124615D01*
X115198922Y-90578815D01*
X114781185Y-90161078D01*
X114235385Y-89935000D01*
X113644615Y-89935000D01*
X113318500Y-90070081D01*
X113318500Y-89852110D01*
X113972676Y-89197935D01*
X114059093Y-89140193D01*
X114287848Y-88797837D01*
X114347900Y-88495935D01*
X114347900Y-88495930D01*
X114368175Y-88394001D01*
X114347900Y-88292071D01*
X114347900Y-84260134D01*
X114368176Y-84158200D01*
X114287848Y-83754363D01*
X114210297Y-83638300D01*
X114059093Y-83412007D01*
X113972673Y-83354263D01*
X113705000Y-83086590D01*
X113705000Y-82948944D01*
X114021740Y-82474909D01*
X114133113Y-81915000D01*
X114021740Y-81355091D01*
X113704577Y-80880423D01*
X113229909Y-80563260D01*
X112811333Y-80480000D01*
X112528667Y-80480000D01*
X112110091Y-80563260D01*
X111635423Y-80880423D01*
X111318260Y-81355091D01*
X111206887Y-81915000D01*
X111318260Y-82474909D01*
X111635001Y-82948945D01*
X111635001Y-83413361D01*
X111614724Y-83515300D01*
X111695052Y-83919136D01*
X111695053Y-83919137D01*
X111923808Y-84261493D01*
X112010225Y-84319235D01*
X112277900Y-84586910D01*
X112277900Y-84825688D01*
X111745113Y-84605000D01*
X111054887Y-84605000D01*
X110417201Y-84869138D01*
X109929138Y-85357201D01*
X109665000Y-85994887D01*
X109665000Y-86685113D01*
X109929138Y-87322799D01*
X110417201Y-87810862D01*
X111054887Y-88075000D01*
X111745113Y-88075000D01*
X112277901Y-87854312D01*
X112277901Y-87965288D01*
X111623727Y-88619463D01*
X111537307Y-88677207D01*
X111346179Y-88963251D01*
X111308552Y-89019564D01*
X111228224Y-89423400D01*
X111248500Y-89525334D01*
X111248500Y-90300763D01*
X111093845Y-89927392D01*
X110352608Y-89186155D01*
X109384134Y-88785000D01*
X108335866Y-88785000D01*
X107367392Y-89186155D01*
X106626155Y-89927392D01*
X106519400Y-90185121D01*
X106519400Y-89864261D01*
X106520862Y-89862799D01*
X106785000Y-89225113D01*
X106785000Y-88534887D01*
X106520862Y-87897201D01*
X106032799Y-87409138D01*
X105395113Y-87145000D01*
X104704887Y-87145000D01*
X104067201Y-87409138D01*
X103579138Y-87897201D01*
X103315000Y-88534887D01*
X103315000Y-89225113D01*
X103579138Y-89862799D01*
X103651339Y-89935000D01*
X103484615Y-89935000D01*
X102938815Y-90161078D01*
X102521078Y-90578815D01*
X102295000Y-91124615D01*
X96375000Y-91124615D01*
X96148922Y-90578815D01*
X95731185Y-90161078D01*
X95185385Y-89935000D01*
X94594615Y-89935000D01*
X94220600Y-90089922D01*
X94220600Y-89676310D01*
X94930876Y-88966035D01*
X95017293Y-88908293D01*
X95246048Y-88565937D01*
X95306100Y-88264035D01*
X95326376Y-88162100D01*
X95306100Y-88060166D01*
X95306100Y-84268329D01*
X95326375Y-84166399D01*
X95306100Y-84064470D01*
X95306100Y-84064465D01*
X95246048Y-83762563D01*
X95017293Y-83420207D01*
X94930873Y-83362463D01*
X94655000Y-83086590D01*
X94655000Y-82948944D01*
X94971740Y-82474909D01*
X95083113Y-81915000D01*
X94971740Y-81355091D01*
X94654577Y-80880423D01*
X94179909Y-80563260D01*
X93761333Y-80480000D01*
X93478667Y-80480000D01*
X93060091Y-80563260D01*
X92585423Y-80880423D01*
X92268260Y-81355091D01*
X92156887Y-81915000D01*
X92268260Y-82474909D01*
X92585001Y-82948945D01*
X92585001Y-83413361D01*
X92564724Y-83515300D01*
X92645052Y-83919136D01*
X92645053Y-83919137D01*
X92873808Y-84261493D01*
X92960225Y-84319235D01*
X93236100Y-84595110D01*
X93236100Y-84829084D01*
X92695113Y-84605000D01*
X92004887Y-84605000D01*
X91367201Y-84869138D01*
X90931339Y-85305000D01*
X74718661Y-85305000D01*
X74335000Y-84921339D01*
X74335000Y-83331368D01*
X74428667Y-83350000D01*
X74711333Y-83350000D01*
X75129909Y-83266740D01*
X75604577Y-82949577D01*
X75921740Y-82474909D01*
X76033113Y-81915000D01*
X75921740Y-81355091D01*
X75604577Y-80880423D01*
X75129909Y-80563260D01*
X74711333Y-80480000D01*
X74428667Y-80480000D01*
X74010091Y-80563260D01*
X73535423Y-80880423D01*
X73218260Y-81355091D01*
X73170634Y-81594523D01*
X65431110Y-73855000D01*
X65975385Y-73855000D01*
X66521185Y-73628922D01*
X66938922Y-73211185D01*
X67165000Y-72665385D01*
X67165000Y-72074615D01*
X67070249Y-71845866D01*
X68125000Y-71845866D01*
X68125000Y-72894134D01*
X68526155Y-73862608D01*
X69267392Y-74603845D01*
X70235866Y-75005000D01*
X71284134Y-75005000D01*
X72252608Y-74603845D01*
X72993845Y-73862608D01*
X73395000Y-72894134D01*
X73395000Y-72074615D01*
X74355000Y-72074615D01*
X74355000Y-72665385D01*
X74581078Y-73211185D01*
X74998815Y-73628922D01*
X75544615Y-73855000D01*
X76135385Y-73855000D01*
X76681185Y-73628922D01*
X77098922Y-73211185D01*
X77325000Y-72665385D01*
X77325000Y-72074615D01*
X83245000Y-72074615D01*
X83245000Y-72665385D01*
X83471078Y-73211185D01*
X83888815Y-73628922D01*
X84434615Y-73855000D01*
X85025385Y-73855000D01*
X85399400Y-73700078D01*
X85399401Y-79451589D01*
X85340225Y-79510765D01*
X85253808Y-79568507D01*
X85196066Y-79654924D01*
X85025052Y-79910864D01*
X84944724Y-80314700D01*
X84965001Y-80416639D01*
X84965001Y-80514304D01*
X84952235Y-80516843D01*
X84742191Y-80657191D01*
X84601843Y-80867235D01*
X84552560Y-81115000D01*
X84552560Y-82715000D01*
X84601843Y-82962765D01*
X84742191Y-83172809D01*
X84952235Y-83313157D01*
X85200000Y-83362440D01*
X86800000Y-83362440D01*
X87047765Y-83313157D01*
X87257809Y-83172809D01*
X87398157Y-82962765D01*
X87447440Y-82715000D01*
X87447440Y-81115000D01*
X87398157Y-80867235D01*
X87257809Y-80657191D01*
X87190246Y-80612046D01*
X87409348Y-80284137D01*
X87469400Y-79982235D01*
X87469400Y-79982230D01*
X87489675Y-79880301D01*
X87469400Y-79778371D01*
X87469400Y-73604879D01*
X87576155Y-73862608D01*
X88317392Y-74603845D01*
X89285866Y-75005000D01*
X90334134Y-75005000D01*
X91302608Y-74603845D01*
X92043845Y-73862608D01*
X92445000Y-72894134D01*
X92445000Y-72074615D01*
X93405000Y-72074615D01*
X93405000Y-72665385D01*
X93631078Y-73211185D01*
X94048815Y-73628922D01*
X94594615Y-73855000D01*
X95185385Y-73855000D01*
X95731185Y-73628922D01*
X96148922Y-73211185D01*
X96375000Y-72665385D01*
X96375000Y-72074615D01*
X102295000Y-72074615D01*
X102295000Y-72665385D01*
X102521078Y-73211185D01*
X102938815Y-73628922D01*
X103484615Y-73855000D01*
X104075385Y-73855000D01*
X104449400Y-73700078D01*
X104449401Y-79451589D01*
X104390225Y-79510765D01*
X104303808Y-79568507D01*
X104246066Y-79654924D01*
X104075052Y-79910864D01*
X103994724Y-80314700D01*
X104015001Y-80416639D01*
X104015001Y-80514304D01*
X104002235Y-80516843D01*
X103792191Y-80657191D01*
X103651843Y-80867235D01*
X103602560Y-81115000D01*
X103602560Y-82715000D01*
X103651843Y-82962765D01*
X103792191Y-83172809D01*
X104002235Y-83313157D01*
X104250000Y-83362440D01*
X105850000Y-83362440D01*
X106097765Y-83313157D01*
X106307809Y-83172809D01*
X106448157Y-82962765D01*
X106497440Y-82715000D01*
X106497440Y-81115000D01*
X106448157Y-80867235D01*
X106307809Y-80657191D01*
X106240246Y-80612046D01*
X106459348Y-80284137D01*
X106519400Y-79982235D01*
X106519400Y-79982230D01*
X106539675Y-79880301D01*
X106519400Y-79778371D01*
X106519400Y-73604879D01*
X106626155Y-73862608D01*
X107367392Y-74603845D01*
X108335866Y-75005000D01*
X109384134Y-75005000D01*
X110352608Y-74603845D01*
X111093845Y-73862608D01*
X111495000Y-72894134D01*
X111495000Y-72074615D01*
X112455000Y-72074615D01*
X112455000Y-72665385D01*
X112681078Y-73211185D01*
X113098815Y-73628922D01*
X113644615Y-73855000D01*
X114235385Y-73855000D01*
X114781185Y-73628922D01*
X115198922Y-73211185D01*
X115425000Y-72665385D01*
X115425000Y-72074615D01*
X121345000Y-72074615D01*
X121345000Y-72665385D01*
X121571078Y-73211185D01*
X121988815Y-73628922D01*
X122534615Y-73855000D01*
X123125385Y-73855000D01*
X123499400Y-73700078D01*
X123499401Y-79451589D01*
X123440225Y-79510765D01*
X123353808Y-79568507D01*
X123296066Y-79654924D01*
X123125052Y-79910864D01*
X123044724Y-80314700D01*
X123065001Y-80416639D01*
X123065001Y-80514304D01*
X123052235Y-80516843D01*
X122842191Y-80657191D01*
X122701843Y-80867235D01*
X122652560Y-81115000D01*
X122652560Y-82715000D01*
X122701843Y-82962765D01*
X122842191Y-83172809D01*
X123052235Y-83313157D01*
X123300000Y-83362440D01*
X124900000Y-83362440D01*
X125147765Y-83313157D01*
X125357809Y-83172809D01*
X125498157Y-82962765D01*
X125547440Y-82715000D01*
X125547440Y-81115000D01*
X125498157Y-80867235D01*
X125357809Y-80657191D01*
X125290246Y-80612046D01*
X125509348Y-80284137D01*
X125569400Y-79982235D01*
X125569400Y-79982230D01*
X125589675Y-79880301D01*
X125569400Y-79778371D01*
X125569400Y-73604879D01*
X125676155Y-73862608D01*
X126417392Y-74603845D01*
X127385866Y-75005000D01*
X128434134Y-75005000D01*
X129402608Y-74603845D01*
X130143845Y-73862608D01*
X130545000Y-72894134D01*
X130545000Y-72074615D01*
X131505000Y-72074615D01*
X131505000Y-72665385D01*
X131731078Y-73211185D01*
X132148815Y-73628922D01*
X132694615Y-73855000D01*
X133285385Y-73855000D01*
X133831185Y-73628922D01*
X134248922Y-73211185D01*
X134475000Y-72665385D01*
X134475000Y-72074615D01*
X134248922Y-71528815D01*
X133831185Y-71111078D01*
X133285385Y-70885000D01*
X132694615Y-70885000D01*
X132148815Y-71111078D01*
X131731078Y-71528815D01*
X131505000Y-72074615D01*
X130545000Y-72074615D01*
X130545000Y-71845866D01*
X130143845Y-70877392D01*
X129402608Y-70136155D01*
X128434134Y-69735000D01*
X127385866Y-69735000D01*
X126417392Y-70136155D01*
X125676155Y-70877392D01*
X125569400Y-71135121D01*
X125569400Y-70814261D01*
X125570862Y-70812799D01*
X125835000Y-70175113D01*
X125835000Y-69484887D01*
X125570862Y-68847201D01*
X125082799Y-68359138D01*
X124445113Y-68095000D01*
X123754887Y-68095000D01*
X123117201Y-68359138D01*
X122629138Y-68847201D01*
X122365000Y-69484887D01*
X122365000Y-70175113D01*
X122629138Y-70812799D01*
X122701339Y-70885000D01*
X122534615Y-70885000D01*
X121988815Y-71111078D01*
X121571078Y-71528815D01*
X121345000Y-72074615D01*
X115425000Y-72074615D01*
X115198922Y-71528815D01*
X114781185Y-71111078D01*
X114235385Y-70885000D01*
X113644615Y-70885000D01*
X113098815Y-71111078D01*
X112681078Y-71528815D01*
X112455000Y-72074615D01*
X111495000Y-72074615D01*
X111495000Y-71845866D01*
X111093845Y-70877392D01*
X110352608Y-70136155D01*
X109384134Y-69735000D01*
X108335866Y-69735000D01*
X107367392Y-70136155D01*
X106626155Y-70877392D01*
X106519400Y-71135121D01*
X106519400Y-70814261D01*
X106520862Y-70812799D01*
X106785000Y-70175113D01*
X106785000Y-69484887D01*
X106520862Y-68847201D01*
X106032799Y-68359138D01*
X105395113Y-68095000D01*
X104704887Y-68095000D01*
X104067201Y-68359138D01*
X103579138Y-68847201D01*
X103315000Y-69484887D01*
X103315000Y-70175113D01*
X103579138Y-70812799D01*
X103651339Y-70885000D01*
X103484615Y-70885000D01*
X102938815Y-71111078D01*
X102521078Y-71528815D01*
X102295000Y-72074615D01*
X96375000Y-72074615D01*
X96148922Y-71528815D01*
X95731185Y-71111078D01*
X95185385Y-70885000D01*
X94594615Y-70885000D01*
X94048815Y-71111078D01*
X93631078Y-71528815D01*
X93405000Y-72074615D01*
X92445000Y-72074615D01*
X92445000Y-71845866D01*
X92043845Y-70877392D01*
X91302608Y-70136155D01*
X90334134Y-69735000D01*
X89285866Y-69735000D01*
X88317392Y-70136155D01*
X87576155Y-70877392D01*
X87469400Y-71135121D01*
X87469400Y-70814261D01*
X87470862Y-70812799D01*
X87735000Y-70175113D01*
X87735000Y-69484887D01*
X87470862Y-68847201D01*
X86982799Y-68359138D01*
X86345113Y-68095000D01*
X85654887Y-68095000D01*
X85017201Y-68359138D01*
X84529138Y-68847201D01*
X84265000Y-69484887D01*
X84265000Y-70175113D01*
X84529138Y-70812799D01*
X84601339Y-70885000D01*
X84434615Y-70885000D01*
X83888815Y-71111078D01*
X83471078Y-71528815D01*
X83245000Y-72074615D01*
X77325000Y-72074615D01*
X77098922Y-71528815D01*
X76681185Y-71111078D01*
X76135385Y-70885000D01*
X75544615Y-70885000D01*
X74998815Y-71111078D01*
X74581078Y-71528815D01*
X74355000Y-72074615D01*
X73395000Y-72074615D01*
X73395000Y-71845866D01*
X72993845Y-70877392D01*
X72252608Y-70136155D01*
X71284134Y-69735000D01*
X70235866Y-69735000D01*
X69267392Y-70136155D01*
X68526155Y-70877392D01*
X68125000Y-71845866D01*
X67070249Y-71845866D01*
X66953910Y-71565000D01*
X67295113Y-71565000D01*
X67932799Y-71300862D01*
X68420862Y-70812799D01*
X68685000Y-70175113D01*
X68685000Y-69484887D01*
X68420862Y-68847201D01*
X67932799Y-68359138D01*
X67295113Y-68095000D01*
X66604887Y-68095000D01*
X65967201Y-68359138D01*
X65479138Y-68847201D01*
X65215000Y-69484887D01*
X65215000Y-70175113D01*
X65479138Y-70812799D01*
X65551339Y-70885000D01*
X65384615Y-70885000D01*
X64838815Y-71111078D01*
X64421078Y-71528815D01*
X64195000Y-72074615D01*
X64195000Y-72618890D01*
X59055000Y-67478890D01*
X59055000Y-67444561D01*
X58848029Y-66944887D01*
X71565000Y-66944887D01*
X71565000Y-67635113D01*
X71829138Y-68272799D01*
X72317201Y-68760862D01*
X72954887Y-69025000D01*
X73645113Y-69025000D01*
X74282799Y-68760862D01*
X74770862Y-68272799D01*
X75035000Y-67635113D01*
X75035000Y-66944887D01*
X90615000Y-66944887D01*
X90615000Y-67635113D01*
X90879138Y-68272799D01*
X91367201Y-68760862D01*
X92004887Y-69025000D01*
X92695113Y-69025000D01*
X93332799Y-68760862D01*
X93820862Y-68272799D01*
X94085000Y-67635113D01*
X94085000Y-66944887D01*
X109665000Y-66944887D01*
X109665000Y-67635113D01*
X109929138Y-68272799D01*
X110417201Y-68760862D01*
X111054887Y-69025000D01*
X111745113Y-69025000D01*
X112382799Y-68760862D01*
X112870862Y-68272799D01*
X113135000Y-67635113D01*
X113135000Y-66944887D01*
X128715000Y-66944887D01*
X128715000Y-67635113D01*
X128979138Y-68272799D01*
X129467201Y-68760862D01*
X130104887Y-69025000D01*
X130795113Y-69025000D01*
X131432799Y-68760862D01*
X131920862Y-68272799D01*
X132185000Y-67635113D01*
X132185000Y-66944887D01*
X131920862Y-66307201D01*
X131432799Y-65819138D01*
X130795113Y-65555000D01*
X130104887Y-65555000D01*
X129467201Y-65819138D01*
X128979138Y-66307201D01*
X128715000Y-66944887D01*
X113135000Y-66944887D01*
X112870862Y-66307201D01*
X112382799Y-65819138D01*
X111745113Y-65555000D01*
X111054887Y-65555000D01*
X110417201Y-65819138D01*
X109929138Y-66307201D01*
X109665000Y-66944887D01*
X94085000Y-66944887D01*
X93820862Y-66307201D01*
X93332799Y-65819138D01*
X92695113Y-65555000D01*
X92004887Y-65555000D01*
X91367201Y-65819138D01*
X90879138Y-66307201D01*
X90615000Y-66944887D01*
X75035000Y-66944887D01*
X74770862Y-66307201D01*
X74282799Y-65819138D01*
X73645113Y-65555000D01*
X72954887Y-65555000D01*
X72317201Y-65819138D01*
X71829138Y-66307201D01*
X71565000Y-66944887D01*
X58848029Y-66944887D01*
X58836534Y-66917138D01*
X58432862Y-66513466D01*
X58303784Y-66460000D01*
X58432862Y-66406534D01*
X58836534Y-66002862D01*
X59055000Y-65475439D01*
X59055000Y-64904561D01*
X58836534Y-64377138D01*
X58432862Y-63973466D01*
X58303784Y-63920000D01*
X58432862Y-63866534D01*
X58836534Y-63462862D01*
X59055000Y-62935439D01*
X59055000Y-62364561D01*
X58836534Y-61837138D01*
X58432862Y-61433466D01*
X58303784Y-61380000D01*
X58432862Y-61326534D01*
X58836534Y-60922862D01*
X59055000Y-60395439D01*
X59055000Y-59824561D01*
X58836534Y-59297138D01*
X58432862Y-58893466D01*
X58319417Y-58846475D01*
X58374005Y-58823864D01*
X58448139Y-58577745D01*
X57620000Y-57749605D01*
X56791861Y-58577745D01*
X56865995Y-58823864D01*
X56924448Y-58844874D01*
X56807138Y-58893466D01*
X56403466Y-59297138D01*
X56185000Y-59824561D01*
X56185000Y-60081289D01*
X51840225Y-64426065D01*
X51753808Y-64483807D01*
X51696066Y-64570224D01*
X51525052Y-64826164D01*
X51444724Y-65230000D01*
X51465001Y-65331939D01*
X51465000Y-94722761D01*
X51113914Y-95073847D01*
X50865000Y-95674778D01*
X47635000Y-95674778D01*
X47386086Y-95073847D01*
X46926153Y-94613914D01*
X46325222Y-94365000D01*
X45674778Y-94365000D01*
X45073847Y-94613914D01*
X44613914Y-95073847D01*
X44365000Y-95674778D01*
X40710000Y-95674778D01*
X40710000Y-64904561D01*
X40945000Y-64904561D01*
X40945000Y-65475439D01*
X41163466Y-66002862D01*
X41567138Y-66406534D01*
X41696216Y-66460000D01*
X41567138Y-66513466D01*
X41163466Y-66917138D01*
X40945000Y-67444561D01*
X40945000Y-68015439D01*
X41163466Y-68542862D01*
X41567138Y-68946534D01*
X41696216Y-69000000D01*
X41567138Y-69053466D01*
X41163466Y-69457138D01*
X40945000Y-69984561D01*
X40945000Y-70555439D01*
X41163466Y-71082862D01*
X41567138Y-71486534D01*
X41696216Y-71540000D01*
X41567138Y-71593466D01*
X41163466Y-71997138D01*
X40945000Y-72524561D01*
X40945000Y-73095439D01*
X41163466Y-73622862D01*
X41567138Y-74026534D01*
X41696216Y-74080000D01*
X41567138Y-74133466D01*
X41163466Y-74537138D01*
X40945000Y-75064561D01*
X40945000Y-75635439D01*
X41163466Y-76162862D01*
X41567138Y-76566534D01*
X41696216Y-76620000D01*
X41567138Y-76673466D01*
X41163466Y-77077138D01*
X40945000Y-77604561D01*
X40945000Y-78175439D01*
X41163466Y-78702862D01*
X41567138Y-79106534D01*
X41696216Y-79160000D01*
X41567138Y-79213466D01*
X41163466Y-79617138D01*
X40945000Y-80144561D01*
X40945000Y-80715439D01*
X41163466Y-81242862D01*
X41567138Y-81646534D01*
X41696216Y-81700000D01*
X41567138Y-81753466D01*
X41163466Y-82157138D01*
X40945000Y-82684561D01*
X40945000Y-83255439D01*
X41163466Y-83782862D01*
X41567138Y-84186534D01*
X42094561Y-84405000D01*
X42665439Y-84405000D01*
X43192862Y-84186534D01*
X43596534Y-83782862D01*
X43815000Y-83255439D01*
X43815000Y-82684561D01*
X43596534Y-82157138D01*
X43192862Y-81753466D01*
X43063784Y-81700000D01*
X43192862Y-81646534D01*
X43596534Y-81242862D01*
X43815000Y-80715439D01*
X43815000Y-80144561D01*
X43596534Y-79617138D01*
X43192862Y-79213466D01*
X43063784Y-79160000D01*
X43192862Y-79106534D01*
X43596534Y-78702862D01*
X43815000Y-78175439D01*
X43815000Y-77604561D01*
X43596534Y-77077138D01*
X43192862Y-76673466D01*
X43063784Y-76620000D01*
X43192862Y-76566534D01*
X43596534Y-76162862D01*
X43815000Y-75635439D01*
X43815000Y-75064561D01*
X43596534Y-74537138D01*
X43192862Y-74133466D01*
X43063784Y-74080000D01*
X43192862Y-74026534D01*
X43596534Y-73622862D01*
X43815000Y-73095439D01*
X43815000Y-72524561D01*
X43596534Y-71997138D01*
X43192862Y-71593466D01*
X43063784Y-71540000D01*
X43192862Y-71486534D01*
X43596534Y-71082862D01*
X43815000Y-70555439D01*
X43815000Y-69984561D01*
X43596534Y-69457138D01*
X43192862Y-69053466D01*
X43063784Y-69000000D01*
X43192862Y-68946534D01*
X43596534Y-68542862D01*
X43815000Y-68015439D01*
X43815000Y-67444561D01*
X43596534Y-66917138D01*
X43192862Y-66513466D01*
X43063784Y-66460000D01*
X43192862Y-66406534D01*
X43596534Y-66002862D01*
X43815000Y-65475439D01*
X43815000Y-64904561D01*
X43596534Y-64377138D01*
X43192862Y-63973466D01*
X43079417Y-63926475D01*
X43134005Y-63903864D01*
X43208139Y-63657745D01*
X42380000Y-62829605D01*
X41551861Y-63657745D01*
X41625995Y-63903864D01*
X41684448Y-63924874D01*
X41567138Y-63973466D01*
X41163466Y-64377138D01*
X40945000Y-64904561D01*
X40710000Y-64904561D01*
X40710000Y-62433223D01*
X40933035Y-62433223D01*
X40960222Y-63003454D01*
X41126136Y-63404005D01*
X41372255Y-63478139D01*
X42200395Y-62650000D01*
X42559605Y-62650000D01*
X43387745Y-63478139D01*
X43633864Y-63404005D01*
X43826965Y-62866777D01*
X43799778Y-62296546D01*
X43633864Y-61895995D01*
X43387745Y-61821861D01*
X42559605Y-62650000D01*
X42200395Y-62650000D01*
X41372255Y-61821861D01*
X41126136Y-61895995D01*
X40933035Y-62433223D01*
X40710000Y-62433223D01*
X40710000Y-61117745D01*
X41551861Y-61117745D01*
X41625995Y-61363864D01*
X41667709Y-61378858D01*
X41625995Y-61396136D01*
X41551861Y-61642255D01*
X42380000Y-62470395D01*
X43208139Y-61642255D01*
X43134005Y-61396136D01*
X43092291Y-61381142D01*
X43134005Y-61363864D01*
X43208139Y-61117745D01*
X42380000Y-60289605D01*
X41551861Y-61117745D01*
X40710000Y-61117745D01*
X40710000Y-59893223D01*
X40933035Y-59893223D01*
X40960222Y-60463454D01*
X41126136Y-60864005D01*
X41372255Y-60938139D01*
X42200395Y-60110000D01*
X42559605Y-60110000D01*
X43387745Y-60938139D01*
X43633864Y-60864005D01*
X43826965Y-60326777D01*
X43799778Y-59756546D01*
X43633864Y-59355995D01*
X43387745Y-59281861D01*
X42559605Y-60110000D01*
X42200395Y-60110000D01*
X41372255Y-59281861D01*
X41126136Y-59355995D01*
X40933035Y-59893223D01*
X40710000Y-59893223D01*
X40710000Y-54230000D01*
X40932560Y-54230000D01*
X40932560Y-55830000D01*
X40981843Y-56077765D01*
X41122191Y-56287809D01*
X41332235Y-56428157D01*
X41465866Y-56454738D01*
X41163466Y-56757138D01*
X40945000Y-57284561D01*
X40945000Y-57855439D01*
X41163466Y-58382862D01*
X41567138Y-58786534D01*
X41680583Y-58833525D01*
X41625995Y-58856136D01*
X41551861Y-59102255D01*
X42380000Y-59930395D01*
X43208139Y-59102255D01*
X43134005Y-58856136D01*
X43075552Y-58835126D01*
X43192862Y-58786534D01*
X43596534Y-58382862D01*
X43815000Y-57855439D01*
X43815000Y-57353223D01*
X56173035Y-57353223D01*
X56200222Y-57923454D01*
X56366136Y-58324005D01*
X56612255Y-58398139D01*
X57440395Y-57570000D01*
X57799605Y-57570000D01*
X58627745Y-58398139D01*
X58873864Y-58324005D01*
X59066965Y-57786777D01*
X59039778Y-57216546D01*
X58873864Y-56815995D01*
X58627745Y-56741861D01*
X57799605Y-57570000D01*
X57440395Y-57570000D01*
X56612255Y-56741861D01*
X56366136Y-56815995D01*
X56173035Y-57353223D01*
X43815000Y-57353223D01*
X43815000Y-57284561D01*
X43596534Y-56757138D01*
X43294134Y-56454738D01*
X43427765Y-56428157D01*
X43637809Y-56287809D01*
X43778157Y-56077765D01*
X43827440Y-55830000D01*
X43827440Y-54744561D01*
X56185000Y-54744561D01*
X56185000Y-55315439D01*
X56403466Y-55842862D01*
X56807138Y-56246534D01*
X56920583Y-56293525D01*
X56865995Y-56316136D01*
X56791861Y-56562255D01*
X57620000Y-57390395D01*
X58448139Y-56562255D01*
X58374005Y-56316136D01*
X58315552Y-56295126D01*
X58432862Y-56246534D01*
X58836534Y-55842862D01*
X59055000Y-55315439D01*
X59055000Y-54744561D01*
X58844832Y-54237171D01*
X61165000Y-54237171D01*
X61165000Y-55762829D01*
X61748844Y-57172353D01*
X62827647Y-58251156D01*
X64237171Y-58835000D01*
X65762829Y-58835000D01*
X67172353Y-58251156D01*
X68251156Y-57172353D01*
X68835000Y-55762829D01*
X68835000Y-54237171D01*
X131165000Y-54237171D01*
X131165000Y-55762829D01*
X131748844Y-57172353D01*
X132827647Y-58251156D01*
X134237171Y-58835000D01*
X135762829Y-58835000D01*
X137172353Y-58251156D01*
X138251156Y-57172353D01*
X138835000Y-55762829D01*
X138835000Y-54237171D01*
X138251156Y-52827647D01*
X137172353Y-51748844D01*
X135762829Y-51165000D01*
X134237171Y-51165000D01*
X132827647Y-51748844D01*
X131748844Y-52827647D01*
X131165000Y-54237171D01*
X68835000Y-54237171D01*
X68251156Y-52827647D01*
X67172353Y-51748844D01*
X65762829Y-51165000D01*
X64237171Y-51165000D01*
X62827647Y-51748844D01*
X61748844Y-52827647D01*
X61165000Y-54237171D01*
X58844832Y-54237171D01*
X58836534Y-54217138D01*
X58432862Y-53813466D01*
X57905439Y-53595000D01*
X57334561Y-53595000D01*
X56807138Y-53813466D01*
X56403466Y-54217138D01*
X56185000Y-54744561D01*
X43827440Y-54744561D01*
X43827440Y-54230000D01*
X43778157Y-53982235D01*
X43637809Y-53772191D01*
X43427765Y-53631843D01*
X43180000Y-53582560D01*
X41580000Y-53582560D01*
X41332235Y-53631843D01*
X41122191Y-53772191D01*
X40981843Y-53982235D01*
X40932560Y-54230000D01*
X40710000Y-54230000D01*
X40710000Y-50710000D01*
X139290000Y-50710000D01*
X139290001Y-149290000D01*
X139290001Y-149290000D01*
G37*
X139290001Y-149290000D02*
X40710000Y-149290000D01*
X40710000Y-144237171D01*
X41165000Y-144237171D01*
X41165000Y-145762829D01*
X41748844Y-147172353D01*
X42827647Y-148251156D01*
X44237171Y-148835000D01*
X45762829Y-148835000D01*
X47172353Y-148251156D01*
X48251156Y-147172353D01*
X48835000Y-145762829D01*
X48835000Y-144237171D01*
X131165000Y-144237171D01*
X131165000Y-145762829D01*
X131748844Y-147172353D01*
X132827647Y-148251156D01*
X134237171Y-148835000D01*
X135762829Y-148835000D01*
X137172353Y-148251156D01*
X138251156Y-147172353D01*
X138835000Y-145762829D01*
X138835000Y-144237171D01*
X138251156Y-142827647D01*
X137172353Y-141748844D01*
X135762829Y-141165000D01*
X134237171Y-141165000D01*
X132827647Y-141748844D01*
X131748844Y-142827647D01*
X131165000Y-144237171D01*
X48835000Y-144237171D01*
X48251156Y-142827647D01*
X47172353Y-141748844D01*
X45762829Y-141165000D01*
X44237171Y-141165000D01*
X42827647Y-141748844D01*
X41748844Y-142827647D01*
X41165000Y-144237171D01*
X40710000Y-144237171D01*
X40710000Y-119215000D01*
X65502560Y-119215000D01*
X65502560Y-120815000D01*
X65551843Y-121062765D01*
X65692191Y-121272809D01*
X65902235Y-121413157D01*
X66150000Y-121462440D01*
X67750000Y-121462440D01*
X67997765Y-121413157D01*
X68207809Y-121272809D01*
X68348157Y-121062765D01*
X68397440Y-120815000D01*
X68397440Y-119215000D01*
X68348157Y-118967235D01*
X68207809Y-118757191D01*
X67997765Y-118616843D01*
X67750000Y-118567560D01*
X66150000Y-118567560D01*
X65902235Y-118616843D01*
X65692191Y-118757191D01*
X65551843Y-118967235D01*
X65502560Y-119215000D01*
X40710000Y-119215000D01*
X40710000Y-101652532D01*
X45027073Y-101652532D01*
X45125736Y-101919387D01*
X45735461Y-102145908D01*
X46385460Y-102121856D01*
X46874264Y-101919387D01*
X46972927Y-101652532D01*
X51527073Y-101652532D01*
X51625736Y-101919387D01*
X52235461Y-102145908D01*
X52885460Y-102121856D01*
X53374264Y-101919387D01*
X53472927Y-101652532D01*
X52500000Y-100679605D01*
X51527073Y-101652532D01*
X46972927Y-101652532D01*
X46000000Y-100679605D01*
X45027073Y-101652532D01*
X40710000Y-101652532D01*
X40710000Y-100235461D01*
X44354092Y-100235461D01*
X44378144Y-100885460D01*
X44580613Y-101374264D01*
X44847468Y-101472927D01*
X45820395Y-100500000D01*
X46179605Y-100500000D01*
X47152532Y-101472927D01*
X47419387Y-101374264D01*
X47645908Y-100764539D01*
X47626331Y-100235461D01*
X50854092Y-100235461D01*
X50878144Y-100885460D01*
X51080613Y-101374264D01*
X51347468Y-101472927D01*
X52320395Y-100500000D01*
X52679605Y-100500000D01*
X53652532Y-101472927D01*
X53919387Y-101374264D01*
X54145908Y-100764539D01*
X54121856Y-100114540D01*
X53919387Y-99625736D01*
X53652532Y-99527073D01*
X52679605Y-100500000D01*
X52320395Y-100500000D01*
X51347468Y-99527073D01*
X51080613Y-99625736D01*
X50854092Y-100235461D01*
X47626331Y-100235461D01*
X47621856Y-100114540D01*
X47419387Y-99625736D01*
X47152532Y-99527073D01*
X46179605Y-100500000D01*
X45820395Y-100500000D01*
X44847468Y-99527073D01*
X44580613Y-99625736D01*
X44354092Y-100235461D01*
X40710000Y-100235461D01*
X40710000Y-99347468D01*
X45027073Y-99347468D01*
X46000000Y-100320395D01*
X46972927Y-99347468D01*
X51527073Y-99347468D01*
X52500000Y-100320395D01*
X53472927Y-99347468D01*
X53374264Y-99080613D01*
X52764539Y-98854092D01*
X52114540Y-98878144D01*
X51625736Y-99080613D01*
X51527073Y-99347468D01*
X46972927Y-99347468D01*
X46874264Y-99080613D01*
X46264539Y-98854092D01*
X45614540Y-98878144D01*
X45125736Y-99080613D01*
X45027073Y-99347468D01*
X40710000Y-99347468D01*
X40710000Y-95674778D01*
X44365000Y-95674778D01*
X44365000Y-96325222D01*
X44613914Y-96926153D01*
X45073847Y-97386086D01*
X45674778Y-97635000D01*
X46325222Y-97635000D01*
X46926153Y-97386086D01*
X47386086Y-96926153D01*
X47635000Y-96325222D01*
X47635000Y-95674778D01*
X50865000Y-95674778D01*
X50865000Y-96325222D01*
X51113914Y-96926153D01*
X51573847Y-97386086D01*
X52174778Y-97635000D01*
X52825222Y-97635000D01*
X53426153Y-97386086D01*
X53886086Y-96926153D01*
X54135000Y-96325222D01*
X54135000Y-95674778D01*
X53886086Y-95073847D01*
X53535000Y-94722761D01*
X53535000Y-65658710D01*
X56206461Y-62987250D01*
X56403466Y-63462862D01*
X56807138Y-63866534D01*
X56936216Y-63920000D01*
X56807138Y-63973466D01*
X56403466Y-64377138D01*
X56185000Y-64904561D01*
X56185000Y-65475439D01*
X56403466Y-66002862D01*
X56807138Y-66406534D01*
X56936216Y-66460000D01*
X56807138Y-66513466D01*
X56403466Y-66917138D01*
X56185000Y-67444561D01*
X56185000Y-68015439D01*
X56403466Y-68542862D01*
X56807138Y-68946534D01*
X56936216Y-69000000D01*
X56807138Y-69053466D01*
X56403466Y-69457138D01*
X56185000Y-69984561D01*
X56185000Y-70555439D01*
X56403466Y-71082862D01*
X56807138Y-71486534D01*
X56936216Y-71540000D01*
X56807138Y-71593466D01*
X56403466Y-71997138D01*
X56185000Y-72524561D01*
X56185000Y-73095439D01*
X56403466Y-73622862D01*
X56807138Y-74026534D01*
X56936216Y-74080000D01*
X56807138Y-74133466D01*
X56403466Y-74537138D01*
X56185000Y-75064561D01*
X56185000Y-75635439D01*
X56403466Y-76162862D01*
X56807138Y-76566534D01*
X56936216Y-76620000D01*
X56807138Y-76673466D01*
X56403466Y-77077138D01*
X56185000Y-77604561D01*
X56185000Y-78175439D01*
X56403466Y-78702862D01*
X56807138Y-79106534D01*
X56936216Y-79160000D01*
X56807138Y-79213466D01*
X56403466Y-79617138D01*
X56185000Y-80144561D01*
X56185000Y-80715439D01*
X56403466Y-81242862D01*
X56807138Y-81646534D01*
X56936216Y-81700000D01*
X56807138Y-81753466D01*
X56403466Y-82157138D01*
X56185000Y-82684561D01*
X56185000Y-83255439D01*
X56403466Y-83782862D01*
X56807138Y-84186534D01*
X57334561Y-84405000D01*
X57905439Y-84405000D01*
X58432862Y-84186534D01*
X58836534Y-83782862D01*
X58842900Y-83767492D01*
X58842901Y-107696461D01*
X58822624Y-107798400D01*
X58902952Y-108202236D01*
X59009594Y-108361836D01*
X59131708Y-108544593D01*
X59218125Y-108602335D01*
X72265000Y-121649211D01*
X72265001Y-123021338D01*
X71829138Y-123457201D01*
X71565000Y-124094887D01*
X71565000Y-124785113D01*
X71829138Y-125422799D01*
X72317201Y-125910862D01*
X72954887Y-126175000D01*
X73645113Y-126175000D01*
X74197900Y-125946028D01*
X74197900Y-126085089D01*
X73475825Y-126807165D01*
X73389408Y-126864907D01*
X73331666Y-126951324D01*
X73160652Y-127207264D01*
X73080324Y-127611100D01*
X73100601Y-127713039D01*
X73100601Y-128285124D01*
X72993845Y-128027392D01*
X72252608Y-127286155D01*
X71284134Y-126885000D01*
X70235866Y-126885000D01*
X69267392Y-127286155D01*
X68526155Y-128027392D01*
X68419400Y-128285121D01*
X68419400Y-127964261D01*
X68420862Y-127962799D01*
X68685000Y-127325113D01*
X68685000Y-126634887D01*
X68420862Y-125997201D01*
X67932799Y-125509138D01*
X67295113Y-125245000D01*
X66604887Y-125245000D01*
X65967201Y-125509138D01*
X65479138Y-125997201D01*
X65215000Y-126634887D01*
X65215000Y-127325113D01*
X65479138Y-127962799D01*
X65551339Y-128035000D01*
X65384615Y-128035000D01*
X64838815Y-128261078D01*
X64421078Y-128678815D01*
X64195000Y-129224615D01*
X64195000Y-129815385D01*
X64421078Y-130361185D01*
X64838815Y-130778922D01*
X65384615Y-131005000D01*
X65975385Y-131005000D01*
X66349400Y-130850078D01*
X66349401Y-136601589D01*
X66290225Y-136660765D01*
X66203808Y-136718507D01*
X66146066Y-136804924D01*
X65975052Y-137060864D01*
X65894724Y-137464700D01*
X65915001Y-137566639D01*
X65915001Y-137664304D01*
X65902235Y-137666843D01*
X65692191Y-137807191D01*
X65551843Y-138017235D01*
X65502560Y-138265000D01*
X65502560Y-139865000D01*
X65551843Y-140112765D01*
X65692191Y-140322809D01*
X65902235Y-140463157D01*
X66150000Y-140512440D01*
X67750000Y-140512440D01*
X67997765Y-140463157D01*
X68207809Y-140322809D01*
X68348157Y-140112765D01*
X68397440Y-139865000D01*
X68397440Y-138265000D01*
X68348157Y-138017235D01*
X68207809Y-137807191D01*
X68140246Y-137762046D01*
X68359348Y-137434137D01*
X68419400Y-137132235D01*
X68419400Y-137132230D01*
X68439675Y-137030301D01*
X68419400Y-136928371D01*
X68419400Y-130754879D01*
X68526155Y-131012608D01*
X69267392Y-131753845D01*
X70235866Y-132155000D01*
X71284134Y-132155000D01*
X72252608Y-131753845D01*
X72993845Y-131012608D01*
X73100601Y-130754878D01*
X73100600Y-136928366D01*
X73080324Y-137030300D01*
X73100600Y-137132234D01*
X73160652Y-137434136D01*
X73389407Y-137776493D01*
X73475827Y-137834237D01*
X73535001Y-137893411D01*
X73535001Y-138031055D01*
X73218260Y-138505091D01*
X73106887Y-139065000D01*
X73218260Y-139624909D01*
X73535423Y-140099577D01*
X74010091Y-140416740D01*
X74428667Y-140500000D01*
X74711333Y-140500000D01*
X75129909Y-140416740D01*
X75604577Y-140099577D01*
X75921740Y-139624909D01*
X76033113Y-139065000D01*
X75921740Y-138505091D01*
X75605000Y-138031056D01*
X75605000Y-137566629D01*
X75625275Y-137464699D01*
X75605000Y-137362770D01*
X75605000Y-137362765D01*
X75544948Y-137060863D01*
X75316193Y-136718507D01*
X75229773Y-136660763D01*
X75170600Y-136601590D01*
X75170600Y-130850078D01*
X75544615Y-131005000D01*
X76135385Y-131005000D01*
X76681185Y-130778922D01*
X77098922Y-130361185D01*
X77325000Y-129815385D01*
X77325000Y-129224615D01*
X77098922Y-128678815D01*
X76681185Y-128261078D01*
X76135385Y-128035000D01*
X75544615Y-128035000D01*
X75170600Y-128189922D01*
X75170600Y-128039810D01*
X75892676Y-127317735D01*
X75979093Y-127259993D01*
X76207848Y-126917637D01*
X76267900Y-126615735D01*
X76267900Y-126615734D01*
X76288176Y-126513800D01*
X76267900Y-126411866D01*
X76267900Y-122380134D01*
X76288176Y-122278199D01*
X76207848Y-121874363D01*
X76190417Y-121848275D01*
X75979093Y-121532007D01*
X75892675Y-121474265D01*
X75605000Y-121186590D01*
X75605000Y-121048944D01*
X75921740Y-120574909D01*
X76033113Y-120015000D01*
X75921740Y-119455091D01*
X75604577Y-118980423D01*
X75170600Y-118690449D01*
X75170600Y-111800078D01*
X75544615Y-111955000D01*
X76135385Y-111955000D01*
X76681185Y-111728922D01*
X77098922Y-111311185D01*
X77325000Y-110765385D01*
X77325000Y-110174615D01*
X83245000Y-110174615D01*
X83245000Y-110765385D01*
X83471078Y-111311185D01*
X83888815Y-111728922D01*
X84434615Y-111955000D01*
X85025385Y-111955000D01*
X85399400Y-111800078D01*
X85399401Y-117551589D01*
X85340225Y-117610765D01*
X85253808Y-117668507D01*
X85196066Y-117754924D01*
X85025052Y-118010864D01*
X84944724Y-118414700D01*
X84965001Y-118516639D01*
X84965001Y-118614304D01*
X84952235Y-118616843D01*
X84742191Y-118757191D01*
X84601843Y-118967235D01*
X84552560Y-119215000D01*
X84552560Y-120815000D01*
X84601843Y-121062765D01*
X84742191Y-121272809D01*
X84952235Y-121413157D01*
X85200000Y-121462440D01*
X86800000Y-121462440D01*
X87047765Y-121413157D01*
X87257809Y-121272809D01*
X87398157Y-121062765D01*
X87447440Y-120815000D01*
X87447440Y-119215000D01*
X87398157Y-118967235D01*
X87257809Y-118757191D01*
X87190246Y-118712046D01*
X87409348Y-118384137D01*
X87469400Y-118082235D01*
X87469400Y-118082230D01*
X87489675Y-117980301D01*
X87469400Y-117878371D01*
X87469400Y-111704879D01*
X87576155Y-111962608D01*
X88317392Y-112703845D01*
X89285866Y-113105000D01*
X90334134Y-113105000D01*
X91302608Y-112703845D01*
X92043845Y-111962608D01*
X92445000Y-110994134D01*
X92445000Y-109945866D01*
X92043845Y-108977392D01*
X91302608Y-108236155D01*
X90334134Y-107835000D01*
X89285866Y-107835000D01*
X88317392Y-108236155D01*
X87576155Y-108977392D01*
X87469400Y-109235121D01*
X87469400Y-108914261D01*
X87470862Y-108912799D01*
X87735000Y-108275113D01*
X87735000Y-107584887D01*
X87470862Y-106947201D01*
X86982799Y-106459138D01*
X86345113Y-106195000D01*
X85654887Y-106195000D01*
X85017201Y-106459138D01*
X84529138Y-106947201D01*
X84265000Y-107584887D01*
X84265000Y-108275113D01*
X84529138Y-108912799D01*
X84601339Y-108985000D01*
X84434615Y-108985000D01*
X83888815Y-109211078D01*
X83471078Y-109628815D01*
X83245000Y-110174615D01*
X77325000Y-110174615D01*
X77098922Y-109628815D01*
X76681185Y-109211078D01*
X76135385Y-108985000D01*
X75544615Y-108985000D01*
X75170600Y-109139922D01*
X75170600Y-108386710D01*
X75871576Y-107685735D01*
X75957993Y-107627993D01*
X76186748Y-107285637D01*
X76246800Y-106983735D01*
X76246800Y-106983734D01*
X76267076Y-106881800D01*
X76246800Y-106779866D01*
X76246800Y-105044887D01*
X90615000Y-105044887D01*
X90615000Y-105735113D01*
X90879138Y-106372799D01*
X91367201Y-106860862D01*
X92004887Y-107125000D01*
X92695113Y-107125000D01*
X93332799Y-106860862D01*
X93820862Y-106372799D01*
X94085000Y-105735113D01*
X94085000Y-105044887D01*
X93820862Y-104407201D01*
X93332799Y-103919138D01*
X92695113Y-103655000D01*
X92004887Y-103655000D01*
X91367201Y-103919138D01*
X90879138Y-104407201D01*
X90615000Y-105044887D01*
X76246800Y-105044887D01*
X76246800Y-103309034D01*
X76267076Y-103207099D01*
X76186748Y-102803263D01*
X76144508Y-102740047D01*
X75957993Y-102460907D01*
X75871573Y-102403163D01*
X75605000Y-102136590D01*
X75605000Y-101998944D01*
X75921740Y-101524909D01*
X76033113Y-100965000D01*
X75921740Y-100405091D01*
X75605000Y-99931056D01*
X75605000Y-99466634D01*
X75625276Y-99364700D01*
X75568768Y-99080613D01*
X75544948Y-98960863D01*
X75316193Y-98618507D01*
X75229773Y-98560763D01*
X75224600Y-98555590D01*
X75224600Y-92772445D01*
X75544615Y-92905000D01*
X76135385Y-92905000D01*
X76681185Y-92678922D01*
X77098922Y-92261185D01*
X77325000Y-91715385D01*
X77325000Y-91124615D01*
X77098922Y-90578815D01*
X76681185Y-90161078D01*
X76135385Y-89935000D01*
X75544615Y-89935000D01*
X75188083Y-90082681D01*
X75164548Y-89964363D01*
X74935793Y-89622007D01*
X74849376Y-89564265D01*
X73360110Y-88075000D01*
X73645113Y-88075000D01*
X74282799Y-87810862D01*
X74718661Y-87375000D01*
X85099617Y-87375000D01*
X85017201Y-87409138D01*
X84529138Y-87897201D01*
X84265000Y-88534887D01*
X84265000Y-89225113D01*
X84529138Y-89862799D01*
X84601339Y-89935000D01*
X84434615Y-89935000D01*
X83888815Y-90161078D01*
X83471078Y-90578815D01*
X83245000Y-91124615D01*
X83245000Y-91715385D01*
X83471078Y-92261185D01*
X83888815Y-92678922D01*
X84434615Y-92905000D01*
X85025385Y-92905000D01*
X85399400Y-92750078D01*
X85399401Y-98501589D01*
X85340225Y-98560765D01*
X85253808Y-98618507D01*
X85196067Y-98704923D01*
X85196066Y-98704924D01*
X85025052Y-98960864D01*
X84944724Y-99364700D01*
X84965001Y-99466639D01*
X84965001Y-99564304D01*
X84952235Y-99566843D01*
X84742191Y-99707191D01*
X84601843Y-99917235D01*
X84552560Y-100165000D01*
X84552560Y-101765000D01*
X84601843Y-102012765D01*
X84742191Y-102222809D01*
X84952235Y-102363157D01*
X85200000Y-102412440D01*
X86800000Y-102412440D01*
X87047765Y-102363157D01*
X87257809Y-102222809D01*
X87398157Y-102012765D01*
X87447440Y-101765000D01*
X87447440Y-100165000D01*
X87398157Y-99917235D01*
X87257809Y-99707191D01*
X87190246Y-99662046D01*
X87409348Y-99334137D01*
X87469400Y-99032235D01*
X87469400Y-99032230D01*
X87489675Y-98930301D01*
X87469400Y-98828371D01*
X87469400Y-92654879D01*
X87576155Y-92912608D01*
X88317392Y-93653845D01*
X89285866Y-94055000D01*
X90334134Y-94055000D01*
X91302608Y-93653845D01*
X92043845Y-92912608D01*
X92150600Y-92654879D01*
X92150601Y-98828361D01*
X92130324Y-98930300D01*
X92210652Y-99334136D01*
X92333212Y-99517560D01*
X92439408Y-99676493D01*
X92525825Y-99734235D01*
X92585001Y-99793411D01*
X92585001Y-99931055D01*
X92268260Y-100405091D01*
X92156887Y-100965000D01*
X92268260Y-101524909D01*
X92585001Y-101998945D01*
X92585001Y-102463361D01*
X92564724Y-102565300D01*
X92645052Y-102969136D01*
X92735944Y-103105165D01*
X92873808Y-103311493D01*
X92960225Y-103369235D01*
X95508501Y-105917512D01*
X95508501Y-109118839D01*
X95185385Y-108985000D01*
X94594615Y-108985000D01*
X94048815Y-109211078D01*
X93631078Y-109628815D01*
X93405000Y-110174615D01*
X93405000Y-110765385D01*
X93631078Y-111311185D01*
X94048815Y-111728922D01*
X94594615Y-111955000D01*
X95185385Y-111955000D01*
X95508500Y-111821161D01*
X95508500Y-117462889D01*
X94256772Y-118714618D01*
X94179909Y-118663260D01*
X93761333Y-118580000D01*
X93478667Y-118580000D01*
X93060091Y-118663260D01*
X92585423Y-118980423D01*
X92268260Y-119455091D01*
X92156887Y-120015000D01*
X92268260Y-120574909D01*
X92585000Y-121048944D01*
X92585000Y-121513366D01*
X92564724Y-121615300D01*
X92645052Y-122019136D01*
X92762860Y-122195448D01*
X92873808Y-122361493D01*
X92960225Y-122419235D01*
X93236100Y-122695110D01*
X93236100Y-122929084D01*
X92695113Y-122705000D01*
X92004887Y-122705000D01*
X91367201Y-122969138D01*
X90879138Y-123457201D01*
X90615000Y-124094887D01*
X90615000Y-124785113D01*
X90879138Y-125422799D01*
X91367201Y-125910862D01*
X92004887Y-126175000D01*
X92695113Y-126175000D01*
X93035470Y-126034020D01*
X92525827Y-126543663D01*
X92439407Y-126601407D01*
X92225276Y-126921877D01*
X92210652Y-126943764D01*
X92130324Y-127347600D01*
X92150600Y-127449534D01*
X92150600Y-128285121D01*
X92043845Y-128027392D01*
X91302608Y-127286155D01*
X90334134Y-126885000D01*
X89285866Y-126885000D01*
X88317392Y-127286155D01*
X87576155Y-128027392D01*
X87469400Y-128285121D01*
X87469400Y-127964261D01*
X87470862Y-127962799D01*
X87735000Y-127325113D01*
X87735000Y-126634887D01*
X87470862Y-125997201D01*
X86982799Y-125509138D01*
X86345113Y-125245000D01*
X85654887Y-125245000D01*
X85017201Y-125509138D01*
X84529138Y-125997201D01*
X84265000Y-126634887D01*
X84265000Y-127325113D01*
X84529138Y-127962799D01*
X84601339Y-128035000D01*
X84434615Y-128035000D01*
X83888815Y-128261078D01*
X83471078Y-128678815D01*
X83245000Y-129224615D01*
X83245000Y-129815385D01*
X83471078Y-130361185D01*
X83888815Y-130778922D01*
X84434615Y-131005000D01*
X85025385Y-131005000D01*
X85399400Y-130850078D01*
X85399401Y-136601589D01*
X85340225Y-136660765D01*
X85253808Y-136718507D01*
X85196066Y-136804924D01*
X85025052Y-137060864D01*
X84944724Y-137464700D01*
X84965001Y-137566639D01*
X84965001Y-137664304D01*
X84952235Y-137666843D01*
X84742191Y-137807191D01*
X84601843Y-138017235D01*
X84552560Y-138265000D01*
X84552560Y-139865000D01*
X84601843Y-140112765D01*
X84742191Y-140322809D01*
X84952235Y-140463157D01*
X85200000Y-140512440D01*
X86800000Y-140512440D01*
X87047765Y-140463157D01*
X87257809Y-140322809D01*
X87398157Y-140112765D01*
X87447440Y-139865000D01*
X87447440Y-138265000D01*
X87398157Y-138017235D01*
X87257809Y-137807191D01*
X87190246Y-137762046D01*
X87409348Y-137434137D01*
X87469400Y-137132235D01*
X87469400Y-137132230D01*
X87489675Y-137030301D01*
X87469400Y-136928371D01*
X87469400Y-130754879D01*
X87576155Y-131012608D01*
X88317392Y-131753845D01*
X89285866Y-132155000D01*
X90334134Y-132155000D01*
X91302608Y-131753845D01*
X92043845Y-131012608D01*
X92150600Y-130754879D01*
X92150601Y-136928361D01*
X92130324Y-137030300D01*
X92210652Y-137434136D01*
X92333212Y-137617560D01*
X92439408Y-137776493D01*
X92525825Y-137834235D01*
X92585001Y-137893411D01*
X92585001Y-138031055D01*
X92268260Y-138505091D01*
X92156887Y-139065000D01*
X92268260Y-139624909D01*
X92585423Y-140099577D01*
X93060091Y-140416740D01*
X93478667Y-140500000D01*
X93761333Y-140500000D01*
X94179909Y-140416740D01*
X94654577Y-140099577D01*
X94971740Y-139624909D01*
X95083113Y-139065000D01*
X94971740Y-138505091D01*
X94655000Y-138031056D01*
X94655000Y-137566629D01*
X94675275Y-137464699D01*
X94655000Y-137362770D01*
X94655000Y-137362765D01*
X94594948Y-137060863D01*
X94366193Y-136718507D01*
X94279773Y-136660763D01*
X94220600Y-136601590D01*
X94220600Y-130850078D01*
X94594615Y-131005000D01*
X95185385Y-131005000D01*
X95731185Y-130778922D01*
X96148922Y-130361185D01*
X96375000Y-129815385D01*
X96375000Y-129224615D01*
X102295000Y-129224615D01*
X102295000Y-129815385D01*
X102521078Y-130361185D01*
X102938815Y-130778922D01*
X103484615Y-131005000D01*
X104075385Y-131005000D01*
X104449400Y-130850078D01*
X104449401Y-136601589D01*
X104390225Y-136660765D01*
X104303808Y-136718507D01*
X104246066Y-136804924D01*
X104075052Y-137060864D01*
X103994724Y-137464700D01*
X104015001Y-137566639D01*
X104015001Y-137664304D01*
X104002235Y-137666843D01*
X103792191Y-137807191D01*
X103651843Y-138017235D01*
X103602560Y-138265000D01*
X103602560Y-139865000D01*
X103651843Y-140112765D01*
X103792191Y-140322809D01*
X104002235Y-140463157D01*
X104250000Y-140512440D01*
X105850000Y-140512440D01*
X106097765Y-140463157D01*
X106307809Y-140322809D01*
X106448157Y-140112765D01*
X106497440Y-139865000D01*
X106497440Y-138265000D01*
X106448157Y-138017235D01*
X106307809Y-137807191D01*
X106240246Y-137762046D01*
X106459348Y-137434137D01*
X106519400Y-137132235D01*
X106519400Y-137132230D01*
X106539675Y-137030301D01*
X106519400Y-136928371D01*
X106519400Y-130754879D01*
X106626155Y-131012608D01*
X107367392Y-131753845D01*
X108335866Y-132155000D01*
X109384134Y-132155000D01*
X110352608Y-131753845D01*
X111093845Y-131012608D01*
X111495000Y-130044134D01*
X111495000Y-128995866D01*
X111093845Y-128027392D01*
X110352608Y-127286155D01*
X109384134Y-126885000D01*
X108335866Y-126885000D01*
X107367392Y-127286155D01*
X106626155Y-128027392D01*
X106519400Y-128285121D01*
X106519400Y-127964261D01*
X106520862Y-127962799D01*
X106785000Y-127325113D01*
X106785000Y-126634887D01*
X106520862Y-125997201D01*
X106032799Y-125509138D01*
X105395113Y-125245000D01*
X104704887Y-125245000D01*
X104067201Y-125509138D01*
X103579138Y-125997201D01*
X103315000Y-126634887D01*
X103315000Y-127325113D01*
X103579138Y-127962799D01*
X103651339Y-128035000D01*
X103484615Y-128035000D01*
X102938815Y-128261078D01*
X102521078Y-128678815D01*
X102295000Y-129224615D01*
X96375000Y-129224615D01*
X96148922Y-128678815D01*
X95731185Y-128261078D01*
X95185385Y-128035000D01*
X94594615Y-128035000D01*
X94220600Y-128189922D01*
X94220600Y-127776310D01*
X94930876Y-127066035D01*
X95017293Y-127008293D01*
X95246048Y-126665937D01*
X95306100Y-126364035D01*
X95326376Y-126262100D01*
X95306100Y-126160166D01*
X95306100Y-124094887D01*
X109665000Y-124094887D01*
X109665000Y-124785113D01*
X109929138Y-125422799D01*
X110417201Y-125910862D01*
X111054887Y-126175000D01*
X111745113Y-126175000D01*
X112382799Y-125910862D01*
X112870862Y-125422799D01*
X113135000Y-124785113D01*
X113135000Y-124094887D01*
X112870862Y-123457201D01*
X112382799Y-122969138D01*
X111745113Y-122705000D01*
X111054887Y-122705000D01*
X110417201Y-122969138D01*
X109929138Y-123457201D01*
X109665000Y-124094887D01*
X95306100Y-124094887D01*
X95306100Y-122368329D01*
X95326375Y-122266399D01*
X95306100Y-122164470D01*
X95306100Y-122164465D01*
X95246048Y-121862563D01*
X95017293Y-121520207D01*
X94930873Y-121462463D01*
X94683610Y-121215200D01*
X97203276Y-118695535D01*
X97289693Y-118637793D01*
X97518448Y-118295437D01*
X97578500Y-117993535D01*
X97578500Y-117993534D01*
X97598776Y-117891601D01*
X97578500Y-117789668D01*
X97578500Y-105590732D01*
X97598776Y-105488799D01*
X97557029Y-105278924D01*
X97518448Y-105084963D01*
X97289693Y-104742607D01*
X97203276Y-104684865D01*
X94655000Y-102136590D01*
X94655000Y-101998944D01*
X94971740Y-101524909D01*
X95083113Y-100965000D01*
X94971740Y-100405091D01*
X94655000Y-99931056D01*
X94655000Y-99466629D01*
X94675275Y-99364699D01*
X94655000Y-99262770D01*
X94655000Y-99262765D01*
X94594948Y-98960863D01*
X94366193Y-98618507D01*
X94279773Y-98560763D01*
X94220600Y-98501590D01*
X94220600Y-92750078D01*
X94594615Y-92905000D01*
X95185385Y-92905000D01*
X95731185Y-92678922D01*
X96148922Y-92261185D01*
X96375000Y-91715385D01*
X96375000Y-91124615D01*
X102295000Y-91124615D01*
X102295000Y-91715385D01*
X102521078Y-92261185D01*
X102938815Y-92678922D01*
X103484615Y-92905000D01*
X104075385Y-92905000D01*
X104449400Y-92750078D01*
X104449401Y-98501589D01*
X104390225Y-98560765D01*
X104303808Y-98618507D01*
X104246067Y-98704923D01*
X104246066Y-98704924D01*
X104075052Y-98960864D01*
X103994724Y-99364700D01*
X104015001Y-99466639D01*
X104015001Y-99564304D01*
X104002235Y-99566843D01*
X103792191Y-99707191D01*
X103651843Y-99917235D01*
X103602560Y-100165000D01*
X103602560Y-101765000D01*
X103651843Y-102012765D01*
X103792191Y-102222809D01*
X104002235Y-102363157D01*
X104250000Y-102412440D01*
X105850000Y-102412440D01*
X106097765Y-102363157D01*
X106307809Y-102222809D01*
X106448157Y-102012765D01*
X106497440Y-101765000D01*
X106497440Y-100165000D01*
X106448157Y-99917235D01*
X106307809Y-99707191D01*
X106240246Y-99662046D01*
X106459348Y-99334137D01*
X106519400Y-99032235D01*
X106519400Y-99032230D01*
X106539675Y-98930301D01*
X106519400Y-98828371D01*
X106519400Y-92654879D01*
X106626155Y-92912608D01*
X107367392Y-93653845D01*
X108335866Y-94055000D01*
X109384134Y-94055000D01*
X110352608Y-93653845D01*
X111093845Y-92912608D01*
X111248500Y-92539237D01*
X111248501Y-98876261D01*
X111228224Y-98978200D01*
X111308552Y-99382036D01*
X111405463Y-99527073D01*
X111537308Y-99724393D01*
X111623725Y-99782135D01*
X111635001Y-99793411D01*
X111635001Y-99931055D01*
X111318260Y-100405091D01*
X111206887Y-100965000D01*
X111318260Y-101524909D01*
X111635001Y-101998945D01*
X111635001Y-102463361D01*
X111614724Y-102565300D01*
X111695052Y-102969136D01*
X111785944Y-103105165D01*
X111923808Y-103311493D01*
X112010225Y-103369235D01*
X112286100Y-103645110D01*
X112286100Y-103879084D01*
X111745113Y-103655000D01*
X111054887Y-103655000D01*
X110417201Y-103919138D01*
X109929138Y-104407201D01*
X109665000Y-105044887D01*
X109665000Y-105735113D01*
X109929138Y-106372799D01*
X110417201Y-106860862D01*
X111054887Y-107125000D01*
X111745113Y-107125000D01*
X112085470Y-106984020D01*
X111575827Y-107493663D01*
X111489407Y-107551407D01*
X111324372Y-107798400D01*
X111260652Y-107893764D01*
X111180324Y-108297600D01*
X111200600Y-108399534D01*
X111200600Y-109235121D01*
X111093845Y-108977392D01*
X110352608Y-108236155D01*
X109384134Y-107835000D01*
X108335866Y-107835000D01*
X107367392Y-108236155D01*
X106626155Y-108977392D01*
X106519400Y-109235121D01*
X106519400Y-108914261D01*
X106520862Y-108912799D01*
X106785000Y-108275113D01*
X106785000Y-107584887D01*
X106520862Y-106947201D01*
X106032799Y-106459138D01*
X105395113Y-106195000D01*
X104704887Y-106195000D01*
X104067201Y-106459138D01*
X103579138Y-106947201D01*
X103315000Y-107584887D01*
X103315000Y-108275113D01*
X103579138Y-108912799D01*
X103651339Y-108985000D01*
X103484615Y-108985000D01*
X102938815Y-109211078D01*
X102521078Y-109628815D01*
X102295000Y-110174615D01*
X102295000Y-110765385D01*
X102521078Y-111311185D01*
X102938815Y-111728922D01*
X103484615Y-111955000D01*
X104075385Y-111955000D01*
X104449400Y-111800078D01*
X104449401Y-117551589D01*
X104390225Y-117610765D01*
X104303808Y-117668507D01*
X104246066Y-117754924D01*
X104075052Y-118010864D01*
X103994724Y-118414700D01*
X104015001Y-118516639D01*
X104015001Y-118614304D01*
X104002235Y-118616843D01*
X103792191Y-118757191D01*
X103651843Y-118967235D01*
X103602560Y-119215000D01*
X103602560Y-120815000D01*
X103651843Y-121062765D01*
X103792191Y-121272809D01*
X104002235Y-121413157D01*
X104250000Y-121462440D01*
X105850000Y-121462440D01*
X106097765Y-121413157D01*
X106307809Y-121272809D01*
X106448157Y-121062765D01*
X106497440Y-120815000D01*
X106497440Y-119215000D01*
X106448157Y-118967235D01*
X106307809Y-118757191D01*
X106240246Y-118712046D01*
X106459348Y-118384137D01*
X106519400Y-118082235D01*
X106519400Y-118082230D01*
X106539675Y-117980301D01*
X106519400Y-117878371D01*
X106519400Y-111704879D01*
X106626155Y-111962608D01*
X107367392Y-112703845D01*
X108335866Y-113105000D01*
X109384134Y-113105000D01*
X110352608Y-112703845D01*
X111093845Y-111962608D01*
X111200600Y-111704879D01*
X111200601Y-117878361D01*
X111180324Y-117980300D01*
X111260652Y-118384136D01*
X111372399Y-118551377D01*
X111489408Y-118726493D01*
X111575825Y-118784235D01*
X111635001Y-118843411D01*
X111635001Y-118981055D01*
X111318260Y-119455091D01*
X111206887Y-120015000D01*
X111318260Y-120574909D01*
X111635001Y-121048945D01*
X111635001Y-121513361D01*
X111614724Y-121615300D01*
X111695052Y-122019136D01*
X111812860Y-122195448D01*
X111923808Y-122361493D01*
X112010225Y-122419235D01*
X114558500Y-124967511D01*
X114558500Y-128168839D01*
X114235385Y-128035000D01*
X113644615Y-128035000D01*
X113098815Y-128261078D01*
X112681078Y-128678815D01*
X112455000Y-129224615D01*
X112455000Y-129815385D01*
X112681078Y-130361185D01*
X113098815Y-130778922D01*
X113644615Y-131005000D01*
X114235385Y-131005000D01*
X114558501Y-130871161D01*
X114558501Y-134112488D01*
X112010225Y-136660765D01*
X111923808Y-136718507D01*
X111866066Y-136804924D01*
X111695052Y-137060864D01*
X111614724Y-137464700D01*
X111635001Y-137566639D01*
X111635001Y-138031055D01*
X111318260Y-138505091D01*
X111206887Y-139065000D01*
X111318260Y-139624909D01*
X111635423Y-140099577D01*
X112110091Y-140416740D01*
X112528667Y-140500000D01*
X112811333Y-140500000D01*
X113229909Y-140416740D01*
X113704577Y-140099577D01*
X114021740Y-139624909D01*
X114133113Y-139065000D01*
X114021740Y-138505091D01*
X113705000Y-138031056D01*
X113705000Y-137893410D01*
X116253276Y-135345135D01*
X116339693Y-135287393D01*
X116568448Y-134945037D01*
X116628500Y-134643135D01*
X116628500Y-134643134D01*
X116648776Y-134541201D01*
X116628500Y-134439268D01*
X116628500Y-129224615D01*
X121345000Y-129224615D01*
X121345000Y-129815385D01*
X121571078Y-130361185D01*
X121988815Y-130778922D01*
X122534615Y-131005000D01*
X123125385Y-131005000D01*
X123499400Y-130850078D01*
X123499401Y-136601589D01*
X123440225Y-136660765D01*
X123353808Y-136718507D01*
X123296066Y-136804924D01*
X123125052Y-137060864D01*
X123044724Y-137464700D01*
X123065001Y-137566639D01*
X123065001Y-137664304D01*
X123052235Y-137666843D01*
X122842191Y-137807191D01*
X122701843Y-138017235D01*
X122652560Y-138265000D01*
X122652560Y-139865000D01*
X122701843Y-140112765D01*
X122842191Y-140322809D01*
X123052235Y-140463157D01*
X123300000Y-140512440D01*
X124900000Y-140512440D01*
X125147765Y-140463157D01*
X125357809Y-140322809D01*
X125498157Y-140112765D01*
X125547440Y-139865000D01*
X125547440Y-138265000D01*
X125498157Y-138017235D01*
X125357809Y-137807191D01*
X125290246Y-137762046D01*
X125509348Y-137434137D01*
X125569400Y-137132235D01*
X125569400Y-137132230D01*
X125589675Y-137030301D01*
X125569400Y-136928371D01*
X125569400Y-130754879D01*
X125676155Y-131012608D01*
X126417392Y-131753845D01*
X127385866Y-132155000D01*
X128434134Y-132155000D01*
X129402608Y-131753845D01*
X130143845Y-131012608D01*
X130545000Y-130044134D01*
X130545000Y-128995866D01*
X130143845Y-128027392D01*
X129402608Y-127286155D01*
X128434134Y-126885000D01*
X127385866Y-126885000D01*
X126417392Y-127286155D01*
X125676155Y-128027392D01*
X125569400Y-128285121D01*
X125569400Y-127964261D01*
X125570862Y-127962799D01*
X125835000Y-127325113D01*
X125835000Y-126634887D01*
X125570862Y-125997201D01*
X125082799Y-125509138D01*
X124445113Y-125245000D01*
X123754887Y-125245000D01*
X123117201Y-125509138D01*
X122629138Y-125997201D01*
X122365000Y-126634887D01*
X122365000Y-127325113D01*
X122629138Y-127962799D01*
X122701339Y-128035000D01*
X122534615Y-128035000D01*
X121988815Y-128261078D01*
X121571078Y-128678815D01*
X121345000Y-129224615D01*
X116628500Y-129224615D01*
X116628500Y-124640732D01*
X116648776Y-124538799D01*
X116628500Y-124436865D01*
X116568448Y-124134963D01*
X116541671Y-124094887D01*
X128715000Y-124094887D01*
X128715000Y-124785113D01*
X128979138Y-125422799D01*
X129467201Y-125910862D01*
X130104887Y-126175000D01*
X130795113Y-126175000D01*
X131432799Y-125910862D01*
X131920862Y-125422799D01*
X132185000Y-124785113D01*
X132185000Y-124094887D01*
X131920862Y-123457201D01*
X131432799Y-122969138D01*
X130795113Y-122705000D01*
X130104887Y-122705000D01*
X129467201Y-122969138D01*
X128979138Y-123457201D01*
X128715000Y-124094887D01*
X116541671Y-124094887D01*
X116339693Y-123792607D01*
X116253276Y-123734865D01*
X113705000Y-121186590D01*
X113705000Y-121048944D01*
X114021740Y-120574909D01*
X114133113Y-120015000D01*
X114021740Y-119455091D01*
X113705000Y-118981056D01*
X113705000Y-118516629D01*
X113725275Y-118414699D01*
X113705000Y-118312770D01*
X113705000Y-118312765D01*
X113644948Y-118010863D01*
X113416193Y-117668507D01*
X113329773Y-117610763D01*
X113270600Y-117551590D01*
X113270600Y-111800078D01*
X113644615Y-111955000D01*
X114235385Y-111955000D01*
X114781185Y-111728922D01*
X115198922Y-111311185D01*
X115425000Y-110765385D01*
X115425000Y-110174615D01*
X115198922Y-109628815D01*
X114781185Y-109211078D01*
X114235385Y-108985000D01*
X113644615Y-108985000D01*
X113270600Y-109139922D01*
X113270600Y-108726310D01*
X113980876Y-108016035D01*
X114067293Y-107958293D01*
X114296048Y-107615937D01*
X114356100Y-107314035D01*
X114376376Y-107212100D01*
X114356100Y-107110166D01*
X114356100Y-103318329D01*
X114376375Y-103216399D01*
X114356100Y-103114470D01*
X114356100Y-103114465D01*
X114296048Y-102812563D01*
X114067293Y-102470207D01*
X113980873Y-102412463D01*
X113705000Y-102136590D01*
X113705000Y-101998944D01*
X114021740Y-101524909D01*
X114133113Y-100965000D01*
X114021740Y-100405091D01*
X113705000Y-99931056D01*
X113705000Y-99466634D01*
X113725276Y-99364700D01*
X113668768Y-99080613D01*
X113644948Y-98960863D01*
X113416193Y-98618507D01*
X113329773Y-98560763D01*
X113318500Y-98549490D01*
X113318500Y-92769919D01*
X113644615Y-92905000D01*
X114235385Y-92905000D01*
X114781185Y-92678922D01*
X115198922Y-92261185D01*
X115425000Y-91715385D01*
X115425000Y-91124615D01*
X121345000Y-91124615D01*
X121345000Y-91715385D01*
X121571078Y-92261185D01*
X121988815Y-92678922D01*
X122534615Y-92905000D01*
X123125385Y-92905000D01*
X123499400Y-92750078D01*
X123499401Y-98501589D01*
X123440225Y-98560765D01*
X123353808Y-98618507D01*
X123296067Y-98704923D01*
X123296066Y-98704924D01*
X123125052Y-98960864D01*
X123044724Y-99364700D01*
X123065001Y-99466639D01*
X123065001Y-99564304D01*
X123052235Y-99566843D01*
X122842191Y-99707191D01*
X122701843Y-99917235D01*
X122652560Y-100165000D01*
X122652560Y-101765000D01*
X122701843Y-102012765D01*
X122842191Y-102222809D01*
X123052235Y-102363157D01*
X123300000Y-102412440D01*
X124900000Y-102412440D01*
X125147765Y-102363157D01*
X125357809Y-102222809D01*
X125498157Y-102012765D01*
X125547440Y-101765000D01*
X125547440Y-100165000D01*
X125498157Y-99917235D01*
X125357809Y-99707191D01*
X125290246Y-99662046D01*
X125509348Y-99334137D01*
X125569400Y-99032235D01*
X125569400Y-99032230D01*
X125589675Y-98930301D01*
X125569400Y-98828371D01*
X125569400Y-92654879D01*
X125676155Y-92912608D01*
X126417392Y-93653845D01*
X127385866Y-94055000D01*
X128434134Y-94055000D01*
X129402608Y-93653845D01*
X130143845Y-92912608D01*
X130250601Y-92654878D01*
X130250600Y-101228766D01*
X130230324Y-101330700D01*
X130250600Y-101432634D01*
X130310652Y-101734536D01*
X130539407Y-102076893D01*
X130625827Y-102134637D01*
X130685000Y-102193810D01*
X130685000Y-102463366D01*
X130664724Y-102565300D01*
X130745052Y-102969136D01*
X130835944Y-103105165D01*
X130973808Y-103311493D01*
X131060225Y-103369235D01*
X131319700Y-103628710D01*
X131319700Y-103872291D01*
X130795113Y-103655000D01*
X130104887Y-103655000D01*
X129467201Y-103919138D01*
X128979138Y-104407201D01*
X128715000Y-105044887D01*
X128715000Y-105735113D01*
X128979138Y-106372799D01*
X129467201Y-106860862D01*
X130104887Y-107125000D01*
X130285681Y-107125000D01*
X130230324Y-107403300D01*
X130250600Y-107505234D01*
X130250600Y-109235121D01*
X130143845Y-108977392D01*
X129402608Y-108236155D01*
X128434134Y-107835000D01*
X127385866Y-107835000D01*
X126417392Y-108236155D01*
X125676155Y-108977392D01*
X125569400Y-109235121D01*
X125569400Y-108914261D01*
X125570862Y-108912799D01*
X125835000Y-108275113D01*
X125835000Y-107584887D01*
X125570862Y-106947201D01*
X125082799Y-106459138D01*
X124445113Y-106195000D01*
X123754887Y-106195000D01*
X123117201Y-106459138D01*
X122629138Y-106947201D01*
X122365000Y-107584887D01*
X122365000Y-108275113D01*
X122629138Y-108912799D01*
X122701339Y-108985000D01*
X122534615Y-108985000D01*
X121988815Y-109211078D01*
X121571078Y-109628815D01*
X121345000Y-110174615D01*
X121345000Y-110765385D01*
X121571078Y-111311185D01*
X121988815Y-111728922D01*
X122534615Y-111955000D01*
X123125385Y-111955000D01*
X123499400Y-111800078D01*
X123499401Y-117551589D01*
X123440225Y-117610765D01*
X123353808Y-117668507D01*
X123296066Y-117754924D01*
X123125052Y-118010864D01*
X123044724Y-118414700D01*
X123065001Y-118516639D01*
X123065001Y-118614304D01*
X123052235Y-118616843D01*
X122842191Y-118757191D01*
X122701843Y-118967235D01*
X122652560Y-119215000D01*
X122652560Y-120815000D01*
X122701843Y-121062765D01*
X122842191Y-121272809D01*
X123052235Y-121413157D01*
X123300000Y-121462440D01*
X124900000Y-121462440D01*
X125147765Y-121413157D01*
X125357809Y-121272809D01*
X125498157Y-121062765D01*
X125547440Y-120815000D01*
X125547440Y-119215000D01*
X125498157Y-118967235D01*
X125357809Y-118757191D01*
X125290246Y-118712046D01*
X125509348Y-118384137D01*
X125569400Y-118082235D01*
X125569400Y-118082230D01*
X125589675Y-117980301D01*
X125569400Y-117878371D01*
X125569400Y-111704879D01*
X125676155Y-111962608D01*
X126417392Y-112703845D01*
X127385866Y-113105000D01*
X128434134Y-113105000D01*
X129402608Y-112703845D01*
X130143845Y-111962608D01*
X130250600Y-111704879D01*
X130250601Y-117878361D01*
X130230324Y-117980300D01*
X130310652Y-118384136D01*
X130422399Y-118551377D01*
X130539408Y-118726493D01*
X130625825Y-118784235D01*
X130685001Y-118843411D01*
X130685001Y-118981055D01*
X130368260Y-119455091D01*
X130256887Y-120015000D01*
X130368260Y-120574909D01*
X130685001Y-121048945D01*
X130685001Y-121513361D01*
X130664724Y-121615300D01*
X130745052Y-122019136D01*
X130862860Y-122195448D01*
X130973808Y-122361493D01*
X131060225Y-122419235D01*
X133638901Y-124997912D01*
X133638901Y-128181431D01*
X133285385Y-128035000D01*
X132694615Y-128035000D01*
X132148815Y-128261078D01*
X131731078Y-128678815D01*
X131505000Y-129224615D01*
X131505000Y-129815385D01*
X131731078Y-130361185D01*
X132148815Y-130778922D01*
X132694615Y-131005000D01*
X133285385Y-131005000D01*
X133638900Y-130858569D01*
X133638900Y-134082089D01*
X131060225Y-136660765D01*
X130973808Y-136718507D01*
X130916066Y-136804924D01*
X130745052Y-137060864D01*
X130664724Y-137464700D01*
X130685001Y-137566639D01*
X130685001Y-138031055D01*
X130368260Y-138505091D01*
X130256887Y-139065000D01*
X130368260Y-139624909D01*
X130685423Y-140099577D01*
X131160091Y-140416740D01*
X131578667Y-140500000D01*
X131861333Y-140500000D01*
X132279909Y-140416740D01*
X132754577Y-140099577D01*
X133071740Y-139624909D01*
X133183113Y-139065000D01*
X133071740Y-138505091D01*
X132755000Y-138031056D01*
X132755000Y-137893410D01*
X135333676Y-135314735D01*
X135420093Y-135256993D01*
X135648848Y-134914637D01*
X135708900Y-134612735D01*
X135708900Y-134612730D01*
X135729175Y-134510801D01*
X135708900Y-134408871D01*
X135708900Y-124671129D01*
X135729175Y-124569199D01*
X135708900Y-124467270D01*
X135708900Y-124467265D01*
X135648848Y-124165363D01*
X135420093Y-123823007D01*
X135333676Y-123765265D01*
X132755000Y-121186590D01*
X132755000Y-121048944D01*
X133071740Y-120574909D01*
X133183113Y-120015000D01*
X133071740Y-119455091D01*
X132755000Y-118981056D01*
X132755000Y-118516629D01*
X132775275Y-118414699D01*
X132755000Y-118312770D01*
X132755000Y-118312765D01*
X132694948Y-118010863D01*
X132466193Y-117668507D01*
X132379773Y-117610763D01*
X132320600Y-117551590D01*
X132320600Y-111800078D01*
X132694615Y-111955000D01*
X133285385Y-111955000D01*
X133831185Y-111728922D01*
X134248922Y-111311185D01*
X134475000Y-110765385D01*
X134475000Y-110174615D01*
X134248922Y-109628815D01*
X133831185Y-109211078D01*
X133285385Y-108985000D01*
X132694615Y-108985000D01*
X132320600Y-109139922D01*
X132320600Y-107832010D01*
X133014476Y-107138135D01*
X133100893Y-107080393D01*
X133329648Y-106738037D01*
X133389700Y-106436135D01*
X133409976Y-106334200D01*
X133389700Y-106232266D01*
X133389700Y-103301932D01*
X133409976Y-103199999D01*
X133365108Y-102974434D01*
X133329648Y-102796163D01*
X133100893Y-102453807D01*
X133014473Y-102396063D01*
X132755000Y-102136590D01*
X132755000Y-101998944D01*
X133071740Y-101524909D01*
X133183113Y-100965000D01*
X133071740Y-100405091D01*
X132754577Y-99930423D01*
X132320600Y-99640449D01*
X132320600Y-92750078D01*
X132694615Y-92905000D01*
X133285385Y-92905000D01*
X133831185Y-92678922D01*
X134248922Y-92261185D01*
X134475000Y-91715385D01*
X134475000Y-91124615D01*
X134248922Y-90578815D01*
X133831185Y-90161078D01*
X133285385Y-89935000D01*
X132694615Y-89935000D01*
X132320600Y-90089922D01*
X132320600Y-89939810D01*
X133028876Y-89231535D01*
X133115293Y-89173793D01*
X133344048Y-88831437D01*
X133404100Y-88529535D01*
X133404100Y-88529530D01*
X133424375Y-88427601D01*
X133404100Y-88325671D01*
X133404100Y-84266334D01*
X133424376Y-84164399D01*
X133344048Y-83760563D01*
X133248279Y-83617235D01*
X133115293Y-83418207D01*
X133028873Y-83360463D01*
X132755000Y-83086590D01*
X132755000Y-82948944D01*
X133071740Y-82474909D01*
X133183113Y-81915000D01*
X133071740Y-81355091D01*
X132754577Y-80880423D01*
X132279909Y-80563260D01*
X131861333Y-80480000D01*
X131578667Y-80480000D01*
X131160091Y-80563260D01*
X130685423Y-80880423D01*
X130368260Y-81355091D01*
X130256887Y-81915000D01*
X130368260Y-82474909D01*
X130685001Y-82948945D01*
X130685001Y-83413361D01*
X130664724Y-83515300D01*
X130745052Y-83919136D01*
X130745053Y-83919137D01*
X130973808Y-84261493D01*
X131060225Y-84319235D01*
X131334101Y-84593111D01*
X131334101Y-84828256D01*
X130795113Y-84605000D01*
X130104887Y-84605000D01*
X129467201Y-84869138D01*
X128979138Y-85357201D01*
X128715000Y-85994887D01*
X128715000Y-86685113D01*
X128979138Y-87322799D01*
X129467201Y-87810862D01*
X130104887Y-88075000D01*
X130795113Y-88075000D01*
X131334100Y-87851744D01*
X131334100Y-87998889D01*
X130625825Y-88707165D01*
X130539408Y-88764907D01*
X130481666Y-88851324D01*
X130310652Y-89107264D01*
X130230324Y-89511100D01*
X130250601Y-89613039D01*
X130250601Y-90185124D01*
X130143845Y-89927392D01*
X129402608Y-89186155D01*
X128434134Y-88785000D01*
X127385866Y-88785000D01*
X126417392Y-89186155D01*
X125676155Y-89927392D01*
X125569400Y-90185121D01*
X125569400Y-89864261D01*
X125570862Y-89862799D01*
X125835000Y-89225113D01*
X125835000Y-88534887D01*
X125570862Y-87897201D01*
X125082799Y-87409138D01*
X124445113Y-87145000D01*
X123754887Y-87145000D01*
X123117201Y-87409138D01*
X122629138Y-87897201D01*
X122365000Y-88534887D01*
X122365000Y-89225113D01*
X122629138Y-89862799D01*
X122701339Y-89935000D01*
X122534615Y-89935000D01*
X121988815Y-90161078D01*
X121571078Y-90578815D01*
X121345000Y-91124615D01*
X115425000Y-91124615D01*
X115198922Y-90578815D01*
X114781185Y-90161078D01*
X114235385Y-89935000D01*
X113644615Y-89935000D01*
X113318500Y-90070081D01*
X113318500Y-89852110D01*
X113972676Y-89197935D01*
X114059093Y-89140193D01*
X114287848Y-88797837D01*
X114347900Y-88495935D01*
X114347900Y-88495930D01*
X114368175Y-88394001D01*
X114347900Y-88292071D01*
X114347900Y-84260134D01*
X114368176Y-84158200D01*
X114287848Y-83754363D01*
X114210297Y-83638300D01*
X114059093Y-83412007D01*
X113972673Y-83354263D01*
X113705000Y-83086590D01*
X113705000Y-82948944D01*
X114021740Y-82474909D01*
X114133113Y-81915000D01*
X114021740Y-81355091D01*
X113704577Y-80880423D01*
X113229909Y-80563260D01*
X112811333Y-80480000D01*
X112528667Y-80480000D01*
X112110091Y-80563260D01*
X111635423Y-80880423D01*
X111318260Y-81355091D01*
X111206887Y-81915000D01*
X111318260Y-82474909D01*
X111635001Y-82948945D01*
X111635001Y-83413361D01*
X111614724Y-83515300D01*
X111695052Y-83919136D01*
X111695053Y-83919137D01*
X111923808Y-84261493D01*
X112010225Y-84319235D01*
X112277900Y-84586910D01*
X112277900Y-84825688D01*
X111745113Y-84605000D01*
X111054887Y-84605000D01*
X110417201Y-84869138D01*
X109929138Y-85357201D01*
X109665000Y-85994887D01*
X109665000Y-86685113D01*
X109929138Y-87322799D01*
X110417201Y-87810862D01*
X111054887Y-88075000D01*
X111745113Y-88075000D01*
X112277901Y-87854312D01*
X112277901Y-87965288D01*
X111623727Y-88619463D01*
X111537307Y-88677207D01*
X111346179Y-88963251D01*
X111308552Y-89019564D01*
X111228224Y-89423400D01*
X111248500Y-89525334D01*
X111248500Y-90300763D01*
X111093845Y-89927392D01*
X110352608Y-89186155D01*
X109384134Y-88785000D01*
X108335866Y-88785000D01*
X107367392Y-89186155D01*
X106626155Y-89927392D01*
X106519400Y-90185121D01*
X106519400Y-89864261D01*
X106520862Y-89862799D01*
X106785000Y-89225113D01*
X106785000Y-88534887D01*
X106520862Y-87897201D01*
X106032799Y-87409138D01*
X105395113Y-87145000D01*
X104704887Y-87145000D01*
X104067201Y-87409138D01*
X103579138Y-87897201D01*
X103315000Y-88534887D01*
X103315000Y-89225113D01*
X103579138Y-89862799D01*
X103651339Y-89935000D01*
X103484615Y-89935000D01*
X102938815Y-90161078D01*
X102521078Y-90578815D01*
X102295000Y-91124615D01*
X96375000Y-91124615D01*
X96148922Y-90578815D01*
X95731185Y-90161078D01*
X95185385Y-89935000D01*
X94594615Y-89935000D01*
X94220600Y-90089922D01*
X94220600Y-89676310D01*
X94930876Y-88966035D01*
X95017293Y-88908293D01*
X95246048Y-88565937D01*
X95306100Y-88264035D01*
X95326376Y-88162100D01*
X95306100Y-88060166D01*
X95306100Y-84268329D01*
X95326375Y-84166399D01*
X95306100Y-84064470D01*
X95306100Y-84064465D01*
X95246048Y-83762563D01*
X95017293Y-83420207D01*
X94930873Y-83362463D01*
X94655000Y-83086590D01*
X94655000Y-82948944D01*
X94971740Y-82474909D01*
X95083113Y-81915000D01*
X94971740Y-81355091D01*
X94654577Y-80880423D01*
X94179909Y-80563260D01*
X93761333Y-80480000D01*
X93478667Y-80480000D01*
X93060091Y-80563260D01*
X92585423Y-80880423D01*
X92268260Y-81355091D01*
X92156887Y-81915000D01*
X92268260Y-82474909D01*
X92585001Y-82948945D01*
X92585001Y-83413361D01*
X92564724Y-83515300D01*
X92645052Y-83919136D01*
X92645053Y-83919137D01*
X92873808Y-84261493D01*
X92960225Y-84319235D01*
X93236100Y-84595110D01*
X93236100Y-84829084D01*
X92695113Y-84605000D01*
X92004887Y-84605000D01*
X91367201Y-84869138D01*
X90931339Y-85305000D01*
X74718661Y-85305000D01*
X74335000Y-84921339D01*
X74335000Y-83331368D01*
X74428667Y-83350000D01*
X74711333Y-83350000D01*
X75129909Y-83266740D01*
X75604577Y-82949577D01*
X75921740Y-82474909D01*
X76033113Y-81915000D01*
X75921740Y-81355091D01*
X75604577Y-80880423D01*
X75129909Y-80563260D01*
X74711333Y-80480000D01*
X74428667Y-80480000D01*
X74010091Y-80563260D01*
X73535423Y-80880423D01*
X73218260Y-81355091D01*
X73170634Y-81594523D01*
X65431110Y-73855000D01*
X65975385Y-73855000D01*
X66521185Y-73628922D01*
X66938922Y-73211185D01*
X67165000Y-72665385D01*
X67165000Y-72074615D01*
X67070249Y-71845866D01*
X68125000Y-71845866D01*
X68125000Y-72894134D01*
X68526155Y-73862608D01*
X69267392Y-74603845D01*
X70235866Y-75005000D01*
X71284134Y-75005000D01*
X72252608Y-74603845D01*
X72993845Y-73862608D01*
X73395000Y-72894134D01*
X73395000Y-72074615D01*
X74355000Y-72074615D01*
X74355000Y-72665385D01*
X74581078Y-73211185D01*
X74998815Y-73628922D01*
X75544615Y-73855000D01*
X76135385Y-73855000D01*
X76681185Y-73628922D01*
X77098922Y-73211185D01*
X77325000Y-72665385D01*
X77325000Y-72074615D01*
X83245000Y-72074615D01*
X83245000Y-72665385D01*
X83471078Y-73211185D01*
X83888815Y-73628922D01*
X84434615Y-73855000D01*
X85025385Y-73855000D01*
X85399400Y-73700078D01*
X85399401Y-79451589D01*
X85340225Y-79510765D01*
X85253808Y-79568507D01*
X85196066Y-79654924D01*
X85025052Y-79910864D01*
X84944724Y-80314700D01*
X84965001Y-80416639D01*
X84965001Y-80514304D01*
X84952235Y-80516843D01*
X84742191Y-80657191D01*
X84601843Y-80867235D01*
X84552560Y-81115000D01*
X84552560Y-82715000D01*
X84601843Y-82962765D01*
X84742191Y-83172809D01*
X84952235Y-83313157D01*
X85200000Y-83362440D01*
X86800000Y-83362440D01*
X87047765Y-83313157D01*
X87257809Y-83172809D01*
X87398157Y-82962765D01*
X87447440Y-82715000D01*
X87447440Y-81115000D01*
X87398157Y-80867235D01*
X87257809Y-80657191D01*
X87190246Y-80612046D01*
X87409348Y-80284137D01*
X87469400Y-79982235D01*
X87469400Y-79982230D01*
X87489675Y-79880301D01*
X87469400Y-79778371D01*
X87469400Y-73604879D01*
X87576155Y-73862608D01*
X88317392Y-74603845D01*
X89285866Y-75005000D01*
X90334134Y-75005000D01*
X91302608Y-74603845D01*
X92043845Y-73862608D01*
X92445000Y-72894134D01*
X92445000Y-72074615D01*
X93405000Y-72074615D01*
X93405000Y-72665385D01*
X93631078Y-73211185D01*
X94048815Y-73628922D01*
X94594615Y-73855000D01*
X95185385Y-73855000D01*
X95731185Y-73628922D01*
X96148922Y-73211185D01*
X96375000Y-72665385D01*
X96375000Y-72074615D01*
X102295000Y-72074615D01*
X102295000Y-72665385D01*
X102521078Y-73211185D01*
X102938815Y-73628922D01*
X103484615Y-73855000D01*
X104075385Y-73855000D01*
X104449400Y-73700078D01*
X104449401Y-79451589D01*
X104390225Y-79510765D01*
X104303808Y-79568507D01*
X104246066Y-79654924D01*
X104075052Y-79910864D01*
X103994724Y-80314700D01*
X104015001Y-80416639D01*
X104015001Y-80514304D01*
X104002235Y-80516843D01*
X103792191Y-80657191D01*
X103651843Y-80867235D01*
X103602560Y-81115000D01*
X103602560Y-82715000D01*
X103651843Y-82962765D01*
X103792191Y-83172809D01*
X104002235Y-83313157D01*
X104250000Y-83362440D01*
X105850000Y-83362440D01*
X106097765Y-83313157D01*
X106307809Y-83172809D01*
X106448157Y-82962765D01*
X106497440Y-82715000D01*
X106497440Y-81115000D01*
X106448157Y-80867235D01*
X106307809Y-80657191D01*
X106240246Y-80612046D01*
X106459348Y-80284137D01*
X106519400Y-79982235D01*
X106519400Y-79982230D01*
X106539675Y-79880301D01*
X106519400Y-79778371D01*
X106519400Y-73604879D01*
X106626155Y-73862608D01*
X107367392Y-74603845D01*
X108335866Y-75005000D01*
X109384134Y-75005000D01*
X110352608Y-74603845D01*
X111093845Y-73862608D01*
X111495000Y-72894134D01*
X111495000Y-72074615D01*
X112455000Y-72074615D01*
X112455000Y-72665385D01*
X112681078Y-73211185D01*
X113098815Y-73628922D01*
X113644615Y-73855000D01*
X114235385Y-73855000D01*
X114781185Y-73628922D01*
X115198922Y-73211185D01*
X115425000Y-72665385D01*
X115425000Y-72074615D01*
X121345000Y-72074615D01*
X121345000Y-72665385D01*
X121571078Y-73211185D01*
X121988815Y-73628922D01*
X122534615Y-73855000D01*
X123125385Y-73855000D01*
X123499400Y-73700078D01*
X123499401Y-79451589D01*
X123440225Y-79510765D01*
X123353808Y-79568507D01*
X123296066Y-79654924D01*
X123125052Y-79910864D01*
X123044724Y-80314700D01*
X123065001Y-80416639D01*
X123065001Y-80514304D01*
X123052235Y-80516843D01*
X122842191Y-80657191D01*
X122701843Y-80867235D01*
X122652560Y-81115000D01*
X122652560Y-82715000D01*
X122701843Y-82962765D01*
X122842191Y-83172809D01*
X123052235Y-83313157D01*
X123300000Y-83362440D01*
X124900000Y-83362440D01*
X125147765Y-83313157D01*
X125357809Y-83172809D01*
X125498157Y-82962765D01*
X125547440Y-82715000D01*
X125547440Y-81115000D01*
X125498157Y-80867235D01*
X125357809Y-80657191D01*
X125290246Y-80612046D01*
X125509348Y-80284137D01*
X125569400Y-79982235D01*
X125569400Y-79982230D01*
X125589675Y-79880301D01*
X125569400Y-79778371D01*
X125569400Y-73604879D01*
X125676155Y-73862608D01*
X126417392Y-74603845D01*
X127385866Y-75005000D01*
X128434134Y-75005000D01*
X129402608Y-74603845D01*
X130143845Y-73862608D01*
X130545000Y-72894134D01*
X130545000Y-72074615D01*
X131505000Y-72074615D01*
X131505000Y-72665385D01*
X131731078Y-73211185D01*
X132148815Y-73628922D01*
X132694615Y-73855000D01*
X133285385Y-73855000D01*
X133831185Y-73628922D01*
X134248922Y-73211185D01*
X134475000Y-72665385D01*
X134475000Y-72074615D01*
X134248922Y-71528815D01*
X133831185Y-71111078D01*
X133285385Y-70885000D01*
X132694615Y-70885000D01*
X132148815Y-71111078D01*
X131731078Y-71528815D01*
X131505000Y-72074615D01*
X130545000Y-72074615D01*
X130545000Y-71845866D01*
X130143845Y-70877392D01*
X129402608Y-70136155D01*
X128434134Y-69735000D01*
X127385866Y-69735000D01*
X126417392Y-70136155D01*
X125676155Y-70877392D01*
X125569400Y-71135121D01*
X125569400Y-70814261D01*
X125570862Y-70812799D01*
X125835000Y-70175113D01*
X125835000Y-69484887D01*
X125570862Y-68847201D01*
X125082799Y-68359138D01*
X124445113Y-68095000D01*
X123754887Y-68095000D01*
X123117201Y-68359138D01*
X122629138Y-68847201D01*
X122365000Y-69484887D01*
X122365000Y-70175113D01*
X122629138Y-70812799D01*
X122701339Y-70885000D01*
X122534615Y-70885000D01*
X121988815Y-71111078D01*
X121571078Y-71528815D01*
X121345000Y-72074615D01*
X115425000Y-72074615D01*
X115198922Y-71528815D01*
X114781185Y-71111078D01*
X114235385Y-70885000D01*
X113644615Y-70885000D01*
X113098815Y-71111078D01*
X112681078Y-71528815D01*
X112455000Y-72074615D01*
X111495000Y-72074615D01*
X111495000Y-71845866D01*
X111093845Y-70877392D01*
X110352608Y-70136155D01*
X109384134Y-69735000D01*
X108335866Y-69735000D01*
X107367392Y-70136155D01*
X106626155Y-70877392D01*
X106519400Y-71135121D01*
X106519400Y-70814261D01*
X106520862Y-70812799D01*
X106785000Y-70175113D01*
X106785000Y-69484887D01*
X106520862Y-68847201D01*
X106032799Y-68359138D01*
X105395113Y-68095000D01*
X104704887Y-68095000D01*
X104067201Y-68359138D01*
X103579138Y-68847201D01*
X103315000Y-69484887D01*
X103315000Y-70175113D01*
X103579138Y-70812799D01*
X103651339Y-70885000D01*
X103484615Y-70885000D01*
X102938815Y-71111078D01*
X102521078Y-71528815D01*
X102295000Y-72074615D01*
X96375000Y-72074615D01*
X96148922Y-71528815D01*
X95731185Y-71111078D01*
X95185385Y-70885000D01*
X94594615Y-70885000D01*
X94048815Y-71111078D01*
X93631078Y-71528815D01*
X93405000Y-72074615D01*
X92445000Y-72074615D01*
X92445000Y-71845866D01*
X92043845Y-70877392D01*
X91302608Y-70136155D01*
X90334134Y-69735000D01*
X89285866Y-69735000D01*
X88317392Y-70136155D01*
X87576155Y-70877392D01*
X87469400Y-71135121D01*
X87469400Y-70814261D01*
X87470862Y-70812799D01*
X87735000Y-70175113D01*
X87735000Y-69484887D01*
X87470862Y-68847201D01*
X86982799Y-68359138D01*
X86345113Y-68095000D01*
X85654887Y-68095000D01*
X85017201Y-68359138D01*
X84529138Y-68847201D01*
X84265000Y-69484887D01*
X84265000Y-70175113D01*
X84529138Y-70812799D01*
X84601339Y-70885000D01*
X84434615Y-70885000D01*
X83888815Y-71111078D01*
X83471078Y-71528815D01*
X83245000Y-72074615D01*
X77325000Y-72074615D01*
X77098922Y-71528815D01*
X76681185Y-71111078D01*
X76135385Y-70885000D01*
X75544615Y-70885000D01*
X74998815Y-71111078D01*
X74581078Y-71528815D01*
X74355000Y-72074615D01*
X73395000Y-72074615D01*
X73395000Y-71845866D01*
X72993845Y-70877392D01*
X72252608Y-70136155D01*
X71284134Y-69735000D01*
X70235866Y-69735000D01*
X69267392Y-70136155D01*
X68526155Y-70877392D01*
X68125000Y-71845866D01*
X67070249Y-71845866D01*
X66953910Y-71565000D01*
X67295113Y-71565000D01*
X67932799Y-71300862D01*
X68420862Y-70812799D01*
X68685000Y-70175113D01*
X68685000Y-69484887D01*
X68420862Y-68847201D01*
X67932799Y-68359138D01*
X67295113Y-68095000D01*
X66604887Y-68095000D01*
X65967201Y-68359138D01*
X65479138Y-68847201D01*
X65215000Y-69484887D01*
X65215000Y-70175113D01*
X65479138Y-70812799D01*
X65551339Y-70885000D01*
X65384615Y-70885000D01*
X64838815Y-71111078D01*
X64421078Y-71528815D01*
X64195000Y-72074615D01*
X64195000Y-72618890D01*
X59055000Y-67478890D01*
X59055000Y-67444561D01*
X58848029Y-66944887D01*
X71565000Y-66944887D01*
X71565000Y-67635113D01*
X71829138Y-68272799D01*
X72317201Y-68760862D01*
X72954887Y-69025000D01*
X73645113Y-69025000D01*
X74282799Y-68760862D01*
X74770862Y-68272799D01*
X75035000Y-67635113D01*
X75035000Y-66944887D01*
X90615000Y-66944887D01*
X90615000Y-67635113D01*
X90879138Y-68272799D01*
X91367201Y-68760862D01*
X92004887Y-69025000D01*
X92695113Y-69025000D01*
X93332799Y-68760862D01*
X93820862Y-68272799D01*
X94085000Y-67635113D01*
X94085000Y-66944887D01*
X109665000Y-66944887D01*
X109665000Y-67635113D01*
X109929138Y-68272799D01*
X110417201Y-68760862D01*
X111054887Y-69025000D01*
X111745113Y-69025000D01*
X112382799Y-68760862D01*
X112870862Y-68272799D01*
X113135000Y-67635113D01*
X113135000Y-66944887D01*
X128715000Y-66944887D01*
X128715000Y-67635113D01*
X128979138Y-68272799D01*
X129467201Y-68760862D01*
X130104887Y-69025000D01*
X130795113Y-69025000D01*
X131432799Y-68760862D01*
X131920862Y-68272799D01*
X132185000Y-67635113D01*
X132185000Y-66944887D01*
X131920862Y-66307201D01*
X131432799Y-65819138D01*
X130795113Y-65555000D01*
X130104887Y-65555000D01*
X129467201Y-65819138D01*
X128979138Y-66307201D01*
X128715000Y-66944887D01*
X113135000Y-66944887D01*
X112870862Y-66307201D01*
X112382799Y-65819138D01*
X111745113Y-65555000D01*
X111054887Y-65555000D01*
X110417201Y-65819138D01*
X109929138Y-66307201D01*
X109665000Y-66944887D01*
X94085000Y-66944887D01*
X93820862Y-66307201D01*
X93332799Y-65819138D01*
X92695113Y-65555000D01*
X92004887Y-65555000D01*
X91367201Y-65819138D01*
X90879138Y-66307201D01*
X90615000Y-66944887D01*
X75035000Y-66944887D01*
X74770862Y-66307201D01*
X74282799Y-65819138D01*
X73645113Y-65555000D01*
X72954887Y-65555000D01*
X72317201Y-65819138D01*
X71829138Y-66307201D01*
X71565000Y-66944887D01*
X58848029Y-66944887D01*
X58836534Y-66917138D01*
X58432862Y-66513466D01*
X58303784Y-66460000D01*
X58432862Y-66406534D01*
X58836534Y-66002862D01*
X59055000Y-65475439D01*
X59055000Y-64904561D01*
X58836534Y-64377138D01*
X58432862Y-63973466D01*
X58303784Y-63920000D01*
X58432862Y-63866534D01*
X58836534Y-63462862D01*
X59055000Y-62935439D01*
X59055000Y-62364561D01*
X58836534Y-61837138D01*
X58432862Y-61433466D01*
X58303784Y-61380000D01*
X58432862Y-61326534D01*
X58836534Y-60922862D01*
X59055000Y-60395439D01*
X59055000Y-59824561D01*
X58836534Y-59297138D01*
X58432862Y-58893466D01*
X58319417Y-58846475D01*
X58374005Y-58823864D01*
X58448139Y-58577745D01*
X57620000Y-57749605D01*
X56791861Y-58577745D01*
X56865995Y-58823864D01*
X56924448Y-58844874D01*
X56807138Y-58893466D01*
X56403466Y-59297138D01*
X56185000Y-59824561D01*
X56185000Y-60081289D01*
X51840225Y-64426065D01*
X51753808Y-64483807D01*
X51696066Y-64570224D01*
X51525052Y-64826164D01*
X51444724Y-65230000D01*
X51465001Y-65331939D01*
X51465000Y-94722761D01*
X51113914Y-95073847D01*
X50865000Y-95674778D01*
X47635000Y-95674778D01*
X47386086Y-95073847D01*
X46926153Y-94613914D01*
X46325222Y-94365000D01*
X45674778Y-94365000D01*
X45073847Y-94613914D01*
X44613914Y-95073847D01*
X44365000Y-95674778D01*
X40710000Y-95674778D01*
X40710000Y-64904561D01*
X40945000Y-64904561D01*
X40945000Y-65475439D01*
X41163466Y-66002862D01*
X41567138Y-66406534D01*
X41696216Y-66460000D01*
X41567138Y-66513466D01*
X41163466Y-66917138D01*
X40945000Y-67444561D01*
X40945000Y-68015439D01*
X41163466Y-68542862D01*
X41567138Y-68946534D01*
X41696216Y-69000000D01*
X41567138Y-69053466D01*
X41163466Y-69457138D01*
X40945000Y-69984561D01*
X40945000Y-70555439D01*
X41163466Y-71082862D01*
X41567138Y-71486534D01*
X41696216Y-71540000D01*
X41567138Y-71593466D01*
X41163466Y-71997138D01*
X40945000Y-72524561D01*
X40945000Y-73095439D01*
X41163466Y-73622862D01*
X41567138Y-74026534D01*
X41696216Y-74080000D01*
X41567138Y-74133466D01*
X41163466Y-74537138D01*
X40945000Y-75064561D01*
X40945000Y-75635439D01*
X41163466Y-76162862D01*
X41567138Y-76566534D01*
X41696216Y-76620000D01*
X41567138Y-76673466D01*
X41163466Y-77077138D01*
X40945000Y-77604561D01*
X40945000Y-78175439D01*
X41163466Y-78702862D01*
X41567138Y-79106534D01*
X41696216Y-79160000D01*
X41567138Y-79213466D01*
X41163466Y-79617138D01*
X40945000Y-80144561D01*
X40945000Y-80715439D01*
X41163466Y-81242862D01*
X41567138Y-81646534D01*
X41696216Y-81700000D01*
X41567138Y-81753466D01*
X41163466Y-82157138D01*
X40945000Y-82684561D01*
X40945000Y-83255439D01*
X41163466Y-83782862D01*
X41567138Y-84186534D01*
X42094561Y-84405000D01*
X42665439Y-84405000D01*
X43192862Y-84186534D01*
X43596534Y-83782862D01*
X43815000Y-83255439D01*
X43815000Y-82684561D01*
X43596534Y-82157138D01*
X43192862Y-81753466D01*
X43063784Y-81700000D01*
X43192862Y-81646534D01*
X43596534Y-81242862D01*
X43815000Y-80715439D01*
X43815000Y-80144561D01*
X43596534Y-79617138D01*
X43192862Y-79213466D01*
X43063784Y-79160000D01*
X43192862Y-79106534D01*
X43596534Y-78702862D01*
X43815000Y-78175439D01*
X43815000Y-77604561D01*
X43596534Y-77077138D01*
X43192862Y-76673466D01*
X43063784Y-76620000D01*
X43192862Y-76566534D01*
X43596534Y-76162862D01*
X43815000Y-75635439D01*
X43815000Y-75064561D01*
X43596534Y-74537138D01*
X43192862Y-74133466D01*
X43063784Y-74080000D01*
X43192862Y-74026534D01*
X43596534Y-73622862D01*
X43815000Y-73095439D01*
X43815000Y-72524561D01*
X43596534Y-71997138D01*
X43192862Y-71593466D01*
X43063784Y-71540000D01*
X43192862Y-71486534D01*
X43596534Y-71082862D01*
X43815000Y-70555439D01*
X43815000Y-69984561D01*
X43596534Y-69457138D01*
X43192862Y-69053466D01*
X43063784Y-69000000D01*
X43192862Y-68946534D01*
X43596534Y-68542862D01*
X43815000Y-68015439D01*
X43815000Y-67444561D01*
X43596534Y-66917138D01*
X43192862Y-66513466D01*
X43063784Y-66460000D01*
X43192862Y-66406534D01*
X43596534Y-66002862D01*
X43815000Y-65475439D01*
X43815000Y-64904561D01*
X43596534Y-64377138D01*
X43192862Y-63973466D01*
X43079417Y-63926475D01*
X43134005Y-63903864D01*
X43208139Y-63657745D01*
X42380000Y-62829605D01*
X41551861Y-63657745D01*
X41625995Y-63903864D01*
X41684448Y-63924874D01*
X41567138Y-63973466D01*
X41163466Y-64377138D01*
X40945000Y-64904561D01*
X40710000Y-64904561D01*
X40710000Y-62433223D01*
X40933035Y-62433223D01*
X40960222Y-63003454D01*
X41126136Y-63404005D01*
X41372255Y-63478139D01*
X42200395Y-62650000D01*
X42559605Y-62650000D01*
X43387745Y-63478139D01*
X43633864Y-63404005D01*
X43826965Y-62866777D01*
X43799778Y-62296546D01*
X43633864Y-61895995D01*
X43387745Y-61821861D01*
X42559605Y-62650000D01*
X42200395Y-62650000D01*
X41372255Y-61821861D01*
X41126136Y-61895995D01*
X40933035Y-62433223D01*
X40710000Y-62433223D01*
X40710000Y-61117745D01*
X41551861Y-61117745D01*
X41625995Y-61363864D01*
X41667709Y-61378858D01*
X41625995Y-61396136D01*
X41551861Y-61642255D01*
X42380000Y-62470395D01*
X43208139Y-61642255D01*
X43134005Y-61396136D01*
X43092291Y-61381142D01*
X43134005Y-61363864D01*
X43208139Y-61117745D01*
X42380000Y-60289605D01*
X41551861Y-61117745D01*
X40710000Y-61117745D01*
X40710000Y-59893223D01*
X40933035Y-59893223D01*
X40960222Y-60463454D01*
X41126136Y-60864005D01*
X41372255Y-60938139D01*
X42200395Y-60110000D01*
X42559605Y-60110000D01*
X43387745Y-60938139D01*
X43633864Y-60864005D01*
X43826965Y-60326777D01*
X43799778Y-59756546D01*
X43633864Y-59355995D01*
X43387745Y-59281861D01*
X42559605Y-60110000D01*
X42200395Y-60110000D01*
X41372255Y-59281861D01*
X41126136Y-59355995D01*
X40933035Y-59893223D01*
X40710000Y-59893223D01*
X40710000Y-54230000D01*
X40932560Y-54230000D01*
X40932560Y-55830000D01*
X40981843Y-56077765D01*
X41122191Y-56287809D01*
X41332235Y-56428157D01*
X41465866Y-56454738D01*
X41163466Y-56757138D01*
X40945000Y-57284561D01*
X40945000Y-57855439D01*
X41163466Y-58382862D01*
X41567138Y-58786534D01*
X41680583Y-58833525D01*
X41625995Y-58856136D01*
X41551861Y-59102255D01*
X42380000Y-59930395D01*
X43208139Y-59102255D01*
X43134005Y-58856136D01*
X43075552Y-58835126D01*
X43192862Y-58786534D01*
X43596534Y-58382862D01*
X43815000Y-57855439D01*
X43815000Y-57353223D01*
X56173035Y-57353223D01*
X56200222Y-57923454D01*
X56366136Y-58324005D01*
X56612255Y-58398139D01*
X57440395Y-57570000D01*
X57799605Y-57570000D01*
X58627745Y-58398139D01*
X58873864Y-58324005D01*
X59066965Y-57786777D01*
X59039778Y-57216546D01*
X58873864Y-56815995D01*
X58627745Y-56741861D01*
X57799605Y-57570000D01*
X57440395Y-57570000D01*
X56612255Y-56741861D01*
X56366136Y-56815995D01*
X56173035Y-57353223D01*
X43815000Y-57353223D01*
X43815000Y-57284561D01*
X43596534Y-56757138D01*
X43294134Y-56454738D01*
X43427765Y-56428157D01*
X43637809Y-56287809D01*
X43778157Y-56077765D01*
X43827440Y-55830000D01*
X43827440Y-54744561D01*
X56185000Y-54744561D01*
X56185000Y-55315439D01*
X56403466Y-55842862D01*
X56807138Y-56246534D01*
X56920583Y-56293525D01*
X56865995Y-56316136D01*
X56791861Y-56562255D01*
X57620000Y-57390395D01*
X58448139Y-56562255D01*
X58374005Y-56316136D01*
X58315552Y-56295126D01*
X58432862Y-56246534D01*
X58836534Y-55842862D01*
X59055000Y-55315439D01*
X59055000Y-54744561D01*
X58844832Y-54237171D01*
X61165000Y-54237171D01*
X61165000Y-55762829D01*
X61748844Y-57172353D01*
X62827647Y-58251156D01*
X64237171Y-58835000D01*
X65762829Y-58835000D01*
X67172353Y-58251156D01*
X68251156Y-57172353D01*
X68835000Y-55762829D01*
X68835000Y-54237171D01*
X131165000Y-54237171D01*
X131165000Y-55762829D01*
X131748844Y-57172353D01*
X132827647Y-58251156D01*
X134237171Y-58835000D01*
X135762829Y-58835000D01*
X137172353Y-58251156D01*
X138251156Y-57172353D01*
X138835000Y-55762829D01*
X138835000Y-54237171D01*
X138251156Y-52827647D01*
X137172353Y-51748844D01*
X135762829Y-51165000D01*
X134237171Y-51165000D01*
X132827647Y-51748844D01*
X131748844Y-52827647D01*
X131165000Y-54237171D01*
X68835000Y-54237171D01*
X68251156Y-52827647D01*
X67172353Y-51748844D01*
X65762829Y-51165000D01*
X64237171Y-51165000D01*
X62827647Y-51748844D01*
X61748844Y-52827647D01*
X61165000Y-54237171D01*
X58844832Y-54237171D01*
X58836534Y-54217138D01*
X58432862Y-53813466D01*
X57905439Y-53595000D01*
X57334561Y-53595000D01*
X56807138Y-53813466D01*
X56403466Y-54217138D01*
X56185000Y-54744561D01*
X43827440Y-54744561D01*
X43827440Y-54230000D01*
X43778157Y-53982235D01*
X43637809Y-53772191D01*
X43427765Y-53631843D01*
X43180000Y-53582560D01*
X41580000Y-53582560D01*
X41332235Y-53631843D01*
X41122191Y-53772191D01*
X40981843Y-53982235D01*
X40932560Y-54230000D01*
X40710000Y-54230000D01*
X40710000Y-50710000D01*
X139290000Y-50710000D01*
X139290001Y-149290000D01*
G04 #@! TD*
M02*
