M48
;DRILL file {KiCad (5.0.0)} date 09/08/18 04:15:41
;FORMAT={3:3/ absolute / metric / suppress leading zeros}
FMAT,2
METRIC,TZ
T1C0.800
T2C1.100
T3C1.500
T4C3.200
T5C1.700
T6C4.000
%
G90
G05
M71
T1
X124100Y-81915
X131720Y-81915
X66950Y-139065
X74570Y-139065
X86000Y-100965
X93620Y-100965
X66950Y-81915
X74570Y-81915
X105050Y-139065
X112670Y-139065
X105050Y-120015
X112670Y-120015
X105050Y-100965
X112670Y-100965
X66950Y-120015
X74570Y-120015
X66950Y-100965
X74570Y-100965
X124100Y-100965
X131720Y-100965
X124100Y-139065
X131720Y-139065
X86000Y-120015
X93620Y-120015
X86000Y-139065
X93620Y-139065
X105050Y-81915
X112670Y-81915
X124100Y-120015
X131720Y-120015
X86000Y-81915
X93620Y-81915
T2
X46000Y-96000
X46000Y-100500
X52500Y-96000
X52500Y-100500
X42380Y-55030
X42380Y-57570
X42380Y-60110
X42380Y-62650
X42380Y-65190
X42380Y-67730
X42380Y-70270
X42380Y-72810
X42380Y-75350
X42380Y-77890
X42380Y-80430
X42380Y-82970
X57620Y-55030
X57620Y-57570
X57620Y-60110
X57620Y-62650
X57620Y-65190
X57620Y-67730
X57620Y-70270
X57620Y-72810
X57620Y-75350
X57620Y-77890
X57620Y-80430
X57620Y-82970
T3
X86000Y-126980
X92350Y-124440
X105050Y-88880
X111400Y-86340
X124100Y-69830
X130450Y-67290
X105050Y-126980
X111400Y-124440
X86000Y-107930
X92350Y-105390
X66950Y-126980
X73300Y-124440
X66950Y-88880
X73300Y-86340
X66950Y-69830
X73300Y-67290
X66950Y-107930
X73300Y-105390
X124100Y-107930
X130450Y-105390
X124100Y-88880
X130450Y-86340
X105050Y-107930
X111400Y-105390
X124100Y-126980
X130450Y-124440
X86000Y-69830
X92350Y-67290
X105050Y-69830
X111400Y-67290
X86000Y-88880
X92350Y-86340
T4
X135000Y-145000
X65000Y-55000
X45000Y-145000
X135000Y-55000
T5
X122830Y-129520
X132990Y-129520
X84730Y-72370
X94890Y-72370
X103780Y-72370
X113940Y-72370
X84730Y-91420
X94890Y-91420
X84730Y-129520
X94890Y-129520
X103780Y-91420
X113940Y-91420
X122830Y-72370
X132990Y-72370
X103780Y-129520
X113940Y-129520
X84730Y-110470
X94890Y-110470
X65680Y-129520
X75840Y-129520
X65680Y-91420
X75840Y-91420
X65680Y-72370
X75840Y-72370
X65680Y-110470
X75840Y-110470
X122830Y-110470
X132990Y-110470
X122830Y-91420
X132990Y-91420
X103780Y-110470
X113940Y-110470
T6
X89810Y-129520
X108860Y-91420
X127910Y-72370
X108860Y-129520
X89810Y-110470
X70760Y-129520
X70760Y-91420
X70760Y-72370
X70760Y-110470
X127910Y-110470
X127910Y-91420
X108860Y-110470
X127910Y-129520
X89810Y-72370
X108860Y-72370
X89810Y-91420
T0
M30
